; NON-PLATED HOLES START AT T1
; THROUGH (PLATED) HOLES START AT T100
M48
INCH
T1C0.137795
T100C0.100000
T101C0.047244
T102C0.035000
T103C0.042000
T104C0.030000
T105C0.086000
T106C0.031497
%
T1
X000979Y000971
X000979Y017506
X035310Y000971
X035310Y017506
T100
X024129Y005418
X024129Y003018
X026029Y004218
T101
X024129Y017113
X020192Y017113
X001412Y008176
X001412Y004239
X012239Y017113
X004247Y017152
X016097Y017113
X008184Y017152
X034601Y008136
X028144Y017113
X034680Y004199
X032081Y017113
T102
X004837Y010892
X014680Y010735
X007239Y017309
X016131Y009268
X015192Y017309
X031097Y006168
X024995Y010498
X011955Y008223
X004286Y012388
X007837Y010892
X016131Y008268
X033066Y013372
X021176Y017309
X019131Y009268
X027357Y008364
X031097Y017309
X013499Y008286
X027160Y013372
X005152Y009160
X016131Y007268
X027357Y011365
X011255Y013372
X009247Y010420
X019131Y008268
X035034Y007152
X030113Y013372
X013499Y011286
X008955Y008223
X007357Y003727
X029129Y017309
X016131Y006268
X031097Y009120
X020349Y007971
X019131Y007268
X011955Y005223
X005152Y003254
X020349Y010971
X018839Y011142
X012089Y009317
X014207Y013372
X019208Y013372
X022160Y013372
X021609Y006010
X016131Y005268
X019131Y006268
X030113Y008136
X031097Y003215
X025995Y010498
X016131Y004268
X012010Y011588
X028459Y011207
X019131Y005268
X030113Y004199
X005152Y006207
X008223Y012388
X008955Y005223
X009089Y009317
X016131Y003268
X030577Y011807
X019131Y004268
X006136Y004239
X021137Y007498
X009955Y008223
X019131Y003268
X008357Y003727
X033577Y011807
X032081Y012388
X021137Y010498
X006255Y013372
X013223Y017309
X025113Y013372
X010955Y008223
X020552Y003203
X001215Y007191
X023144Y017309
X035034Y005183
X003302Y013372
X009207Y013372
X017160Y013372
X005270Y017309
X001215Y005223
X024129Y012388
X029459Y011207
X009955Y005223
X016176Y012388
X010955Y005223
X028144Y012388
X006136Y008176
X012239Y012388
X017839Y011142
X020192Y012388
X014680Y007735
T103
X027987Y007191
X025625Y008530
X024625Y008530
X023625Y008530
X009562Y003569
X012542Y003569
X027987Y004211
T104
X023713Y010498
X022711Y010498
T105
X019208Y015341
X025113Y015341
X003184Y003254
X033066Y003215
X011255Y015341
X003302Y015341
X017160Y015341
X027160Y015341
X009207Y015341
X033066Y009120
X003184Y009160
X033066Y015341
T106
X034916Y011758
X034916Y010774
T00
M30
