G04 MADE WITH FRITZING*
G04 WWW.FRITZING.ORG*
G04 DOUBLE SIDED*
G04 HOLES PLATED*
G04 CONTOUR ON CENTER OF CONTOUR VECTOR*
%ASAXBY*%
%FSLAX23Y23*%
%MOIN*%
%OFA0B0*%
%SFA1.0B1.0*%
%ADD10C,0.080000*%
%ADD11C,0.085000*%
%ADD12C,0.136000*%
%ADD13C,0.092000*%
%ADD14C,0.150000*%
%ADD15C,0.072992*%
%ADD16C,0.147795*%
%ADD17C,0.088740*%
%ADD18R,0.092000X0.092000*%
%ADD19R,0.085000X0.085000*%
%ADD20R,0.072992X0.072992*%
%ADD21C,0.030000*%
%LNMASK1*%
G90*
G70*
G54D10*
X2271Y1050D03*
X2371Y1050D03*
G54D11*
X2511Y1337D03*
X2413Y1239D03*
X2216Y1337D03*
X2019Y1239D03*
X1921Y1337D03*
X2314Y1731D03*
G54D12*
X1921Y1534D03*
X2511Y1534D03*
G54D11*
X2118Y1731D03*
X921Y1337D03*
X822Y1239D03*
X626Y1337D03*
X429Y1239D03*
X330Y1337D03*
X724Y1731D03*
G54D12*
X330Y1534D03*
X921Y1534D03*
G54D11*
X527Y1731D03*
X3307Y1337D03*
X3208Y1239D03*
X3011Y1337D03*
X2814Y1239D03*
X2716Y1337D03*
X3110Y1731D03*
G54D12*
X2716Y1534D03*
X3307Y1534D03*
G54D11*
X2913Y1731D03*
X1716Y1337D03*
X1618Y1239D03*
X1421Y1337D03*
X1224Y1239D03*
X1126Y1337D03*
X1519Y1731D03*
G54D12*
X1126Y1534D03*
X1716Y1534D03*
G54D11*
X1322Y1731D03*
X3358Y1181D03*
X3058Y1181D03*
X2736Y1137D03*
X2736Y836D03*
X2161Y601D03*
X2055Y320D03*
X2846Y1121D03*
X2946Y1121D03*
X2114Y1050D03*
X2114Y750D03*
X925Y1042D03*
X1201Y1159D03*
X1784Y1114D03*
X1884Y1114D03*
X2035Y1097D03*
X2035Y797D03*
X1468Y1074D03*
X1468Y774D03*
X484Y1089D03*
X784Y1089D03*
X1350Y1129D03*
X1350Y829D03*
X909Y932D03*
X1209Y932D03*
G54D13*
X956Y357D03*
X1254Y357D03*
G54D11*
X3110Y322D03*
X3011Y420D03*
X3110Y617D03*
X3011Y814D03*
X3110Y912D03*
X3503Y518D03*
G54D12*
X3307Y912D03*
X3307Y322D03*
G54D11*
X3503Y715D03*
X515Y916D03*
X614Y818D03*
X515Y621D03*
X614Y424D03*
X515Y325D03*
X122Y719D03*
G54D12*
X318Y325D03*
X318Y916D03*
G54D11*
X122Y522D03*
X896Y522D03*
X896Y822D03*
X996Y522D03*
X996Y822D03*
X1096Y522D03*
X1096Y822D03*
X1196Y522D03*
X1196Y822D03*
X736Y373D03*
X836Y373D03*
X1613Y927D03*
X1913Y927D03*
X1613Y827D03*
X1913Y827D03*
X1613Y727D03*
X1913Y727D03*
X1613Y627D03*
X1913Y627D03*
X1613Y527D03*
X1913Y527D03*
X1613Y427D03*
X1913Y427D03*
X1613Y327D03*
X1913Y327D03*
G54D14*
X2413Y542D03*
X2413Y302D03*
X2603Y422D03*
G54D13*
X2563Y853D03*
X2463Y853D03*
X2363Y853D03*
G54D11*
X2500Y1050D03*
X2600Y1050D03*
G54D13*
X2799Y719D03*
X2799Y421D03*
G54D15*
X3492Y1077D03*
X3492Y1176D03*
G54D16*
X3531Y1751D03*
X3531Y97D03*
X98Y97D03*
X98Y1751D03*
G54D17*
X141Y424D03*
X141Y818D03*
X3468Y420D03*
X3460Y814D03*
X1610Y1711D03*
X818Y1715D03*
X425Y1715D03*
X1224Y1711D03*
X2019Y1711D03*
X2413Y1711D03*
X2814Y1711D03*
X3208Y1711D03*
G54D18*
X955Y357D03*
G54D19*
X1613Y927D03*
X2500Y1050D03*
G54D20*
X3492Y1077D03*
G54D21*
G36*
X868Y550D02*
X923Y550D01*
X923Y495D01*
X868Y495D01*
X868Y550D01*
G37*
D02*
G36*
X2532Y822D02*
X2532Y884D01*
X2594Y884D01*
X2594Y822D01*
X2532Y822D01*
G37*
D02*
G36*
X2830Y689D02*
X2768Y689D01*
X2768Y751D01*
X2830Y751D01*
X2830Y689D01*
G37*
D02*
G04 End of Mask1*
M02*