; NON-PLATED HOLES START AT T1
; THROUGH (PLATED) HOLES START AT T100
M48
INCH
T100C0.040278
T101C0.031496
T102C0.031497
T103C0.047244
T104C0.086000
T105C0.038000
T106C0.035000
T107C0.042000
%
T100
X002116Y003510
X021116Y003510
X021116Y017110
X002116Y015510
X021116Y014110
X002116Y008510
X021116Y008510
X002116Y012510
X021116Y011110
X002116Y005510
X021116Y005510
X002116Y002510
X021116Y002510
X021116Y019110
X021116Y016110
X002116Y014510
X021116Y013110
X021116Y007510
X002116Y011510
X021116Y010110
X002116Y004510
X021116Y004510
X002116Y001510
X021116Y001510
X021116Y018110
X021116Y015110
X002116Y009510
X002116Y013510
X021116Y012110
X002116Y006510
X021116Y006510
X002116Y010510
T101
X021369Y021684
X019794Y021684
X021369Y022472
X020581Y021684
X019794Y022472
X020581Y022472
T102
X019851Y016714
X019851Y015730
X005075Y008076
X005075Y009060
T103
X012135Y022039
X022392Y022078
X018770Y022078
X004215Y022076
X016112Y021999
X008191Y022036
T104
X011190Y020228
X003270Y020225
X017096Y020228
X009175Y020225
T105
X016888Y001547
X015888Y012936
X014888Y007936
X005925Y004492
X016888Y005936
X017888Y010936
X011888Y011936
X010888Y001547
X003337Y012527
X022352Y010153
X017888Y009936
X012888Y004936
X003334Y006504
X010888Y005936
X016888Y012936
X022352Y005486
X015888Y002547
X013888Y008936
X004925Y005492
X009888Y002547
X018888Y010936
X012888Y011936
X011888Y001547
X015888Y006936
X006925Y003492
X022352Y016153
X018888Y009936
X009888Y006936
X017888Y004936
X011888Y005936
X003334Y001504
X016888Y002547
X015888Y013936
X014888Y008936
X005925Y005492
X012888Y001547
X016888Y006936
X017888Y011936
X010888Y002547
X003337Y013527
X022352Y011153
X013888Y010936
X018888Y004936
X012888Y005936
X010888Y006936
X016888Y013936
X022352Y006486
X015888Y003547
X013888Y009936
X004925Y006492
X009888Y003547
X018888Y011936
X011888Y002547
X017888Y001547
X015888Y007936
X006925Y004492
X022352Y017153
X014888Y010936
X009888Y007936
X017888Y005936
X011888Y006936
X003334Y002504
X016888Y003547
X014888Y009936
X022352Y001486
X013888Y004936
X005925Y006492
X004925Y001492
X012888Y002547
X018888Y001547
X016888Y007936
X017888Y012936
X010888Y003547
X003337Y014527
X022352Y012153
X013888Y011936
X018888Y005936
X012888Y006936
X010888Y007936
X022352Y007486
X014888Y004936
X005925Y001492
X018888Y012936
X011888Y003547
X017888Y002547
X015888Y008936
X006925Y005492
X022352Y018153
X014888Y011936
X009888Y008936
X013888Y001547
X017888Y006936
X011888Y007936
X003334Y003504
X003337Y008527
X022352Y002486
X013888Y005936
X004925Y002492
X012888Y003547
X018888Y002547
X016888Y008936
X017888Y013936
X003337Y015527
X014888Y001547
X022352Y013153
X013888Y012936
X018888Y006936
X012888Y007936
X010888Y008936
X022352Y008486
X015888Y010936
X014888Y005936
X005925Y002492
X018888Y013936
X009888Y010936
X017888Y003547
X015888Y009936
X006925Y006492
X022352Y019153
X014888Y012936
X003337Y010527
X009888Y009936
X013888Y002547
X017888Y007936
X011888Y008936
X003334Y004504
X003337Y009527
X016888Y010936
X022352Y003486
X013888Y006936
X004925Y003492
X018888Y003547
X016888Y009936
X015888Y004936
X010888Y010936
X006925Y001492
X014888Y002547
X022352Y014153
X013888Y013936
X018888Y007936
X012888Y008936
X009888Y004936
X010888Y009936
X015888Y011936
X014888Y006936
X005925Y003492
X009888Y011936
X016888Y004936
X011888Y010936
X014888Y013936
X003337Y011527
X013888Y003547
X017888Y008936
X011888Y009936
X003334Y005504
X010888Y004936
X016888Y011936
X022352Y004486
X015888Y001547
X013888Y007936
X004925Y004492
X009888Y001547
X012888Y010936
X015888Y005936
X010888Y011936
X006925Y002492
X014888Y003547
X022352Y015153
X018888Y008936
X012888Y009936
X009888Y005936
X011888Y004936
T106
X013159Y022196
X006603Y015279
X007207Y022194
X006032Y016099
X010650Y016120
X007650Y014120
X011190Y018259
X014143Y018259
X013198Y016514
X006585Y009086
X004254Y017273
X004454Y012034
X010650Y014120
X009175Y018257
X008907Y010307
X012077Y013101
X007013Y012034
X003270Y018257
X006223Y018257
X018988Y017359
X007650Y015120
X008388Y011751
X008191Y017273
X010650Y015120
X012077Y016101
X015127Y022196
X017096Y018259
X005238Y022194
X007650Y013120
X013198Y015513
X016111Y017275
X004454Y010262
X006585Y008086
X010650Y013120
X012174Y017275
X018988Y018359
X007650Y016120
X007013Y010262
T107
X006220Y013675
X004518Y016122
T00
M30
