G04 MADE WITH FRITZING*
G04 WWW.FRITZING.ORG*
G04 DOUBLE SIDED*
G04 HOLES PLATED*
G04 CONTOUR ON CENTER OF CONTOUR VECTOR*
%ASAXBY*%
%FSLAX23Y23*%
%MOIN*%
%OFA0B0*%
%SFA1.0B1.0*%
%ADD10C,0.075000*%
%ADD11C,0.078000*%
%ADD12C,0.065278*%
%ADD13C,0.062992*%
%ADD14C,0.051496*%
%ADD15C,0.067244*%
%ADD16C,0.082000*%
%ADD17C,0.078740*%
%ADD18C,0.126000*%
%ADD19R,0.062992X0.062992*%
%ADD20R,0.075000X0.075000*%
%ADD21C,0.024000*%
%ADD22C,0.048000*%
%ADD23C,0.032000*%
%ADD24C,0.020000*%
%LNCOPPER0*%
G90*
G70*
G54D10*
X464Y1384D03*
X116Y2212D03*
X1739Y2233D03*
X1389Y2073D03*
X2360Y2232D03*
X489Y2010D03*
X1532Y1558D03*
X1185Y1483D03*
X821Y546D03*
G54D11*
X1889Y155D03*
X1789Y155D03*
X1689Y155D03*
X1589Y155D03*
X1489Y155D03*
X1389Y155D03*
X1289Y155D03*
X1189Y155D03*
X1089Y155D03*
X989Y155D03*
X1889Y255D03*
X1789Y255D03*
X1689Y255D03*
X1589Y255D03*
X1489Y255D03*
X1389Y255D03*
X1289Y255D03*
X1189Y255D03*
X1089Y255D03*
X989Y255D03*
X1889Y355D03*
X1789Y355D03*
X1689Y355D03*
X1589Y355D03*
X1489Y355D03*
X1389Y355D03*
X1289Y355D03*
X1189Y355D03*
X1089Y355D03*
X989Y355D03*
X989Y1194D03*
X989Y1094D03*
X989Y994D03*
X989Y894D03*
X989Y794D03*
X989Y694D03*
X989Y594D03*
X989Y494D03*
X1189Y1194D03*
X1189Y1094D03*
X1189Y994D03*
X1189Y894D03*
X1189Y794D03*
X1189Y694D03*
X1189Y594D03*
X1189Y494D03*
X1089Y1194D03*
X1089Y1094D03*
X1089Y994D03*
X1089Y894D03*
X1089Y794D03*
X1089Y694D03*
X1089Y594D03*
X1089Y494D03*
X1289Y1194D03*
X1289Y1094D03*
X1289Y994D03*
X1289Y894D03*
X1289Y794D03*
X1289Y694D03*
X1289Y594D03*
X1289Y494D03*
X693Y649D03*
X693Y549D03*
X693Y449D03*
X693Y349D03*
X693Y249D03*
X693Y149D03*
X593Y649D03*
X593Y549D03*
X593Y449D03*
X593Y349D03*
X593Y249D03*
X593Y149D03*
X1789Y1394D03*
X1789Y1294D03*
X1789Y1194D03*
X1789Y1094D03*
X1789Y994D03*
X1789Y894D03*
X1789Y794D03*
X1789Y694D03*
X1789Y594D03*
X1789Y494D03*
X1889Y1394D03*
X1889Y1294D03*
X1889Y1194D03*
X1889Y1094D03*
X1889Y994D03*
X1889Y894D03*
X1889Y794D03*
X1889Y694D03*
X1889Y594D03*
X1889Y494D03*
X1389Y1394D03*
X1389Y1294D03*
X1389Y1194D03*
X1389Y1094D03*
X1389Y994D03*
X1389Y894D03*
X1389Y794D03*
X1389Y694D03*
X1389Y594D03*
X1389Y494D03*
X1489Y1394D03*
X1489Y1294D03*
X1489Y1194D03*
X1489Y1094D03*
X1489Y994D03*
X1489Y894D03*
X1489Y794D03*
X1489Y694D03*
X1489Y594D03*
X1489Y494D03*
X1689Y1394D03*
X1689Y1294D03*
X1689Y1194D03*
X1689Y1094D03*
X1689Y994D03*
X1689Y894D03*
X1689Y794D03*
X1689Y694D03*
X1689Y594D03*
X1689Y494D03*
X1589Y1394D03*
X1589Y1294D03*
X1589Y1194D03*
X1589Y1094D03*
X1589Y994D03*
X1589Y894D03*
X1589Y794D03*
X1589Y694D03*
X1589Y594D03*
X1589Y494D03*
G54D10*
X839Y1175D03*
X891Y1031D03*
G54D11*
X493Y149D03*
X493Y249D03*
X493Y349D03*
X493Y449D03*
X493Y549D03*
X493Y649D03*
G54D12*
X212Y551D03*
X212Y451D03*
X212Y351D03*
X212Y251D03*
X212Y151D03*
X2112Y1011D03*
X2112Y1111D03*
X2112Y1211D03*
X2112Y1311D03*
X2112Y1411D03*
X2112Y1511D03*
X2112Y1611D03*
X2112Y1711D03*
X2112Y1811D03*
X2112Y1911D03*
X2112Y151D03*
X2112Y251D03*
X2112Y351D03*
X2112Y451D03*
X2112Y551D03*
X2112Y651D03*
X2112Y751D03*
X2112Y851D03*
X212Y1451D03*
X212Y1551D03*
X212Y1351D03*
X212Y1251D03*
X212Y1151D03*
X212Y1051D03*
X212Y951D03*
X212Y851D03*
X212Y651D03*
G54D13*
X1985Y1573D03*
X1985Y1671D03*
X508Y906D03*
X508Y808D03*
G54D10*
X445Y1203D03*
X701Y1203D03*
X445Y1026D03*
X701Y1026D03*
G54D14*
X1979Y2247D03*
X1979Y2168D03*
X2058Y2247D03*
X2058Y2168D03*
X2137Y2247D03*
X2137Y2168D03*
G54D15*
X2239Y2208D03*
X1877Y2208D03*
G54D10*
X1208Y1610D03*
X1208Y1310D03*
G54D16*
X452Y1612D03*
X622Y1368D03*
G54D17*
X1611Y2200D03*
X819Y2204D03*
X1214Y2204D03*
X422Y2208D03*
G54D11*
X333Y150D03*
X333Y250D03*
X333Y350D03*
X333Y450D03*
X333Y550D03*
X333Y650D03*
X2235Y1015D03*
X2235Y1115D03*
X2235Y1215D03*
X2235Y1315D03*
X2235Y1415D03*
X2235Y1515D03*
X2235Y1615D03*
X2235Y1715D03*
X2235Y1815D03*
X2235Y1915D03*
X2235Y149D03*
X2235Y249D03*
X2235Y349D03*
X2235Y449D03*
X2235Y549D03*
X2235Y649D03*
X2235Y749D03*
X2235Y849D03*
X334Y853D03*
X334Y953D03*
X334Y1053D03*
X334Y1153D03*
X334Y1253D03*
X334Y1353D03*
X334Y1453D03*
X334Y1553D03*
G54D10*
X918Y1826D03*
X819Y1727D03*
X622Y1826D03*
X425Y1727D03*
X327Y1826D03*
X721Y2219D03*
G54D18*
X327Y2023D03*
X918Y2023D03*
G54D10*
X524Y2219D03*
X1710Y1826D03*
X1611Y1728D03*
X1414Y1826D03*
X1217Y1728D03*
X1119Y1826D03*
X1513Y2220D03*
G54D18*
X1119Y2023D03*
X1710Y2023D03*
G54D10*
X1316Y2220D03*
X765Y1612D03*
X1065Y1612D03*
X765Y1512D03*
X1065Y1512D03*
X765Y1412D03*
X1065Y1412D03*
X765Y1312D03*
X1065Y1312D03*
X603Y1610D03*
X660Y1528D03*
X659Y909D03*
X659Y809D03*
X1899Y1836D03*
X1899Y1736D03*
X1320Y1651D03*
X1320Y1551D03*
G54D19*
X1985Y1573D03*
X507Y906D03*
G54D20*
X765Y1612D03*
G54D21*
X2083Y1625D02*
X2009Y1660D01*
D02*
X544Y731D02*
X577Y675D01*
D02*
X593Y619D02*
X593Y579D01*
D02*
X593Y519D02*
X593Y479D01*
D02*
X593Y419D02*
X593Y379D01*
D02*
X593Y319D02*
X593Y279D01*
D02*
X593Y219D02*
X593Y179D01*
D02*
X693Y219D02*
X693Y179D01*
D02*
X693Y279D02*
X693Y319D01*
D02*
X693Y379D02*
X693Y419D01*
D02*
X693Y479D02*
X693Y519D01*
D02*
X693Y579D02*
X693Y619D01*
D02*
X1088Y1395D02*
X1185Y1327D01*
D02*
X889Y664D02*
X891Y1002D01*
D02*
X723Y652D02*
X889Y664D01*
G54D22*
D02*
X730Y46D02*
X951Y139D01*
D02*
X130Y46D02*
X730Y46D01*
D02*
X126Y742D02*
X130Y46D01*
D02*
X185Y818D02*
X126Y742D01*
D02*
X1030Y155D02*
X1048Y155D01*
D02*
X1130Y155D02*
X1148Y155D01*
D02*
X1230Y155D02*
X1248Y155D01*
D02*
X1330Y155D02*
X1348Y155D01*
D02*
X1430Y155D02*
X1448Y155D01*
D02*
X1530Y155D02*
X1548Y155D01*
D02*
X1630Y155D02*
X1648Y155D01*
D02*
X1730Y155D02*
X1748Y155D01*
D02*
X1830Y155D02*
X1848Y155D01*
G54D21*
D02*
X723Y250D02*
X959Y254D01*
D02*
X1019Y255D02*
X1059Y255D01*
D02*
X1119Y255D02*
X1159Y255D01*
D02*
X1219Y255D02*
X1259Y255D01*
D02*
X1319Y255D02*
X1359Y255D01*
D02*
X1419Y255D02*
X1459Y255D01*
D02*
X1519Y255D02*
X1559Y255D01*
D02*
X1619Y255D02*
X1659Y255D01*
D02*
X1719Y255D02*
X1759Y255D01*
D02*
X1819Y255D02*
X1859Y255D01*
G54D23*
D02*
X1944Y327D02*
X2019Y66D01*
D02*
X2019Y66D02*
X2328Y69D01*
D02*
X2328Y69D02*
X2322Y1558D01*
D02*
X2322Y1558D02*
X2265Y1596D01*
D02*
X1921Y339D02*
X1944Y327D01*
G54D21*
D02*
X462Y649D02*
X364Y650D01*
D02*
X462Y549D02*
X364Y550D01*
D02*
X462Y449D02*
X364Y450D01*
D02*
X462Y349D02*
X364Y350D01*
D02*
X462Y249D02*
X364Y250D01*
D02*
X462Y149D02*
X364Y150D01*
D02*
X433Y1288D02*
X359Y1336D01*
D02*
X441Y1232D02*
X433Y1288D01*
D02*
X630Y808D02*
X534Y808D01*
D02*
X2033Y1571D02*
X2087Y1530D01*
D02*
X2012Y1572D02*
X2033Y1571D01*
D02*
X304Y1352D02*
X243Y1351D01*
D02*
X304Y1452D02*
X243Y1451D01*
D02*
X304Y1552D02*
X243Y1551D01*
D02*
X304Y1252D02*
X243Y1251D01*
D02*
X304Y1052D02*
X243Y1051D01*
D02*
X304Y952D02*
X243Y951D01*
D02*
X304Y852D02*
X243Y851D01*
D02*
X303Y651D02*
X243Y651D01*
D02*
X303Y551D02*
X243Y551D01*
D02*
X303Y451D02*
X243Y451D01*
D02*
X303Y351D02*
X243Y351D01*
D02*
X303Y251D02*
X243Y251D01*
D02*
X303Y151D02*
X243Y151D01*
D02*
X2205Y1914D02*
X2143Y1912D01*
D02*
X2205Y1814D02*
X2143Y1812D01*
D02*
X2205Y1714D02*
X2143Y1712D01*
D02*
X2205Y1614D02*
X2143Y1612D01*
D02*
X2205Y1514D02*
X2143Y1512D01*
D02*
X2205Y1414D02*
X2143Y1412D01*
D02*
X2205Y1314D02*
X2143Y1312D01*
D02*
X2205Y1214D02*
X2143Y1212D01*
D02*
X2205Y1114D02*
X2143Y1112D01*
D02*
X2205Y1014D02*
X2143Y1012D01*
D02*
X2205Y849D02*
X2143Y850D01*
D02*
X2205Y749D02*
X2143Y750D01*
D02*
X2205Y649D02*
X2143Y650D01*
D02*
X2205Y549D02*
X2143Y550D01*
D02*
X2205Y449D02*
X2143Y450D01*
D02*
X2205Y349D02*
X2143Y350D01*
D02*
X2205Y249D02*
X2143Y250D01*
D02*
X2205Y149D02*
X2143Y150D01*
D02*
X304Y1152D02*
X243Y1151D01*
D02*
X363Y1146D02*
X574Y1097D01*
D02*
X2058Y2195D02*
X2058Y2220D01*
D02*
X2137Y2195D02*
X2137Y2220D01*
D02*
X1979Y2195D02*
X1979Y2220D01*
G54D23*
D02*
X578Y2121D02*
X617Y1860D01*
G54D21*
D02*
X1179Y1611D02*
X1094Y1612D01*
D02*
X1813Y2091D02*
X1664Y2139D01*
D02*
X1664Y2139D02*
X1578Y2096D01*
D02*
X1955Y2157D02*
X1813Y2091D01*
D02*
X1415Y1501D02*
X1281Y1431D01*
D02*
X1404Y1701D02*
X1415Y1501D01*
D02*
X1578Y1942D02*
X1404Y1701D01*
D02*
X1578Y2096D02*
X1578Y1942D01*
D02*
X1281Y1431D02*
X1223Y1335D01*
D02*
X517Y1733D02*
X587Y1633D01*
D02*
X454Y1729D02*
X517Y1733D01*
D02*
X550Y1506D02*
X474Y1589D01*
D02*
X632Y1522D02*
X550Y1506D01*
D02*
X738Y1404D02*
X653Y1377D01*
D02*
X1295Y1565D02*
X1233Y1597D01*
D02*
X826Y890D02*
X687Y905D01*
D02*
X819Y731D02*
X826Y890D01*
D02*
X544Y731D02*
X819Y731D01*
D02*
X727Y1038D02*
X915Y1127D01*
D02*
X919Y1260D02*
X1038Y1303D01*
D02*
X915Y1127D02*
X919Y1260D01*
D02*
X426Y731D02*
X544Y731D01*
D02*
X423Y887D02*
X426Y731D01*
D02*
X358Y935D02*
X423Y887D01*
D02*
X668Y935D02*
X692Y999D01*
G54D23*
D02*
X1237Y2097D02*
X1396Y1855D01*
G54D21*
D02*
X737Y1516D02*
X689Y1524D01*
D02*
X892Y1601D02*
X833Y1703D01*
D02*
X887Y1381D02*
X892Y1601D01*
D02*
X793Y1405D02*
X887Y1381D01*
G54D23*
D02*
X135Y1100D02*
X146Y2053D01*
D02*
X146Y2053D02*
X247Y2121D01*
D02*
X181Y1071D02*
X135Y1100D01*
D02*
X1100Y2164D02*
X1237Y2097D01*
D02*
X937Y2168D02*
X1100Y2164D01*
D02*
X830Y2120D02*
X937Y2168D01*
D02*
X578Y2121D02*
X830Y2120D01*
D02*
X247Y2121D02*
X578Y2121D01*
G54D21*
D02*
X770Y1234D02*
X689Y1290D01*
D02*
X689Y1290D02*
X652Y1249D01*
D02*
X817Y1194D02*
X770Y1234D01*
D02*
X856Y1297D02*
X843Y1204D01*
D02*
X930Y1357D02*
X856Y1297D01*
D02*
X978Y1527D02*
X930Y1357D01*
D02*
X1045Y1592D02*
X978Y1527D01*
D02*
X574Y1097D02*
X516Y931D01*
D02*
X652Y1249D02*
X574Y1097D01*
D02*
X1847Y2004D02*
X1995Y2067D01*
D02*
X1995Y2067D02*
X2044Y2146D01*
D02*
X1775Y1894D02*
X1847Y2004D01*
D02*
X1837Y1657D02*
X1507Y1657D01*
D02*
X1837Y1538D02*
X1837Y1657D01*
D02*
X1915Y1464D02*
X1837Y1538D01*
D02*
X1978Y1434D02*
X1915Y1464D01*
D02*
X2003Y288D02*
X1978Y1434D01*
D02*
X2092Y175D02*
X2003Y288D01*
D02*
X1474Y1720D02*
X1612Y1894D01*
D02*
X1507Y1657D02*
X1474Y1720D01*
D02*
X1612Y1894D02*
X1775Y1894D01*
D02*
X1900Y1553D02*
X1899Y1707D01*
D02*
X1944Y1497D02*
X1900Y1553D01*
D02*
X2037Y1475D02*
X1944Y1497D01*
D02*
X2053Y299D02*
X2037Y1475D01*
D02*
X2087Y271D02*
X2053Y299D01*
D02*
X1744Y1734D02*
X1640Y1729D01*
D02*
X1875Y1820D02*
X1744Y1734D01*
D02*
X1297Y1668D02*
X1240Y1710D01*
G36*
X402Y1524D02*
X402Y1522D01*
X422Y1522D01*
X422Y1524D01*
X402Y1524D01*
G37*
D02*
G36*
X400Y1522D02*
X400Y1518D01*
X398Y1518D01*
X398Y1514D01*
X396Y1514D01*
X396Y1508D01*
X430Y1508D01*
X430Y1512D01*
X428Y1512D01*
X428Y1514D01*
X426Y1514D01*
X426Y1518D01*
X424Y1518D01*
X424Y1520D01*
X422Y1520D01*
X422Y1522D01*
X400Y1522D01*
G37*
D02*
G36*
X452Y1522D02*
X452Y1520D01*
X450Y1520D01*
X450Y1518D01*
X446Y1518D01*
X446Y1516D01*
X444Y1516D01*
X444Y1514D01*
X442Y1514D01*
X442Y1512D01*
X438Y1512D01*
X438Y1510D01*
X436Y1510D01*
X436Y1508D01*
X482Y1508D01*
X482Y1510D01*
X480Y1510D01*
X480Y1512D01*
X478Y1512D01*
X478Y1516D01*
X476Y1516D01*
X476Y1518D01*
X474Y1518D01*
X474Y1520D01*
X472Y1520D01*
X472Y1522D01*
X452Y1522D01*
G37*
D02*
G36*
X396Y1508D02*
X396Y1506D01*
X484Y1506D01*
X484Y1508D01*
X396Y1508D01*
G37*
D02*
G36*
X396Y1508D02*
X396Y1506D01*
X484Y1506D01*
X484Y1508D01*
X396Y1508D01*
G37*
D02*
G36*
X396Y1506D02*
X396Y1490D01*
X398Y1490D01*
X398Y1486D01*
X400Y1486D01*
X400Y1484D01*
X402Y1484D01*
X402Y1478D01*
X404Y1478D01*
X404Y1472D01*
X406Y1472D01*
X406Y1462D01*
X408Y1462D01*
X408Y1458D01*
X542Y1458D01*
X542Y1460D01*
X536Y1460D01*
X536Y1462D01*
X530Y1462D01*
X530Y1464D01*
X526Y1464D01*
X526Y1466D01*
X522Y1466D01*
X522Y1468D01*
X520Y1468D01*
X520Y1470D01*
X518Y1470D01*
X518Y1472D01*
X516Y1472D01*
X516Y1474D01*
X514Y1474D01*
X514Y1476D01*
X512Y1476D01*
X512Y1478D01*
X510Y1478D01*
X510Y1480D01*
X508Y1480D01*
X508Y1482D01*
X506Y1482D01*
X506Y1484D01*
X504Y1484D01*
X504Y1486D01*
X502Y1486D01*
X502Y1488D01*
X500Y1488D01*
X500Y1492D01*
X498Y1492D01*
X498Y1494D01*
X496Y1494D01*
X496Y1496D01*
X494Y1496D01*
X494Y1498D01*
X492Y1498D01*
X492Y1500D01*
X490Y1500D01*
X490Y1502D01*
X488Y1502D01*
X488Y1504D01*
X486Y1504D01*
X486Y1506D01*
X396Y1506D01*
G37*
D02*
G36*
X588Y1466D02*
X588Y1464D01*
X578Y1464D01*
X578Y1462D01*
X568Y1462D01*
X568Y1460D01*
X556Y1460D01*
X556Y1458D01*
X616Y1458D01*
X616Y1466D01*
X588Y1466D01*
G37*
D02*
G36*
X408Y1458D02*
X408Y1456D01*
X616Y1456D01*
X616Y1458D01*
X408Y1458D01*
G37*
D02*
G36*
X408Y1458D02*
X408Y1456D01*
X616Y1456D01*
X616Y1458D01*
X408Y1458D01*
G37*
D02*
G36*
X408Y1456D02*
X408Y1442D01*
X406Y1442D01*
X406Y1432D01*
X404Y1432D01*
X404Y1426D01*
X402Y1426D01*
X402Y1422D01*
X400Y1422D01*
X400Y1418D01*
X398Y1418D01*
X398Y1414D01*
X396Y1414D01*
X396Y1390D01*
X398Y1390D01*
X398Y1386D01*
X400Y1386D01*
X400Y1384D01*
X402Y1384D01*
X402Y1378D01*
X404Y1378D01*
X404Y1372D01*
X406Y1372D01*
X406Y1362D01*
X408Y1362D01*
X408Y1360D01*
X410Y1360D01*
X410Y1358D01*
X412Y1358D01*
X412Y1356D01*
X416Y1356D01*
X416Y1354D01*
X420Y1354D01*
X420Y1352D01*
X422Y1352D01*
X422Y1350D01*
X426Y1350D01*
X426Y1348D01*
X428Y1348D01*
X428Y1346D01*
X432Y1346D01*
X432Y1344D01*
X434Y1344D01*
X434Y1342D01*
X438Y1342D01*
X438Y1340D01*
X440Y1340D01*
X440Y1338D01*
X444Y1338D01*
X444Y1336D01*
X446Y1336D01*
X446Y1334D01*
X450Y1334D01*
X450Y1332D01*
X452Y1332D01*
X452Y1330D01*
X456Y1330D01*
X456Y1328D01*
X460Y1328D01*
X460Y1326D01*
X462Y1326D01*
X462Y1324D01*
X464Y1324D01*
X464Y1322D01*
X466Y1322D01*
X466Y1320D01*
X468Y1320D01*
X468Y1318D01*
X470Y1318D01*
X470Y1316D01*
X472Y1316D01*
X472Y1312D01*
X474Y1312D01*
X474Y1310D01*
X476Y1310D01*
X476Y1304D01*
X478Y1304D01*
X478Y1298D01*
X480Y1298D01*
X480Y1286D01*
X482Y1286D01*
X482Y1272D01*
X484Y1272D01*
X484Y1264D01*
X486Y1264D01*
X486Y1262D01*
X488Y1262D01*
X488Y1260D01*
X492Y1260D01*
X492Y1258D01*
X494Y1258D01*
X494Y1256D01*
X496Y1256D01*
X496Y1254D01*
X498Y1254D01*
X498Y1252D01*
X500Y1252D01*
X500Y1250D01*
X502Y1250D01*
X502Y1246D01*
X504Y1246D01*
X504Y1244D01*
X506Y1244D01*
X506Y1240D01*
X508Y1240D01*
X508Y1238D01*
X510Y1238D01*
X510Y1234D01*
X512Y1234D01*
X512Y1228D01*
X514Y1228D01*
X514Y1222D01*
X516Y1222D01*
X516Y1214D01*
X518Y1214D01*
X518Y1192D01*
X516Y1192D01*
X516Y1184D01*
X514Y1184D01*
X514Y1158D01*
X522Y1158D01*
X522Y1156D01*
X552Y1156D01*
X552Y1158D01*
X554Y1158D01*
X554Y1162D01*
X556Y1162D01*
X556Y1166D01*
X558Y1166D01*
X558Y1170D01*
X560Y1170D01*
X560Y1174D01*
X562Y1174D01*
X562Y1178D01*
X564Y1178D01*
X564Y1182D01*
X566Y1182D01*
X566Y1186D01*
X568Y1186D01*
X568Y1190D01*
X570Y1190D01*
X570Y1194D01*
X572Y1194D01*
X572Y1198D01*
X574Y1198D01*
X574Y1202D01*
X576Y1202D01*
X576Y1206D01*
X578Y1206D01*
X578Y1210D01*
X580Y1210D01*
X580Y1214D01*
X582Y1214D01*
X582Y1218D01*
X584Y1218D01*
X584Y1222D01*
X586Y1222D01*
X586Y1226D01*
X588Y1226D01*
X588Y1230D01*
X590Y1230D01*
X590Y1234D01*
X592Y1234D01*
X592Y1238D01*
X594Y1238D01*
X594Y1240D01*
X596Y1240D01*
X596Y1244D01*
X598Y1244D01*
X598Y1248D01*
X600Y1248D01*
X600Y1252D01*
X602Y1252D01*
X602Y1256D01*
X604Y1256D01*
X604Y1260D01*
X606Y1260D01*
X606Y1264D01*
X608Y1264D01*
X608Y1268D01*
X610Y1268D01*
X610Y1272D01*
X612Y1272D01*
X612Y1292D01*
X606Y1292D01*
X606Y1294D01*
X598Y1294D01*
X598Y1296D01*
X594Y1296D01*
X594Y1298D01*
X588Y1298D01*
X588Y1300D01*
X584Y1300D01*
X584Y1302D01*
X582Y1302D01*
X582Y1304D01*
X578Y1304D01*
X578Y1306D01*
X576Y1306D01*
X576Y1308D01*
X574Y1308D01*
X574Y1310D01*
X570Y1310D01*
X570Y1312D01*
X568Y1312D01*
X568Y1314D01*
X566Y1314D01*
X566Y1318D01*
X564Y1318D01*
X564Y1320D01*
X562Y1320D01*
X562Y1322D01*
X560Y1322D01*
X560Y1324D01*
X558Y1324D01*
X558Y1328D01*
X556Y1328D01*
X556Y1332D01*
X554Y1332D01*
X554Y1336D01*
X552Y1336D01*
X552Y1340D01*
X550Y1340D01*
X550Y1346D01*
X548Y1346D01*
X548Y1356D01*
X546Y1356D01*
X546Y1378D01*
X548Y1378D01*
X548Y1388D01*
X550Y1388D01*
X550Y1394D01*
X552Y1394D01*
X552Y1398D01*
X554Y1398D01*
X554Y1402D01*
X556Y1402D01*
X556Y1406D01*
X558Y1406D01*
X558Y1410D01*
X560Y1410D01*
X560Y1412D01*
X562Y1412D01*
X562Y1414D01*
X564Y1414D01*
X564Y1418D01*
X566Y1418D01*
X566Y1420D01*
X568Y1420D01*
X568Y1422D01*
X570Y1422D01*
X570Y1424D01*
X572Y1424D01*
X572Y1426D01*
X576Y1426D01*
X576Y1428D01*
X578Y1428D01*
X578Y1430D01*
X582Y1430D01*
X582Y1432D01*
X584Y1432D01*
X584Y1434D01*
X588Y1434D01*
X588Y1436D01*
X592Y1436D01*
X592Y1438D01*
X598Y1438D01*
X598Y1440D01*
X604Y1440D01*
X604Y1442D01*
X616Y1442D01*
X616Y1456D01*
X408Y1456D01*
G37*
D02*
G36*
X40Y2294D02*
X40Y40D01*
X70Y40D01*
X70Y350D01*
X68Y350D01*
X68Y728D01*
X66Y728D01*
X66Y744D01*
X68Y744D01*
X68Y756D01*
X70Y756D01*
X70Y762D01*
X72Y762D01*
X72Y768D01*
X74Y768D01*
X74Y772D01*
X76Y772D01*
X76Y774D01*
X78Y774D01*
X78Y778D01*
X80Y778D01*
X80Y780D01*
X82Y780D01*
X82Y782D01*
X84Y782D01*
X84Y784D01*
X86Y784D01*
X86Y788D01*
X88Y788D01*
X88Y790D01*
X90Y790D01*
X90Y792D01*
X92Y792D01*
X92Y796D01*
X94Y796D01*
X94Y798D01*
X96Y798D01*
X96Y800D01*
X98Y800D01*
X98Y802D01*
X100Y802D01*
X100Y806D01*
X102Y806D01*
X102Y808D01*
X104Y808D01*
X104Y810D01*
X106Y810D01*
X106Y812D01*
X108Y812D01*
X108Y816D01*
X110Y816D01*
X110Y818D01*
X112Y818D01*
X112Y820D01*
X114Y820D01*
X114Y824D01*
X116Y824D01*
X116Y826D01*
X118Y826D01*
X118Y828D01*
X120Y828D01*
X120Y830D01*
X122Y830D01*
X122Y834D01*
X124Y834D01*
X124Y836D01*
X126Y836D01*
X126Y838D01*
X128Y838D01*
X128Y840D01*
X130Y840D01*
X130Y844D01*
X132Y844D01*
X132Y846D01*
X134Y846D01*
X134Y848D01*
X136Y848D01*
X136Y852D01*
X138Y852D01*
X138Y854D01*
X140Y854D01*
X140Y856D01*
X142Y856D01*
X142Y858D01*
X144Y858D01*
X144Y862D01*
X146Y862D01*
X146Y870D01*
X148Y870D01*
X148Y876D01*
X150Y876D01*
X150Y880D01*
X152Y880D01*
X152Y884D01*
X154Y884D01*
X154Y888D01*
X156Y888D01*
X156Y890D01*
X158Y890D01*
X158Y912D01*
X156Y912D01*
X156Y914D01*
X154Y914D01*
X154Y918D01*
X152Y918D01*
X152Y920D01*
X150Y920D01*
X150Y926D01*
X148Y926D01*
X148Y930D01*
X146Y930D01*
X146Y940D01*
X144Y940D01*
X144Y962D01*
X146Y962D01*
X146Y970D01*
X148Y970D01*
X148Y976D01*
X150Y976D01*
X150Y980D01*
X152Y980D01*
X152Y984D01*
X154Y984D01*
X154Y988D01*
X156Y988D01*
X156Y990D01*
X158Y990D01*
X158Y1012D01*
X156Y1012D01*
X156Y1014D01*
X154Y1014D01*
X154Y1018D01*
X152Y1018D01*
X152Y1020D01*
X150Y1020D01*
X150Y1026D01*
X148Y1026D01*
X148Y1030D01*
X146Y1030D01*
X146Y1032D01*
X144Y1032D01*
X144Y1034D01*
X142Y1034D01*
X142Y1036D01*
X138Y1036D01*
X138Y1038D01*
X136Y1038D01*
X136Y1040D01*
X132Y1040D01*
X132Y1042D01*
X128Y1042D01*
X128Y1044D01*
X126Y1044D01*
X126Y1046D01*
X122Y1046D01*
X122Y1048D01*
X120Y1048D01*
X120Y1050D01*
X116Y1050D01*
X116Y1052D01*
X114Y1052D01*
X114Y1054D01*
X110Y1054D01*
X110Y1056D01*
X108Y1056D01*
X108Y1058D01*
X104Y1058D01*
X104Y1060D01*
X102Y1060D01*
X102Y1062D01*
X100Y1062D01*
X100Y1064D01*
X98Y1064D01*
X98Y1066D01*
X96Y1066D01*
X96Y1068D01*
X94Y1068D01*
X94Y1070D01*
X92Y1070D01*
X92Y1074D01*
X90Y1074D01*
X90Y1078D01*
X88Y1078D01*
X88Y1082D01*
X86Y1082D01*
X86Y1090D01*
X84Y1090D01*
X84Y1186D01*
X86Y1186D01*
X86Y1360D01*
X88Y1360D01*
X88Y1536D01*
X90Y1536D01*
X90Y1710D01*
X92Y1710D01*
X92Y1884D01*
X94Y1884D01*
X94Y2054D01*
X96Y2054D01*
X96Y2066D01*
X98Y2066D01*
X98Y2072D01*
X100Y2072D01*
X100Y2076D01*
X102Y2076D01*
X102Y2080D01*
X104Y2080D01*
X104Y2082D01*
X106Y2082D01*
X106Y2084D01*
X108Y2084D01*
X108Y2088D01*
X110Y2088D01*
X110Y2090D01*
X114Y2090D01*
X114Y2092D01*
X116Y2092D01*
X116Y2094D01*
X118Y2094D01*
X118Y2096D01*
X120Y2096D01*
X120Y2098D01*
X124Y2098D01*
X124Y2100D01*
X126Y2100D01*
X126Y2102D01*
X130Y2102D01*
X130Y2104D01*
X132Y2104D01*
X132Y2106D01*
X136Y2106D01*
X136Y2108D01*
X138Y2108D01*
X138Y2110D01*
X142Y2110D01*
X142Y2112D01*
X144Y2112D01*
X144Y2114D01*
X148Y2114D01*
X148Y2116D01*
X150Y2116D01*
X150Y2118D01*
X154Y2118D01*
X154Y2120D01*
X156Y2120D01*
X156Y2122D01*
X160Y2122D01*
X160Y2124D01*
X162Y2124D01*
X162Y2126D01*
X166Y2126D01*
X166Y2128D01*
X168Y2128D01*
X168Y2130D01*
X172Y2130D01*
X172Y2132D01*
X174Y2132D01*
X174Y2134D01*
X176Y2134D01*
X176Y2136D01*
X180Y2136D01*
X180Y2138D01*
X182Y2138D01*
X182Y2140D01*
X186Y2140D01*
X186Y2142D01*
X188Y2142D01*
X188Y2144D01*
X192Y2144D01*
X192Y2146D01*
X194Y2146D01*
X194Y2148D01*
X198Y2148D01*
X198Y2150D01*
X200Y2150D01*
X200Y2152D01*
X204Y2152D01*
X204Y2154D01*
X206Y2154D01*
X206Y2156D01*
X210Y2156D01*
X210Y2158D01*
X212Y2158D01*
X212Y2160D01*
X216Y2160D01*
X216Y2162D01*
X218Y2162D01*
X218Y2164D01*
X222Y2164D01*
X222Y2166D01*
X226Y2166D01*
X226Y2168D01*
X230Y2168D01*
X230Y2170D01*
X238Y2170D01*
X238Y2172D01*
X348Y2172D01*
X348Y2224D01*
X350Y2224D01*
X350Y2230D01*
X352Y2230D01*
X352Y2236D01*
X354Y2236D01*
X354Y2240D01*
X356Y2240D01*
X356Y2244D01*
X358Y2244D01*
X358Y2248D01*
X360Y2248D01*
X360Y2250D01*
X362Y2250D01*
X362Y2252D01*
X364Y2252D01*
X364Y2256D01*
X366Y2256D01*
X366Y2258D01*
X368Y2258D01*
X368Y2260D01*
X370Y2260D01*
X370Y2262D01*
X372Y2262D01*
X372Y2264D01*
X374Y2264D01*
X374Y2266D01*
X378Y2266D01*
X378Y2268D01*
X380Y2268D01*
X380Y2270D01*
X384Y2270D01*
X384Y2272D01*
X388Y2272D01*
X388Y2274D01*
X392Y2274D01*
X392Y2294D01*
X40Y2294D01*
G37*
D02*
G36*
X570Y2294D02*
X570Y2274D01*
X572Y2274D01*
X572Y2272D01*
X574Y2272D01*
X574Y2270D01*
X576Y2270D01*
X576Y2268D01*
X578Y2268D01*
X578Y2266D01*
X580Y2266D01*
X580Y2264D01*
X582Y2264D01*
X582Y2260D01*
X584Y2260D01*
X584Y2258D01*
X586Y2258D01*
X586Y2254D01*
X588Y2254D01*
X588Y2250D01*
X590Y2250D01*
X590Y2246D01*
X592Y2246D01*
X592Y2240D01*
X594Y2240D01*
X594Y2232D01*
X596Y2232D01*
X596Y2206D01*
X594Y2206D01*
X594Y2198D01*
X592Y2198D01*
X592Y2192D01*
X590Y2192D01*
X590Y2172D01*
X654Y2172D01*
X654Y2194D01*
X652Y2194D01*
X652Y2200D01*
X650Y2200D01*
X650Y2210D01*
X648Y2210D01*
X648Y2228D01*
X650Y2228D01*
X650Y2238D01*
X652Y2238D01*
X652Y2244D01*
X654Y2244D01*
X654Y2250D01*
X656Y2250D01*
X656Y2254D01*
X658Y2254D01*
X658Y2256D01*
X660Y2256D01*
X660Y2260D01*
X662Y2260D01*
X662Y2262D01*
X664Y2262D01*
X664Y2266D01*
X666Y2266D01*
X666Y2268D01*
X668Y2268D01*
X668Y2270D01*
X670Y2270D01*
X670Y2272D01*
X672Y2272D01*
X672Y2274D01*
X674Y2274D01*
X674Y2294D01*
X570Y2294D01*
G37*
D02*
G36*
X838Y2294D02*
X838Y2274D01*
X844Y2274D01*
X844Y2272D01*
X850Y2272D01*
X850Y2270D01*
X854Y2270D01*
X854Y2268D01*
X858Y2268D01*
X858Y2266D01*
X860Y2266D01*
X860Y2264D01*
X864Y2264D01*
X864Y2262D01*
X866Y2262D01*
X866Y2260D01*
X868Y2260D01*
X868Y2258D01*
X870Y2258D01*
X870Y2256D01*
X872Y2256D01*
X872Y2254D01*
X874Y2254D01*
X874Y2252D01*
X876Y2252D01*
X876Y2250D01*
X878Y2250D01*
X878Y2246D01*
X880Y2246D01*
X880Y2244D01*
X882Y2244D01*
X882Y2240D01*
X884Y2240D01*
X884Y2238D01*
X886Y2238D01*
X886Y2234D01*
X888Y2234D01*
X888Y2228D01*
X890Y2228D01*
X890Y2222D01*
X892Y2222D01*
X892Y2218D01*
X996Y2218D01*
X996Y2216D01*
X1084Y2216D01*
X1084Y2214D01*
X1112Y2214D01*
X1112Y2212D01*
X1118Y2212D01*
X1118Y2210D01*
X1140Y2210D01*
X1140Y2220D01*
X1142Y2220D01*
X1142Y2226D01*
X1144Y2226D01*
X1144Y2232D01*
X1146Y2232D01*
X1146Y2236D01*
X1148Y2236D01*
X1148Y2240D01*
X1150Y2240D01*
X1150Y2244D01*
X1152Y2244D01*
X1152Y2246D01*
X1154Y2246D01*
X1154Y2248D01*
X1156Y2248D01*
X1156Y2252D01*
X1158Y2252D01*
X1158Y2254D01*
X1160Y2254D01*
X1160Y2256D01*
X1162Y2256D01*
X1162Y2258D01*
X1164Y2258D01*
X1164Y2260D01*
X1166Y2260D01*
X1166Y2262D01*
X1170Y2262D01*
X1170Y2264D01*
X1172Y2264D01*
X1172Y2266D01*
X1176Y2266D01*
X1176Y2268D01*
X1178Y2268D01*
X1178Y2270D01*
X1182Y2270D01*
X1182Y2272D01*
X1188Y2272D01*
X1188Y2274D01*
X1194Y2274D01*
X1194Y2294D01*
X838Y2294D01*
G37*
D02*
G36*
X892Y2218D02*
X892Y2212D01*
X914Y2212D01*
X914Y2214D01*
X918Y2214D01*
X918Y2216D01*
X926Y2216D01*
X926Y2218D01*
X892Y2218D01*
G37*
D02*
G36*
X1558Y2294D02*
X1558Y2274D01*
X1622Y2274D01*
X1622Y2272D01*
X1632Y2272D01*
X1632Y2270D01*
X1638Y2270D01*
X1638Y2268D01*
X1642Y2268D01*
X1642Y2266D01*
X1646Y2266D01*
X1646Y2264D01*
X1650Y2264D01*
X1650Y2262D01*
X1652Y2262D01*
X1652Y2260D01*
X1656Y2260D01*
X1656Y2258D01*
X1658Y2258D01*
X1658Y2256D01*
X1660Y2256D01*
X1660Y2254D01*
X1662Y2254D01*
X1662Y2252D01*
X1664Y2252D01*
X1664Y2250D01*
X1666Y2250D01*
X1666Y2248D01*
X1668Y2248D01*
X1668Y2246D01*
X1670Y2246D01*
X1670Y2244D01*
X1672Y2244D01*
X1672Y2240D01*
X1674Y2240D01*
X1674Y2238D01*
X1676Y2238D01*
X1676Y2234D01*
X1678Y2234D01*
X1678Y2230D01*
X1680Y2230D01*
X1680Y2224D01*
X1682Y2224D01*
X1682Y2218D01*
X1684Y2218D01*
X1684Y2208D01*
X1686Y2208D01*
X1686Y2180D01*
X1692Y2180D01*
X1692Y2178D01*
X1698Y2178D01*
X1698Y2176D01*
X1704Y2176D01*
X1704Y2174D01*
X1710Y2174D01*
X1710Y2172D01*
X1716Y2172D01*
X1716Y2170D01*
X1722Y2170D01*
X1722Y2168D01*
X1728Y2168D01*
X1728Y2166D01*
X1734Y2166D01*
X1734Y2164D01*
X1740Y2164D01*
X1740Y2162D01*
X1748Y2162D01*
X1748Y2160D01*
X1754Y2160D01*
X1754Y2158D01*
X1760Y2158D01*
X1760Y2156D01*
X1766Y2156D01*
X1766Y2154D01*
X1772Y2154D01*
X1772Y2152D01*
X1778Y2152D01*
X1778Y2150D01*
X1784Y2150D01*
X1784Y2148D01*
X1790Y2148D01*
X1790Y2146D01*
X1796Y2146D01*
X1796Y2144D01*
X1820Y2144D01*
X1820Y2146D01*
X1824Y2146D01*
X1824Y2166D01*
X1822Y2166D01*
X1822Y2168D01*
X1820Y2168D01*
X1820Y2172D01*
X1818Y2172D01*
X1818Y2174D01*
X1816Y2174D01*
X1816Y2178D01*
X1814Y2178D01*
X1814Y2184D01*
X1812Y2184D01*
X1812Y2190D01*
X1810Y2190D01*
X1810Y2200D01*
X1808Y2200D01*
X1808Y2216D01*
X1810Y2216D01*
X1810Y2226D01*
X1812Y2226D01*
X1812Y2232D01*
X1814Y2232D01*
X1814Y2236D01*
X1816Y2236D01*
X1816Y2240D01*
X1818Y2240D01*
X1818Y2244D01*
X1820Y2244D01*
X1820Y2246D01*
X1822Y2246D01*
X1822Y2250D01*
X1824Y2250D01*
X1824Y2252D01*
X1826Y2252D01*
X1826Y2254D01*
X1828Y2254D01*
X1828Y2256D01*
X1830Y2256D01*
X1830Y2258D01*
X1832Y2258D01*
X1832Y2260D01*
X1834Y2260D01*
X1834Y2262D01*
X1838Y2262D01*
X1838Y2264D01*
X1840Y2264D01*
X1840Y2266D01*
X1844Y2266D01*
X1844Y2268D01*
X1848Y2268D01*
X1848Y2270D01*
X1852Y2270D01*
X1852Y2272D01*
X1858Y2272D01*
X1858Y2274D01*
X1866Y2274D01*
X1866Y2294D01*
X1558Y2294D01*
G37*
D02*
G36*
X1562Y2274D02*
X1562Y2272D01*
X1564Y2272D01*
X1564Y2270D01*
X1590Y2270D01*
X1590Y2272D01*
X1600Y2272D01*
X1600Y2274D01*
X1562Y2274D01*
G37*
D02*
G36*
X1362Y2294D02*
X1362Y2274D01*
X1364Y2274D01*
X1364Y2272D01*
X1366Y2272D01*
X1366Y2270D01*
X1368Y2270D01*
X1368Y2268D01*
X1370Y2268D01*
X1370Y2266D01*
X1372Y2266D01*
X1372Y2264D01*
X1374Y2264D01*
X1374Y2260D01*
X1376Y2260D01*
X1376Y2258D01*
X1378Y2258D01*
X1378Y2254D01*
X1380Y2254D01*
X1380Y2250D01*
X1382Y2250D01*
X1382Y2246D01*
X1384Y2246D01*
X1384Y2242D01*
X1386Y2242D01*
X1386Y2234D01*
X1388Y2234D01*
X1388Y2206D01*
X1386Y2206D01*
X1386Y2198D01*
X1384Y2198D01*
X1384Y2192D01*
X1382Y2192D01*
X1382Y2188D01*
X1380Y2188D01*
X1380Y2184D01*
X1378Y2184D01*
X1378Y2180D01*
X1376Y2180D01*
X1376Y2178D01*
X1374Y2178D01*
X1374Y2174D01*
X1372Y2174D01*
X1372Y2172D01*
X1370Y2172D01*
X1370Y2170D01*
X1368Y2170D01*
X1368Y2168D01*
X1366Y2168D01*
X1366Y2166D01*
X1364Y2166D01*
X1364Y2164D01*
X1362Y2164D01*
X1362Y2162D01*
X1358Y2162D01*
X1358Y2160D01*
X1356Y2160D01*
X1356Y2158D01*
X1352Y2158D01*
X1352Y2156D01*
X1350Y2156D01*
X1350Y2154D01*
X1346Y2154D01*
X1346Y2152D01*
X1340Y2152D01*
X1340Y2150D01*
X1334Y2150D01*
X1334Y2148D01*
X1320Y2148D01*
X1320Y2146D01*
X1508Y2146D01*
X1508Y2148D01*
X1496Y2148D01*
X1496Y2150D01*
X1488Y2150D01*
X1488Y2152D01*
X1484Y2152D01*
X1484Y2154D01*
X1480Y2154D01*
X1480Y2156D01*
X1476Y2156D01*
X1476Y2158D01*
X1472Y2158D01*
X1472Y2160D01*
X1470Y2160D01*
X1470Y2162D01*
X1468Y2162D01*
X1468Y2164D01*
X1464Y2164D01*
X1464Y2166D01*
X1462Y2166D01*
X1462Y2168D01*
X1460Y2168D01*
X1460Y2170D01*
X1458Y2170D01*
X1458Y2174D01*
X1456Y2174D01*
X1456Y2176D01*
X1454Y2176D01*
X1454Y2178D01*
X1452Y2178D01*
X1452Y2182D01*
X1450Y2182D01*
X1450Y2184D01*
X1448Y2184D01*
X1448Y2188D01*
X1446Y2188D01*
X1446Y2194D01*
X1444Y2194D01*
X1444Y2200D01*
X1442Y2200D01*
X1442Y2210D01*
X1440Y2210D01*
X1440Y2228D01*
X1442Y2228D01*
X1442Y2238D01*
X1444Y2238D01*
X1444Y2244D01*
X1446Y2244D01*
X1446Y2250D01*
X1448Y2250D01*
X1448Y2254D01*
X1450Y2254D01*
X1450Y2256D01*
X1452Y2256D01*
X1452Y2260D01*
X1454Y2260D01*
X1454Y2262D01*
X1456Y2262D01*
X1456Y2266D01*
X1458Y2266D01*
X1458Y2268D01*
X1460Y2268D01*
X1460Y2270D01*
X1462Y2270D01*
X1462Y2272D01*
X1464Y2272D01*
X1464Y2274D01*
X1466Y2274D01*
X1466Y2294D01*
X1362Y2294D01*
G37*
D02*
G36*
X1270Y2152D02*
X1270Y2146D01*
X1312Y2146D01*
X1312Y2148D01*
X1298Y2148D01*
X1298Y2150D01*
X1292Y2150D01*
X1292Y2152D01*
X1270Y2152D01*
G37*
D02*
G36*
X1530Y2150D02*
X1530Y2148D01*
X1518Y2148D01*
X1518Y2146D01*
X1554Y2146D01*
X1554Y2150D01*
X1530Y2150D01*
G37*
D02*
G36*
X1270Y2146D02*
X1270Y2144D01*
X1554Y2144D01*
X1554Y2146D01*
X1270Y2146D01*
G37*
D02*
G36*
X1270Y2146D02*
X1270Y2144D01*
X1554Y2144D01*
X1554Y2146D01*
X1270Y2146D01*
G37*
D02*
G36*
X1270Y2146D02*
X1270Y2144D01*
X1554Y2144D01*
X1554Y2146D01*
X1270Y2146D01*
G37*
D02*
G36*
X1270Y2144D02*
X1270Y2134D01*
X1274Y2134D01*
X1274Y2130D01*
X1276Y2130D01*
X1276Y2128D01*
X1278Y2128D01*
X1278Y2126D01*
X1280Y2126D01*
X1280Y2122D01*
X1282Y2122D01*
X1282Y2120D01*
X1284Y2120D01*
X1284Y2116D01*
X1286Y2116D01*
X1286Y2114D01*
X1288Y2114D01*
X1288Y2110D01*
X1290Y2110D01*
X1290Y2108D01*
X1292Y2108D01*
X1292Y2104D01*
X1294Y2104D01*
X1294Y2102D01*
X1296Y2102D01*
X1296Y2098D01*
X1298Y2098D01*
X1298Y2096D01*
X1300Y2096D01*
X1300Y2092D01*
X1302Y2092D01*
X1302Y2090D01*
X1304Y2090D01*
X1304Y2086D01*
X1306Y2086D01*
X1306Y2084D01*
X1308Y2084D01*
X1308Y2080D01*
X1310Y2080D01*
X1310Y2078D01*
X1312Y2078D01*
X1312Y2074D01*
X1314Y2074D01*
X1314Y2070D01*
X1316Y2070D01*
X1316Y2068D01*
X1318Y2068D01*
X1318Y2064D01*
X1320Y2064D01*
X1320Y2062D01*
X1322Y2062D01*
X1322Y2058D01*
X1324Y2058D01*
X1324Y2056D01*
X1326Y2056D01*
X1326Y2052D01*
X1328Y2052D01*
X1328Y2050D01*
X1330Y2050D01*
X1330Y2046D01*
X1332Y2046D01*
X1332Y2044D01*
X1334Y2044D01*
X1334Y2040D01*
X1336Y2040D01*
X1336Y2038D01*
X1338Y2038D01*
X1338Y2034D01*
X1340Y2034D01*
X1340Y2032D01*
X1342Y2032D01*
X1342Y2028D01*
X1344Y2028D01*
X1344Y2024D01*
X1346Y2024D01*
X1346Y2022D01*
X1348Y2022D01*
X1348Y2018D01*
X1350Y2018D01*
X1350Y2016D01*
X1352Y2016D01*
X1352Y2012D01*
X1354Y2012D01*
X1354Y2010D01*
X1356Y2010D01*
X1356Y2006D01*
X1358Y2006D01*
X1358Y2004D01*
X1360Y2004D01*
X1360Y2000D01*
X1362Y2000D01*
X1362Y1998D01*
X1364Y1998D01*
X1364Y1994D01*
X1366Y1994D01*
X1366Y1992D01*
X1368Y1992D01*
X1368Y1988D01*
X1370Y1988D01*
X1370Y1986D01*
X1372Y1986D01*
X1372Y1982D01*
X1374Y1982D01*
X1374Y1980D01*
X1376Y1980D01*
X1376Y1976D01*
X1378Y1976D01*
X1378Y1972D01*
X1380Y1972D01*
X1380Y1970D01*
X1382Y1970D01*
X1382Y1966D01*
X1384Y1966D01*
X1384Y1964D01*
X1386Y1964D01*
X1386Y1960D01*
X1388Y1960D01*
X1388Y1958D01*
X1390Y1958D01*
X1390Y1954D01*
X1392Y1954D01*
X1392Y1952D01*
X1394Y1952D01*
X1394Y1948D01*
X1396Y1948D01*
X1396Y1946D01*
X1398Y1946D01*
X1398Y1942D01*
X1400Y1942D01*
X1400Y1940D01*
X1402Y1940D01*
X1402Y1936D01*
X1404Y1936D01*
X1404Y1934D01*
X1406Y1934D01*
X1406Y1930D01*
X1408Y1930D01*
X1408Y1928D01*
X1410Y1928D01*
X1410Y1924D01*
X1412Y1924D01*
X1412Y1920D01*
X1414Y1920D01*
X1414Y1918D01*
X1416Y1918D01*
X1416Y1914D01*
X1418Y1914D01*
X1418Y1912D01*
X1420Y1912D01*
X1420Y1908D01*
X1422Y1908D01*
X1422Y1906D01*
X1424Y1906D01*
X1424Y1902D01*
X1426Y1902D01*
X1426Y1900D01*
X1428Y1900D01*
X1428Y1896D01*
X1434Y1896D01*
X1434Y1894D01*
X1440Y1894D01*
X1440Y1892D01*
X1446Y1892D01*
X1446Y1890D01*
X1450Y1890D01*
X1450Y1888D01*
X1452Y1888D01*
X1452Y1886D01*
X1456Y1886D01*
X1456Y1884D01*
X1458Y1884D01*
X1458Y1882D01*
X1478Y1882D01*
X1478Y1884D01*
X1480Y1884D01*
X1480Y1888D01*
X1482Y1888D01*
X1482Y1890D01*
X1484Y1890D01*
X1484Y1894D01*
X1486Y1894D01*
X1486Y1896D01*
X1488Y1896D01*
X1488Y1898D01*
X1490Y1898D01*
X1490Y1902D01*
X1492Y1902D01*
X1492Y1904D01*
X1494Y1904D01*
X1494Y1908D01*
X1496Y1908D01*
X1496Y1910D01*
X1498Y1910D01*
X1498Y1912D01*
X1500Y1912D01*
X1500Y1916D01*
X1502Y1916D01*
X1502Y1918D01*
X1504Y1918D01*
X1504Y1920D01*
X1506Y1920D01*
X1506Y1924D01*
X1508Y1924D01*
X1508Y1926D01*
X1510Y1926D01*
X1510Y1930D01*
X1512Y1930D01*
X1512Y1932D01*
X1514Y1932D01*
X1514Y1934D01*
X1516Y1934D01*
X1516Y1938D01*
X1518Y1938D01*
X1518Y1940D01*
X1520Y1940D01*
X1520Y1942D01*
X1522Y1942D01*
X1522Y1946D01*
X1524Y1946D01*
X1524Y1948D01*
X1526Y1948D01*
X1526Y1952D01*
X1528Y1952D01*
X1528Y1954D01*
X1530Y1954D01*
X1530Y2094D01*
X1532Y2094D01*
X1532Y2108D01*
X1534Y2108D01*
X1534Y2114D01*
X1536Y2114D01*
X1536Y2118D01*
X1538Y2118D01*
X1538Y2122D01*
X1540Y2122D01*
X1540Y2124D01*
X1542Y2124D01*
X1542Y2126D01*
X1544Y2126D01*
X1544Y2128D01*
X1546Y2128D01*
X1546Y2130D01*
X1548Y2130D01*
X1548Y2132D01*
X1550Y2132D01*
X1550Y2134D01*
X1554Y2134D01*
X1554Y2144D01*
X1270Y2144D01*
G37*
D02*
G36*
X2250Y2294D02*
X2250Y2274D01*
X2260Y2274D01*
X2260Y2272D01*
X2266Y2272D01*
X2266Y2270D01*
X2270Y2270D01*
X2270Y2268D01*
X2274Y2268D01*
X2274Y2266D01*
X2276Y2266D01*
X2276Y2264D01*
X2280Y2264D01*
X2280Y2262D01*
X2282Y2262D01*
X2282Y2260D01*
X2284Y2260D01*
X2284Y2258D01*
X2286Y2258D01*
X2286Y2256D01*
X2288Y2256D01*
X2288Y2254D01*
X2290Y2254D01*
X2290Y2252D01*
X2292Y2252D01*
X2292Y2250D01*
X2294Y2250D01*
X2294Y2248D01*
X2296Y2248D01*
X2296Y2244D01*
X2298Y2244D01*
X2298Y2240D01*
X2300Y2240D01*
X2300Y2238D01*
X2302Y2238D01*
X2302Y2232D01*
X2304Y2232D01*
X2304Y2226D01*
X2306Y2226D01*
X2306Y2218D01*
X2308Y2218D01*
X2308Y2198D01*
X2306Y2198D01*
X2306Y2188D01*
X2304Y2188D01*
X2304Y2182D01*
X2302Y2182D01*
X2302Y2178D01*
X2300Y2178D01*
X2300Y2174D01*
X2298Y2174D01*
X2298Y2170D01*
X2296Y2170D01*
X2296Y2168D01*
X2294Y2168D01*
X2294Y2166D01*
X2292Y2166D01*
X2292Y2162D01*
X2290Y2162D01*
X2290Y2160D01*
X2288Y2160D01*
X2288Y2158D01*
X2286Y2158D01*
X2286Y2156D01*
X2284Y2156D01*
X2284Y2154D01*
X2280Y2154D01*
X2280Y2152D01*
X2278Y2152D01*
X2278Y2150D01*
X2274Y2150D01*
X2274Y2148D01*
X2272Y2148D01*
X2272Y2146D01*
X2268Y2146D01*
X2268Y2144D01*
X2262Y2144D01*
X2262Y2142D01*
X2256Y2142D01*
X2256Y2140D01*
X2242Y2140D01*
X2242Y2138D01*
X2424Y2138D01*
X2424Y2294D01*
X2250Y2294D01*
G37*
D02*
G36*
X2192Y2144D02*
X2192Y2140D01*
X2190Y2140D01*
X2190Y2138D01*
X2236Y2138D01*
X2236Y2140D01*
X2222Y2140D01*
X2222Y2142D01*
X2216Y2142D01*
X2216Y2144D01*
X2192Y2144D01*
G37*
D02*
G36*
X2188Y2138D02*
X2188Y2136D01*
X2424Y2136D01*
X2424Y2138D01*
X2188Y2138D01*
G37*
D02*
G36*
X2188Y2138D02*
X2188Y2136D01*
X2424Y2136D01*
X2424Y2138D01*
X2188Y2138D01*
G37*
D02*
G36*
X2188Y2136D02*
X2188Y2134D01*
X2186Y2134D01*
X2186Y2132D01*
X2184Y2132D01*
X2184Y2128D01*
X2182Y2128D01*
X2182Y2126D01*
X2180Y2126D01*
X2180Y2124D01*
X2178Y2124D01*
X2178Y2122D01*
X2174Y2122D01*
X2174Y2120D01*
X2172Y2120D01*
X2172Y2118D01*
X2170Y2118D01*
X2170Y2116D01*
X2166Y2116D01*
X2166Y2114D01*
X2162Y2114D01*
X2162Y2112D01*
X2158Y2112D01*
X2158Y2110D01*
X2150Y2110D01*
X2150Y2108D01*
X2424Y2108D01*
X2424Y2136D01*
X2188Y2136D01*
G37*
D02*
G36*
X2088Y2116D02*
X2088Y2114D01*
X2084Y2114D01*
X2084Y2112D01*
X2078Y2112D01*
X2078Y2110D01*
X2076Y2110D01*
X2076Y2108D01*
X2124Y2108D01*
X2124Y2110D01*
X2116Y2110D01*
X2116Y2112D01*
X2112Y2112D01*
X2112Y2114D01*
X2108Y2114D01*
X2108Y2116D01*
X2088Y2116D01*
G37*
D02*
G36*
X2076Y2108D02*
X2076Y2106D01*
X2424Y2106D01*
X2424Y2108D01*
X2076Y2108D01*
G37*
D02*
G36*
X2076Y2108D02*
X2076Y2106D01*
X2424Y2106D01*
X2424Y2108D01*
X2076Y2108D01*
G37*
D02*
G36*
X2074Y2106D02*
X2074Y2102D01*
X2072Y2102D01*
X2072Y2100D01*
X2070Y2100D01*
X2070Y2096D01*
X2068Y2096D01*
X2068Y2092D01*
X2066Y2092D01*
X2066Y2090D01*
X2064Y2090D01*
X2064Y2086D01*
X2062Y2086D01*
X2062Y2084D01*
X2060Y2084D01*
X2060Y2080D01*
X2058Y2080D01*
X2058Y2076D01*
X2056Y2076D01*
X2056Y2074D01*
X2054Y2074D01*
X2054Y2070D01*
X2052Y2070D01*
X2052Y2066D01*
X2050Y2066D01*
X2050Y2064D01*
X2048Y2064D01*
X2048Y2060D01*
X2046Y2060D01*
X2046Y2058D01*
X2044Y2058D01*
X2044Y2054D01*
X2042Y2054D01*
X2042Y2050D01*
X2040Y2050D01*
X2040Y2048D01*
X2038Y2048D01*
X2038Y2044D01*
X2036Y2044D01*
X2036Y2042D01*
X2034Y2042D01*
X2034Y2038D01*
X2032Y2038D01*
X2032Y2036D01*
X2030Y2036D01*
X2030Y2034D01*
X2028Y2034D01*
X2028Y2032D01*
X2026Y2032D01*
X2026Y2030D01*
X2024Y2030D01*
X2024Y2028D01*
X2022Y2028D01*
X2022Y2026D01*
X2018Y2026D01*
X2018Y2024D01*
X2014Y2024D01*
X2014Y2022D01*
X2010Y2022D01*
X2010Y2020D01*
X2004Y2020D01*
X2004Y2018D01*
X2000Y2018D01*
X2000Y2016D01*
X1994Y2016D01*
X1994Y2014D01*
X1990Y2014D01*
X1990Y2012D01*
X1986Y2012D01*
X1986Y2010D01*
X1980Y2010D01*
X1980Y2008D01*
X1976Y2008D01*
X1976Y2006D01*
X1970Y2006D01*
X1970Y2004D01*
X1966Y2004D01*
X1966Y2002D01*
X1962Y2002D01*
X1962Y2000D01*
X1956Y2000D01*
X1956Y1998D01*
X1952Y1998D01*
X1952Y1996D01*
X1948Y1996D01*
X1948Y1994D01*
X1942Y1994D01*
X1942Y1992D01*
X1938Y1992D01*
X1938Y1990D01*
X1932Y1990D01*
X1932Y1988D01*
X2252Y1988D01*
X2252Y1986D01*
X2258Y1986D01*
X2258Y1984D01*
X2264Y1984D01*
X2264Y1982D01*
X2268Y1982D01*
X2268Y1980D01*
X2272Y1980D01*
X2272Y1978D01*
X2276Y1978D01*
X2276Y1976D01*
X2278Y1976D01*
X2278Y1974D01*
X2280Y1974D01*
X2280Y1972D01*
X2284Y1972D01*
X2284Y1970D01*
X2286Y1970D01*
X2286Y1968D01*
X2288Y1968D01*
X2288Y1966D01*
X2290Y1966D01*
X2290Y1964D01*
X2292Y1964D01*
X2292Y1960D01*
X2294Y1960D01*
X2294Y1958D01*
X2296Y1958D01*
X2296Y1956D01*
X2298Y1956D01*
X2298Y1952D01*
X2300Y1952D01*
X2300Y1948D01*
X2302Y1948D01*
X2302Y1944D01*
X2304Y1944D01*
X2304Y1940D01*
X2306Y1940D01*
X2306Y1932D01*
X2308Y1932D01*
X2308Y1920D01*
X2310Y1920D01*
X2310Y1910D01*
X2308Y1910D01*
X2308Y1898D01*
X2306Y1898D01*
X2306Y1890D01*
X2304Y1890D01*
X2304Y1886D01*
X2302Y1886D01*
X2302Y1882D01*
X2300Y1882D01*
X2300Y1878D01*
X2298Y1878D01*
X2298Y1852D01*
X2300Y1852D01*
X2300Y1848D01*
X2302Y1848D01*
X2302Y1844D01*
X2304Y1844D01*
X2304Y1840D01*
X2306Y1840D01*
X2306Y1832D01*
X2308Y1832D01*
X2308Y1820D01*
X2310Y1820D01*
X2310Y1810D01*
X2308Y1810D01*
X2308Y1798D01*
X2306Y1798D01*
X2306Y1790D01*
X2304Y1790D01*
X2304Y1786D01*
X2302Y1786D01*
X2302Y1782D01*
X2300Y1782D01*
X2300Y1778D01*
X2298Y1778D01*
X2298Y1752D01*
X2300Y1752D01*
X2300Y1748D01*
X2302Y1748D01*
X2302Y1744D01*
X2304Y1744D01*
X2304Y1740D01*
X2306Y1740D01*
X2306Y1732D01*
X2308Y1732D01*
X2308Y1720D01*
X2310Y1720D01*
X2310Y1710D01*
X2308Y1710D01*
X2308Y1698D01*
X2306Y1698D01*
X2306Y1690D01*
X2304Y1690D01*
X2304Y1686D01*
X2302Y1686D01*
X2302Y1682D01*
X2300Y1682D01*
X2300Y1678D01*
X2298Y1678D01*
X2298Y1652D01*
X2300Y1652D01*
X2300Y1648D01*
X2302Y1648D01*
X2302Y1644D01*
X2304Y1644D01*
X2304Y1640D01*
X2306Y1640D01*
X2306Y1632D01*
X2308Y1632D01*
X2308Y1628D01*
X2310Y1628D01*
X2310Y1626D01*
X2312Y1626D01*
X2312Y1624D01*
X2316Y1624D01*
X2316Y1622D01*
X2318Y1622D01*
X2318Y1620D01*
X2322Y1620D01*
X2322Y1618D01*
X2324Y1618D01*
X2324Y1616D01*
X2328Y1616D01*
X2328Y1614D01*
X2330Y1614D01*
X2330Y1612D01*
X2334Y1612D01*
X2334Y1610D01*
X2336Y1610D01*
X2336Y1608D01*
X2340Y1608D01*
X2340Y1606D01*
X2342Y1606D01*
X2342Y1604D01*
X2346Y1604D01*
X2346Y1602D01*
X2348Y1602D01*
X2348Y1600D01*
X2352Y1600D01*
X2352Y1598D01*
X2354Y1598D01*
X2354Y1596D01*
X2356Y1596D01*
X2356Y1594D01*
X2358Y1594D01*
X2358Y1592D01*
X2360Y1592D01*
X2360Y1590D01*
X2362Y1590D01*
X2362Y1588D01*
X2364Y1588D01*
X2364Y1584D01*
X2366Y1584D01*
X2366Y1582D01*
X2368Y1582D01*
X2368Y1578D01*
X2370Y1578D01*
X2370Y1572D01*
X2372Y1572D01*
X2372Y1562D01*
X2374Y1562D01*
X2374Y1082D01*
X2376Y1082D01*
X2376Y546D01*
X2378Y546D01*
X2378Y40D01*
X2424Y40D01*
X2424Y2106D01*
X2074Y2106D01*
G37*
D02*
G36*
X1928Y1988D02*
X1928Y1986D01*
X1924Y1986D01*
X1924Y1984D01*
X1918Y1984D01*
X1918Y1982D01*
X1914Y1982D01*
X1914Y1980D01*
X1908Y1980D01*
X1908Y1978D01*
X2124Y1978D01*
X2124Y1976D01*
X2132Y1976D01*
X2132Y1974D01*
X2138Y1974D01*
X2138Y1972D01*
X2142Y1972D01*
X2142Y1970D01*
X2146Y1970D01*
X2146Y1968D01*
X2148Y1968D01*
X2148Y1966D01*
X2152Y1966D01*
X2152Y1964D01*
X2154Y1964D01*
X2154Y1962D01*
X2156Y1962D01*
X2156Y1960D01*
X2178Y1960D01*
X2178Y1962D01*
X2180Y1962D01*
X2180Y1966D01*
X2182Y1966D01*
X2182Y1968D01*
X2184Y1968D01*
X2184Y1970D01*
X2188Y1970D01*
X2188Y1972D01*
X2190Y1972D01*
X2190Y1974D01*
X2192Y1974D01*
X2192Y1976D01*
X2196Y1976D01*
X2196Y1978D01*
X2198Y1978D01*
X2198Y1980D01*
X2202Y1980D01*
X2202Y1982D01*
X2206Y1982D01*
X2206Y1984D01*
X2212Y1984D01*
X2212Y1986D01*
X2218Y1986D01*
X2218Y1988D01*
X1928Y1988D01*
G37*
D02*
G36*
X1904Y1978D02*
X1904Y1976D01*
X1900Y1976D01*
X1900Y1974D01*
X1894Y1974D01*
X1894Y1972D01*
X1890Y1972D01*
X1890Y1970D01*
X1884Y1970D01*
X1884Y1968D01*
X1880Y1968D01*
X1880Y1966D01*
X1878Y1966D01*
X1878Y1964D01*
X1876Y1964D01*
X1876Y1962D01*
X1874Y1962D01*
X1874Y1958D01*
X1872Y1958D01*
X1872Y1956D01*
X1870Y1956D01*
X1870Y1952D01*
X1868Y1952D01*
X1868Y1950D01*
X1866Y1950D01*
X1866Y1946D01*
X1864Y1946D01*
X1864Y1942D01*
X1862Y1942D01*
X1862Y1940D01*
X1860Y1940D01*
X1860Y1936D01*
X1858Y1936D01*
X1858Y1934D01*
X1856Y1934D01*
X1856Y1930D01*
X1854Y1930D01*
X1854Y1928D01*
X1852Y1928D01*
X1852Y1924D01*
X1850Y1924D01*
X1850Y1922D01*
X1848Y1922D01*
X1848Y1918D01*
X1846Y1918D01*
X1846Y1916D01*
X1844Y1916D01*
X1844Y1912D01*
X1842Y1912D01*
X1842Y1910D01*
X1840Y1910D01*
X1840Y1908D01*
X1910Y1908D01*
X1910Y1906D01*
X1920Y1906D01*
X1920Y1904D01*
X1926Y1904D01*
X1926Y1902D01*
X1930Y1902D01*
X1930Y1900D01*
X1934Y1900D01*
X1934Y1898D01*
X1936Y1898D01*
X1936Y1896D01*
X1940Y1896D01*
X1940Y1894D01*
X1942Y1894D01*
X1942Y1892D01*
X1946Y1892D01*
X1946Y1890D01*
X1948Y1890D01*
X1948Y1888D01*
X1950Y1888D01*
X1950Y1886D01*
X1952Y1886D01*
X1952Y1884D01*
X1954Y1884D01*
X1954Y1882D01*
X1956Y1882D01*
X1956Y1878D01*
X1958Y1878D01*
X1958Y1876D01*
X1960Y1876D01*
X1960Y1872D01*
X1962Y1872D01*
X1962Y1868D01*
X1964Y1868D01*
X1964Y1864D01*
X1966Y1864D01*
X1966Y1860D01*
X1968Y1860D01*
X1968Y1854D01*
X1970Y1854D01*
X1970Y1842D01*
X1972Y1842D01*
X1972Y1830D01*
X1970Y1830D01*
X1970Y1818D01*
X1968Y1818D01*
X1968Y1812D01*
X1966Y1812D01*
X1966Y1806D01*
X1964Y1806D01*
X1964Y1802D01*
X1962Y1802D01*
X1962Y1798D01*
X1960Y1798D01*
X1960Y1796D01*
X1958Y1796D01*
X1958Y1776D01*
X1960Y1776D01*
X1960Y1772D01*
X1962Y1772D01*
X1962Y1768D01*
X1964Y1768D01*
X1964Y1764D01*
X1966Y1764D01*
X1966Y1760D01*
X1968Y1760D01*
X1968Y1754D01*
X1970Y1754D01*
X1970Y1742D01*
X1972Y1742D01*
X1972Y1738D01*
X1992Y1738D01*
X1992Y1736D01*
X2002Y1736D01*
X2002Y1734D01*
X2010Y1734D01*
X2010Y1732D01*
X2014Y1732D01*
X2014Y1730D01*
X2018Y1730D01*
X2018Y1728D01*
X2020Y1728D01*
X2020Y1726D01*
X2024Y1726D01*
X2024Y1724D01*
X2026Y1724D01*
X2026Y1722D01*
X2046Y1722D01*
X2046Y1730D01*
X2048Y1730D01*
X2048Y1736D01*
X2050Y1736D01*
X2050Y1740D01*
X2052Y1740D01*
X2052Y1744D01*
X2054Y1744D01*
X2054Y1748D01*
X2056Y1748D01*
X2056Y1750D01*
X2058Y1750D01*
X2058Y1772D01*
X2056Y1772D01*
X2056Y1774D01*
X2054Y1774D01*
X2054Y1778D01*
X2052Y1778D01*
X2052Y1780D01*
X2050Y1780D01*
X2050Y1786D01*
X2048Y1786D01*
X2048Y1790D01*
X2046Y1790D01*
X2046Y1800D01*
X2044Y1800D01*
X2044Y1822D01*
X2046Y1822D01*
X2046Y1830D01*
X2048Y1830D01*
X2048Y1836D01*
X2050Y1836D01*
X2050Y1840D01*
X2052Y1840D01*
X2052Y1844D01*
X2054Y1844D01*
X2054Y1848D01*
X2056Y1848D01*
X2056Y1850D01*
X2058Y1850D01*
X2058Y1872D01*
X2056Y1872D01*
X2056Y1874D01*
X2054Y1874D01*
X2054Y1878D01*
X2052Y1878D01*
X2052Y1880D01*
X2050Y1880D01*
X2050Y1886D01*
X2048Y1886D01*
X2048Y1890D01*
X2046Y1890D01*
X2046Y1900D01*
X2044Y1900D01*
X2044Y1922D01*
X2046Y1922D01*
X2046Y1930D01*
X2048Y1930D01*
X2048Y1936D01*
X2050Y1936D01*
X2050Y1940D01*
X2052Y1940D01*
X2052Y1944D01*
X2054Y1944D01*
X2054Y1948D01*
X2056Y1948D01*
X2056Y1950D01*
X2058Y1950D01*
X2058Y1952D01*
X2060Y1952D01*
X2060Y1956D01*
X2062Y1956D01*
X2062Y1958D01*
X2064Y1958D01*
X2064Y1960D01*
X2066Y1960D01*
X2066Y1962D01*
X2070Y1962D01*
X2070Y1964D01*
X2072Y1964D01*
X2072Y1966D01*
X2074Y1966D01*
X2074Y1968D01*
X2078Y1968D01*
X2078Y1970D01*
X2082Y1970D01*
X2082Y1972D01*
X2086Y1972D01*
X2086Y1974D01*
X2092Y1974D01*
X2092Y1976D01*
X2098Y1976D01*
X2098Y1978D01*
X1904Y1978D01*
G37*
D02*
G36*
X1840Y1908D02*
X1840Y1906D01*
X1838Y1906D01*
X1838Y1902D01*
X1836Y1902D01*
X1836Y1900D01*
X1834Y1900D01*
X1834Y1896D01*
X1832Y1896D01*
X1832Y1894D01*
X1830Y1894D01*
X1830Y1890D01*
X1828Y1890D01*
X1828Y1888D01*
X1826Y1888D01*
X1826Y1884D01*
X1824Y1884D01*
X1824Y1882D01*
X1822Y1882D01*
X1822Y1878D01*
X1820Y1878D01*
X1820Y1876D01*
X1818Y1876D01*
X1818Y1872D01*
X1816Y1872D01*
X1816Y1870D01*
X1814Y1870D01*
X1814Y1866D01*
X1812Y1866D01*
X1812Y1864D01*
X1810Y1864D01*
X1810Y1862D01*
X1808Y1862D01*
X1808Y1860D01*
X1806Y1860D01*
X1806Y1858D01*
X1804Y1858D01*
X1804Y1856D01*
X1802Y1856D01*
X1802Y1854D01*
X1798Y1854D01*
X1798Y1852D01*
X1794Y1852D01*
X1794Y1850D01*
X1790Y1850D01*
X1790Y1848D01*
X1782Y1848D01*
X1782Y1828D01*
X1804Y1828D01*
X1804Y1830D01*
X1806Y1830D01*
X1806Y1832D01*
X1810Y1832D01*
X1810Y1834D01*
X1812Y1834D01*
X1812Y1836D01*
X1816Y1836D01*
X1816Y1838D01*
X1818Y1838D01*
X1818Y1840D01*
X1822Y1840D01*
X1822Y1842D01*
X1824Y1842D01*
X1824Y1844D01*
X1828Y1844D01*
X1828Y1854D01*
X1830Y1854D01*
X1830Y1860D01*
X1832Y1860D01*
X1832Y1866D01*
X1834Y1866D01*
X1834Y1870D01*
X1836Y1870D01*
X1836Y1872D01*
X1838Y1872D01*
X1838Y1876D01*
X1840Y1876D01*
X1840Y1878D01*
X1842Y1878D01*
X1842Y1882D01*
X1844Y1882D01*
X1844Y1884D01*
X1846Y1884D01*
X1846Y1886D01*
X1848Y1886D01*
X1848Y1888D01*
X1850Y1888D01*
X1850Y1890D01*
X1852Y1890D01*
X1852Y1892D01*
X1856Y1892D01*
X1856Y1894D01*
X1858Y1894D01*
X1858Y1896D01*
X1860Y1896D01*
X1860Y1898D01*
X1864Y1898D01*
X1864Y1900D01*
X1868Y1900D01*
X1868Y1902D01*
X1872Y1902D01*
X1872Y1904D01*
X1878Y1904D01*
X1878Y1906D01*
X1888Y1906D01*
X1888Y1908D01*
X1840Y1908D01*
G37*
D02*
G36*
X980Y2114D02*
X980Y2096D01*
X982Y2096D01*
X982Y2094D01*
X986Y2094D01*
X986Y2092D01*
X988Y2092D01*
X988Y2090D01*
X990Y2090D01*
X990Y2086D01*
X992Y2086D01*
X992Y2084D01*
X994Y2084D01*
X994Y2082D01*
X996Y2082D01*
X996Y2080D01*
X998Y2080D01*
X998Y2076D01*
X1000Y2076D01*
X1000Y2074D01*
X1002Y2074D01*
X1002Y2070D01*
X1004Y2070D01*
X1004Y2066D01*
X1006Y2066D01*
X1006Y2062D01*
X1008Y2062D01*
X1008Y2058D01*
X1028Y2058D01*
X1028Y2060D01*
X1030Y2060D01*
X1030Y2066D01*
X1032Y2066D01*
X1032Y2068D01*
X1034Y2068D01*
X1034Y2072D01*
X1036Y2072D01*
X1036Y2076D01*
X1038Y2076D01*
X1038Y2078D01*
X1040Y2078D01*
X1040Y2082D01*
X1042Y2082D01*
X1042Y2084D01*
X1044Y2084D01*
X1044Y2086D01*
X1046Y2086D01*
X1046Y2088D01*
X1048Y2088D01*
X1048Y2090D01*
X1050Y2090D01*
X1050Y2092D01*
X1052Y2092D01*
X1052Y2094D01*
X1054Y2094D01*
X1054Y2114D01*
X980Y2114D01*
G37*
D02*
G36*
X420Y2070D02*
X420Y2050D01*
X422Y2050D01*
X422Y2042D01*
X424Y2042D01*
X424Y2002D01*
X422Y2002D01*
X422Y1994D01*
X420Y1994D01*
X420Y1988D01*
X418Y1988D01*
X418Y1984D01*
X416Y1984D01*
X416Y1980D01*
X414Y1980D01*
X414Y1976D01*
X412Y1976D01*
X412Y1972D01*
X410Y1972D01*
X410Y1968D01*
X408Y1968D01*
X408Y1966D01*
X406Y1966D01*
X406Y1964D01*
X404Y1964D01*
X404Y1960D01*
X402Y1960D01*
X402Y1958D01*
X400Y1958D01*
X400Y1956D01*
X398Y1956D01*
X398Y1954D01*
X396Y1954D01*
X396Y1952D01*
X394Y1952D01*
X394Y1950D01*
X392Y1950D01*
X392Y1948D01*
X390Y1948D01*
X390Y1946D01*
X388Y1946D01*
X388Y1944D01*
X384Y1944D01*
X384Y1942D01*
X382Y1942D01*
X382Y1940D01*
X378Y1940D01*
X378Y1938D01*
X376Y1938D01*
X376Y1936D01*
X372Y1936D01*
X372Y1934D01*
X368Y1934D01*
X368Y1932D01*
X362Y1932D01*
X362Y1930D01*
X358Y1930D01*
X358Y1928D01*
X350Y1928D01*
X350Y1926D01*
X338Y1926D01*
X338Y1924D01*
X556Y1924D01*
X556Y1930D01*
X554Y1930D01*
X554Y1944D01*
X552Y1944D01*
X552Y1956D01*
X550Y1956D01*
X550Y1970D01*
X548Y1970D01*
X548Y1984D01*
X546Y1984D01*
X546Y1996D01*
X544Y1996D01*
X544Y2010D01*
X542Y2010D01*
X542Y2024D01*
X540Y2024D01*
X540Y2036D01*
X538Y2036D01*
X538Y2050D01*
X536Y2050D01*
X536Y2064D01*
X534Y2064D01*
X534Y2070D01*
X420Y2070D01*
G37*
D02*
G36*
X640Y2070D02*
X640Y2044D01*
X642Y2044D01*
X642Y2030D01*
X644Y2030D01*
X644Y2018D01*
X646Y2018D01*
X646Y2004D01*
X648Y2004D01*
X648Y1990D01*
X650Y1990D01*
X650Y1978D01*
X652Y1978D01*
X652Y1964D01*
X654Y1964D01*
X654Y1950D01*
X656Y1950D01*
X656Y1938D01*
X658Y1938D01*
X658Y1924D01*
X906Y1924D01*
X906Y1926D01*
X894Y1926D01*
X894Y1928D01*
X888Y1928D01*
X888Y1930D01*
X882Y1930D01*
X882Y1932D01*
X878Y1932D01*
X878Y1934D01*
X874Y1934D01*
X874Y1936D01*
X870Y1936D01*
X870Y1938D01*
X866Y1938D01*
X866Y1940D01*
X864Y1940D01*
X864Y1942D01*
X860Y1942D01*
X860Y1944D01*
X858Y1944D01*
X858Y1946D01*
X854Y1946D01*
X854Y1948D01*
X852Y1948D01*
X852Y1950D01*
X850Y1950D01*
X850Y1952D01*
X848Y1952D01*
X848Y1954D01*
X846Y1954D01*
X846Y1956D01*
X844Y1956D01*
X844Y1958D01*
X842Y1958D01*
X842Y1962D01*
X840Y1962D01*
X840Y1964D01*
X838Y1964D01*
X838Y1966D01*
X836Y1966D01*
X836Y1970D01*
X834Y1970D01*
X834Y1974D01*
X832Y1974D01*
X832Y1976D01*
X830Y1976D01*
X830Y1980D01*
X828Y1980D01*
X828Y1984D01*
X826Y1984D01*
X826Y1990D01*
X824Y1990D01*
X824Y1996D01*
X822Y1996D01*
X822Y2006D01*
X820Y2006D01*
X820Y2038D01*
X822Y2038D01*
X822Y2048D01*
X824Y2048D01*
X824Y2068D01*
X718Y2068D01*
X718Y2070D01*
X640Y2070D01*
G37*
D02*
G36*
X208Y2034D02*
X208Y2032D01*
X206Y2032D01*
X206Y2030D01*
X202Y2030D01*
X202Y2028D01*
X200Y2028D01*
X200Y2026D01*
X196Y2026D01*
X196Y1924D01*
X316Y1924D01*
X316Y1926D01*
X304Y1926D01*
X304Y1928D01*
X296Y1928D01*
X296Y1930D01*
X292Y1930D01*
X292Y1932D01*
X286Y1932D01*
X286Y1934D01*
X282Y1934D01*
X282Y1936D01*
X278Y1936D01*
X278Y1938D01*
X276Y1938D01*
X276Y1940D01*
X272Y1940D01*
X272Y1942D01*
X270Y1942D01*
X270Y1944D01*
X268Y1944D01*
X268Y1946D01*
X264Y1946D01*
X264Y1948D01*
X262Y1948D01*
X262Y1950D01*
X260Y1950D01*
X260Y1952D01*
X258Y1952D01*
X258Y1954D01*
X256Y1954D01*
X256Y1956D01*
X254Y1956D01*
X254Y1958D01*
X252Y1958D01*
X252Y1960D01*
X250Y1960D01*
X250Y1964D01*
X248Y1964D01*
X248Y1966D01*
X246Y1966D01*
X246Y1968D01*
X244Y1968D01*
X244Y1972D01*
X242Y1972D01*
X242Y1976D01*
X240Y1976D01*
X240Y1980D01*
X238Y1980D01*
X238Y1984D01*
X236Y1984D01*
X236Y1988D01*
X234Y1988D01*
X234Y1994D01*
X232Y1994D01*
X232Y2002D01*
X230Y2002D01*
X230Y2034D01*
X208Y2034D01*
G37*
D02*
G36*
X1216Y2006D02*
X1216Y2002D01*
X1214Y2002D01*
X1214Y1994D01*
X1212Y1994D01*
X1212Y1988D01*
X1210Y1988D01*
X1210Y1984D01*
X1208Y1984D01*
X1208Y1980D01*
X1206Y1980D01*
X1206Y1976D01*
X1204Y1976D01*
X1204Y1972D01*
X1202Y1972D01*
X1202Y1970D01*
X1200Y1970D01*
X1200Y1966D01*
X1198Y1966D01*
X1198Y1964D01*
X1196Y1964D01*
X1196Y1960D01*
X1194Y1960D01*
X1194Y1958D01*
X1192Y1958D01*
X1192Y1956D01*
X1190Y1956D01*
X1190Y1954D01*
X1188Y1954D01*
X1188Y1952D01*
X1186Y1952D01*
X1186Y1950D01*
X1184Y1950D01*
X1184Y1948D01*
X1182Y1948D01*
X1182Y1946D01*
X1178Y1946D01*
X1178Y1944D01*
X1176Y1944D01*
X1176Y1942D01*
X1174Y1942D01*
X1174Y1940D01*
X1170Y1940D01*
X1170Y1938D01*
X1166Y1938D01*
X1166Y1936D01*
X1164Y1936D01*
X1164Y1934D01*
X1160Y1934D01*
X1160Y1932D01*
X1154Y1932D01*
X1154Y1930D01*
X1148Y1930D01*
X1148Y1928D01*
X1142Y1928D01*
X1142Y1926D01*
X1130Y1926D01*
X1130Y1924D01*
X1288Y1924D01*
X1288Y1928D01*
X1286Y1928D01*
X1286Y1930D01*
X1284Y1930D01*
X1284Y1934D01*
X1282Y1934D01*
X1282Y1936D01*
X1280Y1936D01*
X1280Y1940D01*
X1278Y1940D01*
X1278Y1942D01*
X1276Y1942D01*
X1276Y1946D01*
X1274Y1946D01*
X1274Y1948D01*
X1272Y1948D01*
X1272Y1952D01*
X1270Y1952D01*
X1270Y1954D01*
X1268Y1954D01*
X1268Y1958D01*
X1266Y1958D01*
X1266Y1960D01*
X1264Y1960D01*
X1264Y1964D01*
X1262Y1964D01*
X1262Y1968D01*
X1260Y1968D01*
X1260Y1970D01*
X1258Y1970D01*
X1258Y1974D01*
X1256Y1974D01*
X1256Y1976D01*
X1254Y1976D01*
X1254Y1980D01*
X1252Y1980D01*
X1252Y1982D01*
X1250Y1982D01*
X1250Y1986D01*
X1248Y1986D01*
X1248Y1988D01*
X1246Y1988D01*
X1246Y1992D01*
X1244Y1992D01*
X1244Y1994D01*
X1242Y1994D01*
X1242Y1998D01*
X1240Y1998D01*
X1240Y2000D01*
X1238Y2000D01*
X1238Y2004D01*
X1236Y2004D01*
X1236Y2006D01*
X1216Y2006D01*
G37*
D02*
G36*
X1008Y1988D02*
X1008Y1982D01*
X1006Y1982D01*
X1006Y1978D01*
X1004Y1978D01*
X1004Y1974D01*
X1002Y1974D01*
X1002Y1972D01*
X1000Y1972D01*
X1000Y1968D01*
X998Y1968D01*
X998Y1966D01*
X996Y1966D01*
X996Y1962D01*
X994Y1962D01*
X994Y1960D01*
X992Y1960D01*
X992Y1958D01*
X990Y1958D01*
X990Y1956D01*
X988Y1956D01*
X988Y1954D01*
X986Y1954D01*
X986Y1952D01*
X984Y1952D01*
X984Y1950D01*
X982Y1950D01*
X982Y1948D01*
X980Y1948D01*
X980Y1946D01*
X978Y1946D01*
X978Y1944D01*
X974Y1944D01*
X974Y1942D01*
X972Y1942D01*
X972Y1940D01*
X968Y1940D01*
X968Y1938D01*
X966Y1938D01*
X966Y1936D01*
X962Y1936D01*
X962Y1934D01*
X958Y1934D01*
X958Y1932D01*
X954Y1932D01*
X954Y1930D01*
X948Y1930D01*
X948Y1928D01*
X940Y1928D01*
X940Y1926D01*
X930Y1926D01*
X930Y1924D01*
X1108Y1924D01*
X1108Y1926D01*
X1096Y1926D01*
X1096Y1928D01*
X1090Y1928D01*
X1090Y1930D01*
X1084Y1930D01*
X1084Y1932D01*
X1080Y1932D01*
X1080Y1934D01*
X1076Y1934D01*
X1076Y1936D01*
X1072Y1936D01*
X1072Y1938D01*
X1068Y1938D01*
X1068Y1940D01*
X1064Y1940D01*
X1064Y1942D01*
X1062Y1942D01*
X1062Y1944D01*
X1060Y1944D01*
X1060Y1946D01*
X1056Y1946D01*
X1056Y1948D01*
X1054Y1948D01*
X1054Y1950D01*
X1052Y1950D01*
X1052Y1952D01*
X1050Y1952D01*
X1050Y1954D01*
X1048Y1954D01*
X1048Y1956D01*
X1046Y1956D01*
X1046Y1958D01*
X1044Y1958D01*
X1044Y1960D01*
X1042Y1960D01*
X1042Y1964D01*
X1040Y1964D01*
X1040Y1966D01*
X1038Y1966D01*
X1038Y1970D01*
X1036Y1970D01*
X1036Y1972D01*
X1034Y1972D01*
X1034Y1976D01*
X1032Y1976D01*
X1032Y1980D01*
X1030Y1980D01*
X1030Y1984D01*
X1028Y1984D01*
X1028Y1988D01*
X1008Y1988D01*
G37*
D02*
G36*
X196Y1924D02*
X196Y1922D01*
X556Y1922D01*
X556Y1924D01*
X196Y1924D01*
G37*
D02*
G36*
X196Y1924D02*
X196Y1922D01*
X556Y1922D01*
X556Y1924D01*
X196Y1924D01*
G37*
D02*
G36*
X660Y1924D02*
X660Y1922D01*
X1290Y1922D01*
X1290Y1924D01*
X660Y1924D01*
G37*
D02*
G36*
X660Y1924D02*
X660Y1922D01*
X1290Y1922D01*
X1290Y1924D01*
X660Y1924D01*
G37*
D02*
G36*
X660Y1924D02*
X660Y1922D01*
X1290Y1922D01*
X1290Y1924D01*
X660Y1924D01*
G37*
D02*
G36*
X196Y1922D02*
X196Y1898D01*
X338Y1898D01*
X338Y1896D01*
X346Y1896D01*
X346Y1894D01*
X352Y1894D01*
X352Y1892D01*
X358Y1892D01*
X358Y1890D01*
X362Y1890D01*
X362Y1888D01*
X364Y1888D01*
X364Y1886D01*
X368Y1886D01*
X368Y1884D01*
X370Y1884D01*
X370Y1882D01*
X374Y1882D01*
X374Y1880D01*
X376Y1880D01*
X376Y1878D01*
X378Y1878D01*
X378Y1876D01*
X380Y1876D01*
X380Y1874D01*
X382Y1874D01*
X382Y1872D01*
X384Y1872D01*
X384Y1868D01*
X386Y1868D01*
X386Y1866D01*
X388Y1866D01*
X388Y1862D01*
X390Y1862D01*
X390Y1860D01*
X392Y1860D01*
X392Y1856D01*
X394Y1856D01*
X394Y1850D01*
X396Y1850D01*
X396Y1844D01*
X398Y1844D01*
X398Y1834D01*
X400Y1834D01*
X400Y1818D01*
X398Y1818D01*
X398Y1800D01*
X432Y1800D01*
X432Y1798D01*
X444Y1798D01*
X444Y1796D01*
X450Y1796D01*
X450Y1794D01*
X456Y1794D01*
X456Y1792D01*
X460Y1792D01*
X460Y1790D01*
X462Y1790D01*
X462Y1788D01*
X466Y1788D01*
X466Y1786D01*
X468Y1786D01*
X468Y1784D01*
X472Y1784D01*
X472Y1782D01*
X474Y1782D01*
X474Y1780D01*
X520Y1780D01*
X520Y1778D01*
X530Y1778D01*
X530Y1776D01*
X536Y1776D01*
X536Y1774D01*
X540Y1774D01*
X540Y1772D01*
X542Y1772D01*
X542Y1770D01*
X546Y1770D01*
X546Y1768D01*
X548Y1768D01*
X548Y1766D01*
X550Y1766D01*
X550Y1764D01*
X552Y1764D01*
X552Y1762D01*
X554Y1762D01*
X554Y1760D01*
X556Y1760D01*
X556Y1756D01*
X558Y1756D01*
X558Y1754D01*
X560Y1754D01*
X560Y1752D01*
X620Y1752D01*
X620Y1754D01*
X606Y1754D01*
X606Y1756D01*
X598Y1756D01*
X598Y1758D01*
X594Y1758D01*
X594Y1760D01*
X590Y1760D01*
X590Y1762D01*
X586Y1762D01*
X586Y1764D01*
X582Y1764D01*
X582Y1766D01*
X580Y1766D01*
X580Y1768D01*
X576Y1768D01*
X576Y1770D01*
X574Y1770D01*
X574Y1772D01*
X572Y1772D01*
X572Y1774D01*
X570Y1774D01*
X570Y1776D01*
X568Y1776D01*
X568Y1778D01*
X566Y1778D01*
X566Y1782D01*
X564Y1782D01*
X564Y1784D01*
X562Y1784D01*
X562Y1788D01*
X560Y1788D01*
X560Y1790D01*
X558Y1790D01*
X558Y1794D01*
X556Y1794D01*
X556Y1798D01*
X554Y1798D01*
X554Y1804D01*
X552Y1804D01*
X552Y1812D01*
X550Y1812D01*
X550Y1838D01*
X552Y1838D01*
X552Y1846D01*
X554Y1846D01*
X554Y1852D01*
X556Y1852D01*
X556Y1856D01*
X558Y1856D01*
X558Y1860D01*
X560Y1860D01*
X560Y1864D01*
X562Y1864D01*
X562Y1890D01*
X560Y1890D01*
X560Y1904D01*
X558Y1904D01*
X558Y1916D01*
X556Y1916D01*
X556Y1922D01*
X196Y1922D01*
G37*
D02*
G36*
X660Y1922D02*
X660Y1910D01*
X662Y1910D01*
X662Y1898D01*
X1130Y1898D01*
X1130Y1896D01*
X1140Y1896D01*
X1140Y1894D01*
X1146Y1894D01*
X1146Y1892D01*
X1150Y1892D01*
X1150Y1890D01*
X1154Y1890D01*
X1154Y1888D01*
X1158Y1888D01*
X1158Y1886D01*
X1160Y1886D01*
X1160Y1884D01*
X1162Y1884D01*
X1162Y1882D01*
X1166Y1882D01*
X1166Y1880D01*
X1168Y1880D01*
X1168Y1878D01*
X1170Y1878D01*
X1170Y1876D01*
X1172Y1876D01*
X1172Y1874D01*
X1174Y1874D01*
X1174Y1872D01*
X1176Y1872D01*
X1176Y1868D01*
X1178Y1868D01*
X1178Y1866D01*
X1180Y1866D01*
X1180Y1862D01*
X1182Y1862D01*
X1182Y1860D01*
X1184Y1860D01*
X1184Y1856D01*
X1186Y1856D01*
X1186Y1850D01*
X1188Y1850D01*
X1188Y1844D01*
X1190Y1844D01*
X1190Y1834D01*
X1192Y1834D01*
X1192Y1818D01*
X1190Y1818D01*
X1190Y1800D01*
X1226Y1800D01*
X1226Y1798D01*
X1236Y1798D01*
X1236Y1796D01*
X1242Y1796D01*
X1242Y1794D01*
X1248Y1794D01*
X1248Y1792D01*
X1252Y1792D01*
X1252Y1790D01*
X1254Y1790D01*
X1254Y1788D01*
X1258Y1788D01*
X1258Y1786D01*
X1260Y1786D01*
X1260Y1784D01*
X1264Y1784D01*
X1264Y1782D01*
X1266Y1782D01*
X1266Y1780D01*
X1268Y1780D01*
X1268Y1778D01*
X1270Y1778D01*
X1270Y1776D01*
X1272Y1776D01*
X1272Y1774D01*
X1274Y1774D01*
X1274Y1770D01*
X1276Y1770D01*
X1276Y1768D01*
X1278Y1768D01*
X1278Y1766D01*
X1280Y1766D01*
X1280Y1762D01*
X1282Y1762D01*
X1282Y1758D01*
X1284Y1758D01*
X1284Y1754D01*
X1286Y1754D01*
X1286Y1748D01*
X1288Y1748D01*
X1288Y1738D01*
X1290Y1738D01*
X1290Y1732D01*
X1292Y1732D01*
X1292Y1730D01*
X1294Y1730D01*
X1294Y1728D01*
X1296Y1728D01*
X1296Y1726D01*
X1300Y1726D01*
X1300Y1724D01*
X1328Y1724D01*
X1328Y1722D01*
X1338Y1722D01*
X1338Y1720D01*
X1362Y1720D01*
X1362Y1724D01*
X1364Y1724D01*
X1364Y1728D01*
X1366Y1728D01*
X1366Y1730D01*
X1368Y1730D01*
X1368Y1732D01*
X1370Y1732D01*
X1370Y1736D01*
X1372Y1736D01*
X1372Y1738D01*
X1374Y1738D01*
X1374Y1742D01*
X1376Y1742D01*
X1376Y1744D01*
X1378Y1744D01*
X1378Y1764D01*
X1374Y1764D01*
X1374Y1766D01*
X1372Y1766D01*
X1372Y1768D01*
X1370Y1768D01*
X1370Y1770D01*
X1366Y1770D01*
X1366Y1772D01*
X1364Y1772D01*
X1364Y1774D01*
X1362Y1774D01*
X1362Y1776D01*
X1360Y1776D01*
X1360Y1778D01*
X1358Y1778D01*
X1358Y1782D01*
X1356Y1782D01*
X1356Y1784D01*
X1354Y1784D01*
X1354Y1788D01*
X1352Y1788D01*
X1352Y1790D01*
X1350Y1790D01*
X1350Y1794D01*
X1348Y1794D01*
X1348Y1798D01*
X1346Y1798D01*
X1346Y1804D01*
X1344Y1804D01*
X1344Y1814D01*
X1342Y1814D01*
X1342Y1844D01*
X1340Y1844D01*
X1340Y1848D01*
X1338Y1848D01*
X1338Y1850D01*
X1336Y1850D01*
X1336Y1854D01*
X1334Y1854D01*
X1334Y1856D01*
X1332Y1856D01*
X1332Y1860D01*
X1330Y1860D01*
X1330Y1862D01*
X1328Y1862D01*
X1328Y1866D01*
X1326Y1866D01*
X1326Y1870D01*
X1324Y1870D01*
X1324Y1872D01*
X1322Y1872D01*
X1322Y1876D01*
X1320Y1876D01*
X1320Y1878D01*
X1318Y1878D01*
X1318Y1882D01*
X1316Y1882D01*
X1316Y1884D01*
X1314Y1884D01*
X1314Y1888D01*
X1312Y1888D01*
X1312Y1890D01*
X1310Y1890D01*
X1310Y1894D01*
X1308Y1894D01*
X1308Y1896D01*
X1306Y1896D01*
X1306Y1900D01*
X1304Y1900D01*
X1304Y1902D01*
X1302Y1902D01*
X1302Y1906D01*
X1300Y1906D01*
X1300Y1908D01*
X1298Y1908D01*
X1298Y1912D01*
X1296Y1912D01*
X1296Y1914D01*
X1294Y1914D01*
X1294Y1918D01*
X1292Y1918D01*
X1292Y1922D01*
X660Y1922D01*
G37*
D02*
G36*
X196Y1898D02*
X196Y1884D01*
X194Y1884D01*
X194Y1752D01*
X324Y1752D01*
X324Y1754D01*
X310Y1754D01*
X310Y1756D01*
X304Y1756D01*
X304Y1758D01*
X298Y1758D01*
X298Y1760D01*
X294Y1760D01*
X294Y1762D01*
X290Y1762D01*
X290Y1764D01*
X288Y1764D01*
X288Y1766D01*
X284Y1766D01*
X284Y1768D01*
X282Y1768D01*
X282Y1770D01*
X280Y1770D01*
X280Y1772D01*
X276Y1772D01*
X276Y1774D01*
X274Y1774D01*
X274Y1778D01*
X272Y1778D01*
X272Y1780D01*
X270Y1780D01*
X270Y1782D01*
X268Y1782D01*
X268Y1786D01*
X266Y1786D01*
X266Y1788D01*
X264Y1788D01*
X264Y1792D01*
X262Y1792D01*
X262Y1796D01*
X260Y1796D01*
X260Y1800D01*
X258Y1800D01*
X258Y1806D01*
X256Y1806D01*
X256Y1818D01*
X254Y1818D01*
X254Y1832D01*
X256Y1832D01*
X256Y1844D01*
X258Y1844D01*
X258Y1850D01*
X260Y1850D01*
X260Y1856D01*
X262Y1856D01*
X262Y1860D01*
X264Y1860D01*
X264Y1862D01*
X266Y1862D01*
X266Y1866D01*
X268Y1866D01*
X268Y1868D01*
X270Y1868D01*
X270Y1872D01*
X272Y1872D01*
X272Y1874D01*
X274Y1874D01*
X274Y1876D01*
X276Y1876D01*
X276Y1878D01*
X278Y1878D01*
X278Y1880D01*
X280Y1880D01*
X280Y1882D01*
X284Y1882D01*
X284Y1884D01*
X286Y1884D01*
X286Y1886D01*
X290Y1886D01*
X290Y1888D01*
X292Y1888D01*
X292Y1890D01*
X296Y1890D01*
X296Y1892D01*
X302Y1892D01*
X302Y1894D01*
X308Y1894D01*
X308Y1896D01*
X316Y1896D01*
X316Y1898D01*
X196Y1898D01*
G37*
D02*
G36*
X664Y1898D02*
X664Y1884D01*
X666Y1884D01*
X666Y1882D01*
X668Y1882D01*
X668Y1880D01*
X670Y1880D01*
X670Y1878D01*
X674Y1878D01*
X674Y1874D01*
X676Y1874D01*
X676Y1872D01*
X678Y1872D01*
X678Y1870D01*
X680Y1870D01*
X680Y1868D01*
X682Y1868D01*
X682Y1864D01*
X684Y1864D01*
X684Y1862D01*
X686Y1862D01*
X686Y1858D01*
X688Y1858D01*
X688Y1854D01*
X690Y1854D01*
X690Y1848D01*
X692Y1848D01*
X692Y1842D01*
X694Y1842D01*
X694Y1810D01*
X692Y1810D01*
X692Y1802D01*
X690Y1802D01*
X690Y1800D01*
X826Y1800D01*
X826Y1798D01*
X846Y1798D01*
X846Y1842D01*
X848Y1842D01*
X848Y1848D01*
X850Y1848D01*
X850Y1854D01*
X852Y1854D01*
X852Y1858D01*
X854Y1858D01*
X854Y1862D01*
X856Y1862D01*
X856Y1864D01*
X858Y1864D01*
X858Y1868D01*
X860Y1868D01*
X860Y1870D01*
X862Y1870D01*
X862Y1872D01*
X864Y1872D01*
X864Y1876D01*
X866Y1876D01*
X866Y1878D01*
X870Y1878D01*
X870Y1880D01*
X872Y1880D01*
X872Y1882D01*
X874Y1882D01*
X874Y1884D01*
X876Y1884D01*
X876Y1886D01*
X880Y1886D01*
X880Y1888D01*
X884Y1888D01*
X884Y1890D01*
X888Y1890D01*
X888Y1892D01*
X892Y1892D01*
X892Y1894D01*
X898Y1894D01*
X898Y1896D01*
X908Y1896D01*
X908Y1898D01*
X664Y1898D01*
G37*
D02*
G36*
X928Y1898D02*
X928Y1896D01*
X938Y1896D01*
X938Y1894D01*
X944Y1894D01*
X944Y1892D01*
X948Y1892D01*
X948Y1890D01*
X952Y1890D01*
X952Y1888D01*
X956Y1888D01*
X956Y1886D01*
X958Y1886D01*
X958Y1884D01*
X962Y1884D01*
X962Y1882D01*
X964Y1882D01*
X964Y1880D01*
X966Y1880D01*
X966Y1878D01*
X968Y1878D01*
X968Y1876D01*
X970Y1876D01*
X970Y1874D01*
X972Y1874D01*
X972Y1872D01*
X974Y1872D01*
X974Y1870D01*
X976Y1870D01*
X976Y1866D01*
X978Y1866D01*
X978Y1864D01*
X980Y1864D01*
X980Y1860D01*
X982Y1860D01*
X982Y1856D01*
X984Y1856D01*
X984Y1852D01*
X986Y1852D01*
X986Y1846D01*
X988Y1846D01*
X988Y1838D01*
X990Y1838D01*
X990Y1814D01*
X988Y1814D01*
X988Y1804D01*
X986Y1804D01*
X986Y1798D01*
X984Y1798D01*
X984Y1794D01*
X982Y1794D01*
X982Y1790D01*
X980Y1790D01*
X980Y1788D01*
X978Y1788D01*
X978Y1784D01*
X976Y1784D01*
X976Y1782D01*
X974Y1782D01*
X974Y1778D01*
X972Y1778D01*
X972Y1776D01*
X970Y1776D01*
X970Y1774D01*
X968Y1774D01*
X968Y1772D01*
X966Y1772D01*
X966Y1770D01*
X962Y1770D01*
X962Y1768D01*
X960Y1768D01*
X960Y1766D01*
X958Y1766D01*
X958Y1764D01*
X954Y1764D01*
X954Y1762D01*
X950Y1762D01*
X950Y1760D01*
X946Y1760D01*
X946Y1758D01*
X942Y1758D01*
X942Y1756D01*
X934Y1756D01*
X934Y1754D01*
X920Y1754D01*
X920Y1752D01*
X1146Y1752D01*
X1146Y1754D01*
X1102Y1754D01*
X1102Y1756D01*
X1096Y1756D01*
X1096Y1758D01*
X1090Y1758D01*
X1090Y1760D01*
X1086Y1760D01*
X1086Y1762D01*
X1082Y1762D01*
X1082Y1764D01*
X1080Y1764D01*
X1080Y1766D01*
X1076Y1766D01*
X1076Y1768D01*
X1074Y1768D01*
X1074Y1770D01*
X1072Y1770D01*
X1072Y1772D01*
X1070Y1772D01*
X1070Y1774D01*
X1068Y1774D01*
X1068Y1776D01*
X1066Y1776D01*
X1066Y1778D01*
X1064Y1778D01*
X1064Y1780D01*
X1062Y1780D01*
X1062Y1782D01*
X1060Y1782D01*
X1060Y1786D01*
X1058Y1786D01*
X1058Y1788D01*
X1056Y1788D01*
X1056Y1792D01*
X1054Y1792D01*
X1054Y1796D01*
X1052Y1796D01*
X1052Y1800D01*
X1050Y1800D01*
X1050Y1808D01*
X1048Y1808D01*
X1048Y1818D01*
X1046Y1818D01*
X1046Y1832D01*
X1048Y1832D01*
X1048Y1844D01*
X1050Y1844D01*
X1050Y1850D01*
X1052Y1850D01*
X1052Y1856D01*
X1054Y1856D01*
X1054Y1860D01*
X1056Y1860D01*
X1056Y1862D01*
X1058Y1862D01*
X1058Y1866D01*
X1060Y1866D01*
X1060Y1868D01*
X1062Y1868D01*
X1062Y1872D01*
X1064Y1872D01*
X1064Y1874D01*
X1066Y1874D01*
X1066Y1876D01*
X1068Y1876D01*
X1068Y1878D01*
X1070Y1878D01*
X1070Y1880D01*
X1072Y1880D01*
X1072Y1882D01*
X1076Y1882D01*
X1076Y1884D01*
X1078Y1884D01*
X1078Y1886D01*
X1082Y1886D01*
X1082Y1888D01*
X1084Y1888D01*
X1084Y1890D01*
X1088Y1890D01*
X1088Y1892D01*
X1092Y1892D01*
X1092Y1894D01*
X1098Y1894D01*
X1098Y1896D01*
X1108Y1896D01*
X1108Y1898D01*
X928Y1898D01*
G37*
D02*
G36*
X398Y1800D02*
X398Y1798D01*
X418Y1798D01*
X418Y1800D01*
X398Y1800D01*
G37*
D02*
G36*
X690Y1800D02*
X690Y1796D01*
X688Y1796D01*
X688Y1792D01*
X686Y1792D01*
X686Y1790D01*
X684Y1790D01*
X684Y1786D01*
X682Y1786D01*
X682Y1784D01*
X680Y1784D01*
X680Y1780D01*
X678Y1780D01*
X678Y1778D01*
X676Y1778D01*
X676Y1776D01*
X674Y1776D01*
X674Y1774D01*
X672Y1774D01*
X672Y1772D01*
X670Y1772D01*
X670Y1770D01*
X668Y1770D01*
X668Y1768D01*
X664Y1768D01*
X664Y1766D01*
X662Y1766D01*
X662Y1764D01*
X658Y1764D01*
X658Y1762D01*
X656Y1762D01*
X656Y1760D01*
X652Y1760D01*
X652Y1758D01*
X646Y1758D01*
X646Y1756D01*
X640Y1756D01*
X640Y1754D01*
X626Y1754D01*
X626Y1752D01*
X752Y1752D01*
X752Y1756D01*
X754Y1756D01*
X754Y1760D01*
X756Y1760D01*
X756Y1764D01*
X758Y1764D01*
X758Y1766D01*
X760Y1766D01*
X760Y1770D01*
X762Y1770D01*
X762Y1772D01*
X764Y1772D01*
X764Y1774D01*
X766Y1774D01*
X766Y1778D01*
X768Y1778D01*
X768Y1780D01*
X772Y1780D01*
X772Y1782D01*
X774Y1782D01*
X774Y1784D01*
X776Y1784D01*
X776Y1786D01*
X780Y1786D01*
X780Y1788D01*
X782Y1788D01*
X782Y1790D01*
X786Y1790D01*
X786Y1792D01*
X790Y1792D01*
X790Y1794D01*
X794Y1794D01*
X794Y1796D01*
X802Y1796D01*
X802Y1798D01*
X812Y1798D01*
X812Y1800D01*
X690Y1800D01*
G37*
D02*
G36*
X476Y1780D02*
X476Y1778D01*
X512Y1778D01*
X512Y1780D01*
X476Y1780D01*
G37*
D02*
G36*
X330Y1754D02*
X330Y1752D01*
X354Y1752D01*
X354Y1754D01*
X330Y1754D01*
G37*
D02*
G36*
X890Y1754D02*
X890Y1752D01*
X914Y1752D01*
X914Y1754D01*
X890Y1754D01*
G37*
D02*
G36*
X194Y1752D02*
X194Y1750D01*
X354Y1750D01*
X354Y1752D01*
X194Y1752D01*
G37*
D02*
G36*
X194Y1752D02*
X194Y1750D01*
X354Y1750D01*
X354Y1752D01*
X194Y1752D01*
G37*
D02*
G36*
X560Y1752D02*
X560Y1750D01*
X750Y1750D01*
X750Y1752D01*
X560Y1752D01*
G37*
D02*
G36*
X560Y1752D02*
X560Y1750D01*
X750Y1750D01*
X750Y1752D01*
X560Y1752D01*
G37*
D02*
G36*
X890Y1752D02*
X890Y1750D01*
X1146Y1750D01*
X1146Y1752D01*
X890Y1752D01*
G37*
D02*
G36*
X890Y1752D02*
X890Y1750D01*
X1146Y1750D01*
X1146Y1752D01*
X890Y1752D01*
G37*
D02*
G36*
X194Y1750D02*
X194Y1710D01*
X192Y1710D01*
X192Y1618D01*
X224Y1618D01*
X224Y1616D01*
X232Y1616D01*
X232Y1614D01*
X238Y1614D01*
X238Y1612D01*
X242Y1612D01*
X242Y1610D01*
X246Y1610D01*
X246Y1608D01*
X248Y1608D01*
X248Y1606D01*
X252Y1606D01*
X252Y1604D01*
X254Y1604D01*
X254Y1602D01*
X256Y1602D01*
X256Y1600D01*
X278Y1600D01*
X278Y1602D01*
X280Y1602D01*
X280Y1604D01*
X282Y1604D01*
X282Y1606D01*
X284Y1606D01*
X284Y1608D01*
X286Y1608D01*
X286Y1610D01*
X290Y1610D01*
X290Y1612D01*
X292Y1612D01*
X292Y1614D01*
X294Y1614D01*
X294Y1616D01*
X298Y1616D01*
X298Y1618D01*
X302Y1618D01*
X302Y1620D01*
X306Y1620D01*
X306Y1622D01*
X312Y1622D01*
X312Y1624D01*
X320Y1624D01*
X320Y1626D01*
X346Y1626D01*
X346Y1632D01*
X348Y1632D01*
X348Y1634D01*
X350Y1634D01*
X350Y1636D01*
X354Y1636D01*
X354Y1638D01*
X356Y1638D01*
X356Y1640D01*
X360Y1640D01*
X360Y1642D01*
X362Y1642D01*
X362Y1644D01*
X364Y1644D01*
X364Y1646D01*
X368Y1646D01*
X368Y1648D01*
X370Y1648D01*
X370Y1650D01*
X374Y1650D01*
X374Y1652D01*
X376Y1652D01*
X376Y1654D01*
X378Y1654D01*
X378Y1674D01*
X374Y1674D01*
X374Y1676D01*
X372Y1676D01*
X372Y1680D01*
X370Y1680D01*
X370Y1682D01*
X368Y1682D01*
X368Y1684D01*
X366Y1684D01*
X366Y1688D01*
X364Y1688D01*
X364Y1690D01*
X362Y1690D01*
X362Y1694D01*
X360Y1694D01*
X360Y1698D01*
X358Y1698D01*
X358Y1704D01*
X356Y1704D01*
X356Y1710D01*
X354Y1710D01*
X354Y1726D01*
X352Y1726D01*
X352Y1728D01*
X354Y1728D01*
X354Y1750D01*
X194Y1750D01*
G37*
D02*
G36*
X562Y1750D02*
X562Y1748D01*
X564Y1748D01*
X564Y1746D01*
X566Y1746D01*
X566Y1742D01*
X568Y1742D01*
X568Y1740D01*
X570Y1740D01*
X570Y1736D01*
X572Y1736D01*
X572Y1734D01*
X574Y1734D01*
X574Y1732D01*
X576Y1732D01*
X576Y1728D01*
X578Y1728D01*
X578Y1726D01*
X580Y1726D01*
X580Y1722D01*
X582Y1722D01*
X582Y1720D01*
X584Y1720D01*
X584Y1716D01*
X586Y1716D01*
X586Y1714D01*
X588Y1714D01*
X588Y1712D01*
X590Y1712D01*
X590Y1708D01*
X592Y1708D01*
X592Y1706D01*
X594Y1706D01*
X594Y1702D01*
X596Y1702D01*
X596Y1700D01*
X598Y1700D01*
X598Y1698D01*
X600Y1698D01*
X600Y1694D01*
X602Y1694D01*
X602Y1692D01*
X604Y1692D01*
X604Y1688D01*
X606Y1688D01*
X606Y1686D01*
X608Y1686D01*
X608Y1682D01*
X616Y1682D01*
X616Y1680D01*
X624Y1680D01*
X624Y1678D01*
X630Y1678D01*
X630Y1676D01*
X634Y1676D01*
X634Y1674D01*
X638Y1674D01*
X638Y1672D01*
X642Y1672D01*
X642Y1670D01*
X644Y1670D01*
X644Y1668D01*
X648Y1668D01*
X648Y1666D01*
X650Y1666D01*
X650Y1664D01*
X652Y1664D01*
X652Y1662D01*
X654Y1662D01*
X654Y1660D01*
X656Y1660D01*
X656Y1658D01*
X658Y1658D01*
X658Y1656D01*
X660Y1656D01*
X660Y1654D01*
X662Y1654D01*
X662Y1650D01*
X664Y1650D01*
X664Y1648D01*
X666Y1648D01*
X666Y1644D01*
X668Y1644D01*
X668Y1640D01*
X670Y1640D01*
X670Y1636D01*
X672Y1636D01*
X672Y1628D01*
X692Y1628D01*
X692Y1684D01*
X750Y1684D01*
X750Y1710D01*
X748Y1710D01*
X748Y1720D01*
X746Y1720D01*
X746Y1732D01*
X748Y1732D01*
X748Y1744D01*
X750Y1744D01*
X750Y1750D01*
X562Y1750D01*
G37*
D02*
G36*
X890Y1750D02*
X890Y1736D01*
X892Y1736D01*
X892Y1718D01*
X890Y1718D01*
X890Y1696D01*
X892Y1696D01*
X892Y1692D01*
X894Y1692D01*
X894Y1690D01*
X896Y1690D01*
X896Y1686D01*
X898Y1686D01*
X898Y1684D01*
X1078Y1684D01*
X1078Y1682D01*
X1086Y1682D01*
X1086Y1680D01*
X1092Y1680D01*
X1092Y1678D01*
X1096Y1678D01*
X1096Y1676D01*
X1100Y1676D01*
X1100Y1674D01*
X1104Y1674D01*
X1104Y1672D01*
X1106Y1672D01*
X1106Y1670D01*
X1108Y1670D01*
X1108Y1668D01*
X1112Y1668D01*
X1112Y1666D01*
X1114Y1666D01*
X1114Y1664D01*
X1116Y1664D01*
X1116Y1662D01*
X1118Y1662D01*
X1118Y1660D01*
X1120Y1660D01*
X1120Y1658D01*
X1154Y1658D01*
X1154Y1660D01*
X1156Y1660D01*
X1156Y1662D01*
X1158Y1662D01*
X1158Y1664D01*
X1160Y1664D01*
X1160Y1684D01*
X1158Y1684D01*
X1158Y1688D01*
X1156Y1688D01*
X1156Y1690D01*
X1154Y1690D01*
X1154Y1694D01*
X1152Y1694D01*
X1152Y1698D01*
X1150Y1698D01*
X1150Y1704D01*
X1148Y1704D01*
X1148Y1710D01*
X1146Y1710D01*
X1146Y1750D01*
X890Y1750D01*
G37*
D02*
G36*
X898Y1684D02*
X898Y1682D01*
X900Y1682D01*
X900Y1680D01*
X902Y1680D01*
X902Y1676D01*
X904Y1676D01*
X904Y1672D01*
X906Y1672D01*
X906Y1668D01*
X908Y1668D01*
X908Y1666D01*
X910Y1666D01*
X910Y1662D01*
X912Y1662D01*
X912Y1658D01*
X914Y1658D01*
X914Y1654D01*
X916Y1654D01*
X916Y1652D01*
X918Y1652D01*
X918Y1648D01*
X920Y1648D01*
X920Y1644D01*
X922Y1644D01*
X922Y1640D01*
X924Y1640D01*
X924Y1638D01*
X926Y1638D01*
X926Y1634D01*
X928Y1634D01*
X928Y1630D01*
X930Y1630D01*
X930Y1628D01*
X932Y1628D01*
X932Y1624D01*
X934Y1624D01*
X934Y1620D01*
X936Y1620D01*
X936Y1614D01*
X938Y1614D01*
X938Y1572D01*
X958Y1572D01*
X958Y1574D01*
X960Y1574D01*
X960Y1576D01*
X962Y1576D01*
X962Y1578D01*
X964Y1578D01*
X964Y1580D01*
X966Y1580D01*
X966Y1582D01*
X968Y1582D01*
X968Y1584D01*
X970Y1584D01*
X970Y1586D01*
X972Y1586D01*
X972Y1588D01*
X974Y1588D01*
X974Y1590D01*
X976Y1590D01*
X976Y1592D01*
X978Y1592D01*
X978Y1594D01*
X980Y1594D01*
X980Y1596D01*
X982Y1596D01*
X982Y1598D01*
X984Y1598D01*
X984Y1600D01*
X986Y1600D01*
X986Y1602D01*
X988Y1602D01*
X988Y1604D01*
X990Y1604D01*
X990Y1606D01*
X992Y1606D01*
X992Y1620D01*
X994Y1620D01*
X994Y1630D01*
X996Y1630D01*
X996Y1636D01*
X998Y1636D01*
X998Y1642D01*
X1000Y1642D01*
X1000Y1646D01*
X1002Y1646D01*
X1002Y1648D01*
X1004Y1648D01*
X1004Y1652D01*
X1006Y1652D01*
X1006Y1654D01*
X1008Y1654D01*
X1008Y1658D01*
X1010Y1658D01*
X1010Y1660D01*
X1012Y1660D01*
X1012Y1662D01*
X1014Y1662D01*
X1014Y1664D01*
X1016Y1664D01*
X1016Y1666D01*
X1018Y1666D01*
X1018Y1668D01*
X1022Y1668D01*
X1022Y1670D01*
X1024Y1670D01*
X1024Y1672D01*
X1026Y1672D01*
X1026Y1674D01*
X1030Y1674D01*
X1030Y1676D01*
X1034Y1676D01*
X1034Y1678D01*
X1038Y1678D01*
X1038Y1680D01*
X1044Y1680D01*
X1044Y1682D01*
X1052Y1682D01*
X1052Y1684D01*
X898Y1684D01*
G37*
D02*
G36*
X1456Y1622D02*
X1456Y1588D01*
X1458Y1588D01*
X1458Y1552D01*
X1460Y1552D01*
X1460Y1516D01*
X1462Y1516D01*
X1462Y1492D01*
X1460Y1492D01*
X1460Y1484D01*
X1458Y1484D01*
X1458Y1480D01*
X1456Y1480D01*
X1456Y1468D01*
X1794Y1468D01*
X1794Y1466D01*
X1806Y1466D01*
X1806Y1464D01*
X1814Y1464D01*
X1814Y1462D01*
X1818Y1462D01*
X1818Y1460D01*
X1822Y1460D01*
X1822Y1458D01*
X1842Y1458D01*
X1842Y1470D01*
X1838Y1470D01*
X1838Y1472D01*
X1836Y1472D01*
X1836Y1474D01*
X1834Y1474D01*
X1834Y1476D01*
X1832Y1476D01*
X1832Y1478D01*
X1830Y1478D01*
X1830Y1480D01*
X1828Y1480D01*
X1828Y1482D01*
X1826Y1482D01*
X1826Y1484D01*
X1824Y1484D01*
X1824Y1486D01*
X1822Y1486D01*
X1822Y1488D01*
X1820Y1488D01*
X1820Y1490D01*
X1818Y1490D01*
X1818Y1492D01*
X1816Y1492D01*
X1816Y1494D01*
X1814Y1494D01*
X1814Y1496D01*
X1812Y1496D01*
X1812Y1498D01*
X1810Y1498D01*
X1810Y1500D01*
X1808Y1500D01*
X1808Y1502D01*
X1806Y1502D01*
X1806Y1504D01*
X1804Y1504D01*
X1804Y1506D01*
X1802Y1506D01*
X1802Y1508D01*
X1800Y1508D01*
X1800Y1510D01*
X1798Y1510D01*
X1798Y1514D01*
X1796Y1514D01*
X1796Y1518D01*
X1794Y1518D01*
X1794Y1522D01*
X1792Y1522D01*
X1792Y1528D01*
X1790Y1528D01*
X1790Y1610D01*
X1496Y1610D01*
X1496Y1612D01*
X1490Y1612D01*
X1490Y1614D01*
X1484Y1614D01*
X1484Y1616D01*
X1482Y1616D01*
X1482Y1618D01*
X1478Y1618D01*
X1478Y1620D01*
X1476Y1620D01*
X1476Y1622D01*
X1456Y1622D01*
G37*
D02*
G36*
X1456Y1468D02*
X1456Y1466D01*
X1484Y1466D01*
X1484Y1468D01*
X1456Y1468D01*
G37*
D02*
G36*
X1494Y1468D02*
X1494Y1466D01*
X1506Y1466D01*
X1506Y1464D01*
X1514Y1464D01*
X1514Y1462D01*
X1518Y1462D01*
X1518Y1460D01*
X1522Y1460D01*
X1522Y1458D01*
X1526Y1458D01*
X1526Y1456D01*
X1552Y1456D01*
X1552Y1458D01*
X1556Y1458D01*
X1556Y1460D01*
X1560Y1460D01*
X1560Y1462D01*
X1564Y1462D01*
X1564Y1464D01*
X1572Y1464D01*
X1572Y1466D01*
X1584Y1466D01*
X1584Y1468D01*
X1494Y1468D01*
G37*
D02*
G36*
X1594Y1468D02*
X1594Y1466D01*
X1606Y1466D01*
X1606Y1464D01*
X1614Y1464D01*
X1614Y1462D01*
X1618Y1462D01*
X1618Y1460D01*
X1622Y1460D01*
X1622Y1458D01*
X1626Y1458D01*
X1626Y1456D01*
X1652Y1456D01*
X1652Y1458D01*
X1656Y1458D01*
X1656Y1460D01*
X1660Y1460D01*
X1660Y1462D01*
X1664Y1462D01*
X1664Y1464D01*
X1672Y1464D01*
X1672Y1466D01*
X1684Y1466D01*
X1684Y1468D01*
X1594Y1468D01*
G37*
D02*
G36*
X1694Y1468D02*
X1694Y1466D01*
X1706Y1466D01*
X1706Y1464D01*
X1714Y1464D01*
X1714Y1462D01*
X1718Y1462D01*
X1718Y1460D01*
X1722Y1460D01*
X1722Y1458D01*
X1726Y1458D01*
X1726Y1456D01*
X1752Y1456D01*
X1752Y1458D01*
X1756Y1458D01*
X1756Y1460D01*
X1760Y1460D01*
X1760Y1462D01*
X1764Y1462D01*
X1764Y1464D01*
X1772Y1464D01*
X1772Y1466D01*
X1784Y1466D01*
X1784Y1468D01*
X1694Y1468D01*
G37*
D02*
G36*
X1130Y1564D02*
X1130Y1542D01*
X1132Y1542D01*
X1132Y1536D01*
X1134Y1536D01*
X1134Y1530D01*
X1136Y1530D01*
X1136Y1520D01*
X1138Y1520D01*
X1138Y1504D01*
X1136Y1504D01*
X1136Y1494D01*
X1134Y1494D01*
X1134Y1486D01*
X1132Y1486D01*
X1132Y1482D01*
X1130Y1482D01*
X1130Y1478D01*
X1128Y1478D01*
X1128Y1474D01*
X1126Y1474D01*
X1126Y1472D01*
X1124Y1472D01*
X1124Y1452D01*
X1126Y1452D01*
X1126Y1448D01*
X1128Y1448D01*
X1128Y1446D01*
X1130Y1446D01*
X1130Y1442D01*
X1132Y1442D01*
X1132Y1436D01*
X1134Y1436D01*
X1134Y1430D01*
X1136Y1430D01*
X1136Y1420D01*
X1138Y1420D01*
X1138Y1416D01*
X1142Y1416D01*
X1142Y1414D01*
X1144Y1414D01*
X1144Y1412D01*
X1146Y1412D01*
X1146Y1410D01*
X1150Y1410D01*
X1150Y1408D01*
X1152Y1408D01*
X1152Y1406D01*
X1156Y1406D01*
X1156Y1404D01*
X1158Y1404D01*
X1158Y1402D01*
X1160Y1402D01*
X1160Y1400D01*
X1164Y1400D01*
X1164Y1398D01*
X1166Y1398D01*
X1166Y1396D01*
X1170Y1396D01*
X1170Y1394D01*
X1172Y1394D01*
X1172Y1392D01*
X1174Y1392D01*
X1174Y1390D01*
X1178Y1390D01*
X1178Y1388D01*
X1180Y1388D01*
X1180Y1386D01*
X1200Y1386D01*
X1200Y1388D01*
X1202Y1388D01*
X1202Y1392D01*
X1204Y1392D01*
X1204Y1396D01*
X1206Y1396D01*
X1206Y1398D01*
X1208Y1398D01*
X1208Y1402D01*
X1210Y1402D01*
X1210Y1406D01*
X1212Y1406D01*
X1212Y1408D01*
X1214Y1408D01*
X1214Y1412D01*
X1216Y1412D01*
X1216Y1414D01*
X1218Y1414D01*
X1218Y1418D01*
X1220Y1418D01*
X1220Y1422D01*
X1222Y1422D01*
X1222Y1424D01*
X1224Y1424D01*
X1224Y1428D01*
X1226Y1428D01*
X1226Y1432D01*
X1228Y1432D01*
X1228Y1434D01*
X1230Y1434D01*
X1230Y1438D01*
X1232Y1438D01*
X1232Y1442D01*
X1234Y1442D01*
X1234Y1444D01*
X1236Y1444D01*
X1236Y1448D01*
X1238Y1448D01*
X1238Y1450D01*
X1240Y1450D01*
X1240Y1454D01*
X1242Y1454D01*
X1242Y1456D01*
X1244Y1456D01*
X1244Y1460D01*
X1246Y1460D01*
X1246Y1462D01*
X1248Y1462D01*
X1248Y1464D01*
X1250Y1464D01*
X1250Y1466D01*
X1252Y1466D01*
X1252Y1468D01*
X1254Y1468D01*
X1254Y1470D01*
X1258Y1470D01*
X1258Y1472D01*
X1262Y1472D01*
X1262Y1474D01*
X1266Y1474D01*
X1266Y1476D01*
X1270Y1476D01*
X1270Y1478D01*
X1272Y1478D01*
X1272Y1498D01*
X1270Y1498D01*
X1270Y1500D01*
X1268Y1500D01*
X1268Y1502D01*
X1266Y1502D01*
X1266Y1504D01*
X1264Y1504D01*
X1264Y1506D01*
X1262Y1506D01*
X1262Y1510D01*
X1260Y1510D01*
X1260Y1512D01*
X1258Y1512D01*
X1258Y1516D01*
X1256Y1516D01*
X1256Y1518D01*
X1254Y1518D01*
X1254Y1522D01*
X1252Y1522D01*
X1252Y1528D01*
X1250Y1528D01*
X1250Y1536D01*
X1246Y1536D01*
X1246Y1538D01*
X1192Y1538D01*
X1192Y1540D01*
X1186Y1540D01*
X1186Y1542D01*
X1180Y1542D01*
X1180Y1544D01*
X1176Y1544D01*
X1176Y1546D01*
X1172Y1546D01*
X1172Y1548D01*
X1168Y1548D01*
X1168Y1550D01*
X1166Y1550D01*
X1166Y1552D01*
X1164Y1552D01*
X1164Y1554D01*
X1160Y1554D01*
X1160Y1556D01*
X1158Y1556D01*
X1158Y1558D01*
X1156Y1558D01*
X1156Y1560D01*
X1154Y1560D01*
X1154Y1562D01*
X1152Y1562D01*
X1152Y1564D01*
X1130Y1564D01*
G37*
D02*
G36*
X684Y1460D02*
X684Y1458D01*
X676Y1458D01*
X676Y1456D01*
X652Y1456D01*
X652Y1436D01*
X656Y1436D01*
X656Y1434D01*
X682Y1434D01*
X682Y1436D01*
X688Y1436D01*
X688Y1438D01*
X694Y1438D01*
X694Y1440D01*
X698Y1440D01*
X698Y1442D01*
X700Y1442D01*
X700Y1446D01*
X702Y1446D01*
X702Y1448D01*
X704Y1448D01*
X704Y1460D01*
X684Y1460D01*
G37*
D02*
G36*
X1300Y1370D02*
X1300Y1368D01*
X1298Y1368D01*
X1298Y1366D01*
X1296Y1366D01*
X1296Y1362D01*
X1294Y1362D01*
X1294Y1360D01*
X1292Y1360D01*
X1292Y1356D01*
X1290Y1356D01*
X1290Y1352D01*
X1288Y1352D01*
X1288Y1350D01*
X1286Y1350D01*
X1286Y1346D01*
X1284Y1346D01*
X1284Y1342D01*
X1282Y1342D01*
X1282Y1340D01*
X1280Y1340D01*
X1280Y1296D01*
X1278Y1296D01*
X1278Y1288D01*
X1276Y1288D01*
X1276Y1268D01*
X1294Y1268D01*
X1294Y1266D01*
X1316Y1266D01*
X1316Y1292D01*
X1314Y1292D01*
X1314Y1296D01*
X1316Y1296D01*
X1316Y1310D01*
X1318Y1310D01*
X1318Y1318D01*
X1320Y1318D01*
X1320Y1322D01*
X1322Y1322D01*
X1322Y1326D01*
X1324Y1326D01*
X1324Y1330D01*
X1326Y1330D01*
X1326Y1334D01*
X1328Y1334D01*
X1328Y1354D01*
X1326Y1354D01*
X1326Y1356D01*
X1324Y1356D01*
X1324Y1360D01*
X1322Y1360D01*
X1322Y1364D01*
X1320Y1364D01*
X1320Y1370D01*
X1300Y1370D01*
G37*
D02*
G36*
X750Y1150D02*
X750Y1148D01*
X748Y1148D01*
X748Y1146D01*
X744Y1146D01*
X744Y1144D01*
X742Y1144D01*
X742Y1142D01*
X738Y1142D01*
X738Y1140D01*
X736Y1140D01*
X736Y1138D01*
X732Y1138D01*
X732Y1136D01*
X726Y1136D01*
X726Y1134D01*
X720Y1134D01*
X720Y1132D01*
X710Y1132D01*
X710Y1130D01*
X780Y1130D01*
X780Y1134D01*
X778Y1134D01*
X778Y1138D01*
X776Y1138D01*
X776Y1140D01*
X774Y1140D01*
X774Y1144D01*
X772Y1144D01*
X772Y1150D01*
X750Y1150D01*
G37*
D02*
G36*
X648Y1140D02*
X648Y1136D01*
X646Y1136D01*
X646Y1132D01*
X644Y1132D01*
X644Y1130D01*
X694Y1130D01*
X694Y1132D01*
X682Y1132D01*
X682Y1134D01*
X676Y1134D01*
X676Y1136D01*
X672Y1136D01*
X672Y1138D01*
X668Y1138D01*
X668Y1140D01*
X648Y1140D01*
G37*
D02*
G36*
X644Y1130D02*
X644Y1128D01*
X780Y1128D01*
X780Y1130D01*
X644Y1130D01*
G37*
D02*
G36*
X644Y1130D02*
X644Y1128D01*
X780Y1128D01*
X780Y1130D01*
X644Y1130D01*
G37*
D02*
G36*
X642Y1128D02*
X642Y1124D01*
X640Y1124D01*
X640Y1120D01*
X638Y1120D01*
X638Y1116D01*
X636Y1116D01*
X636Y1112D01*
X634Y1112D01*
X634Y1108D01*
X632Y1108D01*
X632Y1104D01*
X630Y1104D01*
X630Y1102D01*
X628Y1102D01*
X628Y1098D01*
X716Y1098D01*
X716Y1096D01*
X742Y1096D01*
X742Y1098D01*
X746Y1098D01*
X746Y1100D01*
X750Y1100D01*
X750Y1102D01*
X754Y1102D01*
X754Y1104D01*
X758Y1104D01*
X758Y1106D01*
X764Y1106D01*
X764Y1108D01*
X768Y1108D01*
X768Y1110D01*
X772Y1110D01*
X772Y1112D01*
X776Y1112D01*
X776Y1114D01*
X780Y1114D01*
X780Y1128D01*
X642Y1128D01*
G37*
D02*
G36*
X626Y1098D02*
X626Y1094D01*
X624Y1094D01*
X624Y1090D01*
X622Y1090D01*
X622Y1086D01*
X620Y1086D01*
X620Y1082D01*
X618Y1082D01*
X618Y1078D01*
X616Y1078D01*
X616Y1072D01*
X614Y1072D01*
X614Y1066D01*
X612Y1066D01*
X612Y1060D01*
X610Y1060D01*
X610Y1054D01*
X608Y1054D01*
X608Y1048D01*
X606Y1048D01*
X606Y1042D01*
X604Y1042D01*
X604Y1038D01*
X602Y1038D01*
X602Y1032D01*
X600Y1032D01*
X600Y1026D01*
X598Y1026D01*
X598Y1020D01*
X596Y1020D01*
X596Y1014D01*
X594Y1014D01*
X594Y1008D01*
X592Y1008D01*
X592Y1002D01*
X590Y1002D01*
X590Y996D01*
X588Y996D01*
X588Y992D01*
X586Y992D01*
X586Y986D01*
X584Y986D01*
X584Y980D01*
X582Y980D01*
X582Y974D01*
X580Y974D01*
X580Y968D01*
X578Y968D01*
X578Y962D01*
X576Y962D01*
X576Y956D01*
X574Y956D01*
X574Y938D01*
X594Y938D01*
X594Y942D01*
X596Y942D01*
X596Y946D01*
X598Y946D01*
X598Y950D01*
X600Y950D01*
X600Y952D01*
X602Y952D01*
X602Y954D01*
X604Y954D01*
X604Y956D01*
X606Y956D01*
X606Y960D01*
X610Y960D01*
X610Y962D01*
X612Y962D01*
X612Y964D01*
X614Y964D01*
X614Y966D01*
X616Y966D01*
X616Y968D01*
X620Y968D01*
X620Y970D01*
X622Y970D01*
X622Y972D01*
X626Y972D01*
X626Y974D01*
X630Y974D01*
X630Y976D01*
X634Y976D01*
X634Y1002D01*
X632Y1002D01*
X632Y1008D01*
X630Y1008D01*
X630Y1022D01*
X628Y1022D01*
X628Y1030D01*
X630Y1030D01*
X630Y1044D01*
X632Y1044D01*
X632Y1050D01*
X634Y1050D01*
X634Y1056D01*
X636Y1056D01*
X636Y1060D01*
X638Y1060D01*
X638Y1062D01*
X640Y1062D01*
X640Y1066D01*
X642Y1066D01*
X642Y1068D01*
X644Y1068D01*
X644Y1072D01*
X646Y1072D01*
X646Y1074D01*
X648Y1074D01*
X648Y1076D01*
X650Y1076D01*
X650Y1078D01*
X652Y1078D01*
X652Y1080D01*
X654Y1080D01*
X654Y1082D01*
X658Y1082D01*
X658Y1084D01*
X660Y1084D01*
X660Y1086D01*
X662Y1086D01*
X662Y1088D01*
X666Y1088D01*
X666Y1090D01*
X670Y1090D01*
X670Y1092D01*
X674Y1092D01*
X674Y1094D01*
X680Y1094D01*
X680Y1096D01*
X688Y1096D01*
X688Y1098D01*
X626Y1098D01*
G37*
D02*
G36*
X796Y1020D02*
X796Y1018D01*
X792Y1018D01*
X792Y1016D01*
X788Y1016D01*
X788Y1014D01*
X784Y1014D01*
X784Y1012D01*
X780Y1012D01*
X780Y1010D01*
X776Y1010D01*
X776Y1008D01*
X772Y1008D01*
X772Y1006D01*
X770Y1006D01*
X770Y1000D01*
X768Y1000D01*
X768Y996D01*
X766Y996D01*
X766Y992D01*
X764Y992D01*
X764Y988D01*
X762Y988D01*
X762Y986D01*
X760Y986D01*
X760Y982D01*
X758Y982D01*
X758Y980D01*
X756Y980D01*
X756Y978D01*
X754Y978D01*
X754Y976D01*
X752Y976D01*
X752Y974D01*
X750Y974D01*
X750Y972D01*
X748Y972D01*
X748Y970D01*
X746Y970D01*
X746Y968D01*
X744Y968D01*
X744Y966D01*
X740Y966D01*
X740Y946D01*
X752Y946D01*
X752Y944D01*
X770Y944D01*
X770Y942D01*
X788Y942D01*
X788Y940D01*
X806Y940D01*
X806Y938D01*
X824Y938D01*
X824Y936D01*
X844Y936D01*
X844Y976D01*
X842Y976D01*
X842Y978D01*
X840Y978D01*
X840Y980D01*
X838Y980D01*
X838Y982D01*
X836Y982D01*
X836Y984D01*
X834Y984D01*
X834Y986D01*
X832Y986D01*
X832Y990D01*
X830Y990D01*
X830Y992D01*
X828Y992D01*
X828Y996D01*
X826Y996D01*
X826Y1000D01*
X824Y1000D01*
X824Y1004D01*
X822Y1004D01*
X822Y1010D01*
X820Y1010D01*
X820Y1020D01*
X796Y1020D01*
G37*
D02*
G36*
X2160Y964D02*
X2160Y962D01*
X2158Y962D01*
X2158Y960D01*
X2156Y960D01*
X2156Y958D01*
X2152Y958D01*
X2152Y956D01*
X2150Y956D01*
X2150Y954D01*
X2146Y954D01*
X2146Y952D01*
X2144Y952D01*
X2144Y950D01*
X2140Y950D01*
X2140Y948D01*
X2134Y948D01*
X2134Y946D01*
X2128Y946D01*
X2128Y944D01*
X2092Y944D01*
X2092Y918D01*
X2124Y918D01*
X2124Y916D01*
X2132Y916D01*
X2132Y914D01*
X2138Y914D01*
X2138Y912D01*
X2142Y912D01*
X2142Y910D01*
X2146Y910D01*
X2146Y908D01*
X2148Y908D01*
X2148Y906D01*
X2152Y906D01*
X2152Y904D01*
X2154Y904D01*
X2154Y902D01*
X2156Y902D01*
X2156Y900D01*
X2158Y900D01*
X2158Y898D01*
X2160Y898D01*
X2160Y896D01*
X2180Y896D01*
X2180Y898D01*
X2182Y898D01*
X2182Y900D01*
X2184Y900D01*
X2184Y902D01*
X2186Y902D01*
X2186Y904D01*
X2188Y904D01*
X2188Y906D01*
X2190Y906D01*
X2190Y908D01*
X2194Y908D01*
X2194Y910D01*
X2196Y910D01*
X2196Y912D01*
X2200Y912D01*
X2200Y914D01*
X2204Y914D01*
X2204Y916D01*
X2208Y916D01*
X2208Y918D01*
X2214Y918D01*
X2214Y920D01*
X2222Y920D01*
X2222Y922D01*
X2234Y922D01*
X2234Y942D01*
X2218Y942D01*
X2218Y944D01*
X2212Y944D01*
X2212Y946D01*
X2206Y946D01*
X2206Y948D01*
X2202Y948D01*
X2202Y950D01*
X2198Y950D01*
X2198Y952D01*
X2196Y952D01*
X2196Y954D01*
X2192Y954D01*
X2192Y956D01*
X2190Y956D01*
X2190Y958D01*
X2188Y958D01*
X2188Y960D01*
X2184Y960D01*
X2184Y962D01*
X2182Y962D01*
X2182Y964D01*
X2160Y964D01*
G37*
D02*
G36*
X726Y852D02*
X726Y832D01*
X728Y832D01*
X728Y824D01*
X730Y824D01*
X730Y778D01*
X774Y778D01*
X774Y806D01*
X776Y806D01*
X776Y848D01*
X766Y848D01*
X766Y850D01*
X748Y850D01*
X748Y852D01*
X726Y852D01*
G37*
D02*
G36*
X258Y802D02*
X258Y800D01*
X256Y800D01*
X256Y798D01*
X252Y798D01*
X252Y796D01*
X250Y796D01*
X250Y794D01*
X246Y794D01*
X246Y792D01*
X244Y792D01*
X244Y790D01*
X240Y790D01*
X240Y788D01*
X236Y788D01*
X236Y786D01*
X234Y786D01*
X234Y782D01*
X232Y782D01*
X232Y780D01*
X230Y780D01*
X230Y778D01*
X324Y778D01*
X324Y780D01*
X314Y780D01*
X314Y782D01*
X308Y782D01*
X308Y784D01*
X304Y784D01*
X304Y786D01*
X300Y786D01*
X300Y788D01*
X296Y788D01*
X296Y790D01*
X292Y790D01*
X292Y792D01*
X290Y792D01*
X290Y794D01*
X288Y794D01*
X288Y796D01*
X284Y796D01*
X284Y798D01*
X282Y798D01*
X282Y800D01*
X280Y800D01*
X280Y802D01*
X258Y802D01*
G37*
D02*
G36*
X354Y782D02*
X354Y780D01*
X344Y780D01*
X344Y778D01*
X378Y778D01*
X378Y782D01*
X354Y782D01*
G37*
D02*
G36*
X228Y778D02*
X228Y776D01*
X378Y776D01*
X378Y778D01*
X228Y778D01*
G37*
D02*
G36*
X228Y778D02*
X228Y776D01*
X378Y776D01*
X378Y778D01*
X228Y778D01*
G37*
D02*
G36*
X228Y776D02*
X228Y774D01*
X226Y774D01*
X226Y772D01*
X224Y772D01*
X224Y770D01*
X222Y770D01*
X222Y766D01*
X220Y766D01*
X220Y764D01*
X218Y764D01*
X218Y762D01*
X216Y762D01*
X216Y760D01*
X214Y760D01*
X214Y756D01*
X212Y756D01*
X212Y754D01*
X210Y754D01*
X210Y752D01*
X208Y752D01*
X208Y750D01*
X206Y750D01*
X206Y746D01*
X204Y746D01*
X204Y744D01*
X202Y744D01*
X202Y742D01*
X200Y742D01*
X200Y738D01*
X198Y738D01*
X198Y736D01*
X196Y736D01*
X196Y724D01*
X346Y724D01*
X346Y722D01*
X354Y722D01*
X354Y720D01*
X360Y720D01*
X360Y718D01*
X380Y718D01*
X380Y728D01*
X378Y728D01*
X378Y776D01*
X228Y776D01*
G37*
D02*
G36*
X196Y724D02*
X196Y718D01*
X224Y718D01*
X224Y716D01*
X232Y716D01*
X232Y714D01*
X238Y714D01*
X238Y712D01*
X242Y712D01*
X242Y710D01*
X246Y710D01*
X246Y708D01*
X248Y708D01*
X248Y706D01*
X252Y706D01*
X252Y704D01*
X254Y704D01*
X254Y702D01*
X256Y702D01*
X256Y700D01*
X258Y700D01*
X258Y698D01*
X278Y698D01*
X278Y700D01*
X280Y700D01*
X280Y702D01*
X282Y702D01*
X282Y704D01*
X284Y704D01*
X284Y706D01*
X286Y706D01*
X286Y708D01*
X290Y708D01*
X290Y710D01*
X292Y710D01*
X292Y712D01*
X294Y712D01*
X294Y714D01*
X298Y714D01*
X298Y716D01*
X302Y716D01*
X302Y718D01*
X306Y718D01*
X306Y720D01*
X312Y720D01*
X312Y722D01*
X322Y722D01*
X322Y724D01*
X196Y724D01*
G37*
D02*
G36*
X894Y618D02*
X894Y616D01*
X868Y616D01*
X868Y614D01*
X842Y614D01*
X842Y612D01*
X816Y612D01*
X816Y610D01*
X790Y610D01*
X790Y608D01*
X762Y608D01*
X762Y606D01*
X756Y606D01*
X756Y584D01*
X758Y584D01*
X758Y582D01*
X760Y582D01*
X760Y576D01*
X762Y576D01*
X762Y572D01*
X764Y572D01*
X764Y564D01*
X766Y564D01*
X766Y534D01*
X764Y534D01*
X764Y526D01*
X762Y526D01*
X762Y520D01*
X760Y520D01*
X760Y516D01*
X758Y516D01*
X758Y512D01*
X756Y512D01*
X756Y510D01*
X754Y510D01*
X754Y488D01*
X756Y488D01*
X756Y484D01*
X758Y484D01*
X758Y482D01*
X760Y482D01*
X760Y476D01*
X762Y476D01*
X762Y472D01*
X764Y472D01*
X764Y464D01*
X766Y464D01*
X766Y434D01*
X764Y434D01*
X764Y426D01*
X762Y426D01*
X762Y420D01*
X760Y420D01*
X760Y416D01*
X758Y416D01*
X758Y412D01*
X756Y412D01*
X756Y410D01*
X754Y410D01*
X754Y388D01*
X756Y388D01*
X756Y384D01*
X758Y384D01*
X758Y382D01*
X760Y382D01*
X760Y376D01*
X762Y376D01*
X762Y372D01*
X764Y372D01*
X764Y364D01*
X766Y364D01*
X766Y334D01*
X764Y334D01*
X764Y326D01*
X762Y326D01*
X762Y320D01*
X760Y320D01*
X760Y298D01*
X860Y298D01*
X860Y300D01*
X924Y300D01*
X924Y320D01*
X922Y320D01*
X922Y324D01*
X920Y324D01*
X920Y330D01*
X918Y330D01*
X918Y338D01*
X916Y338D01*
X916Y352D01*
X914Y352D01*
X914Y356D01*
X916Y356D01*
X916Y372D01*
X918Y372D01*
X918Y378D01*
X920Y378D01*
X920Y384D01*
X922Y384D01*
X922Y388D01*
X924Y388D01*
X924Y392D01*
X926Y392D01*
X926Y394D01*
X928Y394D01*
X928Y398D01*
X930Y398D01*
X930Y400D01*
X932Y400D01*
X932Y402D01*
X934Y402D01*
X934Y404D01*
X936Y404D01*
X936Y408D01*
X940Y408D01*
X940Y410D01*
X942Y410D01*
X942Y412D01*
X944Y412D01*
X944Y414D01*
X946Y414D01*
X946Y434D01*
X944Y434D01*
X944Y436D01*
X942Y436D01*
X942Y438D01*
X938Y438D01*
X938Y440D01*
X936Y440D01*
X936Y442D01*
X934Y442D01*
X934Y444D01*
X932Y444D01*
X932Y448D01*
X930Y448D01*
X930Y450D01*
X928Y450D01*
X928Y454D01*
X926Y454D01*
X926Y456D01*
X924Y456D01*
X924Y460D01*
X922Y460D01*
X922Y464D01*
X920Y464D01*
X920Y470D01*
X918Y470D01*
X918Y476D01*
X916Y476D01*
X916Y492D01*
X914Y492D01*
X914Y496D01*
X916Y496D01*
X916Y510D01*
X918Y510D01*
X918Y518D01*
X920Y518D01*
X920Y522D01*
X922Y522D01*
X922Y526D01*
X924Y526D01*
X924Y530D01*
X926Y530D01*
X926Y534D01*
X928Y534D01*
X928Y554D01*
X926Y554D01*
X926Y556D01*
X924Y556D01*
X924Y560D01*
X922Y560D01*
X922Y564D01*
X920Y564D01*
X920Y570D01*
X918Y570D01*
X918Y576D01*
X916Y576D01*
X916Y592D01*
X914Y592D01*
X914Y596D01*
X916Y596D01*
X916Y618D01*
X894Y618D01*
G37*
D02*
G36*
X862Y206D02*
X862Y204D01*
X756Y204D01*
X756Y184D01*
X758Y184D01*
X758Y182D01*
X760Y182D01*
X760Y176D01*
X762Y176D01*
X762Y172D01*
X764Y172D01*
X764Y164D01*
X766Y164D01*
X766Y132D01*
X786Y132D01*
X786Y134D01*
X792Y134D01*
X792Y136D01*
X796Y136D01*
X796Y138D01*
X800Y138D01*
X800Y140D01*
X806Y140D01*
X806Y142D01*
X810Y142D01*
X810Y144D01*
X814Y144D01*
X814Y146D01*
X820Y146D01*
X820Y148D01*
X824Y148D01*
X824Y150D01*
X828Y150D01*
X828Y152D01*
X834Y152D01*
X834Y154D01*
X838Y154D01*
X838Y156D01*
X844Y156D01*
X844Y158D01*
X848Y158D01*
X848Y160D01*
X852Y160D01*
X852Y162D01*
X858Y162D01*
X858Y164D01*
X862Y164D01*
X862Y166D01*
X866Y166D01*
X866Y168D01*
X872Y168D01*
X872Y170D01*
X876Y170D01*
X876Y172D01*
X882Y172D01*
X882Y174D01*
X886Y174D01*
X886Y176D01*
X890Y176D01*
X890Y178D01*
X896Y178D01*
X896Y180D01*
X900Y180D01*
X900Y182D01*
X904Y182D01*
X904Y184D01*
X910Y184D01*
X910Y186D01*
X914Y186D01*
X914Y206D01*
X862Y206D01*
G37*
D02*
G36*
X1936Y98D02*
X1936Y96D01*
X1932Y96D01*
X1932Y94D01*
X1930Y94D01*
X1930Y92D01*
X1926Y92D01*
X1926Y90D01*
X1924Y90D01*
X1924Y88D01*
X1920Y88D01*
X1920Y86D01*
X1914Y86D01*
X1914Y84D01*
X1908Y84D01*
X1908Y82D01*
X1898Y82D01*
X1898Y80D01*
X1962Y80D01*
X1962Y84D01*
X1960Y84D01*
X1960Y92D01*
X1958Y92D01*
X1958Y98D01*
X1936Y98D01*
G37*
D02*
G36*
X1026Y92D02*
X1026Y90D01*
X1024Y90D01*
X1024Y88D01*
X1020Y88D01*
X1020Y86D01*
X1014Y86D01*
X1014Y84D01*
X1008Y84D01*
X1008Y82D01*
X998Y82D01*
X998Y80D01*
X1080Y80D01*
X1080Y82D01*
X1070Y82D01*
X1070Y84D01*
X1064Y84D01*
X1064Y86D01*
X1058Y86D01*
X1058Y88D01*
X1054Y88D01*
X1054Y90D01*
X1052Y90D01*
X1052Y92D01*
X1026Y92D01*
G37*
D02*
G36*
X1126Y92D02*
X1126Y90D01*
X1124Y90D01*
X1124Y88D01*
X1120Y88D01*
X1120Y86D01*
X1114Y86D01*
X1114Y84D01*
X1108Y84D01*
X1108Y82D01*
X1098Y82D01*
X1098Y80D01*
X1180Y80D01*
X1180Y82D01*
X1170Y82D01*
X1170Y84D01*
X1164Y84D01*
X1164Y86D01*
X1158Y86D01*
X1158Y88D01*
X1154Y88D01*
X1154Y90D01*
X1152Y90D01*
X1152Y92D01*
X1126Y92D01*
G37*
D02*
G36*
X1226Y92D02*
X1226Y90D01*
X1224Y90D01*
X1224Y88D01*
X1220Y88D01*
X1220Y86D01*
X1214Y86D01*
X1214Y84D01*
X1208Y84D01*
X1208Y82D01*
X1198Y82D01*
X1198Y80D01*
X1280Y80D01*
X1280Y82D01*
X1270Y82D01*
X1270Y84D01*
X1264Y84D01*
X1264Y86D01*
X1258Y86D01*
X1258Y88D01*
X1254Y88D01*
X1254Y90D01*
X1252Y90D01*
X1252Y92D01*
X1226Y92D01*
G37*
D02*
G36*
X1326Y92D02*
X1326Y90D01*
X1324Y90D01*
X1324Y88D01*
X1320Y88D01*
X1320Y86D01*
X1314Y86D01*
X1314Y84D01*
X1308Y84D01*
X1308Y82D01*
X1298Y82D01*
X1298Y80D01*
X1380Y80D01*
X1380Y82D01*
X1370Y82D01*
X1370Y84D01*
X1364Y84D01*
X1364Y86D01*
X1358Y86D01*
X1358Y88D01*
X1354Y88D01*
X1354Y90D01*
X1352Y90D01*
X1352Y92D01*
X1326Y92D01*
G37*
D02*
G36*
X1426Y92D02*
X1426Y90D01*
X1424Y90D01*
X1424Y88D01*
X1420Y88D01*
X1420Y86D01*
X1414Y86D01*
X1414Y84D01*
X1408Y84D01*
X1408Y82D01*
X1398Y82D01*
X1398Y80D01*
X1480Y80D01*
X1480Y82D01*
X1470Y82D01*
X1470Y84D01*
X1464Y84D01*
X1464Y86D01*
X1458Y86D01*
X1458Y88D01*
X1454Y88D01*
X1454Y90D01*
X1452Y90D01*
X1452Y92D01*
X1426Y92D01*
G37*
D02*
G36*
X1526Y92D02*
X1526Y90D01*
X1524Y90D01*
X1524Y88D01*
X1520Y88D01*
X1520Y86D01*
X1514Y86D01*
X1514Y84D01*
X1508Y84D01*
X1508Y82D01*
X1498Y82D01*
X1498Y80D01*
X1580Y80D01*
X1580Y82D01*
X1570Y82D01*
X1570Y84D01*
X1564Y84D01*
X1564Y86D01*
X1558Y86D01*
X1558Y88D01*
X1554Y88D01*
X1554Y90D01*
X1552Y90D01*
X1552Y92D01*
X1526Y92D01*
G37*
D02*
G36*
X1626Y92D02*
X1626Y90D01*
X1624Y90D01*
X1624Y88D01*
X1620Y88D01*
X1620Y86D01*
X1614Y86D01*
X1614Y84D01*
X1608Y84D01*
X1608Y82D01*
X1598Y82D01*
X1598Y80D01*
X1680Y80D01*
X1680Y82D01*
X1670Y82D01*
X1670Y84D01*
X1664Y84D01*
X1664Y86D01*
X1658Y86D01*
X1658Y88D01*
X1654Y88D01*
X1654Y90D01*
X1652Y90D01*
X1652Y92D01*
X1626Y92D01*
G37*
D02*
G36*
X1726Y92D02*
X1726Y90D01*
X1724Y90D01*
X1724Y88D01*
X1720Y88D01*
X1720Y86D01*
X1714Y86D01*
X1714Y84D01*
X1708Y84D01*
X1708Y82D01*
X1698Y82D01*
X1698Y80D01*
X1780Y80D01*
X1780Y82D01*
X1770Y82D01*
X1770Y84D01*
X1764Y84D01*
X1764Y86D01*
X1758Y86D01*
X1758Y88D01*
X1754Y88D01*
X1754Y90D01*
X1752Y90D01*
X1752Y92D01*
X1726Y92D01*
G37*
D02*
G36*
X1826Y92D02*
X1826Y90D01*
X1824Y90D01*
X1824Y88D01*
X1820Y88D01*
X1820Y86D01*
X1814Y86D01*
X1814Y84D01*
X1808Y84D01*
X1808Y82D01*
X1798Y82D01*
X1798Y80D01*
X1880Y80D01*
X1880Y82D01*
X1870Y82D01*
X1870Y84D01*
X1864Y84D01*
X1864Y86D01*
X1858Y86D01*
X1858Y88D01*
X1854Y88D01*
X1854Y90D01*
X1852Y90D01*
X1852Y92D01*
X1826Y92D01*
G37*
D02*
G36*
X962Y80D02*
X962Y78D01*
X1962Y78D01*
X1962Y80D01*
X962Y80D01*
G37*
D02*
G36*
X962Y80D02*
X962Y78D01*
X1962Y78D01*
X1962Y80D01*
X962Y80D01*
G37*
D02*
G36*
X962Y80D02*
X962Y78D01*
X1962Y78D01*
X1962Y80D01*
X962Y80D01*
G37*
D02*
G36*
X962Y80D02*
X962Y78D01*
X1962Y78D01*
X1962Y80D01*
X962Y80D01*
G37*
D02*
G36*
X962Y80D02*
X962Y78D01*
X1962Y78D01*
X1962Y80D01*
X962Y80D01*
G37*
D02*
G36*
X962Y80D02*
X962Y78D01*
X1962Y78D01*
X1962Y80D01*
X962Y80D01*
G37*
D02*
G36*
X962Y80D02*
X962Y78D01*
X1962Y78D01*
X1962Y80D01*
X962Y80D01*
G37*
D02*
G36*
X962Y80D02*
X962Y78D01*
X1962Y78D01*
X1962Y80D01*
X962Y80D01*
G37*
D02*
G36*
X962Y80D02*
X962Y78D01*
X1962Y78D01*
X1962Y80D01*
X962Y80D01*
G37*
D02*
G36*
X962Y80D02*
X962Y78D01*
X1962Y78D01*
X1962Y80D01*
X962Y80D01*
G37*
D02*
G36*
X958Y78D02*
X958Y76D01*
X952Y76D01*
X952Y74D01*
X948Y74D01*
X948Y72D01*
X942Y72D01*
X942Y70D01*
X938Y70D01*
X938Y68D01*
X934Y68D01*
X934Y66D01*
X928Y66D01*
X928Y64D01*
X924Y64D01*
X924Y62D01*
X920Y62D01*
X920Y60D01*
X914Y60D01*
X914Y40D01*
X1968Y40D01*
X1968Y64D01*
X1966Y64D01*
X1966Y70D01*
X1964Y70D01*
X1964Y78D01*
X958Y78D01*
G37*
D02*
G54D24*
X494Y1605D02*
X444Y1570D01*
X408Y1621D01*
X459Y1656D01*
X494Y1605D01*
D02*
G04 End of Copper0*
M02*