; NON-PLATED HOLES START AT T1
; THROUGH (PLATED) HOLES START AT T100
M48
INCH
T100C0.038000
T101C0.100000
T102C0.031555
T103C0.047244
T104C0.035000
T105C0.042000
T106C0.030000
T107C0.086000
T108C0.031496
T109C0.137795
%
T100
X016016Y000684
X004072Y010180
X015016Y000684
X013016Y000684
X009016Y000684
X012016Y000684
X028016Y000684
X027016Y000684
X028631Y022573
X031631Y022573
X027631Y022573
X004072Y012180
X030631Y022573
X024016Y000684
X018016Y000684
X021016Y000684
X017016Y000684
X020016Y000684
X014016Y000684
X004072Y011180
X029631Y022573
X011016Y000684
X010016Y000684
X026016Y000684
X025016Y000684
X026631Y022573
X023016Y000684
X019016Y000684
X004072Y009180
X022016Y000684
T101
X003048Y018520
X003048Y020920
X001148Y019720
T102
X015699Y009397
T103
X021867Y022416
X007104Y022613
X019308Y022534
X025490Y022416
X011080Y022573
X015332Y022573
T104
X019745Y006514
X009112Y018794
X019741Y009109
X017623Y004392
X010096Y022731
X017151Y015699
X007143Y017810
X018330Y009342
X006159Y018794
X016916Y003685
X023987Y014999
X012663Y008613
X016316Y022731
X017623Y008635
X017301Y018794
X016209Y007221
X016442Y017038
X015332Y017810
X011245Y015337
X016916Y007928
X021159Y007928
X009190Y005093
X019038Y005807
X014348Y018794
X024694Y011463
X011245Y014337
X009190Y004093
X018921Y013093
X012064Y018794
X011245Y013337
X008245Y015337
X023987Y010756
X009112Y007825
X020452Y011463
X012340Y015959
X023206Y018636
X013442Y016904
X011245Y012337
X018285Y022731
X008245Y014337
X014545Y016510
X009112Y006825
X020452Y007221
X026109Y012878
X013442Y015904
X006907Y016825
X014795Y005807
X026206Y018636
X008245Y013337
X014545Y015510
X023280Y014292
X020253Y018794
X025401Y012170
X009986Y009400
X019269Y017810
X008245Y012337
X011080Y017810
X015970Y015699
X012340Y012959
X022573Y013585
X019038Y010049
X018330Y005099
X022573Y009342
X021159Y012170
X021316Y010526
X006907Y013825
X021866Y012878
X019745Y010756
X023280Y010049
X008127Y022731
X015502Y006514
X021866Y008635
T105
X007222Y006093
X005726Y016510
X005883Y009188
X007222Y007093
X005726Y013531
X005883Y012168
X007222Y005093
T106
X025096Y015881
X013993Y009560
X026510Y014466
X017379Y012416
X013993Y008558
X018372Y012278
T107
X012064Y020762
X020253Y020762
X006159Y020762
X014348Y020762
T108
X017064Y010762
X023678Y022810
X023678Y022022
X024466Y022810
X024466Y022022
X022891Y022810
X022891Y022022
T109
X028121Y016510
X004072Y002574
X004072Y016510
X028121Y002574
T00
M30
