G04 MADE WITH FRITZING*
G04 WWW.FRITZING.ORG*
G04 DOUBLE SIDED*
G04 HOLES PLATED*
G04 CONTOUR ON CENTER OF CONTOUR VECTOR*
%ASAXBY*%
%FSLAX23Y23*%
%MOIN*%
%OFA0B0*%
%SFA1.0B1.0*%
%ADD10C,0.061496*%
%ADD11C,0.077244*%
%ADD12C,0.085000*%
%ADD13C,0.092000*%
%ADD14C,0.088740*%
%ADD15C,0.088000*%
%ADD16C,0.187165*%
%ADD17C,0.080925*%
%ADD18C,0.080866*%
%ADD19C,0.080000*%
%ADD20C,0.136000*%
%ADD21C,0.150000*%
%ADD22R,0.085000X0.085000*%
%ADD23C,0.030000*%
%LNMASK1*%
G90*
G70*
G54D10*
X2289Y2281D03*
X2289Y2202D03*
X2368Y2281D03*
X2368Y2202D03*
X2447Y2281D03*
X2447Y2202D03*
G54D11*
X2549Y2242D03*
X2187Y2242D03*
G54D10*
X2289Y2281D03*
X2289Y2202D03*
X2368Y2281D03*
X2368Y2202D03*
X2447Y2281D03*
X2447Y2202D03*
G54D11*
X2549Y2242D03*
X2187Y2242D03*
G54D12*
X1234Y1596D03*
X1234Y1296D03*
G54D13*
X573Y1651D03*
X573Y1353D03*
G54D12*
X1266Y861D03*
X999Y940D03*
G54D14*
X1931Y2253D03*
X1108Y2257D03*
X1533Y2257D03*
X710Y2261D03*
G54D15*
X407Y918D03*
X407Y1018D03*
X407Y1118D03*
X407Y1218D03*
G54D12*
X1715Y1570D03*
X1892Y1309D03*
G54D15*
X2802Y68D03*
X2702Y68D03*
X2602Y68D03*
X2502Y68D03*
X2402Y68D03*
X2302Y68D03*
X2202Y68D03*
X2102Y68D03*
X2002Y68D03*
X1902Y68D03*
X1802Y68D03*
X1702Y68D03*
X1602Y68D03*
X1502Y68D03*
X1402Y68D03*
X1302Y68D03*
X1202Y68D03*
X1102Y68D03*
X1002Y68D03*
X902Y68D03*
G54D16*
X407Y257D03*
X407Y1651D03*
X2812Y257D03*
X2812Y1651D03*
G54D12*
X2399Y1500D03*
X2611Y1288D03*
X2328Y1429D03*
X2540Y1217D03*
X2257Y1359D03*
X2469Y1146D03*
X2187Y1288D03*
X2399Y1076D03*
X2116Y1217D03*
X2328Y1005D03*
X2045Y1146D03*
X2257Y934D03*
X1975Y1076D03*
X2187Y864D03*
X1904Y1005D03*
X2116Y793D03*
X1833Y934D03*
X2045Y722D03*
X1762Y864D03*
X1975Y651D03*
X1692Y793D03*
X1904Y581D03*
X1621Y722D03*
X1833Y510D03*
X1550Y651D03*
X1762Y439D03*
X1480Y581D03*
X1692Y369D03*
G54D17*
X1570Y940D03*
G54D18*
X1706Y1076D03*
G54D19*
X1738Y1242D03*
X1837Y1228D03*
X1399Y856D03*
X1399Y956D03*
G54D12*
X1206Y1879D03*
X1108Y1781D03*
X911Y1879D03*
X714Y1781D03*
X616Y1879D03*
X1010Y2273D03*
G54D20*
X616Y2076D03*
X1206Y2076D03*
G54D12*
X813Y2273D03*
X2025Y1879D03*
X1927Y1781D03*
X1730Y1879D03*
X1533Y1781D03*
X1435Y1879D03*
X1829Y2273D03*
G54D20*
X1435Y2076D03*
X2025Y2076D03*
G54D12*
X1632Y2273D03*
G54D21*
X305Y1852D03*
X305Y2092D03*
X115Y1972D03*
G54D13*
X722Y509D03*
X722Y609D03*
X722Y709D03*
G54D12*
X911Y683D03*
X911Y783D03*
X919Y509D03*
X919Y409D03*
G54D13*
X588Y919D03*
X588Y1217D03*
G54D15*
X3163Y2257D03*
X3063Y2257D03*
X2963Y2257D03*
X2863Y2257D03*
X2763Y2257D03*
X2663Y2257D03*
G54D12*
X825Y1534D03*
X1125Y1534D03*
X825Y1434D03*
X1125Y1434D03*
X825Y1334D03*
X1125Y1334D03*
X825Y1234D03*
X1125Y1234D03*
X691Y1683D03*
X691Y1383D03*
G54D19*
X2510Y1588D03*
X2651Y1447D03*
G54D12*
X2321Y1864D03*
X2621Y1864D03*
X1344Y1690D03*
X1344Y1590D03*
X1455Y1651D03*
X1455Y1551D03*
X1644Y1704D03*
X1597Y1570D03*
X2132Y1053D03*
X1974Y911D03*
G54D22*
X825Y1534D03*
G54D23*
G36*
X604Y1621D02*
X542Y1621D01*
X542Y1683D01*
X604Y1683D01*
X604Y1621D01*
G37*
D02*
G36*
X2438Y1500D02*
X2399Y1461D01*
X2360Y1500D01*
X2399Y1539D01*
X2438Y1500D01*
G37*
D02*
G36*
X691Y540D02*
X753Y540D01*
X753Y478D01*
X691Y478D01*
X691Y540D01*
G37*
D02*
G36*
X884Y710D02*
X939Y710D01*
X939Y655D01*
X884Y655D01*
X884Y710D01*
G37*
D02*
G36*
X947Y482D02*
X892Y482D01*
X892Y537D01*
X947Y537D01*
X947Y482D01*
G37*
D02*
G36*
X557Y949D02*
X619Y949D01*
X619Y887D01*
X557Y887D01*
X557Y949D01*
G37*
D02*
G04 End of Mask1*
M02*