; NON-PLATED HOLES START AT T1
; THROUGH (PLATED) HOLES START AT T100
M48
INCH
T1C0.084000
T100C0.088356
T101C0.035000
T102C0.059055
T103C0.041333
T104C0.031497
T105C0.091430
T106C0.100000
T107C0.090551
T108C0.137795
T109C0.042000
T110C0.041361
T111C0.038000
%
T1
X027461Y030507
X041635Y030507
X014981Y030546
X038288Y030507
X030808Y030507
X016831Y030507
X020178Y030507
X022271Y030507
X025618Y030507
X032776Y030507
X036123Y030507
X011635Y030546
T100
X041421Y004471
X016279Y004471
X013075Y004471
X009192Y004471
X027248Y004471
X023365Y004471
X037538Y004471
X002105Y004471
X020162Y004471
X034335Y004471
X030452Y004471
X005988Y004471
T101
X025488Y002474
X011426Y002474
X032797Y002363
X037922Y015742
X027151Y015686
X002236Y019248
X028222Y018000
X031222Y018000
X011245Y015684
X038993Y018000
X021669Y015649
X041993Y018000
X037959Y018038
X020679Y015361
X032496Y017983
X006618Y018335
X004008Y019248
X036734Y018000
X036993Y015334
X027151Y017983
X012388Y018000
X006618Y015335
X031402Y015361
X010568Y014440
X011245Y017980
X002236Y016689
X021669Y017946
X022875Y017960
X018512Y004274
X017419Y017960
X031902Y014495
X020419Y017960
X004008Y016689
X025488Y004274
X026124Y015361
X011426Y004274
X032797Y004163
X016379Y015649
X015402Y015361
X004728Y004274
X015388Y018000
X004672Y002474
X021179Y014495
X026624Y014495
X010068Y015306
X025875Y017960
X037493Y014468
X015902Y014495
X016379Y017946
X018512Y002474
X033734Y018000
X032496Y015686
T102
X008555Y029696
X008555Y026659
T103
X004047Y001518
X003047Y001518
X032393Y001518
X031393Y001518
X011133Y001518
X025307Y001518
X010133Y001518
X024307Y001518
X039480Y001518
X038480Y001518
X018220Y001518
X017220Y001518
T104
X002998Y013016
X002998Y012032
X031888Y013415
X031888Y012431
X021166Y013415
X021166Y012431
X010555Y012375
X010555Y013360
X037479Y013388
X015888Y013415
X015888Y012431
X037479Y012404
X026611Y013415
X026611Y012431
T105
X013255Y015423
X029286Y013573
X029286Y015423
X034765Y011685
X018570Y013573
X040080Y015383
X013255Y011724
X023971Y013573
X034765Y013534
X018570Y015423
X029286Y011724
X023971Y015423
X040080Y011685
X018570Y011724
X040080Y013534
X023971Y011724
X013255Y013573
X034765Y015383
T106
X004721Y028419
X004721Y026019
X002821Y027219
T107
X034450Y029206
X018505Y029206
X013308Y029245
X011801Y027739
X030631Y027699
X014805Y027739
X027628Y027699
X023944Y029206
X039961Y029206
X032943Y027699
X020001Y027699
X022438Y027699
X038455Y027699
X035946Y027699
X041458Y027699
X016998Y027699
X029135Y029206
X025441Y027699
T108
X007883Y024353
X007883Y010416
X001323Y007407
X041863Y024141
X041889Y007447
X001358Y024180
X031931Y024353
X031931Y010416
T109
X035921Y026125
X022954Y019235
X013357Y019274
X019553Y019235
X023954Y019235
X014357Y019274
X030631Y026125
X030264Y019274
X028264Y019274
X038478Y026125
X024954Y019235
X029264Y019274
X011854Y026125
X033665Y019274
X008576Y026706
X032941Y026125
X040017Y019274
X034665Y019274
X008576Y029686
X041017Y019274
X035665Y019274
X017051Y026085
X039017Y019274
X041458Y026125
X025395Y026085
X017553Y019235
X014834Y026125
X027651Y026125
X020031Y026085
X012357Y019274
X022415Y026085
X018553Y019235
T110
X005047Y001518
X033393Y001518
X012134Y001518
X026307Y001518
X040480Y001518
X019220Y001518
T111
X026826Y008489
X027826Y008489
X020826Y008489
X028826Y008489
X021826Y008489
X019826Y008489
X030826Y008489
X012826Y008489
X009811Y022644
X031826Y008489
X013826Y008489
X029826Y008489
X022826Y008489
X009811Y023644
X023826Y008489
X007929Y020022
X014826Y008489
X007929Y017022
X009811Y024644
X015826Y008489
X024826Y008489
X025826Y008489
X007929Y018022
X016826Y008489
X017826Y008489
X007929Y019022
X018826Y008489
T00
M30
