G04 MADE WITH FRITZING*
G04 WWW.FRITZING.ORG*
G04 DOUBLE SIDED*
G04 HOLES PLATED*
G04 CONTOUR ON CENTER OF CONTOUR VECTOR*
%ASAXBY*%
%FSLAX23Y23*%
%MOIN*%
%OFA0B0*%
%SFA1.0B1.0*%
%ADD10R,0.001000X0.001000*%
%LNSILK0*%
G90*
G70*
G54D10*
X0Y2396D02*
X5904Y2396D01*
X0Y2395D02*
X5904Y2395D01*
X0Y2394D02*
X5904Y2394D01*
X0Y2393D02*
X5904Y2393D01*
X0Y2392D02*
X5904Y2392D01*
X0Y2391D02*
X5904Y2391D01*
X0Y2390D02*
X5904Y2390D01*
X0Y2389D02*
X5904Y2389D01*
X0Y2388D02*
X7Y2388D01*
X5897Y2388D02*
X5904Y2388D01*
X0Y2387D02*
X7Y2387D01*
X5897Y2387D02*
X5904Y2387D01*
X0Y2386D02*
X7Y2386D01*
X5897Y2386D02*
X5904Y2386D01*
X0Y2385D02*
X7Y2385D01*
X5897Y2385D02*
X5904Y2385D01*
X0Y2384D02*
X7Y2384D01*
X5897Y2384D02*
X5904Y2384D01*
X0Y2383D02*
X7Y2383D01*
X5897Y2383D02*
X5904Y2383D01*
X0Y2382D02*
X7Y2382D01*
X5897Y2382D02*
X5904Y2382D01*
X0Y2381D02*
X7Y2381D01*
X5897Y2381D02*
X5904Y2381D01*
X0Y2380D02*
X7Y2380D01*
X5897Y2380D02*
X5904Y2380D01*
X0Y2379D02*
X7Y2379D01*
X5897Y2379D02*
X5904Y2379D01*
X0Y2378D02*
X7Y2378D01*
X5897Y2378D02*
X5904Y2378D01*
X0Y2377D02*
X7Y2377D01*
X5897Y2377D02*
X5904Y2377D01*
X0Y2376D02*
X7Y2376D01*
X5897Y2376D02*
X5904Y2376D01*
X0Y2375D02*
X7Y2375D01*
X5897Y2375D02*
X5904Y2375D01*
X0Y2374D02*
X7Y2374D01*
X5897Y2374D02*
X5904Y2374D01*
X0Y2373D02*
X7Y2373D01*
X5897Y2373D02*
X5904Y2373D01*
X0Y2372D02*
X7Y2372D01*
X5897Y2372D02*
X5904Y2372D01*
X0Y2371D02*
X7Y2371D01*
X5897Y2371D02*
X5904Y2371D01*
X0Y2370D02*
X7Y2370D01*
X5897Y2370D02*
X5904Y2370D01*
X0Y2369D02*
X7Y2369D01*
X5897Y2369D02*
X5904Y2369D01*
X0Y2368D02*
X7Y2368D01*
X5897Y2368D02*
X5904Y2368D01*
X0Y2367D02*
X7Y2367D01*
X5897Y2367D02*
X5904Y2367D01*
X0Y2366D02*
X7Y2366D01*
X5897Y2366D02*
X5904Y2366D01*
X0Y2365D02*
X7Y2365D01*
X5897Y2365D02*
X5904Y2365D01*
X0Y2364D02*
X7Y2364D01*
X5897Y2364D02*
X5904Y2364D01*
X0Y2363D02*
X7Y2363D01*
X5897Y2363D02*
X5904Y2363D01*
X0Y2362D02*
X7Y2362D01*
X5897Y2362D02*
X5904Y2362D01*
X0Y2361D02*
X7Y2361D01*
X5897Y2361D02*
X5904Y2361D01*
X0Y2360D02*
X7Y2360D01*
X5897Y2360D02*
X5904Y2360D01*
X0Y2359D02*
X7Y2359D01*
X5897Y2359D02*
X5904Y2359D01*
X0Y2358D02*
X7Y2358D01*
X5897Y2358D02*
X5904Y2358D01*
X0Y2357D02*
X7Y2357D01*
X5897Y2357D02*
X5904Y2357D01*
X0Y2356D02*
X7Y2356D01*
X5897Y2356D02*
X5904Y2356D01*
X0Y2355D02*
X7Y2355D01*
X5897Y2355D02*
X5904Y2355D01*
X0Y2354D02*
X7Y2354D01*
X5897Y2354D02*
X5904Y2354D01*
X0Y2353D02*
X7Y2353D01*
X5897Y2353D02*
X5904Y2353D01*
X0Y2352D02*
X7Y2352D01*
X5897Y2352D02*
X5904Y2352D01*
X0Y2351D02*
X7Y2351D01*
X5897Y2351D02*
X5904Y2351D01*
X0Y2350D02*
X7Y2350D01*
X5897Y2350D02*
X5904Y2350D01*
X0Y2349D02*
X7Y2349D01*
X5897Y2349D02*
X5904Y2349D01*
X0Y2348D02*
X7Y2348D01*
X5897Y2348D02*
X5904Y2348D01*
X0Y2347D02*
X7Y2347D01*
X5897Y2347D02*
X5904Y2347D01*
X0Y2346D02*
X7Y2346D01*
X5897Y2346D02*
X5904Y2346D01*
X0Y2345D02*
X7Y2345D01*
X5897Y2345D02*
X5904Y2345D01*
X0Y2344D02*
X7Y2344D01*
X5897Y2344D02*
X5904Y2344D01*
X0Y2343D02*
X7Y2343D01*
X5897Y2343D02*
X5904Y2343D01*
X0Y2342D02*
X7Y2342D01*
X5897Y2342D02*
X5904Y2342D01*
X0Y2341D02*
X7Y2341D01*
X5897Y2341D02*
X5904Y2341D01*
X0Y2340D02*
X7Y2340D01*
X5897Y2340D02*
X5904Y2340D01*
X0Y2339D02*
X7Y2339D01*
X5897Y2339D02*
X5904Y2339D01*
X0Y2338D02*
X7Y2338D01*
X5897Y2338D02*
X5904Y2338D01*
X0Y2337D02*
X7Y2337D01*
X5897Y2337D02*
X5904Y2337D01*
X0Y2336D02*
X7Y2336D01*
X5897Y2336D02*
X5904Y2336D01*
X0Y2335D02*
X7Y2335D01*
X5897Y2335D02*
X5904Y2335D01*
X0Y2334D02*
X7Y2334D01*
X5897Y2334D02*
X5904Y2334D01*
X0Y2333D02*
X7Y2333D01*
X5897Y2333D02*
X5904Y2333D01*
X0Y2332D02*
X7Y2332D01*
X5897Y2332D02*
X5904Y2332D01*
X0Y2331D02*
X7Y2331D01*
X5897Y2331D02*
X5904Y2331D01*
X0Y2330D02*
X7Y2330D01*
X5897Y2330D02*
X5904Y2330D01*
X0Y2329D02*
X7Y2329D01*
X5897Y2329D02*
X5904Y2329D01*
X0Y2328D02*
X7Y2328D01*
X5897Y2328D02*
X5904Y2328D01*
X0Y2327D02*
X7Y2327D01*
X5897Y2327D02*
X5904Y2327D01*
X0Y2326D02*
X7Y2326D01*
X5897Y2326D02*
X5904Y2326D01*
X0Y2325D02*
X7Y2325D01*
X5897Y2325D02*
X5904Y2325D01*
X0Y2324D02*
X7Y2324D01*
X5897Y2324D02*
X5904Y2324D01*
X0Y2323D02*
X7Y2323D01*
X5897Y2323D02*
X5904Y2323D01*
X0Y2322D02*
X7Y2322D01*
X5897Y2322D02*
X5904Y2322D01*
X0Y2321D02*
X7Y2321D01*
X5897Y2321D02*
X5904Y2321D01*
X0Y2320D02*
X7Y2320D01*
X5897Y2320D02*
X5904Y2320D01*
X0Y2319D02*
X7Y2319D01*
X5897Y2319D02*
X5904Y2319D01*
X0Y2318D02*
X7Y2318D01*
X5897Y2318D02*
X5904Y2318D01*
X0Y2317D02*
X7Y2317D01*
X5897Y2317D02*
X5904Y2317D01*
X0Y2316D02*
X7Y2316D01*
X5897Y2316D02*
X5904Y2316D01*
X0Y2315D02*
X7Y2315D01*
X5897Y2315D02*
X5904Y2315D01*
X0Y2314D02*
X7Y2314D01*
X5897Y2314D02*
X5904Y2314D01*
X0Y2313D02*
X7Y2313D01*
X5897Y2313D02*
X5904Y2313D01*
X0Y2312D02*
X7Y2312D01*
X5897Y2312D02*
X5904Y2312D01*
X0Y2311D02*
X7Y2311D01*
X5897Y2311D02*
X5904Y2311D01*
X0Y2310D02*
X7Y2310D01*
X5897Y2310D02*
X5904Y2310D01*
X0Y2309D02*
X7Y2309D01*
X5897Y2309D02*
X5904Y2309D01*
X0Y2308D02*
X7Y2308D01*
X5897Y2308D02*
X5904Y2308D01*
X0Y2307D02*
X7Y2307D01*
X5897Y2307D02*
X5904Y2307D01*
X0Y2306D02*
X7Y2306D01*
X5897Y2306D02*
X5904Y2306D01*
X0Y2305D02*
X7Y2305D01*
X5897Y2305D02*
X5904Y2305D01*
X0Y2304D02*
X7Y2304D01*
X5897Y2304D02*
X5904Y2304D01*
X0Y2303D02*
X7Y2303D01*
X5897Y2303D02*
X5904Y2303D01*
X0Y2302D02*
X7Y2302D01*
X5897Y2302D02*
X5904Y2302D01*
X0Y2301D02*
X7Y2301D01*
X5897Y2301D02*
X5904Y2301D01*
X0Y2300D02*
X7Y2300D01*
X5897Y2300D02*
X5904Y2300D01*
X0Y2299D02*
X7Y2299D01*
X5897Y2299D02*
X5904Y2299D01*
X0Y2298D02*
X7Y2298D01*
X5897Y2298D02*
X5904Y2298D01*
X0Y2297D02*
X7Y2297D01*
X5897Y2297D02*
X5904Y2297D01*
X0Y2296D02*
X7Y2296D01*
X5897Y2296D02*
X5904Y2296D01*
X0Y2295D02*
X7Y2295D01*
X5897Y2295D02*
X5904Y2295D01*
X0Y2294D02*
X7Y2294D01*
X5897Y2294D02*
X5904Y2294D01*
X0Y2293D02*
X7Y2293D01*
X5897Y2293D02*
X5904Y2293D01*
X0Y2292D02*
X7Y2292D01*
X5897Y2292D02*
X5904Y2292D01*
X0Y2291D02*
X7Y2291D01*
X5897Y2291D02*
X5904Y2291D01*
X0Y2290D02*
X7Y2290D01*
X5897Y2290D02*
X5904Y2290D01*
X0Y2289D02*
X7Y2289D01*
X5897Y2289D02*
X5904Y2289D01*
X0Y2288D02*
X7Y2288D01*
X5897Y2288D02*
X5904Y2288D01*
X0Y2287D02*
X7Y2287D01*
X5897Y2287D02*
X5904Y2287D01*
X0Y2286D02*
X7Y2286D01*
X5897Y2286D02*
X5904Y2286D01*
X0Y2285D02*
X7Y2285D01*
X5897Y2285D02*
X5904Y2285D01*
X0Y2284D02*
X7Y2284D01*
X5897Y2284D02*
X5904Y2284D01*
X0Y2283D02*
X7Y2283D01*
X5897Y2283D02*
X5904Y2283D01*
X0Y2282D02*
X7Y2282D01*
X5897Y2282D02*
X5904Y2282D01*
X0Y2281D02*
X7Y2281D01*
X5897Y2281D02*
X5904Y2281D01*
X0Y2280D02*
X7Y2280D01*
X5897Y2280D02*
X5904Y2280D01*
X0Y2279D02*
X7Y2279D01*
X5897Y2279D02*
X5904Y2279D01*
X0Y2278D02*
X7Y2278D01*
X5897Y2278D02*
X5904Y2278D01*
X0Y2277D02*
X7Y2277D01*
X5897Y2277D02*
X5904Y2277D01*
X0Y2276D02*
X7Y2276D01*
X5897Y2276D02*
X5904Y2276D01*
X0Y2275D02*
X7Y2275D01*
X5897Y2275D02*
X5904Y2275D01*
X0Y2274D02*
X7Y2274D01*
X5897Y2274D02*
X5904Y2274D01*
X0Y2273D02*
X7Y2273D01*
X5897Y2273D02*
X5904Y2273D01*
X0Y2272D02*
X7Y2272D01*
X5897Y2272D02*
X5904Y2272D01*
X0Y2271D02*
X7Y2271D01*
X5897Y2271D02*
X5904Y2271D01*
X0Y2270D02*
X7Y2270D01*
X5897Y2270D02*
X5904Y2270D01*
X0Y2269D02*
X7Y2269D01*
X5897Y2269D02*
X5904Y2269D01*
X0Y2268D02*
X7Y2268D01*
X5897Y2268D02*
X5904Y2268D01*
X0Y2267D02*
X7Y2267D01*
X5897Y2267D02*
X5904Y2267D01*
X0Y2266D02*
X7Y2266D01*
X5897Y2266D02*
X5904Y2266D01*
X0Y2265D02*
X7Y2265D01*
X5897Y2265D02*
X5904Y2265D01*
X0Y2264D02*
X7Y2264D01*
X5897Y2264D02*
X5904Y2264D01*
X0Y2263D02*
X7Y2263D01*
X5897Y2263D02*
X5904Y2263D01*
X0Y2262D02*
X7Y2262D01*
X5897Y2262D02*
X5904Y2262D01*
X0Y2261D02*
X7Y2261D01*
X5897Y2261D02*
X5904Y2261D01*
X0Y2260D02*
X7Y2260D01*
X5897Y2260D02*
X5904Y2260D01*
X0Y2259D02*
X7Y2259D01*
X5897Y2259D02*
X5904Y2259D01*
X0Y2258D02*
X7Y2258D01*
X5897Y2258D02*
X5904Y2258D01*
X0Y2257D02*
X7Y2257D01*
X5897Y2257D02*
X5904Y2257D01*
X0Y2256D02*
X7Y2256D01*
X5897Y2256D02*
X5904Y2256D01*
X0Y2255D02*
X7Y2255D01*
X5897Y2255D02*
X5904Y2255D01*
X0Y2254D02*
X7Y2254D01*
X5897Y2254D02*
X5904Y2254D01*
X0Y2253D02*
X7Y2253D01*
X5897Y2253D02*
X5904Y2253D01*
X0Y2252D02*
X7Y2252D01*
X5897Y2252D02*
X5904Y2252D01*
X0Y2251D02*
X7Y2251D01*
X5897Y2251D02*
X5904Y2251D01*
X0Y2250D02*
X7Y2250D01*
X5897Y2250D02*
X5904Y2250D01*
X0Y2249D02*
X7Y2249D01*
X5897Y2249D02*
X5904Y2249D01*
X0Y2248D02*
X7Y2248D01*
X5897Y2248D02*
X5904Y2248D01*
X0Y2247D02*
X7Y2247D01*
X5897Y2247D02*
X5904Y2247D01*
X0Y2246D02*
X7Y2246D01*
X5897Y2246D02*
X5904Y2246D01*
X0Y2245D02*
X7Y2245D01*
X5897Y2245D02*
X5904Y2245D01*
X0Y2244D02*
X7Y2244D01*
X5897Y2244D02*
X5904Y2244D01*
X0Y2243D02*
X7Y2243D01*
X5897Y2243D02*
X5904Y2243D01*
X0Y2242D02*
X7Y2242D01*
X5897Y2242D02*
X5904Y2242D01*
X0Y2241D02*
X7Y2241D01*
X5897Y2241D02*
X5904Y2241D01*
X0Y2240D02*
X7Y2240D01*
X5897Y2240D02*
X5904Y2240D01*
X0Y2239D02*
X7Y2239D01*
X5897Y2239D02*
X5904Y2239D01*
X0Y2238D02*
X7Y2238D01*
X5897Y2238D02*
X5904Y2238D01*
X0Y2237D02*
X7Y2237D01*
X5897Y2237D02*
X5904Y2237D01*
X0Y2236D02*
X7Y2236D01*
X5897Y2236D02*
X5904Y2236D01*
X0Y2235D02*
X7Y2235D01*
X5897Y2235D02*
X5904Y2235D01*
X0Y2234D02*
X7Y2234D01*
X5897Y2234D02*
X5904Y2234D01*
X0Y2233D02*
X7Y2233D01*
X5897Y2233D02*
X5904Y2233D01*
X0Y2232D02*
X7Y2232D01*
X5897Y2232D02*
X5904Y2232D01*
X0Y2231D02*
X7Y2231D01*
X5897Y2231D02*
X5904Y2231D01*
X0Y2230D02*
X7Y2230D01*
X5897Y2230D02*
X5904Y2230D01*
X0Y2229D02*
X7Y2229D01*
X5897Y2229D02*
X5904Y2229D01*
X0Y2228D02*
X7Y2228D01*
X5897Y2228D02*
X5904Y2228D01*
X0Y2227D02*
X7Y2227D01*
X5897Y2227D02*
X5904Y2227D01*
X0Y2226D02*
X7Y2226D01*
X5897Y2226D02*
X5904Y2226D01*
X0Y2225D02*
X7Y2225D01*
X5897Y2225D02*
X5904Y2225D01*
X0Y2224D02*
X7Y2224D01*
X5897Y2224D02*
X5904Y2224D01*
X0Y2223D02*
X7Y2223D01*
X5897Y2223D02*
X5904Y2223D01*
X0Y2222D02*
X7Y2222D01*
X5897Y2222D02*
X5904Y2222D01*
X0Y2221D02*
X7Y2221D01*
X5897Y2221D02*
X5904Y2221D01*
X0Y2220D02*
X7Y2220D01*
X5897Y2220D02*
X5904Y2220D01*
X0Y2219D02*
X7Y2219D01*
X5897Y2219D02*
X5904Y2219D01*
X0Y2218D02*
X7Y2218D01*
X5897Y2218D02*
X5904Y2218D01*
X0Y2217D02*
X7Y2217D01*
X5897Y2217D02*
X5904Y2217D01*
X0Y2216D02*
X7Y2216D01*
X5897Y2216D02*
X5904Y2216D01*
X0Y2215D02*
X7Y2215D01*
X5897Y2215D02*
X5904Y2215D01*
X0Y2214D02*
X7Y2214D01*
X5897Y2214D02*
X5904Y2214D01*
X0Y2213D02*
X7Y2213D01*
X5897Y2213D02*
X5904Y2213D01*
X0Y2212D02*
X34Y2212D01*
X5246Y2212D02*
X5264Y2212D01*
X5296Y2212D02*
X5314Y2212D01*
X5334Y2212D02*
X5337Y2212D01*
X5440Y2212D02*
X5466Y2212D01*
X5897Y2212D02*
X5904Y2212D01*
X0Y2211D02*
X34Y2211D01*
X5246Y2211D02*
X5265Y2211D01*
X5296Y2211D02*
X5315Y2211D01*
X5333Y2211D02*
X5338Y2211D01*
X5438Y2211D02*
X5466Y2211D01*
X5897Y2211D02*
X5904Y2211D01*
X0Y2210D02*
X34Y2210D01*
X5246Y2210D02*
X5265Y2210D01*
X5296Y2210D02*
X5316Y2210D01*
X5332Y2210D02*
X5338Y2210D01*
X5436Y2210D02*
X5466Y2210D01*
X5897Y2210D02*
X5904Y2210D01*
X0Y2209D02*
X34Y2209D01*
X5246Y2209D02*
X5265Y2209D01*
X5296Y2209D02*
X5316Y2209D01*
X5332Y2209D02*
X5338Y2209D01*
X5435Y2209D02*
X5466Y2209D01*
X5897Y2209D02*
X5904Y2209D01*
X0Y2208D02*
X34Y2208D01*
X5246Y2208D02*
X5265Y2208D01*
X5296Y2208D02*
X5315Y2208D01*
X5332Y2208D02*
X5338Y2208D01*
X5435Y2208D02*
X5466Y2208D01*
X5897Y2208D02*
X5904Y2208D01*
X0Y2207D02*
X34Y2207D01*
X5246Y2207D02*
X5265Y2207D01*
X5296Y2207D02*
X5315Y2207D01*
X5332Y2207D02*
X5338Y2207D01*
X5434Y2207D02*
X5466Y2207D01*
X5897Y2207D02*
X5904Y2207D01*
X0Y2206D02*
X34Y2206D01*
X5246Y2206D02*
X5263Y2206D01*
X5296Y2206D02*
X5314Y2206D01*
X5332Y2206D02*
X5338Y2206D01*
X5433Y2206D02*
X5466Y2206D01*
X5897Y2206D02*
X5904Y2206D01*
X0Y2205D02*
X8Y2205D01*
X28Y2205D02*
X34Y2205D01*
X5246Y2205D02*
X5252Y2205D01*
X5296Y2205D02*
X5302Y2205D01*
X5332Y2205D02*
X5338Y2205D01*
X5433Y2205D02*
X5440Y2205D01*
X5460Y2205D02*
X5466Y2205D01*
X5897Y2205D02*
X5904Y2205D01*
X0Y2204D02*
X7Y2204D01*
X28Y2204D02*
X34Y2204D01*
X5246Y2204D02*
X5252Y2204D01*
X5296Y2204D02*
X5302Y2204D01*
X5332Y2204D02*
X5338Y2204D01*
X5433Y2204D02*
X5439Y2204D01*
X5460Y2204D02*
X5466Y2204D01*
X5897Y2204D02*
X5904Y2204D01*
X0Y2203D02*
X7Y2203D01*
X28Y2203D02*
X34Y2203D01*
X5246Y2203D02*
X5252Y2203D01*
X5296Y2203D02*
X5302Y2203D01*
X5332Y2203D02*
X5338Y2203D01*
X5433Y2203D02*
X5439Y2203D01*
X5460Y2203D02*
X5466Y2203D01*
X5897Y2203D02*
X5904Y2203D01*
X0Y2202D02*
X7Y2202D01*
X28Y2202D02*
X34Y2202D01*
X5246Y2202D02*
X5252Y2202D01*
X5296Y2202D02*
X5302Y2202D01*
X5332Y2202D02*
X5338Y2202D01*
X5433Y2202D02*
X5439Y2202D01*
X5460Y2202D02*
X5466Y2202D01*
X5897Y2202D02*
X5904Y2202D01*
X0Y2201D02*
X7Y2201D01*
X28Y2201D02*
X34Y2201D01*
X5246Y2201D02*
X5252Y2201D01*
X5296Y2201D02*
X5302Y2201D01*
X5332Y2201D02*
X5338Y2201D01*
X5433Y2201D02*
X5439Y2201D01*
X5460Y2201D02*
X5466Y2201D01*
X5897Y2201D02*
X5904Y2201D01*
X0Y2200D02*
X7Y2200D01*
X28Y2200D02*
X34Y2200D01*
X5246Y2200D02*
X5252Y2200D01*
X5296Y2200D02*
X5302Y2200D01*
X5332Y2200D02*
X5338Y2200D01*
X5433Y2200D02*
X5439Y2200D01*
X5460Y2200D02*
X5466Y2200D01*
X5897Y2200D02*
X5904Y2200D01*
X0Y2199D02*
X7Y2199D01*
X28Y2199D02*
X34Y2199D01*
X5246Y2199D02*
X5252Y2199D01*
X5296Y2199D02*
X5302Y2199D01*
X5332Y2199D02*
X5338Y2199D01*
X5433Y2199D02*
X5439Y2199D01*
X5460Y2199D02*
X5466Y2199D01*
X5897Y2199D02*
X5904Y2199D01*
X0Y2198D02*
X7Y2198D01*
X28Y2198D02*
X34Y2198D01*
X5246Y2198D02*
X5252Y2198D01*
X5296Y2198D02*
X5302Y2198D01*
X5332Y2198D02*
X5338Y2198D01*
X5433Y2198D02*
X5439Y2198D01*
X5460Y2198D02*
X5466Y2198D01*
X5897Y2198D02*
X5904Y2198D01*
X0Y2197D02*
X7Y2197D01*
X28Y2197D02*
X34Y2197D01*
X5246Y2197D02*
X5252Y2197D01*
X5296Y2197D02*
X5302Y2197D01*
X5332Y2197D02*
X5338Y2197D01*
X5345Y2197D02*
X5357Y2197D01*
X5390Y2197D02*
X5408Y2197D01*
X5433Y2197D02*
X5439Y2197D01*
X5460Y2197D02*
X5466Y2197D01*
X5897Y2197D02*
X5904Y2197D01*
X0Y2196D02*
X7Y2196D01*
X28Y2196D02*
X34Y2196D01*
X5246Y2196D02*
X5252Y2196D01*
X5296Y2196D02*
X5302Y2196D01*
X5332Y2196D02*
X5338Y2196D01*
X5343Y2196D02*
X5359Y2196D01*
X5388Y2196D02*
X5409Y2196D01*
X5433Y2196D02*
X5439Y2196D01*
X5460Y2196D02*
X5466Y2196D01*
X5897Y2196D02*
X5904Y2196D01*
X0Y2195D02*
X7Y2195D01*
X28Y2195D02*
X34Y2195D01*
X5246Y2195D02*
X5252Y2195D01*
X5296Y2195D02*
X5302Y2195D01*
X5332Y2195D02*
X5338Y2195D01*
X5341Y2195D02*
X5360Y2195D01*
X5387Y2195D02*
X5409Y2195D01*
X5433Y2195D02*
X5439Y2195D01*
X5460Y2195D02*
X5466Y2195D01*
X5897Y2195D02*
X5904Y2195D01*
X0Y2194D02*
X7Y2194D01*
X28Y2194D02*
X34Y2194D01*
X5246Y2194D02*
X5252Y2194D01*
X5296Y2194D02*
X5302Y2194D01*
X5332Y2194D02*
X5338Y2194D01*
X5340Y2194D02*
X5361Y2194D01*
X5386Y2194D02*
X5409Y2194D01*
X5433Y2194D02*
X5439Y2194D01*
X5460Y2194D02*
X5466Y2194D01*
X5897Y2194D02*
X5904Y2194D01*
X0Y2193D02*
X7Y2193D01*
X28Y2193D02*
X34Y2193D01*
X5246Y2193D02*
X5252Y2193D01*
X5296Y2193D02*
X5302Y2193D01*
X5332Y2193D02*
X5362Y2193D01*
X5385Y2193D02*
X5409Y2193D01*
X5433Y2193D02*
X5439Y2193D01*
X5460Y2193D02*
X5466Y2193D01*
X5897Y2193D02*
X5904Y2193D01*
X0Y2192D02*
X7Y2192D01*
X28Y2192D02*
X34Y2192D01*
X5246Y2192D02*
X5252Y2192D01*
X5296Y2192D02*
X5302Y2192D01*
X5332Y2192D02*
X5363Y2192D01*
X5384Y2192D02*
X5408Y2192D01*
X5433Y2192D02*
X5439Y2192D01*
X5460Y2192D02*
X5466Y2192D01*
X5897Y2192D02*
X5904Y2192D01*
X0Y2191D02*
X7Y2191D01*
X28Y2191D02*
X34Y2191D01*
X5246Y2191D02*
X5252Y2191D01*
X5296Y2191D02*
X5302Y2191D01*
X5332Y2191D02*
X5364Y2191D01*
X5384Y2191D02*
X5406Y2191D01*
X5433Y2191D02*
X5439Y2191D01*
X5460Y2191D02*
X5466Y2191D01*
X5897Y2191D02*
X5904Y2191D01*
X0Y2190D02*
X7Y2190D01*
X28Y2190D02*
X34Y2190D01*
X5246Y2190D02*
X5252Y2190D01*
X5296Y2190D02*
X5302Y2190D01*
X5332Y2190D02*
X5345Y2190D01*
X5356Y2190D02*
X5365Y2190D01*
X5384Y2190D02*
X5391Y2190D01*
X5433Y2190D02*
X5439Y2190D01*
X5460Y2190D02*
X5466Y2190D01*
X5897Y2190D02*
X5904Y2190D01*
X0Y2189D02*
X7Y2189D01*
X28Y2189D02*
X34Y2189D01*
X5246Y2189D02*
X5252Y2189D01*
X5296Y2189D02*
X5302Y2189D01*
X5332Y2189D02*
X5344Y2189D01*
X5358Y2189D02*
X5365Y2189D01*
X5384Y2189D02*
X5390Y2189D01*
X5433Y2189D02*
X5439Y2189D01*
X5460Y2189D02*
X5466Y2189D01*
X5897Y2189D02*
X5904Y2189D01*
X0Y2188D02*
X7Y2188D01*
X28Y2188D02*
X34Y2188D01*
X5246Y2188D02*
X5252Y2188D01*
X5296Y2188D02*
X5302Y2188D01*
X5332Y2188D02*
X5343Y2188D01*
X5359Y2188D02*
X5366Y2188D01*
X5383Y2188D02*
X5390Y2188D01*
X5433Y2188D02*
X5439Y2188D01*
X5460Y2188D02*
X5466Y2188D01*
X5897Y2188D02*
X5904Y2188D01*
X0Y2187D02*
X7Y2187D01*
X28Y2187D02*
X34Y2187D01*
X5246Y2187D02*
X5252Y2187D01*
X5296Y2187D02*
X5302Y2187D01*
X5332Y2187D02*
X5342Y2187D01*
X5359Y2187D02*
X5366Y2187D01*
X5383Y2187D02*
X5389Y2187D01*
X5433Y2187D02*
X5440Y2187D01*
X5460Y2187D02*
X5466Y2187D01*
X5897Y2187D02*
X5904Y2187D01*
X0Y2186D02*
X34Y2186D01*
X5246Y2186D02*
X5252Y2186D01*
X5296Y2186D02*
X5302Y2186D01*
X5332Y2186D02*
X5341Y2186D01*
X5360Y2186D02*
X5366Y2186D01*
X5383Y2186D02*
X5389Y2186D01*
X5433Y2186D02*
X5466Y2186D01*
X5897Y2186D02*
X5904Y2186D01*
X0Y2185D02*
X34Y2185D01*
X5246Y2185D02*
X5252Y2185D01*
X5296Y2185D02*
X5302Y2185D01*
X5332Y2185D02*
X5340Y2185D01*
X5360Y2185D02*
X5366Y2185D01*
X5383Y2185D02*
X5389Y2185D01*
X5434Y2185D02*
X5466Y2185D01*
X5897Y2185D02*
X5904Y2185D01*
X0Y2184D02*
X34Y2184D01*
X5246Y2184D02*
X5252Y2184D01*
X5296Y2184D02*
X5302Y2184D01*
X5332Y2184D02*
X5339Y2184D01*
X5360Y2184D02*
X5366Y2184D01*
X5383Y2184D02*
X5389Y2184D01*
X5434Y2184D02*
X5466Y2184D01*
X5897Y2184D02*
X5904Y2184D01*
X0Y2183D02*
X34Y2183D01*
X5234Y2183D02*
X5235Y2183D01*
X5246Y2183D02*
X5252Y2183D01*
X5285Y2183D02*
X5286Y2183D01*
X5296Y2183D02*
X5302Y2183D01*
X5332Y2183D02*
X5338Y2183D01*
X5360Y2183D02*
X5366Y2183D01*
X5383Y2183D02*
X5408Y2183D01*
X5435Y2183D02*
X5466Y2183D01*
X5897Y2183D02*
X5904Y2183D01*
X0Y2182D02*
X34Y2182D01*
X5233Y2182D02*
X5237Y2182D01*
X5246Y2182D02*
X5252Y2182D01*
X5283Y2182D02*
X5287Y2182D01*
X5296Y2182D02*
X5302Y2182D01*
X5332Y2182D02*
X5338Y2182D01*
X5360Y2182D02*
X5366Y2182D01*
X5383Y2182D02*
X5410Y2182D01*
X5436Y2182D02*
X5466Y2182D01*
X5897Y2182D02*
X5904Y2182D01*
X0Y2181D02*
X34Y2181D01*
X5232Y2181D02*
X5238Y2181D01*
X5246Y2181D02*
X5252Y2181D01*
X5282Y2181D02*
X5288Y2181D01*
X5296Y2181D02*
X5302Y2181D01*
X5332Y2181D02*
X5338Y2181D01*
X5360Y2181D02*
X5366Y2181D01*
X5383Y2181D02*
X5412Y2181D01*
X5437Y2181D02*
X5466Y2181D01*
X5897Y2181D02*
X5904Y2181D01*
X0Y2180D02*
X34Y2180D01*
X5232Y2180D02*
X5238Y2180D01*
X5246Y2180D02*
X5252Y2180D01*
X5282Y2180D02*
X5288Y2180D01*
X5296Y2180D02*
X5302Y2180D01*
X5332Y2180D02*
X5338Y2180D01*
X5360Y2180D02*
X5366Y2180D01*
X5383Y2180D02*
X5413Y2180D01*
X5439Y2180D02*
X5466Y2180D01*
X5897Y2180D02*
X5904Y2180D01*
X0Y2179D02*
X7Y2179D01*
X27Y2179D02*
X34Y2179D01*
X5232Y2179D02*
X5238Y2179D01*
X5246Y2179D02*
X5252Y2179D01*
X5282Y2179D02*
X5288Y2179D01*
X5296Y2179D02*
X5302Y2179D01*
X5332Y2179D02*
X5338Y2179D01*
X5360Y2179D02*
X5366Y2179D01*
X5383Y2179D02*
X5414Y2179D01*
X5460Y2179D02*
X5466Y2179D01*
X5897Y2179D02*
X5904Y2179D01*
X0Y2178D02*
X7Y2178D01*
X28Y2178D02*
X34Y2178D01*
X5232Y2178D02*
X5238Y2178D01*
X5246Y2178D02*
X5252Y2178D01*
X5282Y2178D02*
X5288Y2178D01*
X5296Y2178D02*
X5302Y2178D01*
X5332Y2178D02*
X5338Y2178D01*
X5360Y2178D02*
X5366Y2178D01*
X5383Y2178D02*
X5415Y2178D01*
X5460Y2178D02*
X5466Y2178D01*
X5897Y2178D02*
X5904Y2178D01*
X0Y2177D02*
X7Y2177D01*
X28Y2177D02*
X34Y2177D01*
X5232Y2177D02*
X5238Y2177D01*
X5246Y2177D02*
X5252Y2177D01*
X5282Y2177D02*
X5288Y2177D01*
X5296Y2177D02*
X5302Y2177D01*
X5332Y2177D02*
X5338Y2177D01*
X5360Y2177D02*
X5366Y2177D01*
X5383Y2177D02*
X5415Y2177D01*
X5460Y2177D02*
X5466Y2177D01*
X5897Y2177D02*
X5904Y2177D01*
X0Y2176D02*
X7Y2176D01*
X28Y2176D02*
X34Y2176D01*
X5232Y2176D02*
X5238Y2176D01*
X5246Y2176D02*
X5252Y2176D01*
X5282Y2176D02*
X5288Y2176D01*
X5296Y2176D02*
X5302Y2176D01*
X5332Y2176D02*
X5338Y2176D01*
X5360Y2176D02*
X5366Y2176D01*
X5383Y2176D02*
X5391Y2176D01*
X5408Y2176D02*
X5416Y2176D01*
X5460Y2176D02*
X5466Y2176D01*
X5897Y2176D02*
X5904Y2176D01*
X0Y2175D02*
X7Y2175D01*
X28Y2175D02*
X34Y2175D01*
X5232Y2175D02*
X5238Y2175D01*
X5246Y2175D02*
X5252Y2175D01*
X5282Y2175D02*
X5288Y2175D01*
X5296Y2175D02*
X5302Y2175D01*
X5332Y2175D02*
X5338Y2175D01*
X5360Y2175D02*
X5366Y2175D01*
X5383Y2175D02*
X5390Y2175D01*
X5409Y2175D02*
X5416Y2175D01*
X5460Y2175D02*
X5466Y2175D01*
X5897Y2175D02*
X5904Y2175D01*
X0Y2174D02*
X7Y2174D01*
X28Y2174D02*
X34Y2174D01*
X5232Y2174D02*
X5238Y2174D01*
X5246Y2174D02*
X5252Y2174D01*
X5282Y2174D02*
X5288Y2174D01*
X5296Y2174D02*
X5302Y2174D01*
X5332Y2174D02*
X5338Y2174D01*
X5360Y2174D02*
X5366Y2174D01*
X5383Y2174D02*
X5389Y2174D01*
X5410Y2174D02*
X5416Y2174D01*
X5460Y2174D02*
X5466Y2174D01*
X5897Y2174D02*
X5904Y2174D01*
X0Y2173D02*
X7Y2173D01*
X28Y2173D02*
X34Y2173D01*
X5232Y2173D02*
X5238Y2173D01*
X5246Y2173D02*
X5252Y2173D01*
X5282Y2173D02*
X5288Y2173D01*
X5296Y2173D02*
X5302Y2173D01*
X5332Y2173D02*
X5339Y2173D01*
X5360Y2173D02*
X5366Y2173D01*
X5383Y2173D02*
X5389Y2173D01*
X5410Y2173D02*
X5416Y2173D01*
X5460Y2173D02*
X5466Y2173D01*
X5897Y2173D02*
X5904Y2173D01*
X0Y2172D02*
X7Y2172D01*
X28Y2172D02*
X34Y2172D01*
X5232Y2172D02*
X5238Y2172D01*
X5246Y2172D02*
X5252Y2172D01*
X5282Y2172D02*
X5288Y2172D01*
X5296Y2172D02*
X5302Y2172D01*
X5332Y2172D02*
X5339Y2172D01*
X5360Y2172D02*
X5366Y2172D01*
X5383Y2172D02*
X5389Y2172D01*
X5410Y2172D02*
X5416Y2172D01*
X5460Y2172D02*
X5466Y2172D01*
X5897Y2172D02*
X5904Y2172D01*
X0Y2171D02*
X7Y2171D01*
X28Y2171D02*
X34Y2171D01*
X5232Y2171D02*
X5238Y2171D01*
X5246Y2171D02*
X5252Y2171D01*
X5282Y2171D02*
X5288Y2171D01*
X5296Y2171D02*
X5302Y2171D01*
X5332Y2171D02*
X5340Y2171D01*
X5360Y2171D02*
X5366Y2171D01*
X5383Y2171D02*
X5389Y2171D01*
X5410Y2171D02*
X5416Y2171D01*
X5460Y2171D02*
X5466Y2171D01*
X5897Y2171D02*
X5904Y2171D01*
X0Y2170D02*
X7Y2170D01*
X28Y2170D02*
X34Y2170D01*
X5232Y2170D02*
X5238Y2170D01*
X5246Y2170D02*
X5252Y2170D01*
X5282Y2170D02*
X5288Y2170D01*
X5296Y2170D02*
X5302Y2170D01*
X5332Y2170D02*
X5341Y2170D01*
X5360Y2170D02*
X5366Y2170D01*
X5383Y2170D02*
X5389Y2170D01*
X5410Y2170D02*
X5416Y2170D01*
X5460Y2170D02*
X5466Y2170D01*
X5897Y2170D02*
X5904Y2170D01*
X0Y2169D02*
X7Y2169D01*
X28Y2169D02*
X34Y2169D01*
X5232Y2169D02*
X5238Y2169D01*
X5246Y2169D02*
X5252Y2169D01*
X5282Y2169D02*
X5288Y2169D01*
X5296Y2169D02*
X5302Y2169D01*
X5332Y2169D02*
X5342Y2169D01*
X5359Y2169D02*
X5366Y2169D01*
X5383Y2169D02*
X5390Y2169D01*
X5410Y2169D02*
X5416Y2169D01*
X5460Y2169D02*
X5466Y2169D01*
X5897Y2169D02*
X5904Y2169D01*
X0Y2168D02*
X7Y2168D01*
X28Y2168D02*
X34Y2168D01*
X5232Y2168D02*
X5238Y2168D01*
X5246Y2168D02*
X5252Y2168D01*
X5282Y2168D02*
X5288Y2168D01*
X5296Y2168D02*
X5302Y2168D01*
X5332Y2168D02*
X5344Y2168D01*
X5358Y2168D02*
X5365Y2168D01*
X5383Y2168D02*
X5392Y2168D01*
X5410Y2168D02*
X5416Y2168D01*
X5460Y2168D02*
X5466Y2168D01*
X5897Y2168D02*
X5904Y2168D01*
X0Y2167D02*
X7Y2167D01*
X28Y2167D02*
X34Y2167D01*
X5232Y2167D02*
X5238Y2167D01*
X5246Y2167D02*
X5252Y2167D01*
X5282Y2167D02*
X5288Y2167D01*
X5296Y2167D02*
X5302Y2167D01*
X5332Y2167D02*
X5345Y2167D01*
X5357Y2167D02*
X5365Y2167D01*
X5383Y2167D02*
X5394Y2167D01*
X5409Y2167D02*
X5416Y2167D01*
X5460Y2167D02*
X5466Y2167D01*
X5897Y2167D02*
X5904Y2167D01*
X0Y2166D02*
X7Y2166D01*
X28Y2166D02*
X34Y2166D01*
X5232Y2166D02*
X5238Y2166D01*
X5246Y2166D02*
X5252Y2166D01*
X5282Y2166D02*
X5288Y2166D01*
X5296Y2166D02*
X5302Y2166D01*
X5332Y2166D02*
X5346Y2166D01*
X5356Y2166D02*
X5365Y2166D01*
X5383Y2166D02*
X5396Y2166D01*
X5408Y2166D02*
X5416Y2166D01*
X5460Y2166D02*
X5466Y2166D01*
X5897Y2166D02*
X5904Y2166D01*
X0Y2165D02*
X7Y2165D01*
X28Y2165D02*
X34Y2165D01*
X5232Y2165D02*
X5264Y2165D01*
X5282Y2165D02*
X5314Y2165D01*
X5332Y2165D02*
X5364Y2165D01*
X5383Y2165D02*
X5415Y2165D01*
X5460Y2165D02*
X5466Y2165D01*
X5897Y2165D02*
X5904Y2165D01*
X0Y2164D02*
X7Y2164D01*
X28Y2164D02*
X34Y2164D01*
X5232Y2164D02*
X5265Y2164D01*
X5282Y2164D02*
X5315Y2164D01*
X5332Y2164D02*
X5363Y2164D01*
X5383Y2164D02*
X5415Y2164D01*
X5460Y2164D02*
X5466Y2164D01*
X5897Y2164D02*
X5904Y2164D01*
X0Y2163D02*
X7Y2163D01*
X28Y2163D02*
X34Y2163D01*
X5232Y2163D02*
X5265Y2163D01*
X5282Y2163D02*
X5315Y2163D01*
X5332Y2163D02*
X5362Y2163D01*
X5383Y2163D02*
X5414Y2163D01*
X5460Y2163D02*
X5466Y2163D01*
X5897Y2163D02*
X5904Y2163D01*
X0Y2162D02*
X7Y2162D01*
X28Y2162D02*
X34Y2162D01*
X5232Y2162D02*
X5265Y2162D01*
X5282Y2162D02*
X5316Y2162D01*
X5332Y2162D02*
X5338Y2162D01*
X5341Y2162D02*
X5361Y2162D01*
X5383Y2162D02*
X5413Y2162D01*
X5460Y2162D02*
X5466Y2162D01*
X5897Y2162D02*
X5904Y2162D01*
X0Y2161D02*
X7Y2161D01*
X28Y2161D02*
X34Y2161D01*
X5232Y2161D02*
X5265Y2161D01*
X5282Y2161D02*
X5315Y2161D01*
X5333Y2161D02*
X5338Y2161D01*
X5342Y2161D02*
X5360Y2161D01*
X5383Y2161D02*
X5388Y2161D01*
X5391Y2161D02*
X5412Y2161D01*
X5460Y2161D02*
X5466Y2161D01*
X5897Y2161D02*
X5904Y2161D01*
X0Y2160D02*
X7Y2160D01*
X28Y2160D02*
X33Y2160D01*
X5233Y2160D02*
X5265Y2160D01*
X5283Y2160D02*
X5315Y2160D01*
X5333Y2160D02*
X5338Y2160D01*
X5343Y2160D02*
X5358Y2160D01*
X5383Y2160D02*
X5388Y2160D01*
X5393Y2160D02*
X5411Y2160D01*
X5461Y2160D02*
X5466Y2160D01*
X5897Y2160D02*
X5904Y2160D01*
X0Y2159D02*
X7Y2159D01*
X30Y2159D02*
X32Y2159D01*
X5234Y2159D02*
X5264Y2159D01*
X5284Y2159D02*
X5314Y2159D01*
X5334Y2159D02*
X5337Y2159D01*
X5346Y2159D02*
X5356Y2159D01*
X5384Y2159D02*
X5387Y2159D01*
X5395Y2159D02*
X5409Y2159D01*
X5462Y2159D02*
X5465Y2159D01*
X5897Y2159D02*
X5904Y2159D01*
X0Y2158D02*
X7Y2158D01*
X5897Y2158D02*
X5904Y2158D01*
X0Y2157D02*
X7Y2157D01*
X5897Y2157D02*
X5904Y2157D01*
X0Y2156D02*
X7Y2156D01*
X5897Y2156D02*
X5904Y2156D01*
X0Y2155D02*
X7Y2155D01*
X5897Y2155D02*
X5904Y2155D01*
X0Y2154D02*
X7Y2154D01*
X5897Y2154D02*
X5904Y2154D01*
X0Y2153D02*
X7Y2153D01*
X5897Y2153D02*
X5904Y2153D01*
X0Y2152D02*
X7Y2152D01*
X5897Y2152D02*
X5904Y2152D01*
X0Y2151D02*
X7Y2151D01*
X5897Y2151D02*
X5904Y2151D01*
X0Y2150D02*
X7Y2150D01*
X5897Y2150D02*
X5904Y2150D01*
X0Y2149D02*
X7Y2149D01*
X5897Y2149D02*
X5904Y2149D01*
X0Y2148D02*
X7Y2148D01*
X5897Y2148D02*
X5904Y2148D01*
X0Y2147D02*
X7Y2147D01*
X5897Y2147D02*
X5904Y2147D01*
X0Y2146D02*
X7Y2146D01*
X5897Y2146D02*
X5904Y2146D01*
X0Y2145D02*
X7Y2145D01*
X5897Y2145D02*
X5904Y2145D01*
X0Y2144D02*
X7Y2144D01*
X5897Y2144D02*
X5904Y2144D01*
X0Y2143D02*
X7Y2143D01*
X5897Y2143D02*
X5904Y2143D01*
X0Y2142D02*
X7Y2142D01*
X5897Y2142D02*
X5904Y2142D01*
X0Y2141D02*
X7Y2141D01*
X5897Y2141D02*
X5904Y2141D01*
X0Y2140D02*
X7Y2140D01*
X5897Y2140D02*
X5904Y2140D01*
X0Y2139D02*
X7Y2139D01*
X5897Y2139D02*
X5904Y2139D01*
X0Y2138D02*
X7Y2138D01*
X5897Y2138D02*
X5904Y2138D01*
X0Y2137D02*
X7Y2137D01*
X5897Y2137D02*
X5904Y2137D01*
X0Y2136D02*
X7Y2136D01*
X5897Y2136D02*
X5904Y2136D01*
X0Y2135D02*
X7Y2135D01*
X5897Y2135D02*
X5904Y2135D01*
X0Y2134D02*
X7Y2134D01*
X5897Y2134D02*
X5904Y2134D01*
X0Y2133D02*
X7Y2133D01*
X5897Y2133D02*
X5904Y2133D01*
X0Y2132D02*
X7Y2132D01*
X5897Y2132D02*
X5904Y2132D01*
X0Y2131D02*
X7Y2131D01*
X5897Y2131D02*
X5904Y2131D01*
X0Y2130D02*
X7Y2130D01*
X5897Y2130D02*
X5904Y2130D01*
X0Y2129D02*
X7Y2129D01*
X5897Y2129D02*
X5904Y2129D01*
X0Y2128D02*
X7Y2128D01*
X5897Y2128D02*
X5904Y2128D01*
X0Y2127D02*
X7Y2127D01*
X5897Y2127D02*
X5904Y2127D01*
X0Y2126D02*
X7Y2126D01*
X5897Y2126D02*
X5904Y2126D01*
X0Y2125D02*
X7Y2125D01*
X5897Y2125D02*
X5904Y2125D01*
X0Y2124D02*
X7Y2124D01*
X5897Y2124D02*
X5904Y2124D01*
X0Y2123D02*
X7Y2123D01*
X5897Y2123D02*
X5904Y2123D01*
X0Y2122D02*
X7Y2122D01*
X5897Y2122D02*
X5904Y2122D01*
X0Y2121D02*
X7Y2121D01*
X5897Y2121D02*
X5904Y2121D01*
X0Y2120D02*
X7Y2120D01*
X5897Y2120D02*
X5904Y2120D01*
X0Y2119D02*
X7Y2119D01*
X5897Y2119D02*
X5904Y2119D01*
X0Y2118D02*
X7Y2118D01*
X5897Y2118D02*
X5904Y2118D01*
X0Y2117D02*
X7Y2117D01*
X5897Y2117D02*
X5904Y2117D01*
X0Y2116D02*
X7Y2116D01*
X5897Y2116D02*
X5904Y2116D01*
X0Y2115D02*
X7Y2115D01*
X5897Y2115D02*
X5904Y2115D01*
X0Y2114D02*
X7Y2114D01*
X5897Y2114D02*
X5904Y2114D01*
X0Y2113D02*
X7Y2113D01*
X5897Y2113D02*
X5904Y2113D01*
X0Y2112D02*
X7Y2112D01*
X5897Y2112D02*
X5904Y2112D01*
X0Y2111D02*
X7Y2111D01*
X5897Y2111D02*
X5904Y2111D01*
X0Y2110D02*
X7Y2110D01*
X5897Y2110D02*
X5904Y2110D01*
X0Y2109D02*
X7Y2109D01*
X5897Y2109D02*
X5904Y2109D01*
X0Y2108D02*
X7Y2108D01*
X5897Y2108D02*
X5904Y2108D01*
X0Y2107D02*
X7Y2107D01*
X5897Y2107D02*
X5904Y2107D01*
X0Y2106D02*
X7Y2106D01*
X5897Y2106D02*
X5904Y2106D01*
X0Y2105D02*
X7Y2105D01*
X5897Y2105D02*
X5904Y2105D01*
X0Y2104D02*
X7Y2104D01*
X5897Y2104D02*
X5904Y2104D01*
X0Y2103D02*
X7Y2103D01*
X5897Y2103D02*
X5904Y2103D01*
X0Y2102D02*
X7Y2102D01*
X5897Y2102D02*
X5904Y2102D01*
X0Y2101D02*
X7Y2101D01*
X5897Y2101D02*
X5904Y2101D01*
X0Y2100D02*
X7Y2100D01*
X5897Y2100D02*
X5904Y2100D01*
X0Y2099D02*
X7Y2099D01*
X5897Y2099D02*
X5904Y2099D01*
X0Y2098D02*
X7Y2098D01*
X5897Y2098D02*
X5904Y2098D01*
X0Y2097D02*
X7Y2097D01*
X5897Y2097D02*
X5904Y2097D01*
X0Y2096D02*
X7Y2096D01*
X5897Y2096D02*
X5904Y2096D01*
X0Y2095D02*
X7Y2095D01*
X5897Y2095D02*
X5904Y2095D01*
X0Y2094D02*
X7Y2094D01*
X5897Y2094D02*
X5904Y2094D01*
X0Y2093D02*
X7Y2093D01*
X5897Y2093D02*
X5904Y2093D01*
X0Y2092D02*
X7Y2092D01*
X5897Y2092D02*
X5904Y2092D01*
X0Y2091D02*
X7Y2091D01*
X5897Y2091D02*
X5904Y2091D01*
X0Y2090D02*
X7Y2090D01*
X5897Y2090D02*
X5904Y2090D01*
X0Y2089D02*
X7Y2089D01*
X5897Y2089D02*
X5904Y2089D01*
X0Y2088D02*
X7Y2088D01*
X5897Y2088D02*
X5904Y2088D01*
X0Y2087D02*
X7Y2087D01*
X5897Y2087D02*
X5904Y2087D01*
X0Y2086D02*
X7Y2086D01*
X5897Y2086D02*
X5904Y2086D01*
X0Y2085D02*
X7Y2085D01*
X5897Y2085D02*
X5904Y2085D01*
X0Y2084D02*
X7Y2084D01*
X5897Y2084D02*
X5904Y2084D01*
X0Y2083D02*
X7Y2083D01*
X5897Y2083D02*
X5904Y2083D01*
X0Y2082D02*
X7Y2082D01*
X5897Y2082D02*
X5904Y2082D01*
X0Y2081D02*
X7Y2081D01*
X5897Y2081D02*
X5904Y2081D01*
X0Y2080D02*
X7Y2080D01*
X5897Y2080D02*
X5904Y2080D01*
X0Y2079D02*
X7Y2079D01*
X5897Y2079D02*
X5904Y2079D01*
X0Y2078D02*
X7Y2078D01*
X5897Y2078D02*
X5904Y2078D01*
X0Y2077D02*
X7Y2077D01*
X5897Y2077D02*
X5904Y2077D01*
X0Y2076D02*
X7Y2076D01*
X5897Y2076D02*
X5904Y2076D01*
X0Y2075D02*
X7Y2075D01*
X5897Y2075D02*
X5904Y2075D01*
X0Y2074D02*
X7Y2074D01*
X5897Y2074D02*
X5904Y2074D01*
X0Y2073D02*
X7Y2073D01*
X5897Y2073D02*
X5904Y2073D01*
X0Y2072D02*
X7Y2072D01*
X5897Y2072D02*
X5904Y2072D01*
X0Y2071D02*
X7Y2071D01*
X5897Y2071D02*
X5904Y2071D01*
X0Y2070D02*
X7Y2070D01*
X5897Y2070D02*
X5904Y2070D01*
X0Y2069D02*
X7Y2069D01*
X5897Y2069D02*
X5904Y2069D01*
X0Y2068D02*
X7Y2068D01*
X5897Y2068D02*
X5904Y2068D01*
X0Y2067D02*
X7Y2067D01*
X5897Y2067D02*
X5904Y2067D01*
X0Y2066D02*
X7Y2066D01*
X5897Y2066D02*
X5904Y2066D01*
X0Y2065D02*
X7Y2065D01*
X5897Y2065D02*
X5904Y2065D01*
X0Y2064D02*
X7Y2064D01*
X5897Y2064D02*
X5904Y2064D01*
X0Y2063D02*
X7Y2063D01*
X5897Y2063D02*
X5904Y2063D01*
X0Y2062D02*
X7Y2062D01*
X5897Y2062D02*
X5904Y2062D01*
X0Y2061D02*
X7Y2061D01*
X5897Y2061D02*
X5904Y2061D01*
X0Y2060D02*
X7Y2060D01*
X5897Y2060D02*
X5904Y2060D01*
X0Y2059D02*
X7Y2059D01*
X5897Y2059D02*
X5904Y2059D01*
X0Y2058D02*
X7Y2058D01*
X5897Y2058D02*
X5904Y2058D01*
X0Y2057D02*
X7Y2057D01*
X5897Y2057D02*
X5904Y2057D01*
X0Y2056D02*
X7Y2056D01*
X5897Y2056D02*
X5904Y2056D01*
X0Y2055D02*
X7Y2055D01*
X5897Y2055D02*
X5904Y2055D01*
X0Y2054D02*
X7Y2054D01*
X5897Y2054D02*
X5904Y2054D01*
X0Y2053D02*
X7Y2053D01*
X5897Y2053D02*
X5904Y2053D01*
X0Y2052D02*
X7Y2052D01*
X5897Y2052D02*
X5904Y2052D01*
X0Y2051D02*
X7Y2051D01*
X5897Y2051D02*
X5904Y2051D01*
X0Y2050D02*
X7Y2050D01*
X5897Y2050D02*
X5904Y2050D01*
X0Y2049D02*
X7Y2049D01*
X5897Y2049D02*
X5904Y2049D01*
X0Y2048D02*
X7Y2048D01*
X5897Y2048D02*
X5904Y2048D01*
X0Y2047D02*
X7Y2047D01*
X5897Y2047D02*
X5904Y2047D01*
X0Y2046D02*
X7Y2046D01*
X5897Y2046D02*
X5904Y2046D01*
X0Y2045D02*
X7Y2045D01*
X5897Y2045D02*
X5904Y2045D01*
X0Y2044D02*
X7Y2044D01*
X5897Y2044D02*
X5904Y2044D01*
X0Y2043D02*
X7Y2043D01*
X5897Y2043D02*
X5904Y2043D01*
X0Y2042D02*
X7Y2042D01*
X5897Y2042D02*
X5904Y2042D01*
X0Y2041D02*
X7Y2041D01*
X5897Y2041D02*
X5904Y2041D01*
X0Y2040D02*
X7Y2040D01*
X5897Y2040D02*
X5904Y2040D01*
X0Y2039D02*
X7Y2039D01*
X5897Y2039D02*
X5904Y2039D01*
X0Y2038D02*
X7Y2038D01*
X5897Y2038D02*
X5904Y2038D01*
X0Y2037D02*
X7Y2037D01*
X5897Y2037D02*
X5904Y2037D01*
X0Y2036D02*
X7Y2036D01*
X5897Y2036D02*
X5904Y2036D01*
X0Y2035D02*
X7Y2035D01*
X5897Y2035D02*
X5904Y2035D01*
X0Y2034D02*
X7Y2034D01*
X5897Y2034D02*
X5904Y2034D01*
X0Y2033D02*
X7Y2033D01*
X5897Y2033D02*
X5904Y2033D01*
X0Y2032D02*
X7Y2032D01*
X5897Y2032D02*
X5904Y2032D01*
X0Y2031D02*
X7Y2031D01*
X5897Y2031D02*
X5904Y2031D01*
X0Y2030D02*
X7Y2030D01*
X5897Y2030D02*
X5904Y2030D01*
X0Y2029D02*
X7Y2029D01*
X5897Y2029D02*
X5904Y2029D01*
X0Y2028D02*
X7Y2028D01*
X5897Y2028D02*
X5904Y2028D01*
X0Y2027D02*
X7Y2027D01*
X5897Y2027D02*
X5904Y2027D01*
X0Y2026D02*
X7Y2026D01*
X5897Y2026D02*
X5904Y2026D01*
X0Y2025D02*
X7Y2025D01*
X5897Y2025D02*
X5904Y2025D01*
X0Y2024D02*
X7Y2024D01*
X5897Y2024D02*
X5904Y2024D01*
X0Y2023D02*
X7Y2023D01*
X5897Y2023D02*
X5904Y2023D01*
X0Y2022D02*
X7Y2022D01*
X5897Y2022D02*
X5904Y2022D01*
X0Y2021D02*
X7Y2021D01*
X5897Y2021D02*
X5904Y2021D01*
X0Y2020D02*
X7Y2020D01*
X5897Y2020D02*
X5904Y2020D01*
X0Y2019D02*
X7Y2019D01*
X5897Y2019D02*
X5904Y2019D01*
X0Y2018D02*
X7Y2018D01*
X5897Y2018D02*
X5904Y2018D01*
X0Y2017D02*
X7Y2017D01*
X5897Y2017D02*
X5904Y2017D01*
X0Y2016D02*
X7Y2016D01*
X5897Y2016D02*
X5904Y2016D01*
X0Y2015D02*
X7Y2015D01*
X5897Y2015D02*
X5904Y2015D01*
X0Y2014D02*
X7Y2014D01*
X5897Y2014D02*
X5904Y2014D01*
X0Y2013D02*
X7Y2013D01*
X5897Y2013D02*
X5904Y2013D01*
X0Y2012D02*
X7Y2012D01*
X5897Y2012D02*
X5904Y2012D01*
X0Y2011D02*
X7Y2011D01*
X5897Y2011D02*
X5904Y2011D01*
X0Y2010D02*
X7Y2010D01*
X5897Y2010D02*
X5904Y2010D01*
X0Y2009D02*
X7Y2009D01*
X5897Y2009D02*
X5904Y2009D01*
X0Y2008D02*
X7Y2008D01*
X5897Y2008D02*
X5904Y2008D01*
X0Y2007D02*
X7Y2007D01*
X5897Y2007D02*
X5904Y2007D01*
X0Y2006D02*
X7Y2006D01*
X5897Y2006D02*
X5904Y2006D01*
X0Y2005D02*
X7Y2005D01*
X5897Y2005D02*
X5904Y2005D01*
X0Y2004D02*
X7Y2004D01*
X5897Y2004D02*
X5904Y2004D01*
X0Y2003D02*
X7Y2003D01*
X5897Y2003D02*
X5904Y2003D01*
X0Y2002D02*
X7Y2002D01*
X5897Y2002D02*
X5904Y2002D01*
X0Y2001D02*
X7Y2001D01*
X5897Y2001D02*
X5904Y2001D01*
X0Y2000D02*
X7Y2000D01*
X5897Y2000D02*
X5904Y2000D01*
X0Y1999D02*
X7Y1999D01*
X5897Y1999D02*
X5904Y1999D01*
X0Y1998D02*
X7Y1998D01*
X5897Y1998D02*
X5904Y1998D01*
X0Y1997D02*
X7Y1997D01*
X5897Y1997D02*
X5904Y1997D01*
X0Y1996D02*
X7Y1996D01*
X5897Y1996D02*
X5904Y1996D01*
X0Y1995D02*
X7Y1995D01*
X5897Y1995D02*
X5904Y1995D01*
X0Y1994D02*
X7Y1994D01*
X5897Y1994D02*
X5904Y1994D01*
X0Y1993D02*
X7Y1993D01*
X5897Y1993D02*
X5904Y1993D01*
X0Y1992D02*
X7Y1992D01*
X5897Y1992D02*
X5904Y1992D01*
X0Y1991D02*
X7Y1991D01*
X5897Y1991D02*
X5904Y1991D01*
X0Y1990D02*
X7Y1990D01*
X5897Y1990D02*
X5904Y1990D01*
X0Y1989D02*
X7Y1989D01*
X5897Y1989D02*
X5904Y1989D01*
X0Y1988D02*
X7Y1988D01*
X5897Y1988D02*
X5904Y1988D01*
X0Y1987D02*
X7Y1987D01*
X5897Y1987D02*
X5904Y1987D01*
X0Y1986D02*
X7Y1986D01*
X5897Y1986D02*
X5904Y1986D01*
X0Y1985D02*
X7Y1985D01*
X5897Y1985D02*
X5904Y1985D01*
X0Y1984D02*
X7Y1984D01*
X5897Y1984D02*
X5904Y1984D01*
X0Y1983D02*
X7Y1983D01*
X5897Y1983D02*
X5904Y1983D01*
X0Y1982D02*
X7Y1982D01*
X5897Y1982D02*
X5904Y1982D01*
X0Y1981D02*
X7Y1981D01*
X5897Y1981D02*
X5904Y1981D01*
X0Y1980D02*
X7Y1980D01*
X5897Y1980D02*
X5904Y1980D01*
X0Y1979D02*
X7Y1979D01*
X5897Y1979D02*
X5904Y1979D01*
X0Y1978D02*
X7Y1978D01*
X5897Y1978D02*
X5904Y1978D01*
X0Y1977D02*
X7Y1977D01*
X5897Y1977D02*
X5904Y1977D01*
X0Y1976D02*
X7Y1976D01*
X5897Y1976D02*
X5904Y1976D01*
X0Y1975D02*
X7Y1975D01*
X5897Y1975D02*
X5904Y1975D01*
X0Y1974D02*
X7Y1974D01*
X5897Y1974D02*
X5904Y1974D01*
X0Y1973D02*
X7Y1973D01*
X5897Y1973D02*
X5904Y1973D01*
X0Y1972D02*
X7Y1972D01*
X5897Y1972D02*
X5904Y1972D01*
X0Y1971D02*
X7Y1971D01*
X5897Y1971D02*
X5904Y1971D01*
X0Y1970D02*
X7Y1970D01*
X5897Y1970D02*
X5904Y1970D01*
X0Y1969D02*
X7Y1969D01*
X5897Y1969D02*
X5904Y1969D01*
X0Y1968D02*
X7Y1968D01*
X5897Y1968D02*
X5904Y1968D01*
X0Y1967D02*
X7Y1967D01*
X5897Y1967D02*
X5904Y1967D01*
X0Y1966D02*
X7Y1966D01*
X5897Y1966D02*
X5904Y1966D01*
X0Y1965D02*
X7Y1965D01*
X5897Y1965D02*
X5904Y1965D01*
X0Y1964D02*
X7Y1964D01*
X5897Y1964D02*
X5904Y1964D01*
X0Y1963D02*
X7Y1963D01*
X5897Y1963D02*
X5904Y1963D01*
X0Y1962D02*
X7Y1962D01*
X5897Y1962D02*
X5904Y1962D01*
X0Y1961D02*
X7Y1961D01*
X5897Y1961D02*
X5904Y1961D01*
X0Y1960D02*
X7Y1960D01*
X5897Y1960D02*
X5904Y1960D01*
X0Y1959D02*
X7Y1959D01*
X5897Y1959D02*
X5904Y1959D01*
X0Y1958D02*
X7Y1958D01*
X5897Y1958D02*
X5904Y1958D01*
X0Y1957D02*
X7Y1957D01*
X5897Y1957D02*
X5904Y1957D01*
X0Y1956D02*
X7Y1956D01*
X5897Y1956D02*
X5904Y1956D01*
X0Y1955D02*
X7Y1955D01*
X5897Y1955D02*
X5904Y1955D01*
X0Y1954D02*
X7Y1954D01*
X5897Y1954D02*
X5904Y1954D01*
X0Y1953D02*
X7Y1953D01*
X5897Y1953D02*
X5904Y1953D01*
X0Y1952D02*
X7Y1952D01*
X5897Y1952D02*
X5904Y1952D01*
X0Y1951D02*
X7Y1951D01*
X5897Y1951D02*
X5904Y1951D01*
X0Y1950D02*
X7Y1950D01*
X5897Y1950D02*
X5904Y1950D01*
X0Y1949D02*
X7Y1949D01*
X5897Y1949D02*
X5904Y1949D01*
X0Y1948D02*
X7Y1948D01*
X5897Y1948D02*
X5904Y1948D01*
X0Y1947D02*
X7Y1947D01*
X5897Y1947D02*
X5904Y1947D01*
X0Y1946D02*
X7Y1946D01*
X5897Y1946D02*
X5904Y1946D01*
X0Y1945D02*
X7Y1945D01*
X5897Y1945D02*
X5904Y1945D01*
X0Y1944D02*
X7Y1944D01*
X5897Y1944D02*
X5904Y1944D01*
X0Y1943D02*
X7Y1943D01*
X5897Y1943D02*
X5904Y1943D01*
X0Y1942D02*
X7Y1942D01*
X5897Y1942D02*
X5904Y1942D01*
X0Y1941D02*
X7Y1941D01*
X5897Y1941D02*
X5904Y1941D01*
X0Y1940D02*
X7Y1940D01*
X5897Y1940D02*
X5904Y1940D01*
X0Y1939D02*
X7Y1939D01*
X5897Y1939D02*
X5904Y1939D01*
X0Y1938D02*
X7Y1938D01*
X5897Y1938D02*
X5904Y1938D01*
X0Y1937D02*
X7Y1937D01*
X5897Y1937D02*
X5904Y1937D01*
X0Y1936D02*
X7Y1936D01*
X5897Y1936D02*
X5904Y1936D01*
X0Y1935D02*
X7Y1935D01*
X5897Y1935D02*
X5904Y1935D01*
X0Y1934D02*
X7Y1934D01*
X5897Y1934D02*
X5904Y1934D01*
X0Y1933D02*
X7Y1933D01*
X5897Y1933D02*
X5904Y1933D01*
X0Y1932D02*
X7Y1932D01*
X5897Y1932D02*
X5904Y1932D01*
X0Y1931D02*
X7Y1931D01*
X5897Y1931D02*
X5904Y1931D01*
X0Y1930D02*
X7Y1930D01*
X5897Y1930D02*
X5904Y1930D01*
X0Y1929D02*
X7Y1929D01*
X5897Y1929D02*
X5904Y1929D01*
X0Y1928D02*
X7Y1928D01*
X5897Y1928D02*
X5904Y1928D01*
X0Y1927D02*
X7Y1927D01*
X5897Y1927D02*
X5904Y1927D01*
X0Y1926D02*
X7Y1926D01*
X5897Y1926D02*
X5904Y1926D01*
X0Y1925D02*
X7Y1925D01*
X5897Y1925D02*
X5904Y1925D01*
X0Y1924D02*
X7Y1924D01*
X5897Y1924D02*
X5904Y1924D01*
X0Y1923D02*
X7Y1923D01*
X5897Y1923D02*
X5904Y1923D01*
X0Y1922D02*
X7Y1922D01*
X5897Y1922D02*
X5904Y1922D01*
X0Y1921D02*
X7Y1921D01*
X5897Y1921D02*
X5904Y1921D01*
X0Y1920D02*
X7Y1920D01*
X5897Y1920D02*
X5904Y1920D01*
X0Y1919D02*
X7Y1919D01*
X5897Y1919D02*
X5904Y1919D01*
X0Y1918D02*
X7Y1918D01*
X5897Y1918D02*
X5904Y1918D01*
X0Y1917D02*
X7Y1917D01*
X5897Y1917D02*
X5904Y1917D01*
X0Y1916D02*
X7Y1916D01*
X5897Y1916D02*
X5904Y1916D01*
X0Y1915D02*
X7Y1915D01*
X5897Y1915D02*
X5904Y1915D01*
X0Y1914D02*
X7Y1914D01*
X5897Y1914D02*
X5904Y1914D01*
X0Y1913D02*
X7Y1913D01*
X5897Y1913D02*
X5904Y1913D01*
X0Y1912D02*
X7Y1912D01*
X5897Y1912D02*
X5904Y1912D01*
X0Y1911D02*
X7Y1911D01*
X5897Y1911D02*
X5904Y1911D01*
X0Y1910D02*
X7Y1910D01*
X5897Y1910D02*
X5904Y1910D01*
X0Y1909D02*
X7Y1909D01*
X5897Y1909D02*
X5904Y1909D01*
X0Y1908D02*
X7Y1908D01*
X5897Y1908D02*
X5904Y1908D01*
X0Y1907D02*
X7Y1907D01*
X5897Y1907D02*
X5904Y1907D01*
X0Y1906D02*
X7Y1906D01*
X5897Y1906D02*
X5904Y1906D01*
X0Y1905D02*
X7Y1905D01*
X5897Y1905D02*
X5904Y1905D01*
X0Y1904D02*
X7Y1904D01*
X5897Y1904D02*
X5904Y1904D01*
X0Y1903D02*
X7Y1903D01*
X5897Y1903D02*
X5904Y1903D01*
X0Y1902D02*
X7Y1902D01*
X5897Y1902D02*
X5904Y1902D01*
X0Y1901D02*
X7Y1901D01*
X5897Y1901D02*
X5904Y1901D01*
X0Y1900D02*
X7Y1900D01*
X5897Y1900D02*
X5904Y1900D01*
X0Y1899D02*
X7Y1899D01*
X5897Y1899D02*
X5904Y1899D01*
X0Y1898D02*
X7Y1898D01*
X5897Y1898D02*
X5904Y1898D01*
X0Y1897D02*
X7Y1897D01*
X5897Y1897D02*
X5904Y1897D01*
X0Y1896D02*
X7Y1896D01*
X5897Y1896D02*
X5904Y1896D01*
X0Y1895D02*
X7Y1895D01*
X5897Y1895D02*
X5904Y1895D01*
X0Y1894D02*
X7Y1894D01*
X5897Y1894D02*
X5904Y1894D01*
X0Y1893D02*
X7Y1893D01*
X5897Y1893D02*
X5904Y1893D01*
X0Y1892D02*
X7Y1892D01*
X5897Y1892D02*
X5904Y1892D01*
X0Y1891D02*
X7Y1891D01*
X5897Y1891D02*
X5904Y1891D01*
X0Y1890D02*
X7Y1890D01*
X5897Y1890D02*
X5904Y1890D01*
X0Y1889D02*
X7Y1889D01*
X5897Y1889D02*
X5904Y1889D01*
X0Y1888D02*
X7Y1888D01*
X5897Y1888D02*
X5904Y1888D01*
X0Y1887D02*
X7Y1887D01*
X5897Y1887D02*
X5904Y1887D01*
X0Y1886D02*
X7Y1886D01*
X5897Y1886D02*
X5904Y1886D01*
X0Y1885D02*
X7Y1885D01*
X5897Y1885D02*
X5904Y1885D01*
X0Y1884D02*
X7Y1884D01*
X5897Y1884D02*
X5904Y1884D01*
X0Y1883D02*
X7Y1883D01*
X5897Y1883D02*
X5904Y1883D01*
X0Y1882D02*
X7Y1882D01*
X5897Y1882D02*
X5904Y1882D01*
X0Y1881D02*
X7Y1881D01*
X5897Y1881D02*
X5904Y1881D01*
X0Y1880D02*
X7Y1880D01*
X5897Y1880D02*
X5904Y1880D01*
X0Y1879D02*
X7Y1879D01*
X5897Y1879D02*
X5904Y1879D01*
X0Y1878D02*
X7Y1878D01*
X5897Y1878D02*
X5904Y1878D01*
X0Y1877D02*
X7Y1877D01*
X5897Y1877D02*
X5904Y1877D01*
X0Y1876D02*
X7Y1876D01*
X5897Y1876D02*
X5904Y1876D01*
X0Y1875D02*
X7Y1875D01*
X5897Y1875D02*
X5904Y1875D01*
X0Y1874D02*
X7Y1874D01*
X5897Y1874D02*
X5904Y1874D01*
X0Y1873D02*
X7Y1873D01*
X5897Y1873D02*
X5904Y1873D01*
X0Y1872D02*
X7Y1872D01*
X5897Y1872D02*
X5904Y1872D01*
X0Y1871D02*
X7Y1871D01*
X5897Y1871D02*
X5904Y1871D01*
X0Y1870D02*
X7Y1870D01*
X5897Y1870D02*
X5904Y1870D01*
X0Y1869D02*
X7Y1869D01*
X5897Y1869D02*
X5904Y1869D01*
X0Y1868D02*
X7Y1868D01*
X5897Y1868D02*
X5904Y1868D01*
X0Y1867D02*
X7Y1867D01*
X5897Y1867D02*
X5904Y1867D01*
X0Y1866D02*
X7Y1866D01*
X5897Y1866D02*
X5904Y1866D01*
X0Y1865D02*
X7Y1865D01*
X5897Y1865D02*
X5904Y1865D01*
X0Y1864D02*
X7Y1864D01*
X5897Y1864D02*
X5904Y1864D01*
X0Y1863D02*
X7Y1863D01*
X5897Y1863D02*
X5904Y1863D01*
X0Y1862D02*
X7Y1862D01*
X5897Y1862D02*
X5904Y1862D01*
X0Y1861D02*
X7Y1861D01*
X5897Y1861D02*
X5904Y1861D01*
X0Y1860D02*
X7Y1860D01*
X5897Y1860D02*
X5904Y1860D01*
X0Y1859D02*
X7Y1859D01*
X5897Y1859D02*
X5904Y1859D01*
X0Y1858D02*
X7Y1858D01*
X5897Y1858D02*
X5904Y1858D01*
X0Y1857D02*
X7Y1857D01*
X5897Y1857D02*
X5904Y1857D01*
X0Y1856D02*
X7Y1856D01*
X5897Y1856D02*
X5904Y1856D01*
X0Y1855D02*
X7Y1855D01*
X5897Y1855D02*
X5904Y1855D01*
X0Y1854D02*
X7Y1854D01*
X5897Y1854D02*
X5904Y1854D01*
X0Y1853D02*
X7Y1853D01*
X5897Y1853D02*
X5904Y1853D01*
X0Y1852D02*
X7Y1852D01*
X5897Y1852D02*
X5904Y1852D01*
X0Y1851D02*
X7Y1851D01*
X5897Y1851D02*
X5904Y1851D01*
X0Y1850D02*
X7Y1850D01*
X5897Y1850D02*
X5904Y1850D01*
X0Y1849D02*
X7Y1849D01*
X5897Y1849D02*
X5904Y1849D01*
X0Y1848D02*
X7Y1848D01*
X5897Y1848D02*
X5904Y1848D01*
X0Y1847D02*
X7Y1847D01*
X5897Y1847D02*
X5904Y1847D01*
X0Y1846D02*
X7Y1846D01*
X5897Y1846D02*
X5904Y1846D01*
X0Y1845D02*
X7Y1845D01*
X5897Y1845D02*
X5904Y1845D01*
X0Y1844D02*
X7Y1844D01*
X5897Y1844D02*
X5904Y1844D01*
X0Y1843D02*
X7Y1843D01*
X5897Y1843D02*
X5904Y1843D01*
X0Y1842D02*
X7Y1842D01*
X5897Y1842D02*
X5904Y1842D01*
X0Y1841D02*
X7Y1841D01*
X5897Y1841D02*
X5904Y1841D01*
X0Y1840D02*
X7Y1840D01*
X5897Y1840D02*
X5904Y1840D01*
X0Y1839D02*
X7Y1839D01*
X5897Y1839D02*
X5904Y1839D01*
X0Y1838D02*
X7Y1838D01*
X5897Y1838D02*
X5904Y1838D01*
X0Y1837D02*
X7Y1837D01*
X5897Y1837D02*
X5904Y1837D01*
X0Y1836D02*
X7Y1836D01*
X5897Y1836D02*
X5904Y1836D01*
X0Y1835D02*
X7Y1835D01*
X5897Y1835D02*
X5904Y1835D01*
X0Y1834D02*
X7Y1834D01*
X5897Y1834D02*
X5904Y1834D01*
X0Y1833D02*
X7Y1833D01*
X5897Y1833D02*
X5904Y1833D01*
X0Y1832D02*
X7Y1832D01*
X5897Y1832D02*
X5904Y1832D01*
X0Y1831D02*
X7Y1831D01*
X5897Y1831D02*
X5904Y1831D01*
X0Y1830D02*
X7Y1830D01*
X5897Y1830D02*
X5904Y1830D01*
X0Y1829D02*
X7Y1829D01*
X5897Y1829D02*
X5904Y1829D01*
X0Y1828D02*
X7Y1828D01*
X5897Y1828D02*
X5904Y1828D01*
X0Y1827D02*
X7Y1827D01*
X5897Y1827D02*
X5904Y1827D01*
X0Y1826D02*
X7Y1826D01*
X5897Y1826D02*
X5904Y1826D01*
X0Y1825D02*
X7Y1825D01*
X5897Y1825D02*
X5904Y1825D01*
X0Y1824D02*
X7Y1824D01*
X5897Y1824D02*
X5904Y1824D01*
X0Y1823D02*
X7Y1823D01*
X5897Y1823D02*
X5904Y1823D01*
X0Y1822D02*
X7Y1822D01*
X5897Y1822D02*
X5904Y1822D01*
X0Y1821D02*
X7Y1821D01*
X5897Y1821D02*
X5904Y1821D01*
X0Y1820D02*
X7Y1820D01*
X5897Y1820D02*
X5904Y1820D01*
X0Y1819D02*
X7Y1819D01*
X5897Y1819D02*
X5904Y1819D01*
X0Y1818D02*
X7Y1818D01*
X5897Y1818D02*
X5904Y1818D01*
X0Y1817D02*
X7Y1817D01*
X5897Y1817D02*
X5904Y1817D01*
X0Y1816D02*
X7Y1816D01*
X5897Y1816D02*
X5904Y1816D01*
X0Y1815D02*
X7Y1815D01*
X5897Y1815D02*
X5904Y1815D01*
X0Y1814D02*
X7Y1814D01*
X5897Y1814D02*
X5904Y1814D01*
X0Y1813D02*
X7Y1813D01*
X5897Y1813D02*
X5904Y1813D01*
X0Y1812D02*
X7Y1812D01*
X5897Y1812D02*
X5904Y1812D01*
X0Y1811D02*
X7Y1811D01*
X5897Y1811D02*
X5904Y1811D01*
X0Y1810D02*
X7Y1810D01*
X5897Y1810D02*
X5904Y1810D01*
X0Y1809D02*
X7Y1809D01*
X5897Y1809D02*
X5904Y1809D01*
X0Y1808D02*
X7Y1808D01*
X5897Y1808D02*
X5904Y1808D01*
X0Y1807D02*
X7Y1807D01*
X5897Y1807D02*
X5904Y1807D01*
X0Y1806D02*
X7Y1806D01*
X5897Y1806D02*
X5904Y1806D01*
X0Y1805D02*
X7Y1805D01*
X5897Y1805D02*
X5904Y1805D01*
X0Y1804D02*
X7Y1804D01*
X5897Y1804D02*
X5904Y1804D01*
X0Y1803D02*
X7Y1803D01*
X5897Y1803D02*
X5904Y1803D01*
X0Y1802D02*
X7Y1802D01*
X5897Y1802D02*
X5904Y1802D01*
X0Y1801D02*
X7Y1801D01*
X5897Y1801D02*
X5904Y1801D01*
X0Y1800D02*
X7Y1800D01*
X5897Y1800D02*
X5904Y1800D01*
X0Y1799D02*
X7Y1799D01*
X5897Y1799D02*
X5904Y1799D01*
X0Y1798D02*
X7Y1798D01*
X5897Y1798D02*
X5904Y1798D01*
X0Y1797D02*
X7Y1797D01*
X5897Y1797D02*
X5904Y1797D01*
X0Y1796D02*
X7Y1796D01*
X5897Y1796D02*
X5904Y1796D01*
X0Y1795D02*
X7Y1795D01*
X5897Y1795D02*
X5904Y1795D01*
X0Y1794D02*
X7Y1794D01*
X5897Y1794D02*
X5904Y1794D01*
X0Y1793D02*
X7Y1793D01*
X5897Y1793D02*
X5904Y1793D01*
X0Y1792D02*
X7Y1792D01*
X5897Y1792D02*
X5904Y1792D01*
X0Y1791D02*
X7Y1791D01*
X5897Y1791D02*
X5904Y1791D01*
X0Y1790D02*
X7Y1790D01*
X5897Y1790D02*
X5904Y1790D01*
X0Y1789D02*
X7Y1789D01*
X5897Y1789D02*
X5904Y1789D01*
X0Y1788D02*
X7Y1788D01*
X5897Y1788D02*
X5904Y1788D01*
X0Y1787D02*
X7Y1787D01*
X5897Y1787D02*
X5904Y1787D01*
X0Y1786D02*
X7Y1786D01*
X5897Y1786D02*
X5904Y1786D01*
X0Y1785D02*
X7Y1785D01*
X5897Y1785D02*
X5904Y1785D01*
X0Y1784D02*
X7Y1784D01*
X5897Y1784D02*
X5904Y1784D01*
X0Y1783D02*
X7Y1783D01*
X5897Y1783D02*
X5904Y1783D01*
X0Y1782D02*
X7Y1782D01*
X5897Y1782D02*
X5904Y1782D01*
X0Y1781D02*
X7Y1781D01*
X5897Y1781D02*
X5904Y1781D01*
X0Y1780D02*
X7Y1780D01*
X5897Y1780D02*
X5904Y1780D01*
X0Y1779D02*
X7Y1779D01*
X5897Y1779D02*
X5904Y1779D01*
X0Y1778D02*
X7Y1778D01*
X5897Y1778D02*
X5904Y1778D01*
X0Y1777D02*
X7Y1777D01*
X5897Y1777D02*
X5904Y1777D01*
X0Y1776D02*
X7Y1776D01*
X5897Y1776D02*
X5904Y1776D01*
X0Y1775D02*
X7Y1775D01*
X5897Y1775D02*
X5904Y1775D01*
X0Y1774D02*
X7Y1774D01*
X5897Y1774D02*
X5904Y1774D01*
X0Y1773D02*
X7Y1773D01*
X5897Y1773D02*
X5904Y1773D01*
X0Y1772D02*
X7Y1772D01*
X5897Y1772D02*
X5904Y1772D01*
X0Y1771D02*
X7Y1771D01*
X5897Y1771D02*
X5904Y1771D01*
X0Y1770D02*
X7Y1770D01*
X5897Y1770D02*
X5904Y1770D01*
X0Y1769D02*
X7Y1769D01*
X5897Y1769D02*
X5904Y1769D01*
X0Y1768D02*
X7Y1768D01*
X5897Y1768D02*
X5904Y1768D01*
X0Y1767D02*
X7Y1767D01*
X5897Y1767D02*
X5904Y1767D01*
X0Y1766D02*
X7Y1766D01*
X5897Y1766D02*
X5904Y1766D01*
X0Y1765D02*
X7Y1765D01*
X5897Y1765D02*
X5904Y1765D01*
X0Y1764D02*
X7Y1764D01*
X5897Y1764D02*
X5904Y1764D01*
X0Y1763D02*
X7Y1763D01*
X5897Y1763D02*
X5904Y1763D01*
X0Y1762D02*
X7Y1762D01*
X5897Y1762D02*
X5904Y1762D01*
X0Y1761D02*
X7Y1761D01*
X5897Y1761D02*
X5904Y1761D01*
X0Y1760D02*
X7Y1760D01*
X5897Y1760D02*
X5904Y1760D01*
X0Y1759D02*
X7Y1759D01*
X5897Y1759D02*
X5904Y1759D01*
X0Y1758D02*
X7Y1758D01*
X5897Y1758D02*
X5904Y1758D01*
X0Y1757D02*
X7Y1757D01*
X5897Y1757D02*
X5904Y1757D01*
X0Y1756D02*
X7Y1756D01*
X5897Y1756D02*
X5904Y1756D01*
X0Y1755D02*
X7Y1755D01*
X5897Y1755D02*
X5904Y1755D01*
X0Y1754D02*
X7Y1754D01*
X5897Y1754D02*
X5904Y1754D01*
X0Y1753D02*
X7Y1753D01*
X5897Y1753D02*
X5904Y1753D01*
X0Y1752D02*
X7Y1752D01*
X5897Y1752D02*
X5904Y1752D01*
X0Y1751D02*
X7Y1751D01*
X5897Y1751D02*
X5904Y1751D01*
X0Y1750D02*
X7Y1750D01*
X5897Y1750D02*
X5904Y1750D01*
X0Y1749D02*
X7Y1749D01*
X5897Y1749D02*
X5904Y1749D01*
X0Y1748D02*
X7Y1748D01*
X5897Y1748D02*
X5904Y1748D01*
X0Y1747D02*
X7Y1747D01*
X5897Y1747D02*
X5904Y1747D01*
X0Y1746D02*
X7Y1746D01*
X5897Y1746D02*
X5904Y1746D01*
X0Y1745D02*
X7Y1745D01*
X5897Y1745D02*
X5904Y1745D01*
X0Y1744D02*
X7Y1744D01*
X5897Y1744D02*
X5904Y1744D01*
X0Y1743D02*
X7Y1743D01*
X5897Y1743D02*
X5904Y1743D01*
X0Y1742D02*
X7Y1742D01*
X5897Y1742D02*
X5904Y1742D01*
X0Y1741D02*
X7Y1741D01*
X5897Y1741D02*
X5904Y1741D01*
X0Y1740D02*
X7Y1740D01*
X5897Y1740D02*
X5904Y1740D01*
X0Y1739D02*
X7Y1739D01*
X5897Y1739D02*
X5904Y1739D01*
X0Y1738D02*
X7Y1738D01*
X5897Y1738D02*
X5904Y1738D01*
X0Y1737D02*
X7Y1737D01*
X5897Y1737D02*
X5904Y1737D01*
X0Y1736D02*
X7Y1736D01*
X5897Y1736D02*
X5904Y1736D01*
X0Y1735D02*
X7Y1735D01*
X5897Y1735D02*
X5904Y1735D01*
X0Y1734D02*
X7Y1734D01*
X5897Y1734D02*
X5904Y1734D01*
X0Y1733D02*
X7Y1733D01*
X5897Y1733D02*
X5904Y1733D01*
X0Y1732D02*
X7Y1732D01*
X5897Y1732D02*
X5904Y1732D01*
X0Y1731D02*
X7Y1731D01*
X5897Y1731D02*
X5904Y1731D01*
X0Y1730D02*
X7Y1730D01*
X5897Y1730D02*
X5904Y1730D01*
X0Y1729D02*
X7Y1729D01*
X5897Y1729D02*
X5904Y1729D01*
X0Y1728D02*
X7Y1728D01*
X5897Y1728D02*
X5904Y1728D01*
X0Y1727D02*
X7Y1727D01*
X5897Y1727D02*
X5904Y1727D01*
X0Y1726D02*
X7Y1726D01*
X5897Y1726D02*
X5904Y1726D01*
X0Y1725D02*
X7Y1725D01*
X5897Y1725D02*
X5904Y1725D01*
X0Y1724D02*
X7Y1724D01*
X5897Y1724D02*
X5904Y1724D01*
X0Y1723D02*
X7Y1723D01*
X5897Y1723D02*
X5904Y1723D01*
X0Y1722D02*
X7Y1722D01*
X5897Y1722D02*
X5904Y1722D01*
X0Y1721D02*
X7Y1721D01*
X5897Y1721D02*
X5904Y1721D01*
X0Y1720D02*
X7Y1720D01*
X5897Y1720D02*
X5904Y1720D01*
X0Y1719D02*
X7Y1719D01*
X5897Y1719D02*
X5904Y1719D01*
X0Y1718D02*
X7Y1718D01*
X5897Y1718D02*
X5904Y1718D01*
X0Y1717D02*
X7Y1717D01*
X5897Y1717D02*
X5904Y1717D01*
X0Y1716D02*
X7Y1716D01*
X5897Y1716D02*
X5904Y1716D01*
X0Y1715D02*
X7Y1715D01*
X5897Y1715D02*
X5904Y1715D01*
X0Y1714D02*
X7Y1714D01*
X5897Y1714D02*
X5904Y1714D01*
X0Y1713D02*
X7Y1713D01*
X5897Y1713D02*
X5904Y1713D01*
X0Y1712D02*
X7Y1712D01*
X5897Y1712D02*
X5904Y1712D01*
X0Y1711D02*
X7Y1711D01*
X5897Y1711D02*
X5904Y1711D01*
X0Y1710D02*
X7Y1710D01*
X5897Y1710D02*
X5904Y1710D01*
X0Y1709D02*
X7Y1709D01*
X5897Y1709D02*
X5904Y1709D01*
X0Y1708D02*
X7Y1708D01*
X5897Y1708D02*
X5904Y1708D01*
X0Y1707D02*
X7Y1707D01*
X5897Y1707D02*
X5904Y1707D01*
X0Y1706D02*
X7Y1706D01*
X5897Y1706D02*
X5904Y1706D01*
X0Y1705D02*
X7Y1705D01*
X5897Y1705D02*
X5904Y1705D01*
X0Y1704D02*
X7Y1704D01*
X5897Y1704D02*
X5904Y1704D01*
X0Y1703D02*
X7Y1703D01*
X5897Y1703D02*
X5904Y1703D01*
X0Y1702D02*
X7Y1702D01*
X5897Y1702D02*
X5904Y1702D01*
X0Y1701D02*
X7Y1701D01*
X5897Y1701D02*
X5904Y1701D01*
X0Y1700D02*
X7Y1700D01*
X5897Y1700D02*
X5904Y1700D01*
X0Y1699D02*
X7Y1699D01*
X5897Y1699D02*
X5904Y1699D01*
X0Y1698D02*
X7Y1698D01*
X5897Y1698D02*
X5904Y1698D01*
X0Y1697D02*
X7Y1697D01*
X5897Y1697D02*
X5904Y1697D01*
X0Y1696D02*
X7Y1696D01*
X5897Y1696D02*
X5904Y1696D01*
X0Y1695D02*
X7Y1695D01*
X5897Y1695D02*
X5904Y1695D01*
X0Y1694D02*
X7Y1694D01*
X5897Y1694D02*
X5904Y1694D01*
X0Y1693D02*
X7Y1693D01*
X5897Y1693D02*
X5904Y1693D01*
X0Y1692D02*
X7Y1692D01*
X5897Y1692D02*
X5904Y1692D01*
X0Y1691D02*
X7Y1691D01*
X5897Y1691D02*
X5904Y1691D01*
X0Y1690D02*
X7Y1690D01*
X5897Y1690D02*
X5904Y1690D01*
X0Y1689D02*
X7Y1689D01*
X5897Y1689D02*
X5904Y1689D01*
X0Y1688D02*
X7Y1688D01*
X5897Y1688D02*
X5904Y1688D01*
X0Y1687D02*
X7Y1687D01*
X5897Y1687D02*
X5904Y1687D01*
X0Y1686D02*
X7Y1686D01*
X5897Y1686D02*
X5904Y1686D01*
X0Y1685D02*
X7Y1685D01*
X5897Y1685D02*
X5904Y1685D01*
X0Y1684D02*
X7Y1684D01*
X5897Y1684D02*
X5904Y1684D01*
X0Y1683D02*
X7Y1683D01*
X5897Y1683D02*
X5904Y1683D01*
X0Y1682D02*
X7Y1682D01*
X5897Y1682D02*
X5904Y1682D01*
X0Y1681D02*
X7Y1681D01*
X5897Y1681D02*
X5904Y1681D01*
X0Y1680D02*
X7Y1680D01*
X5897Y1680D02*
X5904Y1680D01*
X0Y1679D02*
X7Y1679D01*
X5897Y1679D02*
X5904Y1679D01*
X0Y1678D02*
X7Y1678D01*
X5897Y1678D02*
X5904Y1678D01*
X0Y1677D02*
X7Y1677D01*
X5897Y1677D02*
X5904Y1677D01*
X0Y1676D02*
X7Y1676D01*
X5897Y1676D02*
X5904Y1676D01*
X0Y1675D02*
X7Y1675D01*
X5897Y1675D02*
X5904Y1675D01*
X0Y1674D02*
X7Y1674D01*
X5897Y1674D02*
X5904Y1674D01*
X0Y1673D02*
X7Y1673D01*
X5897Y1673D02*
X5904Y1673D01*
X0Y1672D02*
X7Y1672D01*
X5897Y1672D02*
X5904Y1672D01*
X0Y1671D02*
X7Y1671D01*
X5897Y1671D02*
X5904Y1671D01*
X0Y1670D02*
X7Y1670D01*
X5897Y1670D02*
X5904Y1670D01*
X0Y1669D02*
X7Y1669D01*
X5897Y1669D02*
X5904Y1669D01*
X0Y1668D02*
X7Y1668D01*
X5897Y1668D02*
X5904Y1668D01*
X0Y1667D02*
X7Y1667D01*
X5897Y1667D02*
X5904Y1667D01*
X0Y1666D02*
X7Y1666D01*
X5897Y1666D02*
X5904Y1666D01*
X0Y1665D02*
X7Y1665D01*
X5897Y1665D02*
X5904Y1665D01*
X0Y1664D02*
X7Y1664D01*
X5897Y1664D02*
X5904Y1664D01*
X0Y1663D02*
X7Y1663D01*
X5897Y1663D02*
X5904Y1663D01*
X0Y1662D02*
X7Y1662D01*
X5897Y1662D02*
X5904Y1662D01*
X0Y1661D02*
X7Y1661D01*
X5897Y1661D02*
X5904Y1661D01*
X0Y1660D02*
X7Y1660D01*
X5897Y1660D02*
X5904Y1660D01*
X0Y1659D02*
X7Y1659D01*
X5897Y1659D02*
X5904Y1659D01*
X0Y1658D02*
X7Y1658D01*
X5897Y1658D02*
X5904Y1658D01*
X0Y1657D02*
X7Y1657D01*
X5897Y1657D02*
X5904Y1657D01*
X0Y1656D02*
X7Y1656D01*
X5897Y1656D02*
X5904Y1656D01*
X0Y1655D02*
X7Y1655D01*
X5897Y1655D02*
X5904Y1655D01*
X0Y1654D02*
X7Y1654D01*
X5897Y1654D02*
X5904Y1654D01*
X0Y1653D02*
X7Y1653D01*
X5897Y1653D02*
X5904Y1653D01*
X0Y1652D02*
X7Y1652D01*
X5897Y1652D02*
X5904Y1652D01*
X0Y1651D02*
X7Y1651D01*
X5897Y1651D02*
X5904Y1651D01*
X0Y1650D02*
X7Y1650D01*
X5897Y1650D02*
X5904Y1650D01*
X0Y1649D02*
X7Y1649D01*
X5897Y1649D02*
X5904Y1649D01*
X0Y1648D02*
X7Y1648D01*
X5897Y1648D02*
X5904Y1648D01*
X0Y1647D02*
X7Y1647D01*
X5897Y1647D02*
X5904Y1647D01*
X0Y1646D02*
X7Y1646D01*
X5897Y1646D02*
X5904Y1646D01*
X0Y1645D02*
X7Y1645D01*
X5897Y1645D02*
X5904Y1645D01*
X0Y1644D02*
X7Y1644D01*
X5897Y1644D02*
X5904Y1644D01*
X0Y1643D02*
X7Y1643D01*
X5897Y1643D02*
X5904Y1643D01*
X0Y1642D02*
X7Y1642D01*
X5897Y1642D02*
X5904Y1642D01*
X0Y1641D02*
X7Y1641D01*
X5897Y1641D02*
X5904Y1641D01*
X0Y1640D02*
X7Y1640D01*
X5897Y1640D02*
X5904Y1640D01*
X0Y1639D02*
X7Y1639D01*
X5897Y1639D02*
X5904Y1639D01*
X0Y1638D02*
X7Y1638D01*
X5897Y1638D02*
X5904Y1638D01*
X0Y1637D02*
X7Y1637D01*
X5897Y1637D02*
X5904Y1637D01*
X0Y1636D02*
X7Y1636D01*
X5897Y1636D02*
X5904Y1636D01*
X0Y1635D02*
X7Y1635D01*
X5897Y1635D02*
X5904Y1635D01*
X0Y1634D02*
X7Y1634D01*
X5897Y1634D02*
X5904Y1634D01*
X0Y1633D02*
X7Y1633D01*
X5897Y1633D02*
X5904Y1633D01*
X0Y1632D02*
X7Y1632D01*
X5897Y1632D02*
X5904Y1632D01*
X0Y1631D02*
X7Y1631D01*
X5897Y1631D02*
X5904Y1631D01*
X0Y1630D02*
X7Y1630D01*
X5897Y1630D02*
X5904Y1630D01*
X0Y1629D02*
X7Y1629D01*
X5897Y1629D02*
X5904Y1629D01*
X0Y1628D02*
X7Y1628D01*
X5897Y1628D02*
X5904Y1628D01*
X0Y1627D02*
X7Y1627D01*
X5897Y1627D02*
X5904Y1627D01*
X0Y1626D02*
X7Y1626D01*
X5897Y1626D02*
X5904Y1626D01*
X0Y1625D02*
X7Y1625D01*
X5897Y1625D02*
X5904Y1625D01*
X0Y1624D02*
X7Y1624D01*
X5897Y1624D02*
X5904Y1624D01*
X0Y1623D02*
X7Y1623D01*
X5897Y1623D02*
X5904Y1623D01*
X0Y1622D02*
X7Y1622D01*
X5897Y1622D02*
X5904Y1622D01*
X0Y1621D02*
X7Y1621D01*
X5897Y1621D02*
X5904Y1621D01*
X0Y1620D02*
X7Y1620D01*
X5897Y1620D02*
X5904Y1620D01*
X0Y1619D02*
X7Y1619D01*
X5897Y1619D02*
X5904Y1619D01*
X0Y1618D02*
X7Y1618D01*
X5897Y1618D02*
X5904Y1618D01*
X0Y1617D02*
X7Y1617D01*
X5897Y1617D02*
X5904Y1617D01*
X0Y1616D02*
X7Y1616D01*
X5897Y1616D02*
X5904Y1616D01*
X0Y1615D02*
X7Y1615D01*
X5897Y1615D02*
X5904Y1615D01*
X0Y1614D02*
X7Y1614D01*
X5897Y1614D02*
X5904Y1614D01*
X0Y1613D02*
X7Y1613D01*
X5897Y1613D02*
X5904Y1613D01*
X0Y1612D02*
X7Y1612D01*
X5897Y1612D02*
X5904Y1612D01*
X0Y1611D02*
X7Y1611D01*
X5897Y1611D02*
X5904Y1611D01*
X0Y1610D02*
X7Y1610D01*
X5897Y1610D02*
X5904Y1610D01*
X0Y1609D02*
X7Y1609D01*
X5897Y1609D02*
X5904Y1609D01*
X0Y1608D02*
X7Y1608D01*
X5897Y1608D02*
X5904Y1608D01*
X0Y1607D02*
X7Y1607D01*
X5897Y1607D02*
X5904Y1607D01*
X0Y1606D02*
X7Y1606D01*
X5897Y1606D02*
X5904Y1606D01*
X0Y1605D02*
X7Y1605D01*
X5897Y1605D02*
X5904Y1605D01*
X0Y1604D02*
X7Y1604D01*
X5897Y1604D02*
X5904Y1604D01*
X0Y1603D02*
X7Y1603D01*
X5897Y1603D02*
X5904Y1603D01*
X0Y1602D02*
X7Y1602D01*
X5897Y1602D02*
X5904Y1602D01*
X0Y1601D02*
X7Y1601D01*
X5897Y1601D02*
X5904Y1601D01*
X0Y1600D02*
X7Y1600D01*
X5897Y1600D02*
X5904Y1600D01*
X0Y1599D02*
X7Y1599D01*
X5897Y1599D02*
X5904Y1599D01*
X0Y1598D02*
X7Y1598D01*
X5897Y1598D02*
X5904Y1598D01*
X0Y1597D02*
X7Y1597D01*
X5897Y1597D02*
X5904Y1597D01*
X0Y1596D02*
X7Y1596D01*
X5897Y1596D02*
X5904Y1596D01*
X0Y1595D02*
X7Y1595D01*
X5897Y1595D02*
X5904Y1595D01*
X0Y1594D02*
X7Y1594D01*
X5897Y1594D02*
X5904Y1594D01*
X0Y1593D02*
X7Y1593D01*
X5897Y1593D02*
X5904Y1593D01*
X0Y1592D02*
X7Y1592D01*
X5897Y1592D02*
X5904Y1592D01*
X0Y1591D02*
X7Y1591D01*
X5897Y1591D02*
X5904Y1591D01*
X0Y1590D02*
X7Y1590D01*
X5897Y1590D02*
X5904Y1590D01*
X0Y1589D02*
X7Y1589D01*
X5897Y1589D02*
X5904Y1589D01*
X0Y1588D02*
X7Y1588D01*
X5897Y1588D02*
X5904Y1588D01*
X0Y1587D02*
X7Y1587D01*
X5897Y1587D02*
X5904Y1587D01*
X0Y1586D02*
X7Y1586D01*
X5897Y1586D02*
X5904Y1586D01*
X0Y1585D02*
X7Y1585D01*
X5897Y1585D02*
X5904Y1585D01*
X0Y1584D02*
X7Y1584D01*
X5897Y1584D02*
X5904Y1584D01*
X0Y1583D02*
X7Y1583D01*
X5897Y1583D02*
X5904Y1583D01*
X0Y1582D02*
X7Y1582D01*
X5897Y1582D02*
X5904Y1582D01*
X0Y1581D02*
X7Y1581D01*
X5897Y1581D02*
X5904Y1581D01*
X0Y1580D02*
X7Y1580D01*
X5897Y1580D02*
X5904Y1580D01*
X0Y1579D02*
X7Y1579D01*
X5897Y1579D02*
X5904Y1579D01*
X0Y1578D02*
X7Y1578D01*
X5897Y1578D02*
X5904Y1578D01*
X0Y1577D02*
X7Y1577D01*
X5897Y1577D02*
X5904Y1577D01*
X0Y1576D02*
X7Y1576D01*
X5897Y1576D02*
X5904Y1576D01*
X0Y1575D02*
X7Y1575D01*
X5897Y1575D02*
X5904Y1575D01*
X0Y1574D02*
X7Y1574D01*
X5897Y1574D02*
X5904Y1574D01*
X0Y1573D02*
X7Y1573D01*
X5897Y1573D02*
X5904Y1573D01*
X0Y1572D02*
X7Y1572D01*
X5897Y1572D02*
X5904Y1572D01*
X0Y1571D02*
X7Y1571D01*
X5897Y1571D02*
X5904Y1571D01*
X0Y1570D02*
X7Y1570D01*
X5897Y1570D02*
X5904Y1570D01*
X0Y1569D02*
X7Y1569D01*
X5897Y1569D02*
X5904Y1569D01*
X0Y1568D02*
X7Y1568D01*
X5897Y1568D02*
X5904Y1568D01*
X0Y1567D02*
X7Y1567D01*
X5897Y1567D02*
X5904Y1567D01*
X0Y1566D02*
X7Y1566D01*
X5897Y1566D02*
X5904Y1566D01*
X0Y1565D02*
X7Y1565D01*
X5897Y1565D02*
X5904Y1565D01*
X0Y1564D02*
X7Y1564D01*
X5897Y1564D02*
X5904Y1564D01*
X0Y1563D02*
X7Y1563D01*
X5897Y1563D02*
X5904Y1563D01*
X0Y1562D02*
X7Y1562D01*
X5897Y1562D02*
X5904Y1562D01*
X0Y1561D02*
X7Y1561D01*
X5897Y1561D02*
X5904Y1561D01*
X0Y1560D02*
X7Y1560D01*
X5897Y1560D02*
X5904Y1560D01*
X0Y1559D02*
X7Y1559D01*
X5897Y1559D02*
X5904Y1559D01*
X0Y1558D02*
X7Y1558D01*
X5897Y1558D02*
X5904Y1558D01*
X0Y1557D02*
X7Y1557D01*
X5897Y1557D02*
X5904Y1557D01*
X0Y1556D02*
X7Y1556D01*
X5897Y1556D02*
X5904Y1556D01*
X0Y1555D02*
X7Y1555D01*
X5897Y1555D02*
X5904Y1555D01*
X0Y1554D02*
X7Y1554D01*
X5897Y1554D02*
X5904Y1554D01*
X0Y1553D02*
X7Y1553D01*
X5897Y1553D02*
X5904Y1553D01*
X0Y1552D02*
X7Y1552D01*
X5897Y1552D02*
X5904Y1552D01*
X0Y1551D02*
X7Y1551D01*
X5897Y1551D02*
X5904Y1551D01*
X0Y1550D02*
X7Y1550D01*
X5897Y1550D02*
X5904Y1550D01*
X0Y1549D02*
X7Y1549D01*
X5897Y1549D02*
X5904Y1549D01*
X0Y1548D02*
X7Y1548D01*
X5897Y1548D02*
X5904Y1548D01*
X0Y1547D02*
X7Y1547D01*
X5897Y1547D02*
X5904Y1547D01*
X0Y1546D02*
X7Y1546D01*
X5897Y1546D02*
X5904Y1546D01*
X0Y1545D02*
X7Y1545D01*
X5897Y1545D02*
X5904Y1545D01*
X0Y1544D02*
X7Y1544D01*
X5897Y1544D02*
X5904Y1544D01*
X0Y1543D02*
X7Y1543D01*
X5897Y1543D02*
X5904Y1543D01*
X0Y1542D02*
X7Y1542D01*
X5897Y1542D02*
X5904Y1542D01*
X0Y1541D02*
X7Y1541D01*
X5897Y1541D02*
X5904Y1541D01*
X0Y1540D02*
X7Y1540D01*
X5897Y1540D02*
X5904Y1540D01*
X0Y1539D02*
X7Y1539D01*
X5897Y1539D02*
X5904Y1539D01*
X0Y1538D02*
X7Y1538D01*
X5897Y1538D02*
X5904Y1538D01*
X0Y1537D02*
X7Y1537D01*
X5897Y1537D02*
X5904Y1537D01*
X0Y1536D02*
X7Y1536D01*
X5897Y1536D02*
X5904Y1536D01*
X0Y1535D02*
X7Y1535D01*
X5897Y1535D02*
X5904Y1535D01*
X0Y1534D02*
X7Y1534D01*
X5897Y1534D02*
X5904Y1534D01*
X0Y1533D02*
X7Y1533D01*
X5897Y1533D02*
X5904Y1533D01*
X0Y1532D02*
X7Y1532D01*
X5897Y1532D02*
X5904Y1532D01*
X0Y1531D02*
X7Y1531D01*
X5897Y1531D02*
X5904Y1531D01*
X0Y1530D02*
X7Y1530D01*
X5897Y1530D02*
X5904Y1530D01*
X0Y1529D02*
X7Y1529D01*
X5897Y1529D02*
X5904Y1529D01*
X0Y1528D02*
X7Y1528D01*
X5897Y1528D02*
X5904Y1528D01*
X0Y1527D02*
X7Y1527D01*
X5897Y1527D02*
X5904Y1527D01*
X0Y1526D02*
X7Y1526D01*
X5897Y1526D02*
X5904Y1526D01*
X0Y1525D02*
X7Y1525D01*
X5897Y1525D02*
X5904Y1525D01*
X0Y1524D02*
X7Y1524D01*
X5897Y1524D02*
X5904Y1524D01*
X0Y1523D02*
X7Y1523D01*
X5897Y1523D02*
X5904Y1523D01*
X0Y1522D02*
X7Y1522D01*
X5897Y1522D02*
X5904Y1522D01*
X0Y1521D02*
X7Y1521D01*
X5897Y1521D02*
X5904Y1521D01*
X0Y1520D02*
X7Y1520D01*
X5897Y1520D02*
X5904Y1520D01*
X0Y1519D02*
X7Y1519D01*
X5897Y1519D02*
X5904Y1519D01*
X0Y1518D02*
X7Y1518D01*
X5897Y1518D02*
X5904Y1518D01*
X0Y1517D02*
X7Y1517D01*
X5897Y1517D02*
X5904Y1517D01*
X0Y1516D02*
X7Y1516D01*
X5897Y1516D02*
X5904Y1516D01*
X0Y1515D02*
X7Y1515D01*
X5897Y1515D02*
X5904Y1515D01*
X0Y1514D02*
X7Y1514D01*
X5897Y1514D02*
X5904Y1514D01*
X0Y1513D02*
X7Y1513D01*
X5897Y1513D02*
X5904Y1513D01*
X0Y1512D02*
X7Y1512D01*
X5897Y1512D02*
X5904Y1512D01*
X0Y1511D02*
X7Y1511D01*
X5897Y1511D02*
X5904Y1511D01*
X0Y1510D02*
X7Y1510D01*
X5897Y1510D02*
X5904Y1510D01*
X0Y1509D02*
X7Y1509D01*
X5897Y1509D02*
X5904Y1509D01*
X0Y1508D02*
X7Y1508D01*
X5897Y1508D02*
X5904Y1508D01*
X0Y1507D02*
X7Y1507D01*
X5897Y1507D02*
X5904Y1507D01*
X0Y1506D02*
X7Y1506D01*
X5897Y1506D02*
X5904Y1506D01*
X0Y1505D02*
X7Y1505D01*
X5897Y1505D02*
X5904Y1505D01*
X0Y1504D02*
X7Y1504D01*
X5897Y1504D02*
X5904Y1504D01*
X0Y1503D02*
X7Y1503D01*
X5897Y1503D02*
X5904Y1503D01*
X0Y1502D02*
X7Y1502D01*
X5897Y1502D02*
X5904Y1502D01*
X0Y1501D02*
X7Y1501D01*
X5897Y1501D02*
X5904Y1501D01*
X0Y1500D02*
X7Y1500D01*
X5897Y1500D02*
X5904Y1500D01*
X0Y1499D02*
X7Y1499D01*
X5897Y1499D02*
X5904Y1499D01*
X0Y1498D02*
X7Y1498D01*
X5897Y1498D02*
X5904Y1498D01*
X0Y1497D02*
X7Y1497D01*
X5897Y1497D02*
X5904Y1497D01*
X0Y1496D02*
X7Y1496D01*
X5897Y1496D02*
X5904Y1496D01*
X0Y1495D02*
X7Y1495D01*
X5897Y1495D02*
X5904Y1495D01*
X0Y1494D02*
X7Y1494D01*
X5897Y1494D02*
X5904Y1494D01*
X0Y1493D02*
X7Y1493D01*
X5897Y1493D02*
X5904Y1493D01*
X0Y1492D02*
X7Y1492D01*
X5897Y1492D02*
X5904Y1492D01*
X0Y1491D02*
X7Y1491D01*
X5897Y1491D02*
X5904Y1491D01*
X0Y1490D02*
X7Y1490D01*
X5897Y1490D02*
X5904Y1490D01*
X0Y1489D02*
X7Y1489D01*
X5897Y1489D02*
X5904Y1489D01*
X0Y1488D02*
X7Y1488D01*
X5897Y1488D02*
X5904Y1488D01*
X0Y1487D02*
X7Y1487D01*
X5897Y1487D02*
X5904Y1487D01*
X0Y1486D02*
X7Y1486D01*
X5897Y1486D02*
X5904Y1486D01*
X0Y1485D02*
X7Y1485D01*
X5897Y1485D02*
X5904Y1485D01*
X0Y1484D02*
X7Y1484D01*
X5897Y1484D02*
X5904Y1484D01*
X0Y1483D02*
X7Y1483D01*
X5897Y1483D02*
X5904Y1483D01*
X0Y1482D02*
X7Y1482D01*
X5897Y1482D02*
X5904Y1482D01*
X0Y1481D02*
X7Y1481D01*
X5897Y1481D02*
X5904Y1481D01*
X0Y1480D02*
X7Y1480D01*
X5897Y1480D02*
X5904Y1480D01*
X0Y1479D02*
X7Y1479D01*
X5897Y1479D02*
X5904Y1479D01*
X0Y1478D02*
X7Y1478D01*
X5897Y1478D02*
X5904Y1478D01*
X0Y1477D02*
X7Y1477D01*
X5897Y1477D02*
X5904Y1477D01*
X0Y1476D02*
X7Y1476D01*
X5897Y1476D02*
X5904Y1476D01*
X0Y1475D02*
X7Y1475D01*
X5897Y1475D02*
X5904Y1475D01*
X0Y1474D02*
X7Y1474D01*
X5897Y1474D02*
X5904Y1474D01*
X0Y1473D02*
X7Y1473D01*
X5897Y1473D02*
X5904Y1473D01*
X0Y1472D02*
X7Y1472D01*
X5897Y1472D02*
X5904Y1472D01*
X0Y1471D02*
X7Y1471D01*
X5897Y1471D02*
X5904Y1471D01*
X0Y1470D02*
X7Y1470D01*
X5897Y1470D02*
X5904Y1470D01*
X0Y1469D02*
X7Y1469D01*
X5897Y1469D02*
X5904Y1469D01*
X0Y1468D02*
X7Y1468D01*
X5897Y1468D02*
X5904Y1468D01*
X0Y1467D02*
X7Y1467D01*
X5897Y1467D02*
X5904Y1467D01*
X0Y1466D02*
X7Y1466D01*
X5897Y1466D02*
X5904Y1466D01*
X0Y1465D02*
X7Y1465D01*
X5897Y1465D02*
X5904Y1465D01*
X0Y1464D02*
X7Y1464D01*
X5897Y1464D02*
X5904Y1464D01*
X0Y1463D02*
X7Y1463D01*
X5897Y1463D02*
X5904Y1463D01*
X0Y1462D02*
X7Y1462D01*
X5897Y1462D02*
X5904Y1462D01*
X0Y1461D02*
X7Y1461D01*
X5897Y1461D02*
X5904Y1461D01*
X0Y1460D02*
X7Y1460D01*
X5897Y1460D02*
X5904Y1460D01*
X0Y1459D02*
X7Y1459D01*
X5897Y1459D02*
X5904Y1459D01*
X0Y1458D02*
X7Y1458D01*
X5897Y1458D02*
X5904Y1458D01*
X0Y1457D02*
X7Y1457D01*
X5897Y1457D02*
X5904Y1457D01*
X0Y1456D02*
X7Y1456D01*
X5897Y1456D02*
X5904Y1456D01*
X0Y1455D02*
X7Y1455D01*
X5897Y1455D02*
X5904Y1455D01*
X0Y1454D02*
X7Y1454D01*
X5897Y1454D02*
X5904Y1454D01*
X0Y1453D02*
X7Y1453D01*
X5897Y1453D02*
X5904Y1453D01*
X0Y1452D02*
X7Y1452D01*
X5897Y1452D02*
X5904Y1452D01*
X0Y1451D02*
X7Y1451D01*
X5897Y1451D02*
X5904Y1451D01*
X0Y1450D02*
X7Y1450D01*
X5897Y1450D02*
X5904Y1450D01*
X0Y1449D02*
X7Y1449D01*
X5897Y1449D02*
X5904Y1449D01*
X0Y1448D02*
X7Y1448D01*
X5897Y1448D02*
X5904Y1448D01*
X0Y1447D02*
X7Y1447D01*
X5897Y1447D02*
X5904Y1447D01*
X0Y1446D02*
X7Y1446D01*
X5897Y1446D02*
X5904Y1446D01*
X0Y1445D02*
X7Y1445D01*
X5897Y1445D02*
X5904Y1445D01*
X0Y1444D02*
X7Y1444D01*
X5897Y1444D02*
X5904Y1444D01*
X0Y1443D02*
X7Y1443D01*
X5897Y1443D02*
X5904Y1443D01*
X0Y1442D02*
X7Y1442D01*
X5897Y1442D02*
X5904Y1442D01*
X0Y1441D02*
X7Y1441D01*
X5897Y1441D02*
X5904Y1441D01*
X0Y1440D02*
X7Y1440D01*
X5897Y1440D02*
X5904Y1440D01*
X0Y1439D02*
X7Y1439D01*
X5897Y1439D02*
X5904Y1439D01*
X0Y1438D02*
X7Y1438D01*
X5897Y1438D02*
X5904Y1438D01*
X0Y1437D02*
X7Y1437D01*
X5897Y1437D02*
X5904Y1437D01*
X0Y1436D02*
X7Y1436D01*
X5897Y1436D02*
X5904Y1436D01*
X0Y1435D02*
X7Y1435D01*
X5897Y1435D02*
X5904Y1435D01*
X0Y1434D02*
X7Y1434D01*
X5897Y1434D02*
X5904Y1434D01*
X0Y1433D02*
X7Y1433D01*
X5897Y1433D02*
X5904Y1433D01*
X0Y1432D02*
X7Y1432D01*
X5897Y1432D02*
X5904Y1432D01*
X0Y1431D02*
X7Y1431D01*
X5897Y1431D02*
X5904Y1431D01*
X0Y1430D02*
X7Y1430D01*
X5897Y1430D02*
X5904Y1430D01*
X0Y1429D02*
X7Y1429D01*
X5897Y1429D02*
X5904Y1429D01*
X0Y1428D02*
X7Y1428D01*
X5897Y1428D02*
X5904Y1428D01*
X0Y1427D02*
X7Y1427D01*
X5897Y1427D02*
X5904Y1427D01*
X0Y1426D02*
X7Y1426D01*
X5897Y1426D02*
X5904Y1426D01*
X0Y1425D02*
X7Y1425D01*
X5897Y1425D02*
X5904Y1425D01*
X0Y1424D02*
X7Y1424D01*
X5897Y1424D02*
X5904Y1424D01*
X0Y1423D02*
X7Y1423D01*
X5897Y1423D02*
X5904Y1423D01*
X0Y1422D02*
X7Y1422D01*
X5897Y1422D02*
X5904Y1422D01*
X0Y1421D02*
X7Y1421D01*
X5897Y1421D02*
X5904Y1421D01*
X0Y1420D02*
X7Y1420D01*
X5897Y1420D02*
X5904Y1420D01*
X0Y1419D02*
X7Y1419D01*
X5897Y1419D02*
X5904Y1419D01*
X0Y1418D02*
X7Y1418D01*
X5897Y1418D02*
X5904Y1418D01*
X0Y1417D02*
X7Y1417D01*
X5897Y1417D02*
X5904Y1417D01*
X0Y1416D02*
X7Y1416D01*
X5897Y1416D02*
X5904Y1416D01*
X0Y1415D02*
X7Y1415D01*
X5897Y1415D02*
X5904Y1415D01*
X0Y1414D02*
X7Y1414D01*
X5897Y1414D02*
X5904Y1414D01*
X0Y1413D02*
X7Y1413D01*
X5897Y1413D02*
X5904Y1413D01*
X0Y1412D02*
X7Y1412D01*
X5897Y1412D02*
X5904Y1412D01*
X0Y1411D02*
X7Y1411D01*
X5897Y1411D02*
X5904Y1411D01*
X0Y1410D02*
X7Y1410D01*
X5897Y1410D02*
X5904Y1410D01*
X0Y1409D02*
X7Y1409D01*
X5897Y1409D02*
X5904Y1409D01*
X0Y1408D02*
X7Y1408D01*
X5897Y1408D02*
X5904Y1408D01*
X0Y1407D02*
X7Y1407D01*
X5897Y1407D02*
X5904Y1407D01*
X0Y1406D02*
X7Y1406D01*
X5897Y1406D02*
X5904Y1406D01*
X0Y1405D02*
X7Y1405D01*
X5897Y1405D02*
X5904Y1405D01*
X0Y1404D02*
X7Y1404D01*
X5897Y1404D02*
X5904Y1404D01*
X0Y1403D02*
X7Y1403D01*
X5897Y1403D02*
X5904Y1403D01*
X0Y1402D02*
X7Y1402D01*
X5897Y1402D02*
X5904Y1402D01*
X0Y1401D02*
X7Y1401D01*
X5897Y1401D02*
X5904Y1401D01*
X0Y1400D02*
X7Y1400D01*
X5897Y1400D02*
X5904Y1400D01*
X0Y1399D02*
X7Y1399D01*
X5897Y1399D02*
X5904Y1399D01*
X0Y1398D02*
X7Y1398D01*
X5897Y1398D02*
X5904Y1398D01*
X0Y1397D02*
X7Y1397D01*
X5897Y1397D02*
X5904Y1397D01*
X0Y1396D02*
X7Y1396D01*
X5897Y1396D02*
X5904Y1396D01*
X0Y1395D02*
X7Y1395D01*
X5897Y1395D02*
X5904Y1395D01*
X0Y1394D02*
X7Y1394D01*
X5897Y1394D02*
X5904Y1394D01*
X0Y1393D02*
X7Y1393D01*
X5897Y1393D02*
X5904Y1393D01*
X0Y1392D02*
X7Y1392D01*
X5897Y1392D02*
X5904Y1392D01*
X0Y1391D02*
X7Y1391D01*
X5897Y1391D02*
X5904Y1391D01*
X0Y1390D02*
X7Y1390D01*
X5897Y1390D02*
X5904Y1390D01*
X0Y1389D02*
X7Y1389D01*
X5897Y1389D02*
X5904Y1389D01*
X0Y1388D02*
X7Y1388D01*
X5897Y1388D02*
X5904Y1388D01*
X0Y1387D02*
X7Y1387D01*
X5897Y1387D02*
X5904Y1387D01*
X0Y1386D02*
X7Y1386D01*
X5897Y1386D02*
X5904Y1386D01*
X0Y1385D02*
X7Y1385D01*
X5897Y1385D02*
X5904Y1385D01*
X0Y1384D02*
X7Y1384D01*
X5897Y1384D02*
X5904Y1384D01*
X0Y1383D02*
X7Y1383D01*
X5897Y1383D02*
X5904Y1383D01*
X0Y1382D02*
X7Y1382D01*
X5897Y1382D02*
X5904Y1382D01*
X0Y1381D02*
X7Y1381D01*
X5897Y1381D02*
X5904Y1381D01*
X0Y1380D02*
X7Y1380D01*
X5897Y1380D02*
X5904Y1380D01*
X0Y1379D02*
X7Y1379D01*
X5897Y1379D02*
X5904Y1379D01*
X0Y1378D02*
X7Y1378D01*
X5897Y1378D02*
X5904Y1378D01*
X0Y1377D02*
X7Y1377D01*
X5897Y1377D02*
X5904Y1377D01*
X0Y1376D02*
X7Y1376D01*
X5897Y1376D02*
X5904Y1376D01*
X0Y1375D02*
X7Y1375D01*
X5897Y1375D02*
X5904Y1375D01*
X0Y1374D02*
X7Y1374D01*
X5897Y1374D02*
X5904Y1374D01*
X0Y1373D02*
X7Y1373D01*
X5897Y1373D02*
X5904Y1373D01*
X0Y1372D02*
X7Y1372D01*
X5897Y1372D02*
X5904Y1372D01*
X0Y1371D02*
X7Y1371D01*
X5897Y1371D02*
X5904Y1371D01*
X0Y1370D02*
X7Y1370D01*
X5897Y1370D02*
X5904Y1370D01*
X0Y1369D02*
X7Y1369D01*
X5897Y1369D02*
X5904Y1369D01*
X0Y1368D02*
X7Y1368D01*
X5897Y1368D02*
X5904Y1368D01*
X0Y1367D02*
X7Y1367D01*
X5897Y1367D02*
X5904Y1367D01*
X0Y1366D02*
X7Y1366D01*
X5897Y1366D02*
X5904Y1366D01*
X0Y1365D02*
X7Y1365D01*
X5897Y1365D02*
X5904Y1365D01*
X0Y1364D02*
X7Y1364D01*
X5897Y1364D02*
X5904Y1364D01*
X0Y1363D02*
X7Y1363D01*
X5897Y1363D02*
X5904Y1363D01*
X0Y1362D02*
X7Y1362D01*
X5897Y1362D02*
X5904Y1362D01*
X0Y1361D02*
X7Y1361D01*
X5897Y1361D02*
X5904Y1361D01*
X0Y1360D02*
X7Y1360D01*
X5897Y1360D02*
X5904Y1360D01*
X0Y1359D02*
X7Y1359D01*
X5897Y1359D02*
X5904Y1359D01*
X0Y1358D02*
X7Y1358D01*
X5897Y1358D02*
X5904Y1358D01*
X0Y1357D02*
X7Y1357D01*
X5897Y1357D02*
X5904Y1357D01*
X0Y1356D02*
X7Y1356D01*
X5897Y1356D02*
X5904Y1356D01*
X0Y1355D02*
X7Y1355D01*
X5897Y1355D02*
X5904Y1355D01*
X0Y1354D02*
X7Y1354D01*
X5897Y1354D02*
X5904Y1354D01*
X0Y1353D02*
X7Y1353D01*
X5897Y1353D02*
X5904Y1353D01*
X0Y1352D02*
X7Y1352D01*
X5897Y1352D02*
X5904Y1352D01*
X0Y1351D02*
X7Y1351D01*
X5897Y1351D02*
X5904Y1351D01*
X0Y1350D02*
X7Y1350D01*
X5897Y1350D02*
X5904Y1350D01*
X0Y1349D02*
X7Y1349D01*
X5897Y1349D02*
X5904Y1349D01*
X0Y1348D02*
X7Y1348D01*
X5897Y1348D02*
X5904Y1348D01*
X0Y1347D02*
X7Y1347D01*
X5897Y1347D02*
X5904Y1347D01*
X0Y1346D02*
X7Y1346D01*
X5897Y1346D02*
X5904Y1346D01*
X0Y1345D02*
X7Y1345D01*
X5897Y1345D02*
X5904Y1345D01*
X0Y1344D02*
X7Y1344D01*
X5897Y1344D02*
X5904Y1344D01*
X0Y1343D02*
X7Y1343D01*
X5897Y1343D02*
X5904Y1343D01*
X0Y1342D02*
X7Y1342D01*
X5897Y1342D02*
X5904Y1342D01*
X0Y1341D02*
X7Y1341D01*
X5897Y1341D02*
X5904Y1341D01*
X0Y1340D02*
X7Y1340D01*
X5897Y1340D02*
X5904Y1340D01*
X0Y1339D02*
X7Y1339D01*
X5897Y1339D02*
X5904Y1339D01*
X0Y1338D02*
X7Y1338D01*
X5897Y1338D02*
X5904Y1338D01*
X0Y1337D02*
X7Y1337D01*
X5897Y1337D02*
X5904Y1337D01*
X0Y1336D02*
X7Y1336D01*
X5897Y1336D02*
X5904Y1336D01*
X0Y1335D02*
X7Y1335D01*
X5897Y1335D02*
X5904Y1335D01*
X0Y1334D02*
X7Y1334D01*
X5897Y1334D02*
X5904Y1334D01*
X0Y1333D02*
X7Y1333D01*
X5897Y1333D02*
X5904Y1333D01*
X0Y1332D02*
X7Y1332D01*
X5897Y1332D02*
X5904Y1332D01*
X0Y1331D02*
X7Y1331D01*
X5897Y1331D02*
X5904Y1331D01*
X0Y1330D02*
X7Y1330D01*
X5897Y1330D02*
X5904Y1330D01*
X0Y1329D02*
X7Y1329D01*
X5897Y1329D02*
X5904Y1329D01*
X0Y1328D02*
X7Y1328D01*
X5897Y1328D02*
X5904Y1328D01*
X0Y1327D02*
X7Y1327D01*
X5897Y1327D02*
X5904Y1327D01*
X0Y1326D02*
X7Y1326D01*
X5897Y1326D02*
X5904Y1326D01*
X0Y1325D02*
X7Y1325D01*
X5897Y1325D02*
X5904Y1325D01*
X0Y1324D02*
X7Y1324D01*
X5897Y1324D02*
X5904Y1324D01*
X0Y1323D02*
X7Y1323D01*
X5897Y1323D02*
X5904Y1323D01*
X0Y1322D02*
X7Y1322D01*
X5897Y1322D02*
X5904Y1322D01*
X0Y1321D02*
X7Y1321D01*
X5897Y1321D02*
X5904Y1321D01*
X0Y1320D02*
X7Y1320D01*
X5897Y1320D02*
X5904Y1320D01*
X0Y1319D02*
X7Y1319D01*
X5897Y1319D02*
X5904Y1319D01*
X0Y1318D02*
X7Y1318D01*
X5897Y1318D02*
X5904Y1318D01*
X0Y1317D02*
X7Y1317D01*
X5897Y1317D02*
X5904Y1317D01*
X0Y1316D02*
X7Y1316D01*
X5897Y1316D02*
X5904Y1316D01*
X0Y1315D02*
X7Y1315D01*
X5897Y1315D02*
X5904Y1315D01*
X0Y1314D02*
X7Y1314D01*
X5897Y1314D02*
X5904Y1314D01*
X0Y1313D02*
X7Y1313D01*
X5897Y1313D02*
X5904Y1313D01*
X0Y1312D02*
X7Y1312D01*
X5897Y1312D02*
X5904Y1312D01*
X0Y1311D02*
X7Y1311D01*
X5897Y1311D02*
X5904Y1311D01*
X0Y1310D02*
X7Y1310D01*
X5897Y1310D02*
X5904Y1310D01*
X0Y1309D02*
X7Y1309D01*
X5897Y1309D02*
X5904Y1309D01*
X0Y1308D02*
X7Y1308D01*
X5897Y1308D02*
X5904Y1308D01*
X0Y1307D02*
X7Y1307D01*
X5897Y1307D02*
X5904Y1307D01*
X0Y1306D02*
X7Y1306D01*
X5897Y1306D02*
X5904Y1306D01*
X0Y1305D02*
X7Y1305D01*
X5897Y1305D02*
X5904Y1305D01*
X0Y1304D02*
X7Y1304D01*
X5897Y1304D02*
X5904Y1304D01*
X0Y1303D02*
X7Y1303D01*
X5897Y1303D02*
X5904Y1303D01*
X0Y1302D02*
X7Y1302D01*
X5897Y1302D02*
X5904Y1302D01*
X0Y1301D02*
X7Y1301D01*
X5897Y1301D02*
X5904Y1301D01*
X0Y1300D02*
X7Y1300D01*
X5897Y1300D02*
X5904Y1300D01*
X0Y1299D02*
X7Y1299D01*
X5897Y1299D02*
X5904Y1299D01*
X0Y1298D02*
X7Y1298D01*
X5897Y1298D02*
X5904Y1298D01*
X0Y1297D02*
X7Y1297D01*
X5897Y1297D02*
X5904Y1297D01*
X0Y1296D02*
X7Y1296D01*
X5897Y1296D02*
X5904Y1296D01*
X0Y1295D02*
X7Y1295D01*
X5897Y1295D02*
X5904Y1295D01*
X0Y1294D02*
X7Y1294D01*
X5897Y1294D02*
X5904Y1294D01*
X0Y1293D02*
X7Y1293D01*
X5897Y1293D02*
X5904Y1293D01*
X0Y1292D02*
X7Y1292D01*
X5897Y1292D02*
X5904Y1292D01*
X0Y1291D02*
X7Y1291D01*
X5897Y1291D02*
X5904Y1291D01*
X0Y1290D02*
X7Y1290D01*
X5897Y1290D02*
X5904Y1290D01*
X0Y1289D02*
X7Y1289D01*
X5897Y1289D02*
X5904Y1289D01*
X0Y1288D02*
X7Y1288D01*
X5897Y1288D02*
X5904Y1288D01*
X0Y1287D02*
X7Y1287D01*
X5897Y1287D02*
X5904Y1287D01*
X0Y1286D02*
X7Y1286D01*
X5897Y1286D02*
X5904Y1286D01*
X0Y1285D02*
X7Y1285D01*
X5897Y1285D02*
X5904Y1285D01*
X0Y1284D02*
X7Y1284D01*
X5897Y1284D02*
X5904Y1284D01*
X0Y1283D02*
X7Y1283D01*
X5897Y1283D02*
X5904Y1283D01*
X0Y1282D02*
X7Y1282D01*
X5897Y1282D02*
X5904Y1282D01*
X0Y1281D02*
X7Y1281D01*
X5897Y1281D02*
X5904Y1281D01*
X0Y1280D02*
X7Y1280D01*
X5897Y1280D02*
X5904Y1280D01*
X0Y1279D02*
X7Y1279D01*
X5897Y1279D02*
X5904Y1279D01*
X0Y1278D02*
X7Y1278D01*
X5897Y1278D02*
X5904Y1278D01*
X0Y1277D02*
X7Y1277D01*
X5897Y1277D02*
X5904Y1277D01*
X0Y1276D02*
X7Y1276D01*
X5897Y1276D02*
X5904Y1276D01*
X0Y1275D02*
X7Y1275D01*
X5897Y1275D02*
X5904Y1275D01*
X0Y1274D02*
X7Y1274D01*
X5897Y1274D02*
X5904Y1274D01*
X0Y1273D02*
X7Y1273D01*
X5897Y1273D02*
X5904Y1273D01*
X0Y1272D02*
X7Y1272D01*
X5897Y1272D02*
X5904Y1272D01*
X0Y1271D02*
X7Y1271D01*
X5897Y1271D02*
X5904Y1271D01*
X0Y1270D02*
X7Y1270D01*
X5897Y1270D02*
X5904Y1270D01*
X0Y1269D02*
X7Y1269D01*
X5897Y1269D02*
X5904Y1269D01*
X0Y1268D02*
X7Y1268D01*
X5897Y1268D02*
X5904Y1268D01*
X0Y1267D02*
X7Y1267D01*
X5897Y1267D02*
X5904Y1267D01*
X0Y1266D02*
X7Y1266D01*
X5897Y1266D02*
X5904Y1266D01*
X0Y1265D02*
X7Y1265D01*
X5897Y1265D02*
X5904Y1265D01*
X0Y1264D02*
X7Y1264D01*
X5897Y1264D02*
X5904Y1264D01*
X0Y1263D02*
X7Y1263D01*
X5897Y1263D02*
X5904Y1263D01*
X0Y1262D02*
X7Y1262D01*
X5897Y1262D02*
X5904Y1262D01*
X0Y1261D02*
X7Y1261D01*
X5897Y1261D02*
X5904Y1261D01*
X0Y1260D02*
X7Y1260D01*
X5897Y1260D02*
X5904Y1260D01*
X0Y1259D02*
X7Y1259D01*
X5897Y1259D02*
X5904Y1259D01*
X0Y1258D02*
X7Y1258D01*
X5897Y1258D02*
X5904Y1258D01*
X0Y1257D02*
X7Y1257D01*
X5897Y1257D02*
X5904Y1257D01*
X0Y1256D02*
X7Y1256D01*
X5897Y1256D02*
X5904Y1256D01*
X0Y1255D02*
X7Y1255D01*
X5897Y1255D02*
X5904Y1255D01*
X0Y1254D02*
X7Y1254D01*
X5897Y1254D02*
X5904Y1254D01*
X0Y1253D02*
X7Y1253D01*
X5897Y1253D02*
X5904Y1253D01*
X0Y1252D02*
X7Y1252D01*
X5897Y1252D02*
X5904Y1252D01*
X0Y1251D02*
X7Y1251D01*
X5897Y1251D02*
X5904Y1251D01*
X0Y1250D02*
X7Y1250D01*
X5897Y1250D02*
X5904Y1250D01*
X0Y1249D02*
X7Y1249D01*
X5897Y1249D02*
X5904Y1249D01*
X0Y1248D02*
X7Y1248D01*
X5897Y1248D02*
X5904Y1248D01*
X0Y1247D02*
X7Y1247D01*
X5897Y1247D02*
X5904Y1247D01*
X0Y1246D02*
X7Y1246D01*
X5897Y1246D02*
X5904Y1246D01*
X0Y1245D02*
X7Y1245D01*
X5897Y1245D02*
X5904Y1245D01*
X0Y1244D02*
X7Y1244D01*
X5897Y1244D02*
X5904Y1244D01*
X0Y1243D02*
X7Y1243D01*
X5897Y1243D02*
X5904Y1243D01*
X0Y1242D02*
X7Y1242D01*
X5897Y1242D02*
X5904Y1242D01*
X0Y1241D02*
X7Y1241D01*
X5897Y1241D02*
X5904Y1241D01*
X0Y1240D02*
X7Y1240D01*
X5897Y1240D02*
X5904Y1240D01*
X0Y1239D02*
X7Y1239D01*
X5897Y1239D02*
X5904Y1239D01*
X0Y1238D02*
X7Y1238D01*
X5897Y1238D02*
X5904Y1238D01*
X0Y1237D02*
X7Y1237D01*
X5897Y1237D02*
X5904Y1237D01*
X0Y1236D02*
X7Y1236D01*
X5897Y1236D02*
X5904Y1236D01*
X0Y1235D02*
X7Y1235D01*
X5897Y1235D02*
X5904Y1235D01*
X0Y1234D02*
X7Y1234D01*
X5897Y1234D02*
X5904Y1234D01*
X0Y1233D02*
X7Y1233D01*
X5897Y1233D02*
X5904Y1233D01*
X0Y1232D02*
X7Y1232D01*
X5897Y1232D02*
X5904Y1232D01*
X0Y1231D02*
X7Y1231D01*
X5897Y1231D02*
X5904Y1231D01*
X0Y1230D02*
X7Y1230D01*
X5897Y1230D02*
X5904Y1230D01*
X0Y1229D02*
X7Y1229D01*
X5897Y1229D02*
X5904Y1229D01*
X0Y1228D02*
X7Y1228D01*
X5897Y1228D02*
X5904Y1228D01*
X0Y1227D02*
X7Y1227D01*
X5897Y1227D02*
X5904Y1227D01*
X0Y1226D02*
X7Y1226D01*
X5897Y1226D02*
X5904Y1226D01*
X0Y1225D02*
X7Y1225D01*
X5897Y1225D02*
X5904Y1225D01*
X0Y1224D02*
X7Y1224D01*
X5897Y1224D02*
X5904Y1224D01*
X0Y1223D02*
X7Y1223D01*
X5897Y1223D02*
X5904Y1223D01*
X0Y1222D02*
X7Y1222D01*
X5897Y1222D02*
X5904Y1222D01*
X0Y1221D02*
X7Y1221D01*
X5897Y1221D02*
X5904Y1221D01*
X0Y1220D02*
X7Y1220D01*
X5897Y1220D02*
X5904Y1220D01*
X0Y1219D02*
X7Y1219D01*
X5897Y1219D02*
X5904Y1219D01*
X0Y1218D02*
X7Y1218D01*
X5897Y1218D02*
X5904Y1218D01*
X0Y1217D02*
X7Y1217D01*
X5897Y1217D02*
X5904Y1217D01*
X0Y1216D02*
X7Y1216D01*
X5897Y1216D02*
X5904Y1216D01*
X0Y1215D02*
X7Y1215D01*
X5897Y1215D02*
X5904Y1215D01*
X0Y1214D02*
X7Y1214D01*
X5897Y1214D02*
X5904Y1214D01*
X0Y1213D02*
X7Y1213D01*
X5897Y1213D02*
X5904Y1213D01*
X0Y1212D02*
X7Y1212D01*
X5897Y1212D02*
X5904Y1212D01*
X0Y1211D02*
X7Y1211D01*
X5897Y1211D02*
X5904Y1211D01*
X0Y1210D02*
X7Y1210D01*
X5897Y1210D02*
X5904Y1210D01*
X0Y1209D02*
X7Y1209D01*
X5897Y1209D02*
X5904Y1209D01*
X0Y1208D02*
X7Y1208D01*
X5897Y1208D02*
X5904Y1208D01*
X0Y1207D02*
X7Y1207D01*
X5897Y1207D02*
X5904Y1207D01*
X0Y1206D02*
X7Y1206D01*
X5897Y1206D02*
X5904Y1206D01*
X0Y1205D02*
X7Y1205D01*
X5897Y1205D02*
X5904Y1205D01*
X0Y1204D02*
X7Y1204D01*
X5897Y1204D02*
X5904Y1204D01*
X0Y1203D02*
X7Y1203D01*
X5897Y1203D02*
X5904Y1203D01*
X0Y1202D02*
X7Y1202D01*
X5897Y1202D02*
X5904Y1202D01*
X0Y1201D02*
X7Y1201D01*
X5897Y1201D02*
X5904Y1201D01*
X0Y1200D02*
X7Y1200D01*
X5897Y1200D02*
X5904Y1200D01*
X0Y1199D02*
X7Y1199D01*
X5897Y1199D02*
X5904Y1199D01*
X0Y1198D02*
X7Y1198D01*
X5897Y1198D02*
X5904Y1198D01*
X0Y1197D02*
X7Y1197D01*
X5897Y1197D02*
X5904Y1197D01*
X0Y1196D02*
X7Y1196D01*
X5897Y1196D02*
X5904Y1196D01*
X0Y1195D02*
X7Y1195D01*
X5897Y1195D02*
X5904Y1195D01*
X0Y1194D02*
X7Y1194D01*
X5897Y1194D02*
X5904Y1194D01*
X0Y1193D02*
X7Y1193D01*
X5897Y1193D02*
X5904Y1193D01*
X0Y1192D02*
X7Y1192D01*
X5897Y1192D02*
X5904Y1192D01*
X0Y1191D02*
X7Y1191D01*
X5897Y1191D02*
X5904Y1191D01*
X0Y1190D02*
X7Y1190D01*
X5897Y1190D02*
X5904Y1190D01*
X0Y1189D02*
X7Y1189D01*
X5897Y1189D02*
X5904Y1189D01*
X0Y1188D02*
X7Y1188D01*
X5897Y1188D02*
X5904Y1188D01*
X0Y1187D02*
X7Y1187D01*
X5897Y1187D02*
X5904Y1187D01*
X0Y1186D02*
X7Y1186D01*
X5897Y1186D02*
X5904Y1186D01*
X0Y1185D02*
X7Y1185D01*
X5897Y1185D02*
X5904Y1185D01*
X0Y1184D02*
X7Y1184D01*
X5897Y1184D02*
X5904Y1184D01*
X0Y1183D02*
X7Y1183D01*
X5897Y1183D02*
X5904Y1183D01*
X0Y1182D02*
X7Y1182D01*
X5897Y1182D02*
X5904Y1182D01*
X0Y1181D02*
X7Y1181D01*
X5897Y1181D02*
X5904Y1181D01*
X0Y1180D02*
X7Y1180D01*
X5897Y1180D02*
X5904Y1180D01*
X0Y1179D02*
X7Y1179D01*
X5897Y1179D02*
X5904Y1179D01*
X0Y1178D02*
X7Y1178D01*
X5897Y1178D02*
X5904Y1178D01*
X0Y1177D02*
X7Y1177D01*
X5897Y1177D02*
X5904Y1177D01*
X0Y1176D02*
X7Y1176D01*
X5897Y1176D02*
X5904Y1176D01*
X0Y1175D02*
X7Y1175D01*
X5897Y1175D02*
X5904Y1175D01*
X0Y1174D02*
X7Y1174D01*
X5897Y1174D02*
X5904Y1174D01*
X0Y1173D02*
X7Y1173D01*
X5897Y1173D02*
X5904Y1173D01*
X0Y1172D02*
X7Y1172D01*
X5897Y1172D02*
X5904Y1172D01*
X0Y1171D02*
X7Y1171D01*
X5897Y1171D02*
X5904Y1171D01*
X0Y1170D02*
X7Y1170D01*
X5897Y1170D02*
X5904Y1170D01*
X0Y1169D02*
X7Y1169D01*
X5897Y1169D02*
X5904Y1169D01*
X0Y1168D02*
X7Y1168D01*
X5897Y1168D02*
X5904Y1168D01*
X0Y1167D02*
X7Y1167D01*
X5897Y1167D02*
X5904Y1167D01*
X0Y1166D02*
X7Y1166D01*
X5897Y1166D02*
X5904Y1166D01*
X0Y1165D02*
X7Y1165D01*
X5897Y1165D02*
X5904Y1165D01*
X0Y1164D02*
X7Y1164D01*
X5897Y1164D02*
X5904Y1164D01*
X0Y1163D02*
X7Y1163D01*
X5897Y1163D02*
X5904Y1163D01*
X0Y1162D02*
X7Y1162D01*
X5897Y1162D02*
X5904Y1162D01*
X0Y1161D02*
X7Y1161D01*
X5897Y1161D02*
X5904Y1161D01*
X0Y1160D02*
X7Y1160D01*
X5897Y1160D02*
X5904Y1160D01*
X0Y1159D02*
X7Y1159D01*
X5897Y1159D02*
X5904Y1159D01*
X0Y1158D02*
X7Y1158D01*
X5897Y1158D02*
X5904Y1158D01*
X0Y1157D02*
X7Y1157D01*
X5897Y1157D02*
X5904Y1157D01*
X0Y1156D02*
X7Y1156D01*
X5897Y1156D02*
X5904Y1156D01*
X0Y1155D02*
X7Y1155D01*
X5897Y1155D02*
X5904Y1155D01*
X0Y1154D02*
X7Y1154D01*
X5897Y1154D02*
X5904Y1154D01*
X0Y1153D02*
X7Y1153D01*
X5897Y1153D02*
X5904Y1153D01*
X0Y1152D02*
X7Y1152D01*
X5897Y1152D02*
X5904Y1152D01*
X0Y1151D02*
X7Y1151D01*
X5897Y1151D02*
X5904Y1151D01*
X0Y1150D02*
X7Y1150D01*
X5897Y1150D02*
X5904Y1150D01*
X0Y1149D02*
X7Y1149D01*
X5897Y1149D02*
X5904Y1149D01*
X0Y1148D02*
X7Y1148D01*
X5897Y1148D02*
X5904Y1148D01*
X0Y1147D02*
X7Y1147D01*
X5897Y1147D02*
X5904Y1147D01*
X0Y1146D02*
X7Y1146D01*
X5897Y1146D02*
X5904Y1146D01*
X0Y1145D02*
X7Y1145D01*
X5897Y1145D02*
X5904Y1145D01*
X0Y1144D02*
X7Y1144D01*
X5897Y1144D02*
X5904Y1144D01*
X0Y1143D02*
X7Y1143D01*
X5897Y1143D02*
X5904Y1143D01*
X0Y1142D02*
X7Y1142D01*
X5897Y1142D02*
X5904Y1142D01*
X0Y1141D02*
X7Y1141D01*
X5897Y1141D02*
X5904Y1141D01*
X0Y1140D02*
X7Y1140D01*
X5897Y1140D02*
X5904Y1140D01*
X0Y1139D02*
X7Y1139D01*
X5897Y1139D02*
X5904Y1139D01*
X0Y1138D02*
X7Y1138D01*
X5897Y1138D02*
X5904Y1138D01*
X0Y1137D02*
X7Y1137D01*
X5897Y1137D02*
X5904Y1137D01*
X0Y1136D02*
X7Y1136D01*
X5897Y1136D02*
X5904Y1136D01*
X0Y1135D02*
X7Y1135D01*
X5897Y1135D02*
X5904Y1135D01*
X0Y1134D02*
X7Y1134D01*
X5897Y1134D02*
X5904Y1134D01*
X0Y1133D02*
X7Y1133D01*
X5897Y1133D02*
X5904Y1133D01*
X0Y1132D02*
X7Y1132D01*
X5897Y1132D02*
X5904Y1132D01*
X0Y1131D02*
X7Y1131D01*
X5897Y1131D02*
X5904Y1131D01*
X0Y1130D02*
X7Y1130D01*
X5897Y1130D02*
X5904Y1130D01*
X0Y1129D02*
X7Y1129D01*
X5897Y1129D02*
X5904Y1129D01*
X0Y1128D02*
X7Y1128D01*
X5897Y1128D02*
X5904Y1128D01*
X0Y1127D02*
X7Y1127D01*
X5897Y1127D02*
X5904Y1127D01*
X0Y1126D02*
X7Y1126D01*
X5897Y1126D02*
X5904Y1126D01*
X0Y1125D02*
X7Y1125D01*
X5897Y1125D02*
X5904Y1125D01*
X0Y1124D02*
X7Y1124D01*
X5897Y1124D02*
X5904Y1124D01*
X0Y1123D02*
X7Y1123D01*
X5897Y1123D02*
X5904Y1123D01*
X0Y1122D02*
X7Y1122D01*
X5897Y1122D02*
X5904Y1122D01*
X0Y1121D02*
X7Y1121D01*
X5897Y1121D02*
X5904Y1121D01*
X0Y1120D02*
X7Y1120D01*
X5897Y1120D02*
X5904Y1120D01*
X0Y1119D02*
X7Y1119D01*
X5897Y1119D02*
X5904Y1119D01*
X0Y1118D02*
X7Y1118D01*
X5897Y1118D02*
X5904Y1118D01*
X0Y1117D02*
X7Y1117D01*
X5897Y1117D02*
X5904Y1117D01*
X0Y1116D02*
X7Y1116D01*
X5897Y1116D02*
X5904Y1116D01*
X0Y1115D02*
X7Y1115D01*
X5897Y1115D02*
X5904Y1115D01*
X0Y1114D02*
X7Y1114D01*
X5897Y1114D02*
X5904Y1114D01*
X0Y1113D02*
X7Y1113D01*
X5897Y1113D02*
X5904Y1113D01*
X0Y1112D02*
X7Y1112D01*
X5897Y1112D02*
X5904Y1112D01*
X0Y1111D02*
X7Y1111D01*
X5897Y1111D02*
X5904Y1111D01*
X0Y1110D02*
X7Y1110D01*
X5897Y1110D02*
X5904Y1110D01*
X0Y1109D02*
X7Y1109D01*
X5897Y1109D02*
X5904Y1109D01*
X0Y1108D02*
X7Y1108D01*
X5897Y1108D02*
X5904Y1108D01*
X0Y1107D02*
X7Y1107D01*
X5897Y1107D02*
X5904Y1107D01*
X0Y1106D02*
X7Y1106D01*
X5897Y1106D02*
X5904Y1106D01*
X0Y1105D02*
X7Y1105D01*
X5897Y1105D02*
X5904Y1105D01*
X0Y1104D02*
X7Y1104D01*
X5897Y1104D02*
X5904Y1104D01*
X0Y1103D02*
X7Y1103D01*
X5897Y1103D02*
X5904Y1103D01*
X0Y1102D02*
X7Y1102D01*
X5897Y1102D02*
X5904Y1102D01*
X0Y1101D02*
X7Y1101D01*
X5897Y1101D02*
X5904Y1101D01*
X0Y1100D02*
X7Y1100D01*
X5897Y1100D02*
X5904Y1100D01*
X0Y1099D02*
X7Y1099D01*
X5897Y1099D02*
X5904Y1099D01*
X0Y1098D02*
X7Y1098D01*
X5897Y1098D02*
X5904Y1098D01*
X0Y1097D02*
X7Y1097D01*
X5897Y1097D02*
X5904Y1097D01*
X0Y1096D02*
X7Y1096D01*
X5897Y1096D02*
X5904Y1096D01*
X0Y1095D02*
X7Y1095D01*
X5897Y1095D02*
X5904Y1095D01*
X0Y1094D02*
X7Y1094D01*
X5897Y1094D02*
X5904Y1094D01*
X0Y1093D02*
X7Y1093D01*
X5897Y1093D02*
X5904Y1093D01*
X0Y1092D02*
X7Y1092D01*
X5897Y1092D02*
X5904Y1092D01*
X0Y1091D02*
X7Y1091D01*
X5897Y1091D02*
X5904Y1091D01*
X0Y1090D02*
X7Y1090D01*
X5897Y1090D02*
X5904Y1090D01*
X0Y1089D02*
X7Y1089D01*
X5897Y1089D02*
X5904Y1089D01*
X0Y1088D02*
X7Y1088D01*
X5897Y1088D02*
X5904Y1088D01*
X0Y1087D02*
X7Y1087D01*
X5897Y1087D02*
X5904Y1087D01*
X0Y1086D02*
X7Y1086D01*
X5897Y1086D02*
X5904Y1086D01*
X0Y1085D02*
X7Y1085D01*
X5897Y1085D02*
X5904Y1085D01*
X0Y1084D02*
X7Y1084D01*
X5897Y1084D02*
X5904Y1084D01*
X0Y1083D02*
X7Y1083D01*
X5897Y1083D02*
X5904Y1083D01*
X0Y1082D02*
X7Y1082D01*
X5897Y1082D02*
X5904Y1082D01*
X0Y1081D02*
X7Y1081D01*
X5897Y1081D02*
X5904Y1081D01*
X0Y1080D02*
X7Y1080D01*
X5897Y1080D02*
X5904Y1080D01*
X0Y1079D02*
X7Y1079D01*
X5897Y1079D02*
X5904Y1079D01*
X0Y1078D02*
X7Y1078D01*
X5897Y1078D02*
X5904Y1078D01*
X0Y1077D02*
X7Y1077D01*
X5897Y1077D02*
X5904Y1077D01*
X0Y1076D02*
X7Y1076D01*
X5897Y1076D02*
X5904Y1076D01*
X0Y1075D02*
X7Y1075D01*
X5897Y1075D02*
X5904Y1075D01*
X0Y1074D02*
X7Y1074D01*
X5897Y1074D02*
X5904Y1074D01*
X0Y1073D02*
X7Y1073D01*
X5897Y1073D02*
X5904Y1073D01*
X0Y1072D02*
X7Y1072D01*
X5897Y1072D02*
X5904Y1072D01*
X0Y1071D02*
X7Y1071D01*
X5897Y1071D02*
X5904Y1071D01*
X0Y1070D02*
X7Y1070D01*
X5897Y1070D02*
X5904Y1070D01*
X0Y1069D02*
X7Y1069D01*
X5897Y1069D02*
X5904Y1069D01*
X0Y1068D02*
X7Y1068D01*
X5897Y1068D02*
X5904Y1068D01*
X0Y1067D02*
X7Y1067D01*
X5897Y1067D02*
X5904Y1067D01*
X0Y1066D02*
X7Y1066D01*
X5897Y1066D02*
X5904Y1066D01*
X0Y1065D02*
X7Y1065D01*
X5897Y1065D02*
X5904Y1065D01*
X0Y1064D02*
X7Y1064D01*
X5897Y1064D02*
X5904Y1064D01*
X0Y1063D02*
X7Y1063D01*
X5897Y1063D02*
X5904Y1063D01*
X0Y1062D02*
X7Y1062D01*
X5897Y1062D02*
X5904Y1062D01*
X0Y1061D02*
X7Y1061D01*
X5897Y1061D02*
X5904Y1061D01*
X0Y1060D02*
X7Y1060D01*
X5897Y1060D02*
X5904Y1060D01*
X0Y1059D02*
X7Y1059D01*
X5897Y1059D02*
X5904Y1059D01*
X0Y1058D02*
X7Y1058D01*
X5897Y1058D02*
X5904Y1058D01*
X0Y1057D02*
X7Y1057D01*
X5897Y1057D02*
X5904Y1057D01*
X0Y1056D02*
X7Y1056D01*
X5897Y1056D02*
X5904Y1056D01*
X0Y1055D02*
X7Y1055D01*
X5897Y1055D02*
X5904Y1055D01*
X0Y1054D02*
X7Y1054D01*
X5897Y1054D02*
X5904Y1054D01*
X0Y1053D02*
X7Y1053D01*
X5897Y1053D02*
X5904Y1053D01*
X0Y1052D02*
X7Y1052D01*
X5897Y1052D02*
X5904Y1052D01*
X0Y1051D02*
X7Y1051D01*
X5897Y1051D02*
X5904Y1051D01*
X0Y1050D02*
X7Y1050D01*
X5897Y1050D02*
X5904Y1050D01*
X0Y1049D02*
X7Y1049D01*
X5897Y1049D02*
X5904Y1049D01*
X0Y1048D02*
X7Y1048D01*
X5897Y1048D02*
X5904Y1048D01*
X0Y1047D02*
X7Y1047D01*
X5897Y1047D02*
X5904Y1047D01*
X0Y1046D02*
X7Y1046D01*
X5897Y1046D02*
X5904Y1046D01*
X0Y1045D02*
X7Y1045D01*
X5897Y1045D02*
X5904Y1045D01*
X0Y1044D02*
X7Y1044D01*
X5897Y1044D02*
X5904Y1044D01*
X0Y1043D02*
X7Y1043D01*
X5897Y1043D02*
X5904Y1043D01*
X0Y1042D02*
X7Y1042D01*
X5897Y1042D02*
X5904Y1042D01*
X0Y1041D02*
X7Y1041D01*
X5897Y1041D02*
X5904Y1041D01*
X0Y1040D02*
X7Y1040D01*
X5897Y1040D02*
X5904Y1040D01*
X0Y1039D02*
X7Y1039D01*
X5897Y1039D02*
X5904Y1039D01*
X0Y1038D02*
X7Y1038D01*
X5897Y1038D02*
X5904Y1038D01*
X0Y1037D02*
X7Y1037D01*
X5897Y1037D02*
X5904Y1037D01*
X0Y1036D02*
X7Y1036D01*
X5897Y1036D02*
X5904Y1036D01*
X0Y1035D02*
X7Y1035D01*
X5897Y1035D02*
X5904Y1035D01*
X0Y1034D02*
X7Y1034D01*
X5897Y1034D02*
X5904Y1034D01*
X0Y1033D02*
X7Y1033D01*
X5897Y1033D02*
X5904Y1033D01*
X0Y1032D02*
X7Y1032D01*
X5897Y1032D02*
X5904Y1032D01*
X0Y1031D02*
X7Y1031D01*
X5897Y1031D02*
X5904Y1031D01*
X0Y1030D02*
X7Y1030D01*
X5897Y1030D02*
X5904Y1030D01*
X0Y1029D02*
X7Y1029D01*
X5897Y1029D02*
X5904Y1029D01*
X0Y1028D02*
X7Y1028D01*
X5897Y1028D02*
X5904Y1028D01*
X0Y1027D02*
X7Y1027D01*
X5897Y1027D02*
X5904Y1027D01*
X0Y1026D02*
X7Y1026D01*
X5897Y1026D02*
X5904Y1026D01*
X0Y1025D02*
X7Y1025D01*
X5897Y1025D02*
X5904Y1025D01*
X0Y1024D02*
X7Y1024D01*
X5897Y1024D02*
X5904Y1024D01*
X0Y1023D02*
X7Y1023D01*
X5897Y1023D02*
X5904Y1023D01*
X0Y1022D02*
X7Y1022D01*
X5897Y1022D02*
X5904Y1022D01*
X0Y1021D02*
X7Y1021D01*
X5897Y1021D02*
X5904Y1021D01*
X0Y1020D02*
X7Y1020D01*
X5897Y1020D02*
X5904Y1020D01*
X0Y1019D02*
X7Y1019D01*
X5897Y1019D02*
X5904Y1019D01*
X0Y1018D02*
X7Y1018D01*
X5897Y1018D02*
X5904Y1018D01*
X0Y1017D02*
X7Y1017D01*
X5897Y1017D02*
X5904Y1017D01*
X0Y1016D02*
X7Y1016D01*
X5897Y1016D02*
X5904Y1016D01*
X0Y1015D02*
X7Y1015D01*
X5897Y1015D02*
X5904Y1015D01*
X0Y1014D02*
X7Y1014D01*
X5897Y1014D02*
X5904Y1014D01*
X0Y1013D02*
X7Y1013D01*
X5897Y1013D02*
X5904Y1013D01*
X0Y1012D02*
X7Y1012D01*
X5897Y1012D02*
X5904Y1012D01*
X0Y1011D02*
X7Y1011D01*
X5897Y1011D02*
X5904Y1011D01*
X0Y1010D02*
X7Y1010D01*
X5897Y1010D02*
X5904Y1010D01*
X0Y1009D02*
X7Y1009D01*
X5897Y1009D02*
X5904Y1009D01*
X0Y1008D02*
X7Y1008D01*
X5897Y1008D02*
X5904Y1008D01*
X0Y1007D02*
X7Y1007D01*
X5897Y1007D02*
X5904Y1007D01*
X0Y1006D02*
X7Y1006D01*
X5897Y1006D02*
X5904Y1006D01*
X0Y1005D02*
X7Y1005D01*
X5897Y1005D02*
X5904Y1005D01*
X0Y1004D02*
X7Y1004D01*
X5897Y1004D02*
X5904Y1004D01*
X0Y1003D02*
X7Y1003D01*
X5897Y1003D02*
X5904Y1003D01*
X0Y1002D02*
X7Y1002D01*
X5897Y1002D02*
X5904Y1002D01*
X0Y1001D02*
X7Y1001D01*
X5897Y1001D02*
X5904Y1001D01*
X0Y1000D02*
X7Y1000D01*
X5897Y1000D02*
X5904Y1000D01*
X0Y999D02*
X7Y999D01*
X5897Y999D02*
X5904Y999D01*
X0Y998D02*
X7Y998D01*
X5897Y998D02*
X5904Y998D01*
X0Y997D02*
X7Y997D01*
X5897Y997D02*
X5904Y997D01*
X0Y996D02*
X7Y996D01*
X5897Y996D02*
X5904Y996D01*
X0Y995D02*
X7Y995D01*
X5897Y995D02*
X5904Y995D01*
X0Y994D02*
X7Y994D01*
X5897Y994D02*
X5904Y994D01*
X0Y993D02*
X7Y993D01*
X5897Y993D02*
X5904Y993D01*
X0Y992D02*
X7Y992D01*
X5897Y992D02*
X5904Y992D01*
X0Y991D02*
X7Y991D01*
X5897Y991D02*
X5904Y991D01*
X0Y990D02*
X7Y990D01*
X5897Y990D02*
X5904Y990D01*
X0Y989D02*
X7Y989D01*
X5897Y989D02*
X5904Y989D01*
X0Y988D02*
X7Y988D01*
X5897Y988D02*
X5904Y988D01*
X0Y987D02*
X7Y987D01*
X5897Y987D02*
X5904Y987D01*
X0Y986D02*
X7Y986D01*
X5897Y986D02*
X5904Y986D01*
X0Y985D02*
X7Y985D01*
X5897Y985D02*
X5904Y985D01*
X0Y984D02*
X7Y984D01*
X5897Y984D02*
X5904Y984D01*
X0Y983D02*
X7Y983D01*
X5897Y983D02*
X5904Y983D01*
X0Y982D02*
X7Y982D01*
X5897Y982D02*
X5904Y982D01*
X0Y981D02*
X7Y981D01*
X5897Y981D02*
X5904Y981D01*
X0Y980D02*
X7Y980D01*
X5897Y980D02*
X5904Y980D01*
X0Y979D02*
X7Y979D01*
X5897Y979D02*
X5904Y979D01*
X0Y978D02*
X7Y978D01*
X5897Y978D02*
X5904Y978D01*
X0Y977D02*
X7Y977D01*
X5897Y977D02*
X5904Y977D01*
X0Y976D02*
X7Y976D01*
X5897Y976D02*
X5904Y976D01*
X0Y975D02*
X7Y975D01*
X5897Y975D02*
X5904Y975D01*
X0Y974D02*
X7Y974D01*
X5897Y974D02*
X5904Y974D01*
X0Y973D02*
X7Y973D01*
X5897Y973D02*
X5904Y973D01*
X0Y972D02*
X7Y972D01*
X5897Y972D02*
X5904Y972D01*
X0Y971D02*
X7Y971D01*
X5897Y971D02*
X5904Y971D01*
X0Y970D02*
X7Y970D01*
X5897Y970D02*
X5904Y970D01*
X0Y969D02*
X7Y969D01*
X5897Y969D02*
X5904Y969D01*
X0Y968D02*
X7Y968D01*
X5897Y968D02*
X5904Y968D01*
X0Y967D02*
X7Y967D01*
X5897Y967D02*
X5904Y967D01*
X0Y966D02*
X7Y966D01*
X5897Y966D02*
X5904Y966D01*
X0Y965D02*
X7Y965D01*
X5897Y965D02*
X5904Y965D01*
X0Y964D02*
X7Y964D01*
X5897Y964D02*
X5904Y964D01*
X0Y963D02*
X7Y963D01*
X5897Y963D02*
X5904Y963D01*
X0Y962D02*
X7Y962D01*
X5897Y962D02*
X5904Y962D01*
X0Y961D02*
X7Y961D01*
X5897Y961D02*
X5904Y961D01*
X0Y960D02*
X7Y960D01*
X5897Y960D02*
X5904Y960D01*
X0Y959D02*
X7Y959D01*
X5897Y959D02*
X5904Y959D01*
X0Y958D02*
X7Y958D01*
X5897Y958D02*
X5904Y958D01*
X0Y957D02*
X7Y957D01*
X5897Y957D02*
X5904Y957D01*
X0Y956D02*
X7Y956D01*
X5897Y956D02*
X5904Y956D01*
X0Y955D02*
X7Y955D01*
X5897Y955D02*
X5904Y955D01*
X0Y954D02*
X7Y954D01*
X5897Y954D02*
X5904Y954D01*
X0Y953D02*
X7Y953D01*
X5897Y953D02*
X5904Y953D01*
X0Y952D02*
X7Y952D01*
X5897Y952D02*
X5904Y952D01*
X0Y951D02*
X7Y951D01*
X5897Y951D02*
X5904Y951D01*
X0Y950D02*
X7Y950D01*
X5897Y950D02*
X5904Y950D01*
X0Y949D02*
X7Y949D01*
X5897Y949D02*
X5904Y949D01*
X0Y948D02*
X7Y948D01*
X5897Y948D02*
X5904Y948D01*
X0Y947D02*
X7Y947D01*
X5897Y947D02*
X5904Y947D01*
X0Y946D02*
X7Y946D01*
X5897Y946D02*
X5904Y946D01*
X0Y945D02*
X7Y945D01*
X5897Y945D02*
X5904Y945D01*
X0Y944D02*
X7Y944D01*
X5897Y944D02*
X5904Y944D01*
X0Y943D02*
X7Y943D01*
X5897Y943D02*
X5904Y943D01*
X0Y942D02*
X7Y942D01*
X5897Y942D02*
X5904Y942D01*
X0Y941D02*
X7Y941D01*
X5897Y941D02*
X5904Y941D01*
X0Y940D02*
X7Y940D01*
X5897Y940D02*
X5904Y940D01*
X0Y939D02*
X7Y939D01*
X5897Y939D02*
X5904Y939D01*
X0Y938D02*
X7Y938D01*
X5897Y938D02*
X5904Y938D01*
X0Y937D02*
X7Y937D01*
X5897Y937D02*
X5904Y937D01*
X0Y936D02*
X7Y936D01*
X5897Y936D02*
X5904Y936D01*
X0Y935D02*
X7Y935D01*
X5897Y935D02*
X5904Y935D01*
X0Y934D02*
X7Y934D01*
X5897Y934D02*
X5904Y934D01*
X0Y933D02*
X7Y933D01*
X5897Y933D02*
X5904Y933D01*
X0Y932D02*
X7Y932D01*
X5897Y932D02*
X5904Y932D01*
X0Y931D02*
X7Y931D01*
X5897Y931D02*
X5904Y931D01*
X0Y930D02*
X7Y930D01*
X5897Y930D02*
X5904Y930D01*
X0Y929D02*
X7Y929D01*
X5897Y929D02*
X5904Y929D01*
X0Y928D02*
X7Y928D01*
X5897Y928D02*
X5904Y928D01*
X0Y927D02*
X7Y927D01*
X5897Y927D02*
X5904Y927D01*
X0Y926D02*
X7Y926D01*
X5897Y926D02*
X5904Y926D01*
X0Y925D02*
X7Y925D01*
X5897Y925D02*
X5904Y925D01*
X0Y924D02*
X7Y924D01*
X5897Y924D02*
X5904Y924D01*
X0Y923D02*
X7Y923D01*
X5897Y923D02*
X5904Y923D01*
X0Y922D02*
X7Y922D01*
X5897Y922D02*
X5904Y922D01*
X0Y921D02*
X7Y921D01*
X5897Y921D02*
X5904Y921D01*
X0Y920D02*
X7Y920D01*
X5897Y920D02*
X5904Y920D01*
X0Y919D02*
X7Y919D01*
X5897Y919D02*
X5904Y919D01*
X0Y918D02*
X7Y918D01*
X5897Y918D02*
X5904Y918D01*
X0Y917D02*
X7Y917D01*
X5897Y917D02*
X5904Y917D01*
X0Y916D02*
X7Y916D01*
X5897Y916D02*
X5904Y916D01*
X0Y915D02*
X7Y915D01*
X5897Y915D02*
X5904Y915D01*
X0Y914D02*
X7Y914D01*
X5897Y914D02*
X5904Y914D01*
X0Y913D02*
X7Y913D01*
X5897Y913D02*
X5904Y913D01*
X0Y912D02*
X7Y912D01*
X5897Y912D02*
X5904Y912D01*
X0Y911D02*
X7Y911D01*
X5897Y911D02*
X5904Y911D01*
X0Y910D02*
X7Y910D01*
X5897Y910D02*
X5904Y910D01*
X0Y909D02*
X7Y909D01*
X5897Y909D02*
X5904Y909D01*
X0Y908D02*
X7Y908D01*
X5897Y908D02*
X5904Y908D01*
X0Y907D02*
X7Y907D01*
X5897Y907D02*
X5904Y907D01*
X0Y906D02*
X7Y906D01*
X5897Y906D02*
X5904Y906D01*
X0Y905D02*
X7Y905D01*
X5897Y905D02*
X5904Y905D01*
X0Y904D02*
X7Y904D01*
X5897Y904D02*
X5904Y904D01*
X0Y903D02*
X7Y903D01*
X5897Y903D02*
X5904Y903D01*
X0Y902D02*
X7Y902D01*
X5897Y902D02*
X5904Y902D01*
X0Y901D02*
X7Y901D01*
X5897Y901D02*
X5904Y901D01*
X0Y900D02*
X7Y900D01*
X5897Y900D02*
X5904Y900D01*
X0Y899D02*
X7Y899D01*
X5897Y899D02*
X5904Y899D01*
X0Y898D02*
X7Y898D01*
X5897Y898D02*
X5904Y898D01*
X0Y897D02*
X7Y897D01*
X5897Y897D02*
X5904Y897D01*
X0Y896D02*
X7Y896D01*
X5897Y896D02*
X5904Y896D01*
X0Y895D02*
X7Y895D01*
X5897Y895D02*
X5904Y895D01*
X0Y894D02*
X7Y894D01*
X5897Y894D02*
X5904Y894D01*
X0Y893D02*
X7Y893D01*
X5897Y893D02*
X5904Y893D01*
X0Y892D02*
X7Y892D01*
X5897Y892D02*
X5904Y892D01*
X0Y891D02*
X7Y891D01*
X5897Y891D02*
X5904Y891D01*
X0Y890D02*
X7Y890D01*
X5897Y890D02*
X5904Y890D01*
X0Y889D02*
X7Y889D01*
X5897Y889D02*
X5904Y889D01*
X0Y888D02*
X7Y888D01*
X5897Y888D02*
X5904Y888D01*
X0Y887D02*
X7Y887D01*
X5897Y887D02*
X5904Y887D01*
X0Y886D02*
X7Y886D01*
X5897Y886D02*
X5904Y886D01*
X0Y885D02*
X7Y885D01*
X5897Y885D02*
X5904Y885D01*
X0Y884D02*
X7Y884D01*
X5897Y884D02*
X5904Y884D01*
X0Y883D02*
X7Y883D01*
X5897Y883D02*
X5904Y883D01*
X0Y882D02*
X7Y882D01*
X5897Y882D02*
X5904Y882D01*
X0Y881D02*
X7Y881D01*
X5897Y881D02*
X5904Y881D01*
X0Y880D02*
X7Y880D01*
X5897Y880D02*
X5904Y880D01*
X0Y879D02*
X7Y879D01*
X5897Y879D02*
X5904Y879D01*
X0Y878D02*
X7Y878D01*
X5897Y878D02*
X5904Y878D01*
X0Y877D02*
X7Y877D01*
X5897Y877D02*
X5904Y877D01*
X0Y876D02*
X7Y876D01*
X5897Y876D02*
X5904Y876D01*
X0Y875D02*
X7Y875D01*
X5897Y875D02*
X5904Y875D01*
X0Y874D02*
X7Y874D01*
X5897Y874D02*
X5904Y874D01*
X0Y873D02*
X7Y873D01*
X5897Y873D02*
X5904Y873D01*
X0Y872D02*
X7Y872D01*
X5897Y872D02*
X5904Y872D01*
X0Y871D02*
X7Y871D01*
X5897Y871D02*
X5904Y871D01*
X0Y870D02*
X7Y870D01*
X5897Y870D02*
X5904Y870D01*
X0Y869D02*
X7Y869D01*
X5897Y869D02*
X5904Y869D01*
X0Y868D02*
X7Y868D01*
X5897Y868D02*
X5904Y868D01*
X0Y867D02*
X7Y867D01*
X5897Y867D02*
X5904Y867D01*
X0Y866D02*
X7Y866D01*
X5897Y866D02*
X5904Y866D01*
X0Y865D02*
X7Y865D01*
X5897Y865D02*
X5904Y865D01*
X0Y864D02*
X7Y864D01*
X5897Y864D02*
X5904Y864D01*
X0Y863D02*
X7Y863D01*
X5897Y863D02*
X5904Y863D01*
X0Y862D02*
X7Y862D01*
X5897Y862D02*
X5904Y862D01*
X0Y861D02*
X7Y861D01*
X5897Y861D02*
X5904Y861D01*
X0Y860D02*
X7Y860D01*
X5897Y860D02*
X5904Y860D01*
X0Y859D02*
X7Y859D01*
X5897Y859D02*
X5904Y859D01*
X0Y858D02*
X7Y858D01*
X5897Y858D02*
X5904Y858D01*
X0Y857D02*
X7Y857D01*
X5897Y857D02*
X5904Y857D01*
X0Y856D02*
X7Y856D01*
X5897Y856D02*
X5904Y856D01*
X0Y855D02*
X7Y855D01*
X5897Y855D02*
X5904Y855D01*
X0Y854D02*
X7Y854D01*
X5897Y854D02*
X5904Y854D01*
X0Y853D02*
X7Y853D01*
X5897Y853D02*
X5904Y853D01*
X0Y852D02*
X7Y852D01*
X5897Y852D02*
X5904Y852D01*
X0Y851D02*
X7Y851D01*
X5897Y851D02*
X5904Y851D01*
X0Y850D02*
X7Y850D01*
X5897Y850D02*
X5904Y850D01*
X0Y849D02*
X7Y849D01*
X5897Y849D02*
X5904Y849D01*
X0Y848D02*
X7Y848D01*
X5897Y848D02*
X5904Y848D01*
X0Y847D02*
X7Y847D01*
X5897Y847D02*
X5904Y847D01*
X0Y846D02*
X7Y846D01*
X5897Y846D02*
X5904Y846D01*
X0Y845D02*
X7Y845D01*
X5897Y845D02*
X5904Y845D01*
X0Y844D02*
X7Y844D01*
X5897Y844D02*
X5904Y844D01*
X0Y843D02*
X7Y843D01*
X5897Y843D02*
X5904Y843D01*
X0Y842D02*
X7Y842D01*
X5897Y842D02*
X5904Y842D01*
X0Y841D02*
X7Y841D01*
X5897Y841D02*
X5904Y841D01*
X0Y840D02*
X7Y840D01*
X5897Y840D02*
X5904Y840D01*
X0Y839D02*
X7Y839D01*
X5897Y839D02*
X5904Y839D01*
X0Y838D02*
X7Y838D01*
X5897Y838D02*
X5904Y838D01*
X0Y837D02*
X7Y837D01*
X5897Y837D02*
X5904Y837D01*
X0Y836D02*
X7Y836D01*
X5897Y836D02*
X5904Y836D01*
X0Y835D02*
X7Y835D01*
X5897Y835D02*
X5904Y835D01*
X0Y834D02*
X7Y834D01*
X5897Y834D02*
X5904Y834D01*
X0Y833D02*
X7Y833D01*
X5897Y833D02*
X5904Y833D01*
X0Y832D02*
X7Y832D01*
X5897Y832D02*
X5904Y832D01*
X0Y831D02*
X7Y831D01*
X5897Y831D02*
X5904Y831D01*
X0Y830D02*
X7Y830D01*
X5897Y830D02*
X5904Y830D01*
X0Y829D02*
X7Y829D01*
X5897Y829D02*
X5904Y829D01*
X0Y828D02*
X7Y828D01*
X5897Y828D02*
X5904Y828D01*
X0Y827D02*
X7Y827D01*
X5897Y827D02*
X5904Y827D01*
X0Y826D02*
X7Y826D01*
X5897Y826D02*
X5904Y826D01*
X0Y825D02*
X7Y825D01*
X5897Y825D02*
X5904Y825D01*
X0Y824D02*
X7Y824D01*
X5897Y824D02*
X5904Y824D01*
X0Y823D02*
X7Y823D01*
X5897Y823D02*
X5904Y823D01*
X0Y822D02*
X7Y822D01*
X5897Y822D02*
X5904Y822D01*
X0Y821D02*
X7Y821D01*
X5897Y821D02*
X5904Y821D01*
X0Y820D02*
X7Y820D01*
X5897Y820D02*
X5904Y820D01*
X0Y819D02*
X7Y819D01*
X5897Y819D02*
X5904Y819D01*
X0Y818D02*
X7Y818D01*
X5897Y818D02*
X5904Y818D01*
X0Y817D02*
X7Y817D01*
X5897Y817D02*
X5904Y817D01*
X0Y816D02*
X7Y816D01*
X5897Y816D02*
X5904Y816D01*
X0Y815D02*
X7Y815D01*
X5897Y815D02*
X5904Y815D01*
X0Y814D02*
X7Y814D01*
X5897Y814D02*
X5904Y814D01*
X0Y813D02*
X7Y813D01*
X5897Y813D02*
X5904Y813D01*
X0Y812D02*
X7Y812D01*
X5897Y812D02*
X5904Y812D01*
X0Y811D02*
X7Y811D01*
X5897Y811D02*
X5904Y811D01*
X0Y810D02*
X7Y810D01*
X5897Y810D02*
X5904Y810D01*
X0Y809D02*
X7Y809D01*
X5897Y809D02*
X5904Y809D01*
X0Y808D02*
X7Y808D01*
X5897Y808D02*
X5904Y808D01*
X0Y807D02*
X7Y807D01*
X5897Y807D02*
X5904Y807D01*
X0Y806D02*
X7Y806D01*
X5897Y806D02*
X5904Y806D01*
X0Y805D02*
X7Y805D01*
X5897Y805D02*
X5904Y805D01*
X0Y804D02*
X7Y804D01*
X5897Y804D02*
X5904Y804D01*
X0Y803D02*
X7Y803D01*
X5897Y803D02*
X5904Y803D01*
X0Y802D02*
X7Y802D01*
X5897Y802D02*
X5904Y802D01*
X0Y801D02*
X7Y801D01*
X5897Y801D02*
X5904Y801D01*
X0Y800D02*
X7Y800D01*
X5897Y800D02*
X5904Y800D01*
X0Y799D02*
X7Y799D01*
X5897Y799D02*
X5904Y799D01*
X0Y798D02*
X7Y798D01*
X5897Y798D02*
X5904Y798D01*
X0Y797D02*
X7Y797D01*
X5897Y797D02*
X5904Y797D01*
X0Y796D02*
X7Y796D01*
X5897Y796D02*
X5904Y796D01*
X0Y795D02*
X7Y795D01*
X5897Y795D02*
X5904Y795D01*
X0Y794D02*
X7Y794D01*
X5897Y794D02*
X5904Y794D01*
X0Y793D02*
X7Y793D01*
X5897Y793D02*
X5904Y793D01*
X0Y792D02*
X7Y792D01*
X5897Y792D02*
X5904Y792D01*
X0Y791D02*
X7Y791D01*
X5897Y791D02*
X5904Y791D01*
X0Y790D02*
X7Y790D01*
X5897Y790D02*
X5904Y790D01*
X0Y789D02*
X7Y789D01*
X5897Y789D02*
X5904Y789D01*
X0Y788D02*
X7Y788D01*
X5897Y788D02*
X5904Y788D01*
X0Y787D02*
X7Y787D01*
X5897Y787D02*
X5904Y787D01*
X0Y786D02*
X7Y786D01*
X5897Y786D02*
X5904Y786D01*
X0Y785D02*
X7Y785D01*
X5897Y785D02*
X5904Y785D01*
X0Y784D02*
X7Y784D01*
X5897Y784D02*
X5904Y784D01*
X0Y783D02*
X7Y783D01*
X5897Y783D02*
X5904Y783D01*
X0Y782D02*
X7Y782D01*
X5897Y782D02*
X5904Y782D01*
X0Y781D02*
X7Y781D01*
X5897Y781D02*
X5904Y781D01*
X0Y780D02*
X7Y780D01*
X5897Y780D02*
X5904Y780D01*
X0Y779D02*
X7Y779D01*
X5897Y779D02*
X5904Y779D01*
X0Y778D02*
X7Y778D01*
X5897Y778D02*
X5904Y778D01*
X0Y777D02*
X7Y777D01*
X5897Y777D02*
X5904Y777D01*
X0Y776D02*
X7Y776D01*
X5897Y776D02*
X5904Y776D01*
X0Y775D02*
X7Y775D01*
X5897Y775D02*
X5904Y775D01*
X0Y774D02*
X7Y774D01*
X5897Y774D02*
X5904Y774D01*
X0Y773D02*
X7Y773D01*
X5897Y773D02*
X5904Y773D01*
X0Y772D02*
X7Y772D01*
X5897Y772D02*
X5904Y772D01*
X0Y771D02*
X7Y771D01*
X5897Y771D02*
X5904Y771D01*
X0Y770D02*
X7Y770D01*
X5897Y770D02*
X5904Y770D01*
X0Y769D02*
X7Y769D01*
X5897Y769D02*
X5904Y769D01*
X0Y768D02*
X7Y768D01*
X5897Y768D02*
X5904Y768D01*
X0Y767D02*
X7Y767D01*
X5897Y767D02*
X5904Y767D01*
X0Y766D02*
X7Y766D01*
X5897Y766D02*
X5904Y766D01*
X0Y765D02*
X7Y765D01*
X5897Y765D02*
X5904Y765D01*
X0Y764D02*
X7Y764D01*
X5897Y764D02*
X5904Y764D01*
X0Y763D02*
X7Y763D01*
X5897Y763D02*
X5904Y763D01*
X0Y762D02*
X7Y762D01*
X5897Y762D02*
X5904Y762D01*
X0Y761D02*
X7Y761D01*
X5897Y761D02*
X5904Y761D01*
X0Y760D02*
X7Y760D01*
X5897Y760D02*
X5904Y760D01*
X0Y759D02*
X7Y759D01*
X5897Y759D02*
X5904Y759D01*
X0Y758D02*
X7Y758D01*
X5897Y758D02*
X5904Y758D01*
X0Y757D02*
X7Y757D01*
X5897Y757D02*
X5904Y757D01*
X0Y756D02*
X7Y756D01*
X5897Y756D02*
X5904Y756D01*
X0Y755D02*
X7Y755D01*
X5897Y755D02*
X5904Y755D01*
X0Y754D02*
X7Y754D01*
X5897Y754D02*
X5904Y754D01*
X0Y753D02*
X7Y753D01*
X5897Y753D02*
X5904Y753D01*
X0Y752D02*
X7Y752D01*
X5897Y752D02*
X5904Y752D01*
X0Y751D02*
X7Y751D01*
X5897Y751D02*
X5904Y751D01*
X0Y750D02*
X7Y750D01*
X5897Y750D02*
X5904Y750D01*
X0Y749D02*
X7Y749D01*
X5897Y749D02*
X5904Y749D01*
X0Y748D02*
X7Y748D01*
X5897Y748D02*
X5904Y748D01*
X0Y747D02*
X7Y747D01*
X5897Y747D02*
X5904Y747D01*
X0Y746D02*
X7Y746D01*
X5897Y746D02*
X5904Y746D01*
X0Y745D02*
X7Y745D01*
X5897Y745D02*
X5904Y745D01*
X0Y744D02*
X7Y744D01*
X5897Y744D02*
X5904Y744D01*
X0Y743D02*
X7Y743D01*
X5897Y743D02*
X5904Y743D01*
X0Y742D02*
X7Y742D01*
X5897Y742D02*
X5904Y742D01*
X0Y741D02*
X7Y741D01*
X5897Y741D02*
X5904Y741D01*
X0Y740D02*
X7Y740D01*
X5897Y740D02*
X5904Y740D01*
X0Y739D02*
X7Y739D01*
X5897Y739D02*
X5904Y739D01*
X0Y738D02*
X7Y738D01*
X5897Y738D02*
X5904Y738D01*
X0Y737D02*
X7Y737D01*
X5897Y737D02*
X5904Y737D01*
X0Y736D02*
X7Y736D01*
X5897Y736D02*
X5904Y736D01*
X0Y735D02*
X7Y735D01*
X5897Y735D02*
X5904Y735D01*
X0Y734D02*
X7Y734D01*
X5897Y734D02*
X5904Y734D01*
X0Y733D02*
X7Y733D01*
X5897Y733D02*
X5904Y733D01*
X0Y732D02*
X7Y732D01*
X5897Y732D02*
X5904Y732D01*
X0Y731D02*
X7Y731D01*
X5897Y731D02*
X5904Y731D01*
X0Y730D02*
X7Y730D01*
X5897Y730D02*
X5904Y730D01*
X0Y729D02*
X7Y729D01*
X5897Y729D02*
X5904Y729D01*
X0Y728D02*
X7Y728D01*
X5897Y728D02*
X5904Y728D01*
X0Y727D02*
X7Y727D01*
X5897Y727D02*
X5904Y727D01*
X0Y726D02*
X7Y726D01*
X5897Y726D02*
X5904Y726D01*
X0Y725D02*
X7Y725D01*
X5897Y725D02*
X5904Y725D01*
X0Y724D02*
X7Y724D01*
X5897Y724D02*
X5904Y724D01*
X0Y723D02*
X7Y723D01*
X5897Y723D02*
X5904Y723D01*
X0Y722D02*
X7Y722D01*
X5897Y722D02*
X5904Y722D01*
X0Y721D02*
X7Y721D01*
X5897Y721D02*
X5904Y721D01*
X0Y720D02*
X7Y720D01*
X5897Y720D02*
X5904Y720D01*
X0Y719D02*
X7Y719D01*
X5897Y719D02*
X5904Y719D01*
X0Y718D02*
X7Y718D01*
X5897Y718D02*
X5904Y718D01*
X0Y717D02*
X7Y717D01*
X5897Y717D02*
X5904Y717D01*
X0Y716D02*
X7Y716D01*
X5897Y716D02*
X5904Y716D01*
X0Y715D02*
X7Y715D01*
X5897Y715D02*
X5904Y715D01*
X0Y714D02*
X7Y714D01*
X5897Y714D02*
X5904Y714D01*
X0Y713D02*
X7Y713D01*
X5897Y713D02*
X5904Y713D01*
X0Y712D02*
X7Y712D01*
X5897Y712D02*
X5904Y712D01*
X0Y711D02*
X7Y711D01*
X5897Y711D02*
X5904Y711D01*
X0Y710D02*
X7Y710D01*
X5897Y710D02*
X5904Y710D01*
X0Y709D02*
X7Y709D01*
X5897Y709D02*
X5904Y709D01*
X0Y708D02*
X7Y708D01*
X5897Y708D02*
X5904Y708D01*
X0Y707D02*
X7Y707D01*
X5897Y707D02*
X5904Y707D01*
X0Y706D02*
X7Y706D01*
X5897Y706D02*
X5904Y706D01*
X0Y705D02*
X7Y705D01*
X5897Y705D02*
X5904Y705D01*
X0Y704D02*
X7Y704D01*
X5897Y704D02*
X5904Y704D01*
X0Y703D02*
X7Y703D01*
X5897Y703D02*
X5904Y703D01*
X0Y702D02*
X7Y702D01*
X5897Y702D02*
X5904Y702D01*
X0Y701D02*
X7Y701D01*
X5897Y701D02*
X5904Y701D01*
X0Y700D02*
X7Y700D01*
X5897Y700D02*
X5904Y700D01*
X0Y699D02*
X7Y699D01*
X5897Y699D02*
X5904Y699D01*
X0Y698D02*
X7Y698D01*
X5897Y698D02*
X5904Y698D01*
X0Y697D02*
X7Y697D01*
X5897Y697D02*
X5904Y697D01*
X0Y696D02*
X7Y696D01*
X5897Y696D02*
X5904Y696D01*
X0Y695D02*
X7Y695D01*
X5897Y695D02*
X5904Y695D01*
X0Y694D02*
X7Y694D01*
X5897Y694D02*
X5904Y694D01*
X0Y693D02*
X7Y693D01*
X5897Y693D02*
X5904Y693D01*
X0Y692D02*
X7Y692D01*
X5897Y692D02*
X5904Y692D01*
X0Y691D02*
X7Y691D01*
X5897Y691D02*
X5904Y691D01*
X0Y690D02*
X7Y690D01*
X5897Y690D02*
X5904Y690D01*
X0Y689D02*
X7Y689D01*
X5897Y689D02*
X5904Y689D01*
X0Y688D02*
X7Y688D01*
X5897Y688D02*
X5904Y688D01*
X0Y687D02*
X7Y687D01*
X5897Y687D02*
X5904Y687D01*
X0Y686D02*
X7Y686D01*
X5897Y686D02*
X5904Y686D01*
X0Y685D02*
X7Y685D01*
X5897Y685D02*
X5904Y685D01*
X0Y684D02*
X7Y684D01*
X5897Y684D02*
X5904Y684D01*
X0Y683D02*
X7Y683D01*
X5897Y683D02*
X5904Y683D01*
X0Y682D02*
X7Y682D01*
X5897Y682D02*
X5904Y682D01*
X0Y681D02*
X7Y681D01*
X5897Y681D02*
X5904Y681D01*
X0Y680D02*
X7Y680D01*
X5897Y680D02*
X5904Y680D01*
X0Y679D02*
X7Y679D01*
X5897Y679D02*
X5904Y679D01*
X0Y678D02*
X7Y678D01*
X5897Y678D02*
X5904Y678D01*
X0Y677D02*
X7Y677D01*
X5897Y677D02*
X5904Y677D01*
X0Y676D02*
X7Y676D01*
X5897Y676D02*
X5904Y676D01*
X0Y675D02*
X7Y675D01*
X5897Y675D02*
X5904Y675D01*
X0Y674D02*
X7Y674D01*
X5897Y674D02*
X5904Y674D01*
X0Y673D02*
X7Y673D01*
X5897Y673D02*
X5904Y673D01*
X0Y672D02*
X7Y672D01*
X5897Y672D02*
X5904Y672D01*
X0Y671D02*
X7Y671D01*
X5897Y671D02*
X5904Y671D01*
X0Y670D02*
X7Y670D01*
X5897Y670D02*
X5904Y670D01*
X0Y669D02*
X7Y669D01*
X5897Y669D02*
X5904Y669D01*
X0Y668D02*
X7Y668D01*
X5897Y668D02*
X5904Y668D01*
X0Y667D02*
X7Y667D01*
X5897Y667D02*
X5904Y667D01*
X0Y666D02*
X7Y666D01*
X5897Y666D02*
X5904Y666D01*
X0Y665D02*
X7Y665D01*
X5897Y665D02*
X5904Y665D01*
X0Y664D02*
X7Y664D01*
X5897Y664D02*
X5904Y664D01*
X0Y663D02*
X7Y663D01*
X5897Y663D02*
X5904Y663D01*
X0Y662D02*
X7Y662D01*
X5897Y662D02*
X5904Y662D01*
X0Y661D02*
X7Y661D01*
X5897Y661D02*
X5904Y661D01*
X0Y660D02*
X7Y660D01*
X5897Y660D02*
X5904Y660D01*
X0Y659D02*
X7Y659D01*
X5897Y659D02*
X5904Y659D01*
X0Y658D02*
X7Y658D01*
X5897Y658D02*
X5904Y658D01*
X0Y657D02*
X7Y657D01*
X5897Y657D02*
X5904Y657D01*
X0Y656D02*
X7Y656D01*
X5897Y656D02*
X5904Y656D01*
X0Y655D02*
X7Y655D01*
X5897Y655D02*
X5904Y655D01*
X0Y654D02*
X7Y654D01*
X5897Y654D02*
X5904Y654D01*
X0Y653D02*
X7Y653D01*
X5897Y653D02*
X5904Y653D01*
X0Y652D02*
X7Y652D01*
X5897Y652D02*
X5904Y652D01*
X0Y651D02*
X7Y651D01*
X5897Y651D02*
X5904Y651D01*
X0Y650D02*
X7Y650D01*
X5897Y650D02*
X5904Y650D01*
X0Y649D02*
X7Y649D01*
X5897Y649D02*
X5904Y649D01*
X0Y648D02*
X7Y648D01*
X5897Y648D02*
X5904Y648D01*
X0Y647D02*
X7Y647D01*
X5897Y647D02*
X5904Y647D01*
X0Y646D02*
X7Y646D01*
X5897Y646D02*
X5904Y646D01*
X0Y645D02*
X7Y645D01*
X5897Y645D02*
X5904Y645D01*
X0Y644D02*
X7Y644D01*
X5897Y644D02*
X5904Y644D01*
X0Y643D02*
X7Y643D01*
X5897Y643D02*
X5904Y643D01*
X0Y642D02*
X7Y642D01*
X5897Y642D02*
X5904Y642D01*
X0Y641D02*
X7Y641D01*
X5897Y641D02*
X5904Y641D01*
X0Y640D02*
X7Y640D01*
X5897Y640D02*
X5904Y640D01*
X0Y639D02*
X7Y639D01*
X5897Y639D02*
X5904Y639D01*
X0Y638D02*
X7Y638D01*
X5897Y638D02*
X5904Y638D01*
X0Y637D02*
X7Y637D01*
X5897Y637D02*
X5904Y637D01*
X0Y636D02*
X7Y636D01*
X5897Y636D02*
X5904Y636D01*
X0Y635D02*
X7Y635D01*
X5897Y635D02*
X5904Y635D01*
X0Y634D02*
X7Y634D01*
X5897Y634D02*
X5904Y634D01*
X0Y633D02*
X7Y633D01*
X5897Y633D02*
X5904Y633D01*
X0Y632D02*
X7Y632D01*
X5897Y632D02*
X5904Y632D01*
X0Y631D02*
X7Y631D01*
X5897Y631D02*
X5904Y631D01*
X0Y630D02*
X7Y630D01*
X5897Y630D02*
X5904Y630D01*
X0Y629D02*
X7Y629D01*
X5897Y629D02*
X5904Y629D01*
X0Y628D02*
X7Y628D01*
X5897Y628D02*
X5904Y628D01*
X0Y627D02*
X7Y627D01*
X5897Y627D02*
X5904Y627D01*
X0Y626D02*
X7Y626D01*
X5897Y626D02*
X5904Y626D01*
X0Y625D02*
X7Y625D01*
X5897Y625D02*
X5904Y625D01*
X0Y624D02*
X7Y624D01*
X5897Y624D02*
X5904Y624D01*
X0Y623D02*
X7Y623D01*
X5897Y623D02*
X5904Y623D01*
X0Y622D02*
X7Y622D01*
X5897Y622D02*
X5904Y622D01*
X0Y621D02*
X7Y621D01*
X5897Y621D02*
X5904Y621D01*
X0Y620D02*
X7Y620D01*
X5897Y620D02*
X5904Y620D01*
X0Y619D02*
X7Y619D01*
X5897Y619D02*
X5904Y619D01*
X0Y618D02*
X7Y618D01*
X5897Y618D02*
X5904Y618D01*
X0Y617D02*
X7Y617D01*
X5897Y617D02*
X5904Y617D01*
X0Y616D02*
X7Y616D01*
X5897Y616D02*
X5904Y616D01*
X0Y615D02*
X7Y615D01*
X5897Y615D02*
X5904Y615D01*
X0Y614D02*
X7Y614D01*
X5897Y614D02*
X5904Y614D01*
X0Y613D02*
X7Y613D01*
X5897Y613D02*
X5904Y613D01*
X0Y612D02*
X7Y612D01*
X5897Y612D02*
X5904Y612D01*
X0Y611D02*
X7Y611D01*
X5897Y611D02*
X5904Y611D01*
X0Y610D02*
X7Y610D01*
X5897Y610D02*
X5904Y610D01*
X0Y609D02*
X7Y609D01*
X5897Y609D02*
X5904Y609D01*
X0Y608D02*
X7Y608D01*
X5897Y608D02*
X5904Y608D01*
X0Y607D02*
X7Y607D01*
X5897Y607D02*
X5904Y607D01*
X0Y606D02*
X7Y606D01*
X5897Y606D02*
X5904Y606D01*
X0Y605D02*
X7Y605D01*
X5897Y605D02*
X5904Y605D01*
X0Y604D02*
X7Y604D01*
X5897Y604D02*
X5904Y604D01*
X0Y603D02*
X7Y603D01*
X5897Y603D02*
X5904Y603D01*
X0Y602D02*
X7Y602D01*
X5897Y602D02*
X5904Y602D01*
X0Y601D02*
X7Y601D01*
X5897Y601D02*
X5904Y601D01*
X0Y600D02*
X7Y600D01*
X5897Y600D02*
X5904Y600D01*
X0Y599D02*
X7Y599D01*
X5897Y599D02*
X5904Y599D01*
X0Y598D02*
X7Y598D01*
X5897Y598D02*
X5904Y598D01*
X0Y597D02*
X7Y597D01*
X5897Y597D02*
X5904Y597D01*
X0Y596D02*
X7Y596D01*
X5897Y596D02*
X5904Y596D01*
X0Y595D02*
X7Y595D01*
X5897Y595D02*
X5904Y595D01*
X0Y594D02*
X7Y594D01*
X5897Y594D02*
X5904Y594D01*
X0Y593D02*
X7Y593D01*
X5897Y593D02*
X5904Y593D01*
X0Y592D02*
X7Y592D01*
X5897Y592D02*
X5904Y592D01*
X0Y591D02*
X7Y591D01*
X5897Y591D02*
X5904Y591D01*
X0Y590D02*
X7Y590D01*
X5897Y590D02*
X5904Y590D01*
X0Y589D02*
X7Y589D01*
X5897Y589D02*
X5904Y589D01*
X0Y588D02*
X7Y588D01*
X5897Y588D02*
X5904Y588D01*
X0Y587D02*
X7Y587D01*
X5897Y587D02*
X5904Y587D01*
X0Y586D02*
X7Y586D01*
X5897Y586D02*
X5904Y586D01*
X0Y585D02*
X7Y585D01*
X5897Y585D02*
X5904Y585D01*
X0Y584D02*
X7Y584D01*
X5897Y584D02*
X5904Y584D01*
X0Y583D02*
X7Y583D01*
X5897Y583D02*
X5904Y583D01*
X0Y582D02*
X7Y582D01*
X5897Y582D02*
X5904Y582D01*
X0Y581D02*
X7Y581D01*
X5897Y581D02*
X5904Y581D01*
X0Y580D02*
X7Y580D01*
X5897Y580D02*
X5904Y580D01*
X0Y579D02*
X7Y579D01*
X5897Y579D02*
X5904Y579D01*
X0Y578D02*
X7Y578D01*
X5897Y578D02*
X5904Y578D01*
X0Y577D02*
X7Y577D01*
X5897Y577D02*
X5904Y577D01*
X0Y576D02*
X7Y576D01*
X5897Y576D02*
X5904Y576D01*
X0Y575D02*
X7Y575D01*
X5897Y575D02*
X5904Y575D01*
X0Y574D02*
X7Y574D01*
X5897Y574D02*
X5904Y574D01*
X0Y573D02*
X7Y573D01*
X5897Y573D02*
X5904Y573D01*
X0Y572D02*
X7Y572D01*
X5897Y572D02*
X5904Y572D01*
X0Y571D02*
X7Y571D01*
X5897Y571D02*
X5904Y571D01*
X0Y570D02*
X7Y570D01*
X5897Y570D02*
X5904Y570D01*
X0Y569D02*
X7Y569D01*
X5897Y569D02*
X5904Y569D01*
X0Y568D02*
X7Y568D01*
X5897Y568D02*
X5904Y568D01*
X0Y567D02*
X7Y567D01*
X5897Y567D02*
X5904Y567D01*
X0Y566D02*
X7Y566D01*
X5897Y566D02*
X5904Y566D01*
X0Y565D02*
X7Y565D01*
X5897Y565D02*
X5904Y565D01*
X0Y564D02*
X7Y564D01*
X5897Y564D02*
X5904Y564D01*
X0Y563D02*
X7Y563D01*
X5897Y563D02*
X5904Y563D01*
X0Y562D02*
X7Y562D01*
X5897Y562D02*
X5904Y562D01*
X0Y561D02*
X7Y561D01*
X5897Y561D02*
X5904Y561D01*
X0Y560D02*
X7Y560D01*
X5897Y560D02*
X5904Y560D01*
X0Y559D02*
X7Y559D01*
X5897Y559D02*
X5904Y559D01*
X0Y558D02*
X7Y558D01*
X5897Y558D02*
X5904Y558D01*
X0Y557D02*
X7Y557D01*
X5897Y557D02*
X5904Y557D01*
X0Y556D02*
X7Y556D01*
X5897Y556D02*
X5904Y556D01*
X0Y555D02*
X7Y555D01*
X5897Y555D02*
X5904Y555D01*
X0Y554D02*
X7Y554D01*
X5897Y554D02*
X5904Y554D01*
X0Y553D02*
X7Y553D01*
X5897Y553D02*
X5904Y553D01*
X0Y552D02*
X7Y552D01*
X5897Y552D02*
X5904Y552D01*
X0Y551D02*
X7Y551D01*
X5897Y551D02*
X5904Y551D01*
X0Y550D02*
X7Y550D01*
X5897Y550D02*
X5904Y550D01*
X0Y549D02*
X7Y549D01*
X5897Y549D02*
X5904Y549D01*
X0Y548D02*
X7Y548D01*
X5897Y548D02*
X5904Y548D01*
X0Y547D02*
X7Y547D01*
X5897Y547D02*
X5904Y547D01*
X0Y546D02*
X7Y546D01*
X5897Y546D02*
X5904Y546D01*
X0Y545D02*
X7Y545D01*
X5897Y545D02*
X5904Y545D01*
X0Y544D02*
X7Y544D01*
X5897Y544D02*
X5904Y544D01*
X0Y543D02*
X7Y543D01*
X5897Y543D02*
X5904Y543D01*
X0Y542D02*
X7Y542D01*
X5897Y542D02*
X5904Y542D01*
X0Y541D02*
X7Y541D01*
X5897Y541D02*
X5904Y541D01*
X0Y540D02*
X7Y540D01*
X5897Y540D02*
X5904Y540D01*
X0Y539D02*
X7Y539D01*
X5897Y539D02*
X5904Y539D01*
X0Y538D02*
X7Y538D01*
X5897Y538D02*
X5904Y538D01*
X0Y537D02*
X7Y537D01*
X5897Y537D02*
X5904Y537D01*
X0Y536D02*
X7Y536D01*
X5897Y536D02*
X5904Y536D01*
X0Y535D02*
X7Y535D01*
X5897Y535D02*
X5904Y535D01*
X0Y534D02*
X7Y534D01*
X5897Y534D02*
X5904Y534D01*
X0Y533D02*
X7Y533D01*
X5897Y533D02*
X5904Y533D01*
X0Y532D02*
X7Y532D01*
X5897Y532D02*
X5904Y532D01*
X0Y531D02*
X7Y531D01*
X5897Y531D02*
X5904Y531D01*
X0Y530D02*
X7Y530D01*
X5897Y530D02*
X5904Y530D01*
X0Y529D02*
X7Y529D01*
X5897Y529D02*
X5904Y529D01*
X0Y528D02*
X7Y528D01*
X5897Y528D02*
X5904Y528D01*
X0Y527D02*
X7Y527D01*
X5897Y527D02*
X5904Y527D01*
X0Y526D02*
X7Y526D01*
X5897Y526D02*
X5904Y526D01*
X0Y525D02*
X7Y525D01*
X5897Y525D02*
X5904Y525D01*
X0Y524D02*
X7Y524D01*
X5897Y524D02*
X5904Y524D01*
X0Y523D02*
X7Y523D01*
X5897Y523D02*
X5904Y523D01*
X0Y522D02*
X7Y522D01*
X5897Y522D02*
X5904Y522D01*
X0Y521D02*
X7Y521D01*
X5897Y521D02*
X5904Y521D01*
X0Y520D02*
X7Y520D01*
X5897Y520D02*
X5904Y520D01*
X0Y519D02*
X7Y519D01*
X5897Y519D02*
X5904Y519D01*
X0Y518D02*
X7Y518D01*
X5897Y518D02*
X5904Y518D01*
X0Y517D02*
X7Y517D01*
X5897Y517D02*
X5904Y517D01*
X0Y516D02*
X7Y516D01*
X5897Y516D02*
X5904Y516D01*
X0Y515D02*
X7Y515D01*
X5897Y515D02*
X5904Y515D01*
X0Y514D02*
X7Y514D01*
X5897Y514D02*
X5904Y514D01*
X0Y513D02*
X7Y513D01*
X5897Y513D02*
X5904Y513D01*
X0Y512D02*
X7Y512D01*
X5897Y512D02*
X5904Y512D01*
X0Y511D02*
X7Y511D01*
X5897Y511D02*
X5904Y511D01*
X0Y510D02*
X7Y510D01*
X5897Y510D02*
X5904Y510D01*
X0Y509D02*
X7Y509D01*
X5897Y509D02*
X5904Y509D01*
X0Y508D02*
X7Y508D01*
X5897Y508D02*
X5904Y508D01*
X0Y507D02*
X7Y507D01*
X5897Y507D02*
X5904Y507D01*
X0Y506D02*
X7Y506D01*
X5897Y506D02*
X5904Y506D01*
X0Y505D02*
X7Y505D01*
X5897Y505D02*
X5904Y505D01*
X0Y504D02*
X7Y504D01*
X5897Y504D02*
X5904Y504D01*
X0Y503D02*
X7Y503D01*
X5897Y503D02*
X5904Y503D01*
X0Y502D02*
X7Y502D01*
X5897Y502D02*
X5904Y502D01*
X0Y501D02*
X7Y501D01*
X5897Y501D02*
X5904Y501D01*
X0Y500D02*
X7Y500D01*
X5897Y500D02*
X5904Y500D01*
X0Y499D02*
X7Y499D01*
X5897Y499D02*
X5904Y499D01*
X0Y498D02*
X7Y498D01*
X5897Y498D02*
X5904Y498D01*
X0Y497D02*
X7Y497D01*
X5897Y497D02*
X5904Y497D01*
X0Y496D02*
X7Y496D01*
X5897Y496D02*
X5904Y496D01*
X0Y495D02*
X7Y495D01*
X5897Y495D02*
X5904Y495D01*
X0Y494D02*
X7Y494D01*
X5897Y494D02*
X5904Y494D01*
X0Y493D02*
X7Y493D01*
X5897Y493D02*
X5904Y493D01*
X0Y492D02*
X7Y492D01*
X5897Y492D02*
X5904Y492D01*
X0Y491D02*
X7Y491D01*
X5897Y491D02*
X5904Y491D01*
X0Y490D02*
X7Y490D01*
X5897Y490D02*
X5904Y490D01*
X0Y489D02*
X7Y489D01*
X5897Y489D02*
X5904Y489D01*
X0Y488D02*
X7Y488D01*
X5897Y488D02*
X5904Y488D01*
X0Y487D02*
X7Y487D01*
X5897Y487D02*
X5904Y487D01*
X0Y486D02*
X7Y486D01*
X5897Y486D02*
X5904Y486D01*
X0Y485D02*
X7Y485D01*
X5897Y485D02*
X5904Y485D01*
X0Y484D02*
X7Y484D01*
X5897Y484D02*
X5904Y484D01*
X0Y483D02*
X7Y483D01*
X5897Y483D02*
X5904Y483D01*
X0Y482D02*
X7Y482D01*
X5897Y482D02*
X5904Y482D01*
X0Y481D02*
X7Y481D01*
X5897Y481D02*
X5904Y481D01*
X0Y480D02*
X7Y480D01*
X5897Y480D02*
X5904Y480D01*
X0Y479D02*
X7Y479D01*
X5897Y479D02*
X5904Y479D01*
X0Y478D02*
X7Y478D01*
X5897Y478D02*
X5904Y478D01*
X0Y477D02*
X7Y477D01*
X5897Y477D02*
X5904Y477D01*
X0Y476D02*
X7Y476D01*
X5897Y476D02*
X5904Y476D01*
X0Y475D02*
X7Y475D01*
X5897Y475D02*
X5904Y475D01*
X0Y474D02*
X7Y474D01*
X5897Y474D02*
X5904Y474D01*
X0Y473D02*
X7Y473D01*
X5897Y473D02*
X5904Y473D01*
X0Y472D02*
X7Y472D01*
X5897Y472D02*
X5904Y472D01*
X0Y471D02*
X7Y471D01*
X5897Y471D02*
X5904Y471D01*
X0Y470D02*
X7Y470D01*
X5897Y470D02*
X5904Y470D01*
X0Y469D02*
X7Y469D01*
X5897Y469D02*
X5904Y469D01*
X0Y468D02*
X7Y468D01*
X5897Y468D02*
X5904Y468D01*
X0Y467D02*
X7Y467D01*
X5897Y467D02*
X5904Y467D01*
X0Y466D02*
X7Y466D01*
X5897Y466D02*
X5904Y466D01*
X0Y465D02*
X7Y465D01*
X5897Y465D02*
X5904Y465D01*
X0Y464D02*
X7Y464D01*
X5897Y464D02*
X5904Y464D01*
X0Y463D02*
X7Y463D01*
X5897Y463D02*
X5904Y463D01*
X0Y462D02*
X7Y462D01*
X5897Y462D02*
X5904Y462D01*
X0Y461D02*
X7Y461D01*
X5897Y461D02*
X5904Y461D01*
X0Y460D02*
X7Y460D01*
X5897Y460D02*
X5904Y460D01*
X0Y459D02*
X7Y459D01*
X5897Y459D02*
X5904Y459D01*
X0Y458D02*
X7Y458D01*
X5897Y458D02*
X5904Y458D01*
X0Y457D02*
X7Y457D01*
X5897Y457D02*
X5904Y457D01*
X0Y456D02*
X7Y456D01*
X5897Y456D02*
X5904Y456D01*
X0Y455D02*
X7Y455D01*
X5897Y455D02*
X5904Y455D01*
X0Y454D02*
X7Y454D01*
X5897Y454D02*
X5904Y454D01*
X0Y453D02*
X7Y453D01*
X5897Y453D02*
X5904Y453D01*
X0Y452D02*
X7Y452D01*
X5897Y452D02*
X5904Y452D01*
X0Y451D02*
X7Y451D01*
X5897Y451D02*
X5904Y451D01*
X0Y450D02*
X7Y450D01*
X5897Y450D02*
X5904Y450D01*
X0Y449D02*
X7Y449D01*
X5897Y449D02*
X5904Y449D01*
X0Y448D02*
X7Y448D01*
X5897Y448D02*
X5904Y448D01*
X0Y447D02*
X7Y447D01*
X5897Y447D02*
X5904Y447D01*
X0Y446D02*
X7Y446D01*
X5897Y446D02*
X5904Y446D01*
X0Y445D02*
X7Y445D01*
X5897Y445D02*
X5904Y445D01*
X0Y444D02*
X7Y444D01*
X5897Y444D02*
X5904Y444D01*
X0Y443D02*
X7Y443D01*
X5897Y443D02*
X5904Y443D01*
X0Y442D02*
X7Y442D01*
X5897Y442D02*
X5904Y442D01*
X0Y441D02*
X7Y441D01*
X5897Y441D02*
X5904Y441D01*
X0Y440D02*
X7Y440D01*
X5897Y440D02*
X5904Y440D01*
X0Y439D02*
X7Y439D01*
X5897Y439D02*
X5904Y439D01*
X0Y438D02*
X7Y438D01*
X5897Y438D02*
X5904Y438D01*
X0Y437D02*
X7Y437D01*
X5897Y437D02*
X5904Y437D01*
X0Y436D02*
X7Y436D01*
X5897Y436D02*
X5904Y436D01*
X0Y435D02*
X7Y435D01*
X5897Y435D02*
X5904Y435D01*
X0Y434D02*
X7Y434D01*
X5897Y434D02*
X5904Y434D01*
X0Y433D02*
X7Y433D01*
X5897Y433D02*
X5904Y433D01*
X0Y432D02*
X7Y432D01*
X5897Y432D02*
X5904Y432D01*
X0Y431D02*
X7Y431D01*
X5897Y431D02*
X5904Y431D01*
X0Y430D02*
X7Y430D01*
X5897Y430D02*
X5904Y430D01*
X0Y429D02*
X7Y429D01*
X5897Y429D02*
X5904Y429D01*
X0Y428D02*
X7Y428D01*
X5897Y428D02*
X5904Y428D01*
X0Y427D02*
X7Y427D01*
X5897Y427D02*
X5904Y427D01*
X0Y426D02*
X7Y426D01*
X5897Y426D02*
X5904Y426D01*
X0Y425D02*
X7Y425D01*
X5897Y425D02*
X5904Y425D01*
X0Y424D02*
X7Y424D01*
X5897Y424D02*
X5904Y424D01*
X0Y423D02*
X7Y423D01*
X5897Y423D02*
X5904Y423D01*
X0Y422D02*
X7Y422D01*
X5897Y422D02*
X5904Y422D01*
X0Y421D02*
X7Y421D01*
X5897Y421D02*
X5904Y421D01*
X0Y420D02*
X7Y420D01*
X5897Y420D02*
X5904Y420D01*
X0Y419D02*
X7Y419D01*
X5897Y419D02*
X5904Y419D01*
X0Y418D02*
X7Y418D01*
X5897Y418D02*
X5904Y418D01*
X0Y417D02*
X7Y417D01*
X5897Y417D02*
X5904Y417D01*
X0Y416D02*
X7Y416D01*
X5897Y416D02*
X5904Y416D01*
X0Y415D02*
X7Y415D01*
X5897Y415D02*
X5904Y415D01*
X0Y414D02*
X7Y414D01*
X5897Y414D02*
X5904Y414D01*
X0Y413D02*
X7Y413D01*
X5897Y413D02*
X5904Y413D01*
X0Y412D02*
X7Y412D01*
X5897Y412D02*
X5904Y412D01*
X0Y411D02*
X7Y411D01*
X5897Y411D02*
X5904Y411D01*
X0Y410D02*
X7Y410D01*
X5897Y410D02*
X5904Y410D01*
X0Y409D02*
X7Y409D01*
X5897Y409D02*
X5904Y409D01*
X0Y408D02*
X7Y408D01*
X5897Y408D02*
X5904Y408D01*
X0Y407D02*
X7Y407D01*
X5897Y407D02*
X5904Y407D01*
X0Y406D02*
X7Y406D01*
X5897Y406D02*
X5904Y406D01*
X0Y405D02*
X7Y405D01*
X5897Y405D02*
X5904Y405D01*
X0Y404D02*
X7Y404D01*
X5897Y404D02*
X5904Y404D01*
X0Y403D02*
X7Y403D01*
X5897Y403D02*
X5904Y403D01*
X0Y402D02*
X7Y402D01*
X5897Y402D02*
X5904Y402D01*
X0Y401D02*
X7Y401D01*
X5897Y401D02*
X5904Y401D01*
X0Y400D02*
X7Y400D01*
X5897Y400D02*
X5904Y400D01*
X0Y399D02*
X7Y399D01*
X5897Y399D02*
X5904Y399D01*
X0Y398D02*
X7Y398D01*
X5897Y398D02*
X5904Y398D01*
X0Y397D02*
X7Y397D01*
X5897Y397D02*
X5904Y397D01*
X0Y396D02*
X7Y396D01*
X5897Y396D02*
X5904Y396D01*
X0Y395D02*
X7Y395D01*
X5897Y395D02*
X5904Y395D01*
X0Y394D02*
X7Y394D01*
X5897Y394D02*
X5904Y394D01*
X0Y393D02*
X7Y393D01*
X5897Y393D02*
X5904Y393D01*
X0Y392D02*
X7Y392D01*
X5897Y392D02*
X5904Y392D01*
X0Y391D02*
X7Y391D01*
X5897Y391D02*
X5904Y391D01*
X0Y390D02*
X7Y390D01*
X5897Y390D02*
X5904Y390D01*
X0Y389D02*
X7Y389D01*
X5897Y389D02*
X5904Y389D01*
X0Y388D02*
X7Y388D01*
X5897Y388D02*
X5904Y388D01*
X0Y387D02*
X7Y387D01*
X5897Y387D02*
X5904Y387D01*
X0Y386D02*
X7Y386D01*
X5897Y386D02*
X5904Y386D01*
X0Y385D02*
X7Y385D01*
X5897Y385D02*
X5904Y385D01*
X0Y384D02*
X7Y384D01*
X5897Y384D02*
X5904Y384D01*
X0Y383D02*
X7Y383D01*
X5897Y383D02*
X5904Y383D01*
X0Y382D02*
X7Y382D01*
X5897Y382D02*
X5904Y382D01*
X0Y381D02*
X7Y381D01*
X5897Y381D02*
X5904Y381D01*
X0Y380D02*
X7Y380D01*
X5897Y380D02*
X5904Y380D01*
X0Y379D02*
X7Y379D01*
X5897Y379D02*
X5904Y379D01*
X0Y378D02*
X7Y378D01*
X5897Y378D02*
X5904Y378D01*
X0Y377D02*
X7Y377D01*
X5897Y377D02*
X5904Y377D01*
X0Y376D02*
X7Y376D01*
X5897Y376D02*
X5904Y376D01*
X0Y375D02*
X7Y375D01*
X5897Y375D02*
X5904Y375D01*
X0Y374D02*
X7Y374D01*
X5897Y374D02*
X5904Y374D01*
X0Y373D02*
X7Y373D01*
X5897Y373D02*
X5904Y373D01*
X0Y372D02*
X7Y372D01*
X5897Y372D02*
X5904Y372D01*
X0Y371D02*
X7Y371D01*
X5897Y371D02*
X5904Y371D01*
X0Y370D02*
X7Y370D01*
X5897Y370D02*
X5904Y370D01*
X0Y369D02*
X7Y369D01*
X5897Y369D02*
X5904Y369D01*
X0Y368D02*
X7Y368D01*
X5897Y368D02*
X5904Y368D01*
X0Y367D02*
X7Y367D01*
X5897Y367D02*
X5904Y367D01*
X0Y366D02*
X7Y366D01*
X5897Y366D02*
X5904Y366D01*
X0Y365D02*
X7Y365D01*
X5897Y365D02*
X5904Y365D01*
X0Y364D02*
X7Y364D01*
X5897Y364D02*
X5904Y364D01*
X0Y363D02*
X7Y363D01*
X5897Y363D02*
X5904Y363D01*
X0Y362D02*
X7Y362D01*
X5897Y362D02*
X5904Y362D01*
X0Y361D02*
X7Y361D01*
X5897Y361D02*
X5904Y361D01*
X0Y360D02*
X7Y360D01*
X5897Y360D02*
X5904Y360D01*
X0Y359D02*
X7Y359D01*
X5897Y359D02*
X5904Y359D01*
X0Y358D02*
X7Y358D01*
X5897Y358D02*
X5904Y358D01*
X0Y357D02*
X7Y357D01*
X5897Y357D02*
X5904Y357D01*
X0Y356D02*
X7Y356D01*
X5897Y356D02*
X5904Y356D01*
X0Y355D02*
X7Y355D01*
X5897Y355D02*
X5904Y355D01*
X0Y354D02*
X7Y354D01*
X5897Y354D02*
X5904Y354D01*
X0Y353D02*
X7Y353D01*
X5897Y353D02*
X5904Y353D01*
X0Y352D02*
X7Y352D01*
X5897Y352D02*
X5904Y352D01*
X0Y351D02*
X7Y351D01*
X5897Y351D02*
X5904Y351D01*
X0Y350D02*
X7Y350D01*
X5897Y350D02*
X5904Y350D01*
X0Y349D02*
X7Y349D01*
X5897Y349D02*
X5904Y349D01*
X0Y348D02*
X7Y348D01*
X5897Y348D02*
X5904Y348D01*
X0Y347D02*
X7Y347D01*
X5897Y347D02*
X5904Y347D01*
X0Y346D02*
X7Y346D01*
X5897Y346D02*
X5904Y346D01*
X0Y345D02*
X7Y345D01*
X5897Y345D02*
X5904Y345D01*
X0Y344D02*
X7Y344D01*
X5897Y344D02*
X5904Y344D01*
X0Y343D02*
X7Y343D01*
X5897Y343D02*
X5904Y343D01*
X0Y342D02*
X7Y342D01*
X5897Y342D02*
X5904Y342D01*
X0Y341D02*
X7Y341D01*
X5897Y341D02*
X5904Y341D01*
X0Y340D02*
X7Y340D01*
X5897Y340D02*
X5904Y340D01*
X0Y339D02*
X7Y339D01*
X5897Y339D02*
X5904Y339D01*
X0Y338D02*
X7Y338D01*
X5897Y338D02*
X5904Y338D01*
X0Y337D02*
X7Y337D01*
X5897Y337D02*
X5904Y337D01*
X0Y336D02*
X7Y336D01*
X5897Y336D02*
X5904Y336D01*
X0Y335D02*
X7Y335D01*
X5897Y335D02*
X5904Y335D01*
X0Y334D02*
X7Y334D01*
X5897Y334D02*
X5904Y334D01*
X0Y333D02*
X7Y333D01*
X5897Y333D02*
X5904Y333D01*
X0Y332D02*
X7Y332D01*
X5897Y332D02*
X5904Y332D01*
X0Y331D02*
X7Y331D01*
X5897Y331D02*
X5904Y331D01*
X0Y330D02*
X7Y330D01*
X5897Y330D02*
X5904Y330D01*
X0Y329D02*
X7Y329D01*
X5897Y329D02*
X5904Y329D01*
X0Y328D02*
X7Y328D01*
X5897Y328D02*
X5904Y328D01*
X0Y327D02*
X7Y327D01*
X5897Y327D02*
X5904Y327D01*
X0Y326D02*
X7Y326D01*
X5897Y326D02*
X5904Y326D01*
X0Y325D02*
X7Y325D01*
X5897Y325D02*
X5904Y325D01*
X0Y324D02*
X7Y324D01*
X5897Y324D02*
X5904Y324D01*
X0Y323D02*
X7Y323D01*
X5897Y323D02*
X5904Y323D01*
X0Y322D02*
X7Y322D01*
X5897Y322D02*
X5904Y322D01*
X0Y321D02*
X7Y321D01*
X5897Y321D02*
X5904Y321D01*
X0Y320D02*
X7Y320D01*
X5897Y320D02*
X5904Y320D01*
X0Y319D02*
X7Y319D01*
X5897Y319D02*
X5904Y319D01*
X0Y318D02*
X7Y318D01*
X5897Y318D02*
X5904Y318D01*
X0Y317D02*
X7Y317D01*
X5897Y317D02*
X5904Y317D01*
X0Y316D02*
X7Y316D01*
X5897Y316D02*
X5904Y316D01*
X0Y315D02*
X7Y315D01*
X5897Y315D02*
X5904Y315D01*
X0Y314D02*
X7Y314D01*
X5897Y314D02*
X5904Y314D01*
X0Y313D02*
X7Y313D01*
X5897Y313D02*
X5904Y313D01*
X0Y312D02*
X7Y312D01*
X5897Y312D02*
X5904Y312D01*
X0Y311D02*
X7Y311D01*
X5897Y311D02*
X5904Y311D01*
X0Y310D02*
X7Y310D01*
X5897Y310D02*
X5904Y310D01*
X0Y309D02*
X7Y309D01*
X5897Y309D02*
X5904Y309D01*
X0Y308D02*
X7Y308D01*
X5897Y308D02*
X5904Y308D01*
X0Y307D02*
X7Y307D01*
X5897Y307D02*
X5904Y307D01*
X0Y306D02*
X7Y306D01*
X5897Y306D02*
X5904Y306D01*
X0Y305D02*
X7Y305D01*
X5897Y305D02*
X5904Y305D01*
X0Y304D02*
X7Y304D01*
X5897Y304D02*
X5904Y304D01*
X0Y303D02*
X7Y303D01*
X5897Y303D02*
X5904Y303D01*
X0Y302D02*
X7Y302D01*
X5897Y302D02*
X5904Y302D01*
X0Y301D02*
X7Y301D01*
X5897Y301D02*
X5904Y301D01*
X0Y300D02*
X7Y300D01*
X5897Y300D02*
X5904Y300D01*
X0Y299D02*
X7Y299D01*
X5897Y299D02*
X5904Y299D01*
X0Y298D02*
X7Y298D01*
X5897Y298D02*
X5904Y298D01*
X0Y297D02*
X7Y297D01*
X5897Y297D02*
X5904Y297D01*
X0Y296D02*
X7Y296D01*
X5897Y296D02*
X5904Y296D01*
X0Y295D02*
X7Y295D01*
X5897Y295D02*
X5904Y295D01*
X0Y294D02*
X7Y294D01*
X5897Y294D02*
X5904Y294D01*
X0Y293D02*
X7Y293D01*
X5897Y293D02*
X5904Y293D01*
X0Y292D02*
X7Y292D01*
X5897Y292D02*
X5904Y292D01*
X0Y291D02*
X7Y291D01*
X5897Y291D02*
X5904Y291D01*
X0Y290D02*
X7Y290D01*
X5897Y290D02*
X5904Y290D01*
X0Y289D02*
X7Y289D01*
X5897Y289D02*
X5904Y289D01*
X0Y288D02*
X7Y288D01*
X5897Y288D02*
X5904Y288D01*
X0Y287D02*
X7Y287D01*
X5897Y287D02*
X5904Y287D01*
X0Y286D02*
X7Y286D01*
X5897Y286D02*
X5904Y286D01*
X0Y285D02*
X7Y285D01*
X5897Y285D02*
X5904Y285D01*
X0Y284D02*
X7Y284D01*
X5897Y284D02*
X5904Y284D01*
X0Y283D02*
X7Y283D01*
X5897Y283D02*
X5904Y283D01*
X0Y282D02*
X7Y282D01*
X5897Y282D02*
X5904Y282D01*
X0Y281D02*
X7Y281D01*
X5897Y281D02*
X5904Y281D01*
X0Y280D02*
X7Y280D01*
X5897Y280D02*
X5904Y280D01*
X0Y279D02*
X7Y279D01*
X5897Y279D02*
X5904Y279D01*
X0Y278D02*
X7Y278D01*
X5897Y278D02*
X5904Y278D01*
X0Y277D02*
X7Y277D01*
X5897Y277D02*
X5904Y277D01*
X0Y276D02*
X7Y276D01*
X5897Y276D02*
X5904Y276D01*
X0Y275D02*
X7Y275D01*
X5897Y275D02*
X5904Y275D01*
X0Y274D02*
X7Y274D01*
X5897Y274D02*
X5904Y274D01*
X0Y273D02*
X7Y273D01*
X5897Y273D02*
X5904Y273D01*
X0Y272D02*
X7Y272D01*
X5897Y272D02*
X5904Y272D01*
X0Y271D02*
X7Y271D01*
X5897Y271D02*
X5904Y271D01*
X0Y270D02*
X7Y270D01*
X5897Y270D02*
X5904Y270D01*
X0Y269D02*
X7Y269D01*
X5897Y269D02*
X5904Y269D01*
X0Y268D02*
X7Y268D01*
X5897Y268D02*
X5904Y268D01*
X0Y267D02*
X7Y267D01*
X5897Y267D02*
X5904Y267D01*
X0Y266D02*
X7Y266D01*
X5897Y266D02*
X5904Y266D01*
X0Y265D02*
X7Y265D01*
X5897Y265D02*
X5904Y265D01*
X0Y264D02*
X7Y264D01*
X5897Y264D02*
X5904Y264D01*
X0Y263D02*
X7Y263D01*
X5897Y263D02*
X5904Y263D01*
X0Y262D02*
X7Y262D01*
X5897Y262D02*
X5904Y262D01*
X0Y261D02*
X7Y261D01*
X5897Y261D02*
X5904Y261D01*
X0Y260D02*
X7Y260D01*
X5897Y260D02*
X5904Y260D01*
X0Y259D02*
X7Y259D01*
X5897Y259D02*
X5904Y259D01*
X0Y258D02*
X7Y258D01*
X5897Y258D02*
X5904Y258D01*
X0Y257D02*
X7Y257D01*
X5897Y257D02*
X5904Y257D01*
X0Y256D02*
X7Y256D01*
X5897Y256D02*
X5904Y256D01*
X0Y255D02*
X7Y255D01*
X5897Y255D02*
X5904Y255D01*
X0Y254D02*
X7Y254D01*
X5897Y254D02*
X5904Y254D01*
X0Y253D02*
X7Y253D01*
X5897Y253D02*
X5904Y253D01*
X0Y252D02*
X7Y252D01*
X5897Y252D02*
X5904Y252D01*
X0Y251D02*
X7Y251D01*
X5897Y251D02*
X5904Y251D01*
X0Y250D02*
X7Y250D01*
X5897Y250D02*
X5904Y250D01*
X0Y249D02*
X7Y249D01*
X5897Y249D02*
X5904Y249D01*
X0Y248D02*
X7Y248D01*
X5897Y248D02*
X5904Y248D01*
X0Y247D02*
X7Y247D01*
X5897Y247D02*
X5904Y247D01*
X0Y246D02*
X7Y246D01*
X5897Y246D02*
X5904Y246D01*
X0Y245D02*
X7Y245D01*
X5897Y245D02*
X5904Y245D01*
X0Y244D02*
X7Y244D01*
X5897Y244D02*
X5904Y244D01*
X0Y243D02*
X7Y243D01*
X5897Y243D02*
X5904Y243D01*
X0Y242D02*
X7Y242D01*
X5897Y242D02*
X5904Y242D01*
X0Y241D02*
X7Y241D01*
X5897Y241D02*
X5904Y241D01*
X0Y240D02*
X7Y240D01*
X5897Y240D02*
X5904Y240D01*
X0Y239D02*
X7Y239D01*
X5897Y239D02*
X5904Y239D01*
X0Y238D02*
X7Y238D01*
X5897Y238D02*
X5904Y238D01*
X0Y237D02*
X7Y237D01*
X5897Y237D02*
X5904Y237D01*
X0Y236D02*
X7Y236D01*
X5897Y236D02*
X5904Y236D01*
X0Y235D02*
X7Y235D01*
X5897Y235D02*
X5904Y235D01*
X0Y234D02*
X7Y234D01*
X5897Y234D02*
X5904Y234D01*
X0Y233D02*
X7Y233D01*
X5897Y233D02*
X5904Y233D01*
X0Y232D02*
X7Y232D01*
X5897Y232D02*
X5904Y232D01*
X0Y231D02*
X7Y231D01*
X5897Y231D02*
X5904Y231D01*
X0Y230D02*
X7Y230D01*
X5897Y230D02*
X5904Y230D01*
X0Y229D02*
X7Y229D01*
X5897Y229D02*
X5904Y229D01*
X0Y228D02*
X7Y228D01*
X5897Y228D02*
X5904Y228D01*
X0Y227D02*
X7Y227D01*
X5897Y227D02*
X5904Y227D01*
X0Y226D02*
X7Y226D01*
X5897Y226D02*
X5904Y226D01*
X0Y225D02*
X7Y225D01*
X5897Y225D02*
X5904Y225D01*
X0Y224D02*
X7Y224D01*
X5897Y224D02*
X5904Y224D01*
X0Y223D02*
X7Y223D01*
X5897Y223D02*
X5904Y223D01*
X0Y222D02*
X7Y222D01*
X5897Y222D02*
X5904Y222D01*
X0Y221D02*
X7Y221D01*
X5897Y221D02*
X5904Y221D01*
X0Y220D02*
X7Y220D01*
X5897Y220D02*
X5904Y220D01*
X0Y219D02*
X7Y219D01*
X5897Y219D02*
X5904Y219D01*
X0Y218D02*
X7Y218D01*
X5897Y218D02*
X5904Y218D01*
X0Y217D02*
X7Y217D01*
X5897Y217D02*
X5904Y217D01*
X0Y216D02*
X7Y216D01*
X5897Y216D02*
X5904Y216D01*
X0Y215D02*
X7Y215D01*
X5897Y215D02*
X5904Y215D01*
X0Y214D02*
X7Y214D01*
X5897Y214D02*
X5904Y214D01*
X0Y213D02*
X7Y213D01*
X5897Y213D02*
X5904Y213D01*
X0Y212D02*
X7Y212D01*
X5897Y212D02*
X5904Y212D01*
X0Y211D02*
X7Y211D01*
X5897Y211D02*
X5904Y211D01*
X0Y210D02*
X7Y210D01*
X5897Y210D02*
X5904Y210D01*
X0Y209D02*
X7Y209D01*
X5897Y209D02*
X5904Y209D01*
X0Y208D02*
X7Y208D01*
X5897Y208D02*
X5904Y208D01*
X0Y207D02*
X7Y207D01*
X5897Y207D02*
X5904Y207D01*
X0Y206D02*
X7Y206D01*
X5897Y206D02*
X5904Y206D01*
X0Y205D02*
X7Y205D01*
X5897Y205D02*
X5904Y205D01*
X0Y204D02*
X7Y204D01*
X5897Y204D02*
X5904Y204D01*
X0Y203D02*
X7Y203D01*
X5897Y203D02*
X5904Y203D01*
X0Y202D02*
X7Y202D01*
X5897Y202D02*
X5904Y202D01*
X0Y201D02*
X7Y201D01*
X5897Y201D02*
X5904Y201D01*
X0Y200D02*
X7Y200D01*
X5897Y200D02*
X5904Y200D01*
X0Y199D02*
X7Y199D01*
X5897Y199D02*
X5904Y199D01*
X0Y198D02*
X7Y198D01*
X5897Y198D02*
X5904Y198D01*
X0Y197D02*
X7Y197D01*
X5897Y197D02*
X5904Y197D01*
X0Y196D02*
X7Y196D01*
X5897Y196D02*
X5904Y196D01*
X0Y195D02*
X7Y195D01*
X5897Y195D02*
X5904Y195D01*
X0Y194D02*
X7Y194D01*
X5897Y194D02*
X5904Y194D01*
X0Y193D02*
X7Y193D01*
X5897Y193D02*
X5904Y193D01*
X0Y192D02*
X7Y192D01*
X5897Y192D02*
X5904Y192D01*
X0Y191D02*
X7Y191D01*
X5897Y191D02*
X5904Y191D01*
X0Y190D02*
X7Y190D01*
X5897Y190D02*
X5904Y190D01*
X0Y189D02*
X7Y189D01*
X5897Y189D02*
X5904Y189D01*
X0Y188D02*
X7Y188D01*
X5897Y188D02*
X5904Y188D01*
X0Y187D02*
X7Y187D01*
X5897Y187D02*
X5904Y187D01*
X0Y186D02*
X7Y186D01*
X5897Y186D02*
X5904Y186D01*
X0Y185D02*
X7Y185D01*
X5897Y185D02*
X5904Y185D01*
X0Y184D02*
X7Y184D01*
X5897Y184D02*
X5904Y184D01*
X0Y183D02*
X7Y183D01*
X5897Y183D02*
X5904Y183D01*
X0Y182D02*
X7Y182D01*
X5897Y182D02*
X5904Y182D01*
X0Y181D02*
X7Y181D01*
X5897Y181D02*
X5904Y181D01*
X0Y180D02*
X7Y180D01*
X5897Y180D02*
X5904Y180D01*
X0Y179D02*
X7Y179D01*
X5897Y179D02*
X5904Y179D01*
X0Y178D02*
X7Y178D01*
X5897Y178D02*
X5904Y178D01*
X0Y177D02*
X7Y177D01*
X5897Y177D02*
X5904Y177D01*
X0Y176D02*
X7Y176D01*
X5897Y176D02*
X5904Y176D01*
X0Y175D02*
X7Y175D01*
X5897Y175D02*
X5904Y175D01*
X0Y174D02*
X7Y174D01*
X5897Y174D02*
X5904Y174D01*
X0Y173D02*
X7Y173D01*
X5897Y173D02*
X5904Y173D01*
X0Y172D02*
X7Y172D01*
X5897Y172D02*
X5904Y172D01*
X0Y171D02*
X7Y171D01*
X5897Y171D02*
X5904Y171D01*
X0Y170D02*
X7Y170D01*
X5897Y170D02*
X5904Y170D01*
X0Y169D02*
X7Y169D01*
X5897Y169D02*
X5904Y169D01*
X0Y168D02*
X7Y168D01*
X5897Y168D02*
X5904Y168D01*
X0Y167D02*
X7Y167D01*
X5897Y167D02*
X5904Y167D01*
X0Y166D02*
X7Y166D01*
X5897Y166D02*
X5904Y166D01*
X0Y165D02*
X7Y165D01*
X5897Y165D02*
X5904Y165D01*
X0Y164D02*
X7Y164D01*
X5897Y164D02*
X5904Y164D01*
X0Y163D02*
X7Y163D01*
X5897Y163D02*
X5904Y163D01*
X0Y162D02*
X7Y162D01*
X5897Y162D02*
X5904Y162D01*
X0Y161D02*
X7Y161D01*
X5897Y161D02*
X5904Y161D01*
X0Y160D02*
X7Y160D01*
X5897Y160D02*
X5904Y160D01*
X0Y159D02*
X7Y159D01*
X5897Y159D02*
X5904Y159D01*
X0Y158D02*
X7Y158D01*
X5897Y158D02*
X5904Y158D01*
X0Y157D02*
X7Y157D01*
X5897Y157D02*
X5904Y157D01*
X0Y156D02*
X7Y156D01*
X5897Y156D02*
X5904Y156D01*
X0Y155D02*
X7Y155D01*
X5897Y155D02*
X5904Y155D01*
X0Y154D02*
X7Y154D01*
X5897Y154D02*
X5904Y154D01*
X0Y153D02*
X7Y153D01*
X5897Y153D02*
X5904Y153D01*
X0Y152D02*
X7Y152D01*
X5897Y152D02*
X5904Y152D01*
X0Y151D02*
X7Y151D01*
X5897Y151D02*
X5904Y151D01*
X0Y150D02*
X7Y150D01*
X5897Y150D02*
X5904Y150D01*
X0Y149D02*
X7Y149D01*
X5897Y149D02*
X5904Y149D01*
X0Y148D02*
X7Y148D01*
X5897Y148D02*
X5904Y148D01*
X0Y147D02*
X7Y147D01*
X5897Y147D02*
X5904Y147D01*
X0Y146D02*
X7Y146D01*
X5897Y146D02*
X5904Y146D01*
X0Y145D02*
X7Y145D01*
X5897Y145D02*
X5904Y145D01*
X0Y144D02*
X7Y144D01*
X5897Y144D02*
X5904Y144D01*
X0Y143D02*
X7Y143D01*
X5897Y143D02*
X5904Y143D01*
X0Y142D02*
X7Y142D01*
X5897Y142D02*
X5904Y142D01*
X0Y141D02*
X7Y141D01*
X5897Y141D02*
X5904Y141D01*
X0Y140D02*
X7Y140D01*
X5897Y140D02*
X5904Y140D01*
X0Y139D02*
X7Y139D01*
X5897Y139D02*
X5904Y139D01*
X0Y138D02*
X7Y138D01*
X5897Y138D02*
X5904Y138D01*
X0Y137D02*
X7Y137D01*
X5897Y137D02*
X5904Y137D01*
X0Y136D02*
X7Y136D01*
X5897Y136D02*
X5904Y136D01*
X0Y135D02*
X7Y135D01*
X5897Y135D02*
X5904Y135D01*
X0Y134D02*
X7Y134D01*
X5897Y134D02*
X5904Y134D01*
X0Y133D02*
X7Y133D01*
X5897Y133D02*
X5904Y133D01*
X0Y132D02*
X7Y132D01*
X5897Y132D02*
X5904Y132D01*
X0Y131D02*
X7Y131D01*
X5897Y131D02*
X5904Y131D01*
X0Y130D02*
X7Y130D01*
X5897Y130D02*
X5904Y130D01*
X0Y129D02*
X7Y129D01*
X5897Y129D02*
X5904Y129D01*
X0Y128D02*
X7Y128D01*
X5897Y128D02*
X5904Y128D01*
X0Y127D02*
X7Y127D01*
X5897Y127D02*
X5904Y127D01*
X0Y126D02*
X7Y126D01*
X5897Y126D02*
X5904Y126D01*
X0Y125D02*
X7Y125D01*
X5897Y125D02*
X5904Y125D01*
X0Y124D02*
X7Y124D01*
X5897Y124D02*
X5904Y124D01*
X0Y123D02*
X7Y123D01*
X5897Y123D02*
X5904Y123D01*
X0Y122D02*
X7Y122D01*
X5897Y122D02*
X5904Y122D01*
X0Y121D02*
X7Y121D01*
X5897Y121D02*
X5904Y121D01*
X0Y120D02*
X7Y120D01*
X5897Y120D02*
X5904Y120D01*
X0Y119D02*
X7Y119D01*
X5897Y119D02*
X5904Y119D01*
X0Y118D02*
X7Y118D01*
X5897Y118D02*
X5904Y118D01*
X0Y117D02*
X7Y117D01*
X5897Y117D02*
X5904Y117D01*
X0Y116D02*
X7Y116D01*
X5897Y116D02*
X5904Y116D01*
X0Y115D02*
X7Y115D01*
X5897Y115D02*
X5904Y115D01*
X0Y114D02*
X7Y114D01*
X5897Y114D02*
X5904Y114D01*
X0Y113D02*
X7Y113D01*
X5897Y113D02*
X5904Y113D01*
X0Y112D02*
X7Y112D01*
X5897Y112D02*
X5904Y112D01*
X0Y111D02*
X7Y111D01*
X5897Y111D02*
X5904Y111D01*
X0Y110D02*
X7Y110D01*
X5897Y110D02*
X5904Y110D01*
X0Y109D02*
X7Y109D01*
X5897Y109D02*
X5904Y109D01*
X0Y108D02*
X7Y108D01*
X5897Y108D02*
X5904Y108D01*
X0Y107D02*
X7Y107D01*
X5897Y107D02*
X5904Y107D01*
X0Y106D02*
X7Y106D01*
X5897Y106D02*
X5904Y106D01*
X0Y105D02*
X7Y105D01*
X5897Y105D02*
X5904Y105D01*
X0Y104D02*
X7Y104D01*
X5897Y104D02*
X5904Y104D01*
X0Y103D02*
X7Y103D01*
X5897Y103D02*
X5904Y103D01*
X0Y102D02*
X7Y102D01*
X5897Y102D02*
X5904Y102D01*
X0Y101D02*
X7Y101D01*
X5897Y101D02*
X5904Y101D01*
X0Y100D02*
X7Y100D01*
X5897Y100D02*
X5904Y100D01*
X0Y99D02*
X7Y99D01*
X5897Y99D02*
X5904Y99D01*
X0Y98D02*
X7Y98D01*
X5897Y98D02*
X5904Y98D01*
X0Y97D02*
X7Y97D01*
X5897Y97D02*
X5904Y97D01*
X0Y96D02*
X7Y96D01*
X5897Y96D02*
X5904Y96D01*
X0Y95D02*
X7Y95D01*
X5897Y95D02*
X5904Y95D01*
X0Y94D02*
X7Y94D01*
X5897Y94D02*
X5904Y94D01*
X0Y93D02*
X7Y93D01*
X5897Y93D02*
X5904Y93D01*
X0Y92D02*
X7Y92D01*
X5897Y92D02*
X5904Y92D01*
X0Y91D02*
X7Y91D01*
X5897Y91D02*
X5904Y91D01*
X0Y90D02*
X7Y90D01*
X5897Y90D02*
X5904Y90D01*
X0Y89D02*
X7Y89D01*
X5897Y89D02*
X5904Y89D01*
X0Y88D02*
X7Y88D01*
X5897Y88D02*
X5904Y88D01*
X0Y87D02*
X7Y87D01*
X5897Y87D02*
X5904Y87D01*
X0Y86D02*
X7Y86D01*
X5897Y86D02*
X5904Y86D01*
X0Y85D02*
X7Y85D01*
X5897Y85D02*
X5904Y85D01*
X0Y84D02*
X7Y84D01*
X5897Y84D02*
X5904Y84D01*
X0Y83D02*
X7Y83D01*
X5897Y83D02*
X5904Y83D01*
X0Y82D02*
X7Y82D01*
X5897Y82D02*
X5904Y82D01*
X0Y81D02*
X7Y81D01*
X5897Y81D02*
X5904Y81D01*
X0Y80D02*
X7Y80D01*
X5897Y80D02*
X5904Y80D01*
X0Y79D02*
X7Y79D01*
X5897Y79D02*
X5904Y79D01*
X0Y78D02*
X7Y78D01*
X5897Y78D02*
X5904Y78D01*
X0Y77D02*
X7Y77D01*
X5897Y77D02*
X5904Y77D01*
X0Y76D02*
X7Y76D01*
X5897Y76D02*
X5904Y76D01*
X0Y75D02*
X7Y75D01*
X5897Y75D02*
X5904Y75D01*
X0Y74D02*
X7Y74D01*
X5897Y74D02*
X5904Y74D01*
X0Y73D02*
X7Y73D01*
X5897Y73D02*
X5904Y73D01*
X0Y72D02*
X7Y72D01*
X5897Y72D02*
X5904Y72D01*
X0Y71D02*
X7Y71D01*
X5897Y71D02*
X5904Y71D01*
X0Y70D02*
X7Y70D01*
X5897Y70D02*
X5904Y70D01*
X0Y69D02*
X7Y69D01*
X5897Y69D02*
X5904Y69D01*
X0Y68D02*
X7Y68D01*
X5897Y68D02*
X5904Y68D01*
X0Y67D02*
X7Y67D01*
X5897Y67D02*
X5904Y67D01*
X0Y66D02*
X7Y66D01*
X5897Y66D02*
X5904Y66D01*
X0Y65D02*
X7Y65D01*
X5897Y65D02*
X5904Y65D01*
X0Y64D02*
X7Y64D01*
X5897Y64D02*
X5904Y64D01*
X0Y63D02*
X7Y63D01*
X5897Y63D02*
X5904Y63D01*
X0Y62D02*
X7Y62D01*
X5897Y62D02*
X5904Y62D01*
X0Y61D02*
X7Y61D01*
X5897Y61D02*
X5904Y61D01*
X0Y60D02*
X7Y60D01*
X5897Y60D02*
X5904Y60D01*
X0Y59D02*
X7Y59D01*
X5897Y59D02*
X5904Y59D01*
X0Y58D02*
X7Y58D01*
X5897Y58D02*
X5904Y58D01*
X0Y57D02*
X7Y57D01*
X5897Y57D02*
X5904Y57D01*
X0Y56D02*
X7Y56D01*
X5897Y56D02*
X5904Y56D01*
X0Y55D02*
X7Y55D01*
X5897Y55D02*
X5904Y55D01*
X0Y54D02*
X7Y54D01*
X5897Y54D02*
X5904Y54D01*
X0Y53D02*
X7Y53D01*
X5897Y53D02*
X5904Y53D01*
X0Y52D02*
X7Y52D01*
X5897Y52D02*
X5904Y52D01*
X0Y51D02*
X7Y51D01*
X5897Y51D02*
X5904Y51D01*
X0Y50D02*
X7Y50D01*
X5897Y50D02*
X5904Y50D01*
X0Y49D02*
X7Y49D01*
X5897Y49D02*
X5904Y49D01*
X0Y48D02*
X7Y48D01*
X5897Y48D02*
X5904Y48D01*
X0Y47D02*
X7Y47D01*
X5897Y47D02*
X5904Y47D01*
X0Y46D02*
X7Y46D01*
X5897Y46D02*
X5904Y46D01*
X0Y45D02*
X7Y45D01*
X5897Y45D02*
X5904Y45D01*
X0Y44D02*
X7Y44D01*
X5897Y44D02*
X5904Y44D01*
X0Y43D02*
X7Y43D01*
X5897Y43D02*
X5904Y43D01*
X0Y42D02*
X7Y42D01*
X5897Y42D02*
X5904Y42D01*
X0Y41D02*
X7Y41D01*
X5897Y41D02*
X5904Y41D01*
X0Y40D02*
X7Y40D01*
X5897Y40D02*
X5904Y40D01*
X0Y39D02*
X7Y39D01*
X5897Y39D02*
X5904Y39D01*
X0Y38D02*
X7Y38D01*
X5897Y38D02*
X5904Y38D01*
X0Y37D02*
X7Y37D01*
X5897Y37D02*
X5904Y37D01*
X0Y36D02*
X7Y36D01*
X5897Y36D02*
X5904Y36D01*
X0Y35D02*
X7Y35D01*
X5897Y35D02*
X5904Y35D01*
X0Y34D02*
X7Y34D01*
X5897Y34D02*
X5904Y34D01*
X0Y33D02*
X7Y33D01*
X5897Y33D02*
X5904Y33D01*
X0Y32D02*
X7Y32D01*
X5897Y32D02*
X5904Y32D01*
X0Y31D02*
X7Y31D01*
X5897Y31D02*
X5904Y31D01*
X0Y30D02*
X7Y30D01*
X5897Y30D02*
X5904Y30D01*
X0Y29D02*
X7Y29D01*
X5897Y29D02*
X5904Y29D01*
X0Y28D02*
X7Y28D01*
X5897Y28D02*
X5904Y28D01*
X0Y27D02*
X7Y27D01*
X5897Y27D02*
X5904Y27D01*
X0Y26D02*
X7Y26D01*
X5897Y26D02*
X5904Y26D01*
X0Y25D02*
X7Y25D01*
X5897Y25D02*
X5904Y25D01*
X0Y24D02*
X7Y24D01*
X5897Y24D02*
X5904Y24D01*
X0Y23D02*
X7Y23D01*
X5897Y23D02*
X5904Y23D01*
X0Y22D02*
X7Y22D01*
X5897Y22D02*
X5904Y22D01*
X0Y21D02*
X7Y21D01*
X5897Y21D02*
X5904Y21D01*
X0Y20D02*
X7Y20D01*
X5897Y20D02*
X5904Y20D01*
X0Y19D02*
X7Y19D01*
X5897Y19D02*
X5904Y19D01*
X0Y18D02*
X7Y18D01*
X5897Y18D02*
X5904Y18D01*
X0Y17D02*
X7Y17D01*
X5897Y17D02*
X5904Y17D01*
X0Y16D02*
X7Y16D01*
X5897Y16D02*
X5904Y16D01*
X0Y15D02*
X7Y15D01*
X5897Y15D02*
X5904Y15D01*
X0Y14D02*
X7Y14D01*
X5897Y14D02*
X5904Y14D01*
X0Y13D02*
X7Y13D01*
X5897Y13D02*
X5904Y13D01*
X0Y12D02*
X7Y12D01*
X5897Y12D02*
X5904Y12D01*
X0Y11D02*
X7Y11D01*
X5897Y11D02*
X5904Y11D01*
X0Y10D02*
X7Y10D01*
X5897Y10D02*
X5904Y10D01*
X0Y9D02*
X1744Y9D01*
X1808Y9D02*
X5904Y9D01*
X0Y8D02*
X1746Y8D01*
X1807Y8D02*
X5904Y8D01*
X0Y7D02*
X1748Y7D01*
X1805Y7D02*
X5904Y7D01*
X0Y6D02*
X1750Y6D01*
X1803Y6D02*
X5904Y6D01*
X0Y5D02*
X1753Y5D01*
X1800Y5D02*
X5904Y5D01*
X0Y4D02*
X1755Y4D01*
X1797Y4D02*
X5904Y4D01*
X0Y3D02*
X1759Y3D01*
X1793Y3D02*
X5904Y3D01*
X0Y2D02*
X1763Y2D01*
X1789Y2D02*
X5904Y2D01*
D02*
G04 End of Silk0*
M02*