; NON-PLATED HOLES START AT T1
; THROUGH (PLATED) HOLES START AT T100
M48
INCH
T100C0.137795
T101C0.039370
T102C0.038000
T103C0.035000
%
T100
X001316Y001331
X057852Y022670
X001238Y022749
X057773Y001331
T101
X017773Y000623
T102
X034033Y000623
X028033Y000623
X031033Y000623
X027033Y000623
X030033Y000623
X024033Y000623
X039033Y000623
X021033Y000623
X020033Y000623
X036033Y000623
X035033Y000623
X033033Y000623
X029033Y000623
X032033Y000623
X026033Y000623
X025033Y000623
X023033Y000623
X022033Y000623
X038033Y000623
X037033Y000623
T103
X013128Y002316
X010569Y000544
X010569Y002316
X013128Y000544
T00
M30
