G04 MADE WITH FRITZING*
G04 WWW.FRITZING.ORG*
G04 DOUBLE SIDED*
G04 HOLES PLATED*
G04 CONTOUR ON CENTER OF CONTOUR VECTOR*
%ASAXBY*%
%FSLAX23Y23*%
%MOIN*%
%OFA0B0*%
%SFA1.0B1.0*%
%ADD10R,0.062992X0.074803*%
%ADD11R,0.338582X1.574800*%
%ADD12R,0.150978X0.407097*%
%ADD13R,0.139867X0.434874*%
%ADD14R,0.338582X1.338580*%
%LNPASTEMASK1*%
G90*
G70*
G54D10*
X124Y629D03*
X246Y629D03*
G54D11*
X4218Y1558D03*
X3856Y1554D03*
X3494Y1554D03*
X3132Y1554D03*
X2769Y1554D03*
X2407Y1554D03*
X2045Y1554D03*
X1683Y1554D03*
X1321Y1554D03*
X958Y1554D03*
X596Y1554D03*
G54D12*
X5573Y2133D03*
G54D13*
X336Y2125D03*
G54D14*
X234Y1440D03*
G54D10*
X124Y464D03*
X246Y464D03*
X2179Y291D03*
X2301Y291D03*
G54D14*
X5667Y1440D03*
G54D11*
X5305Y1554D03*
X4943Y1554D03*
X4581Y1554D03*
G36*
X669Y200D02*
X728Y200D01*
X728Y161D01*
X669Y161D01*
X669Y200D01*
G37*
D02*
G36*
X669Y263D02*
X728Y263D01*
X728Y224D01*
X669Y224D01*
X669Y263D01*
G37*
D02*
G36*
X669Y326D02*
X728Y326D01*
X728Y287D01*
X669Y287D01*
X669Y326D01*
G37*
D02*
G36*
X476Y326D02*
X535Y326D01*
X535Y287D01*
X476Y287D01*
X476Y326D01*
G37*
D02*
G36*
X476Y263D02*
X535Y263D01*
X535Y224D01*
X476Y224D01*
X476Y263D01*
G37*
D02*
G36*
X476Y200D02*
X535Y200D01*
X535Y161D01*
X476Y161D01*
X476Y200D01*
G37*
D02*
G36*
X374Y251D02*
X299Y251D01*
X299Y314D01*
X374Y314D01*
X374Y251D01*
G37*
D02*
G36*
X374Y129D02*
X299Y129D01*
X299Y192D01*
X374Y192D01*
X374Y129D01*
G37*
D02*
G36*
X495Y146D02*
X415Y146D01*
X415Y199D01*
X495Y199D01*
X495Y146D01*
G37*
D02*
G36*
X495Y288D02*
X415Y288D01*
X415Y341D01*
X495Y341D01*
X495Y288D01*
G37*
D02*
G36*
X495Y217D02*
X415Y217D01*
X415Y270D01*
X495Y270D01*
X495Y217D01*
G37*
D02*
G36*
X809Y146D02*
X729Y146D01*
X729Y199D01*
X809Y199D01*
X809Y146D01*
G37*
D02*
G36*
X809Y217D02*
X729Y217D01*
X729Y270D01*
X809Y270D01*
X809Y217D01*
G37*
D02*
G36*
X809Y288D02*
X729Y288D01*
X729Y341D01*
X809Y341D01*
X809Y288D01*
G37*
D02*
G04 End of PasteMask1*
M02*