G04 MADE WITH FRITZING*
G04 WWW.FRITZING.ORG*
G04 DOUBLE SIDED*
G04 HOLES PLATED*
G04 CONTOUR ON CENTER OF CONTOUR VECTOR*
%ASAXBY*%
%FSLAX23Y23*%
%MOIN*%
%OFA0B0*%
%SFA1.0B1.0*%
%ADD10C,0.085000*%
%ADD11C,0.088000*%
%ADD12C,0.039370*%
%ADD13C,0.187165*%
%ADD14R,0.001000X0.001000*%
%LNMASK0*%
G90*
G70*
G54D10*
X1313Y54D03*
X1057Y54D03*
X1313Y232D03*
X1057Y232D03*
G54D11*
X3903Y62D03*
X3803Y62D03*
X3703Y62D03*
X3603Y62D03*
X3503Y62D03*
X3403Y62D03*
X3303Y62D03*
X3203Y62D03*
X3103Y62D03*
X3003Y62D03*
X2903Y62D03*
X2803Y62D03*
X2703Y62D03*
X2603Y62D03*
X2503Y62D03*
X2403Y62D03*
X2303Y62D03*
X2203Y62D03*
X2103Y62D03*
X2003Y62D03*
G54D12*
X1777Y62D03*
G54D13*
X5785Y2267D03*
X132Y133D03*
X5777Y133D03*
X124Y2275D03*
G54D14*
X1768Y127D02*
X1785Y127D01*
X1763Y126D02*
X1791Y126D01*
X1759Y125D02*
X1795Y125D01*
X1756Y124D02*
X1798Y124D01*
X1753Y123D02*
X1801Y123D01*
X1751Y122D02*
X1803Y122D01*
X1749Y121D02*
X1805Y121D01*
X1747Y120D02*
X1807Y120D01*
X1745Y119D02*
X1808Y119D01*
X1743Y118D02*
X1810Y118D01*
X1742Y117D02*
X1812Y117D01*
X1740Y116D02*
X1813Y116D01*
X1739Y115D02*
X1814Y115D01*
X1738Y114D02*
X1816Y114D01*
X1736Y113D02*
X1817Y113D01*
X1735Y112D02*
X1818Y112D01*
X1734Y111D02*
X1819Y111D01*
X1733Y110D02*
X1820Y110D01*
X1732Y109D02*
X1822Y109D01*
X1731Y108D02*
X1822Y108D01*
X1730Y107D02*
X1823Y107D01*
X1729Y106D02*
X1824Y106D01*
X1728Y105D02*
X1825Y105D01*
X1727Y104D02*
X1826Y104D01*
X1727Y103D02*
X1827Y103D01*
X1726Y102D02*
X1827Y102D01*
X1725Y101D02*
X1828Y101D01*
X1725Y100D02*
X1829Y100D01*
X1724Y99D02*
X1830Y99D01*
X1723Y98D02*
X1830Y98D01*
X1723Y97D02*
X1831Y97D01*
X1722Y96D02*
X1831Y96D01*
X1721Y95D02*
X1832Y95D01*
X1721Y94D02*
X1833Y94D01*
X1720Y93D02*
X1833Y93D01*
X1720Y92D02*
X1834Y92D01*
X1719Y91D02*
X1834Y91D01*
X1719Y90D02*
X1835Y90D01*
X1718Y89D02*
X1835Y89D01*
X1718Y88D02*
X1835Y88D01*
X1718Y87D02*
X1836Y87D01*
X1717Y86D02*
X1836Y86D01*
X1717Y85D02*
X1837Y85D01*
X1717Y84D02*
X1837Y84D01*
X1716Y83D02*
X1837Y83D01*
X1716Y82D02*
X1838Y82D01*
X1716Y81D02*
X1838Y81D01*
X1715Y80D02*
X1838Y80D01*
X1715Y79D02*
X1838Y79D01*
X1715Y78D02*
X1839Y78D01*
X1715Y77D02*
X1839Y77D01*
X1714Y76D02*
X1839Y76D01*
X1714Y75D02*
X1839Y75D01*
X1714Y74D02*
X1839Y74D01*
X1714Y73D02*
X1839Y73D01*
X1714Y72D02*
X1840Y72D01*
X1714Y71D02*
X1840Y71D01*
X1714Y70D02*
X1840Y70D01*
X1713Y69D02*
X1840Y69D01*
X1713Y68D02*
X1840Y68D01*
X1713Y67D02*
X1840Y67D01*
X1713Y66D02*
X1840Y66D01*
X1713Y65D02*
X1840Y65D01*
X1713Y64D02*
X1840Y64D01*
X1713Y63D02*
X1840Y63D01*
X1713Y62D02*
X1840Y62D01*
X1713Y61D02*
X1840Y61D01*
X1713Y60D02*
X1840Y60D01*
X1713Y59D02*
X1840Y59D01*
X1714Y58D02*
X1840Y58D01*
X1714Y57D02*
X1840Y57D01*
X1714Y56D02*
X1840Y56D01*
X1714Y55D02*
X1839Y55D01*
X1714Y54D02*
X1839Y54D01*
X1714Y53D02*
X1839Y53D01*
X1714Y52D02*
X1839Y52D01*
X1715Y51D02*
X1839Y51D01*
X1715Y50D02*
X1839Y50D01*
X1715Y49D02*
X1838Y49D01*
X1715Y48D02*
X1838Y48D01*
X1716Y47D02*
X1838Y47D01*
X1716Y46D02*
X1838Y46D01*
X1716Y45D02*
X1837Y45D01*
X1716Y44D02*
X1837Y44D01*
X1717Y43D02*
X1837Y43D01*
X1717Y42D02*
X1836Y42D01*
X1717Y41D02*
X1836Y41D01*
X1718Y40D02*
X1836Y40D01*
X1718Y39D02*
X1835Y39D01*
X1719Y38D02*
X1835Y38D01*
X1719Y37D02*
X1834Y37D01*
X1720Y36D02*
X1834Y36D01*
X1720Y35D02*
X1833Y35D01*
X1721Y34D02*
X1833Y34D01*
X1721Y33D02*
X1832Y33D01*
X1722Y32D02*
X1832Y32D01*
X1722Y31D02*
X1831Y31D01*
X1723Y30D02*
X1830Y30D01*
X1724Y29D02*
X1830Y29D01*
X1724Y28D02*
X1829Y28D01*
X1725Y27D02*
X1828Y27D01*
X1726Y26D02*
X1828Y26D01*
X1726Y25D02*
X1827Y25D01*
X1727Y24D02*
X1826Y24D01*
X1728Y23D02*
X1825Y23D01*
X1729Y22D02*
X1825Y22D01*
X1730Y21D02*
X1824Y21D01*
X1731Y20D02*
X1823Y20D01*
X1731Y19D02*
X1822Y19D01*
X1732Y18D02*
X1821Y18D01*
X1734Y17D02*
X1820Y17D01*
X1735Y16D02*
X1819Y16D01*
X1736Y15D02*
X1818Y15D01*
X1737Y14D02*
X1816Y14D01*
X1738Y13D02*
X1815Y13D01*
X1740Y12D02*
X1814Y12D01*
X1741Y11D02*
X1812Y11D01*
X1743Y10D02*
X1811Y10D01*
X1744Y9D02*
X1809Y9D01*
X1746Y8D02*
X1807Y8D01*
X1748Y7D02*
X1806Y7D01*
X1750Y6D02*
X1804Y6D01*
X1752Y5D02*
X1802Y5D01*
X1755Y4D02*
X1799Y4D01*
X1757Y3D02*
X1796Y3D01*
X1761Y2D02*
X1792Y2D01*
X1765Y1D02*
X1788Y1D01*
X1773Y0D02*
X1780Y0D01*
D02*
G04 End of Mask0*
M02*