G04 MADE WITH FRITZING*
G04 WWW.FRITZING.ORG*
G04 SINGLE SIDED*
G04 HOLES NOT PLATED*
G04 CONTOUR ON CENTER OF CONTOUR VECTOR*
%ASAXBY*%
%FSLAX23Y23*%
%MOIN*%
%OFA0B0*%
%SFA1.0B1.0*%
%ADD10C,0.085000*%
%ADD11C,0.120551*%
%ADD12C,0.094000*%
%ADD13C,0.072992*%
%ADD14C,0.084667*%
%ADD15C,0.084695*%
%ADD16C,0.134033*%
%ADD17C,0.088000*%
%ADD18C,0.044000*%
%ADD19C,0.187165*%
%ADD20R,0.088000X0.088000*%
%ADD21R,0.155556X0.155542*%
%ADD22R,0.036000X0.090000*%
%ADD23C,0.025748*%
%ADD24R,0.001000X0.001000*%
%LNMASK0*%
G90*
G70*
G54D10*
X2886Y1881D03*
X2630Y1881D03*
X2886Y2058D03*
X2630Y2058D03*
G54D11*
X2901Y2998D03*
X3050Y2848D03*
X2750Y2848D03*
G54D12*
X3068Y3129D03*
X2733Y3129D03*
G54D11*
X4080Y3004D03*
X4229Y2853D03*
X3929Y2853D03*
G54D12*
X4247Y3134D03*
X3912Y3134D03*
G54D11*
X1718Y3001D03*
X1867Y2850D03*
X1567Y2850D03*
G54D12*
X1885Y3131D03*
X1550Y3131D03*
G54D11*
X6443Y3001D03*
X6593Y2850D03*
X6292Y2850D03*
G54D12*
X6610Y3131D03*
X6276Y3131D03*
G54D11*
X539Y2999D03*
X688Y2848D03*
X388Y2848D03*
G54D12*
X706Y3129D03*
X371Y3129D03*
G54D11*
X5261Y3000D03*
X5410Y2850D03*
X5110Y2850D03*
G54D12*
X5428Y3130D03*
X5093Y3130D03*
G54D13*
X2236Y1568D03*
X2334Y1568D03*
X6349Y1661D03*
X6349Y1563D03*
X5168Y1661D03*
X5168Y1563D03*
X4007Y1661D03*
X4007Y1563D03*
X2818Y1659D03*
X2818Y1560D03*
X1646Y1659D03*
X1646Y1560D03*
X478Y1668D03*
X478Y1569D03*
X1156Y2264D03*
X1057Y2264D03*
X2367Y2264D03*
X2268Y2264D03*
X7050Y2258D03*
X6952Y2258D03*
X5889Y2269D03*
X5791Y2269D03*
X4700Y2275D03*
X4602Y2275D03*
X3517Y2270D03*
X3418Y2270D03*
G54D10*
X6577Y1486D03*
X6577Y1186D03*
X5407Y1486D03*
X5407Y1186D03*
X4235Y1486D03*
X4235Y1186D03*
X3035Y1483D03*
X3035Y1183D03*
X1863Y1483D03*
X1863Y1183D03*
X673Y1486D03*
X673Y1186D03*
X1069Y2125D03*
X1069Y1825D03*
X7019Y1719D03*
X6719Y1719D03*
X5785Y2131D03*
X5997Y1919D03*
X4607Y2147D03*
X4819Y1935D03*
X3419Y2142D03*
X3419Y1842D03*
X1708Y2136D03*
X1708Y1836D03*
X2231Y1985D03*
X2231Y1685D03*
G54D14*
X5159Y128D03*
X5259Y128D03*
G54D15*
X5359Y128D03*
G54D16*
X5064Y423D03*
X5453Y423D03*
G54D14*
X6348Y128D03*
X6448Y128D03*
G54D15*
X6548Y128D03*
G54D16*
X6253Y423D03*
X6642Y423D03*
G54D14*
X3977Y128D03*
X4077Y128D03*
G54D15*
X4177Y128D03*
G54D16*
X3883Y423D03*
X4272Y423D03*
G54D14*
X2796Y132D03*
X2896Y132D03*
G54D15*
X2996Y132D03*
G54D16*
X2702Y427D03*
X3090Y427D03*
G54D14*
X1618Y134D03*
X1718Y134D03*
G54D15*
X1818Y134D03*
G54D16*
X1524Y429D03*
X1912Y429D03*
G54D14*
X439Y129D03*
X539Y129D03*
G54D15*
X639Y129D03*
G54D16*
X345Y424D03*
X733Y424D03*
G54D17*
X6227Y1389D03*
X6227Y1289D03*
X6227Y1189D03*
X5052Y1389D03*
X5052Y1289D03*
X5052Y1189D03*
X3891Y1389D03*
X3891Y1289D03*
X3891Y1189D03*
X2702Y1386D03*
X2702Y1286D03*
X2702Y1186D03*
X1525Y1386D03*
X1525Y1286D03*
X1525Y1186D03*
X328Y1386D03*
X328Y1286D03*
X328Y1186D03*
X6461Y1389D03*
X6461Y1289D03*
X6461Y1189D03*
X5286Y1389D03*
X5286Y1289D03*
X5286Y1189D03*
X4124Y1389D03*
X4124Y1289D03*
X4124Y1189D03*
X2936Y1386D03*
X2936Y1286D03*
X2936Y1186D03*
X1758Y1386D03*
X1758Y1286D03*
X1758Y1186D03*
X562Y1386D03*
X562Y1286D03*
X562Y1186D03*
G54D18*
X3010Y2670D03*
X3010Y2470D03*
X3010Y2270D03*
X3010Y1970D03*
X3310Y1970D03*
X3310Y2270D03*
X3310Y2470D03*
X3310Y2670D03*
X4189Y2670D03*
X4189Y2470D03*
X4189Y2270D03*
X4189Y1970D03*
X4489Y1970D03*
X4489Y2270D03*
X4489Y2470D03*
X4489Y2670D03*
X1827Y2667D03*
X1827Y2467D03*
X1827Y2267D03*
X1827Y1967D03*
X2127Y1967D03*
X2127Y2267D03*
X2127Y2467D03*
X2127Y2667D03*
X6552Y2667D03*
X6552Y2467D03*
X6552Y2267D03*
X6552Y1967D03*
X6852Y1967D03*
X6852Y2267D03*
X6852Y2467D03*
X6852Y2667D03*
X648Y2665D03*
X648Y2465D03*
X648Y2265D03*
X648Y1965D03*
X948Y1965D03*
X948Y2265D03*
X948Y2465D03*
X948Y2665D03*
X5370Y2666D03*
X5370Y2466D03*
X5370Y2266D03*
X5370Y1966D03*
X5670Y1966D03*
X5670Y2266D03*
X5670Y2466D03*
X5670Y2666D03*
G54D19*
X2335Y1077D03*
X2335Y2471D03*
X4740Y1077D03*
X4740Y2471D03*
G54D10*
X572Y408D03*
X566Y234D03*
X1771Y411D03*
X1771Y231D03*
X2946Y410D03*
X2946Y230D03*
X4127Y396D03*
X4127Y216D03*
X5308Y396D03*
X5308Y216D03*
G54D17*
X4724Y888D03*
X4624Y888D03*
X4524Y888D03*
X4424Y888D03*
X4324Y888D03*
X4224Y888D03*
X4124Y888D03*
X4024Y888D03*
X3924Y888D03*
X3824Y888D03*
X3724Y888D03*
X3624Y888D03*
X3524Y888D03*
X3424Y888D03*
X3324Y888D03*
X3224Y888D03*
X3124Y888D03*
X3024Y888D03*
X2924Y888D03*
X2824Y888D03*
G54D19*
X6961Y3053D03*
X158Y3042D03*
X156Y161D03*
X6963Y162D03*
G54D17*
X2340Y1738D03*
X2340Y1838D03*
X2340Y1938D03*
X2340Y2038D03*
G54D20*
X6227Y1389D03*
X5052Y1389D03*
X3891Y1389D03*
X2702Y1386D03*
X1525Y1386D03*
X328Y1386D03*
X6461Y1389D03*
X5286Y1389D03*
X4124Y1389D03*
X2936Y1386D03*
X1758Y1386D03*
X562Y1386D03*
G54D21*
X2665Y2594D03*
X3844Y2602D03*
X1481Y2596D03*
X6207Y2596D03*
X303Y2595D03*
X5024Y2596D03*
G54D22*
X3473Y1187D03*
X3423Y1187D03*
X3373Y1187D03*
X3323Y1187D03*
X3273Y1187D03*
X3223Y1187D03*
X3173Y1187D03*
X3123Y1187D03*
X3123Y1429D03*
X3173Y1429D03*
X3223Y1429D03*
X3273Y1429D03*
X3323Y1429D03*
X3373Y1429D03*
X3423Y1429D03*
X3473Y1429D03*
G54D23*
G36*
X2259Y1544D02*
X2212Y1544D01*
X2212Y1592D01*
X2259Y1592D01*
X2259Y1544D01*
G37*
D02*
G36*
X6325Y1638D02*
X6325Y1685D01*
X6372Y1685D01*
X6372Y1638D01*
X6325Y1638D01*
G37*
D02*
G36*
X5145Y1638D02*
X5145Y1685D01*
X5192Y1685D01*
X5192Y1638D01*
X5145Y1638D01*
G37*
D02*
G36*
X3984Y1638D02*
X3984Y1685D01*
X4031Y1685D01*
X4031Y1638D01*
X3984Y1638D01*
G37*
D02*
G36*
X2795Y1635D02*
X2795Y1682D01*
X2842Y1682D01*
X2842Y1635D01*
X2795Y1635D01*
G37*
D02*
G36*
X1623Y1635D02*
X1623Y1682D01*
X1670Y1682D01*
X1670Y1635D01*
X1623Y1635D01*
G37*
D02*
G36*
X455Y1644D02*
X455Y1691D01*
X502Y1691D01*
X502Y1644D01*
X455Y1644D01*
G37*
D02*
G36*
X1132Y2287D02*
X1179Y2287D01*
X1179Y2240D01*
X1132Y2240D01*
X1132Y2287D01*
G37*
D02*
G36*
X2343Y2288D02*
X2390Y2288D01*
X2390Y2241D01*
X2343Y2241D01*
X2343Y2288D01*
G37*
D02*
G36*
X7027Y2282D02*
X7074Y2282D01*
X7074Y2234D01*
X7027Y2234D01*
X7027Y2282D01*
G37*
D02*
G36*
X5865Y2293D02*
X5913Y2293D01*
X5913Y2245D01*
X5865Y2245D01*
X5865Y2293D01*
G37*
D02*
G36*
X4677Y2298D02*
X4724Y2298D01*
X4724Y2251D01*
X4677Y2251D01*
X4677Y2298D01*
G37*
D02*
G36*
X3493Y2293D02*
X3540Y2293D01*
X3540Y2246D01*
X3493Y2246D01*
X3493Y2293D01*
G37*
D02*
G54D24*
X3838Y2681D02*
X3847Y2681D01*
X3831Y2680D02*
X3855Y2680D01*
X3826Y2679D02*
X3860Y2679D01*
X3822Y2678D02*
X3864Y2678D01*
X3818Y2677D02*
X3867Y2677D01*
X3816Y2676D02*
X3870Y2676D01*
X1474Y2675D02*
X1488Y2675D01*
X3813Y2675D02*
X3873Y2675D01*
X5021Y2675D02*
X5026Y2675D01*
X6199Y2675D02*
X6213Y2675D01*
X1467Y2674D02*
X1494Y2674D01*
X3811Y2674D02*
X3875Y2674D01*
X5012Y2674D02*
X5035Y2674D01*
X6192Y2674D02*
X6220Y2674D01*
X294Y2673D02*
X310Y2673D01*
X1463Y2673D02*
X1499Y2673D01*
X2659Y2673D02*
X2669Y2673D01*
X3809Y2673D02*
X3877Y2673D01*
X5007Y2673D02*
X5040Y2673D01*
X6188Y2673D02*
X6224Y2673D01*
X288Y2672D02*
X317Y2672D01*
X1459Y2672D02*
X1503Y2672D01*
X2651Y2672D02*
X2676Y2672D01*
X3807Y2672D02*
X3879Y2672D01*
X5003Y2672D02*
X5044Y2672D01*
X6184Y2672D02*
X6228Y2672D01*
X283Y2671D02*
X321Y2671D01*
X1456Y2671D02*
X1506Y2671D01*
X2646Y2671D02*
X2681Y2671D01*
X3805Y2671D02*
X3881Y2671D01*
X4999Y2671D02*
X5048Y2671D01*
X6181Y2671D02*
X6231Y2671D01*
X279Y2670D02*
X325Y2670D01*
X1453Y2670D02*
X1509Y2670D01*
X2642Y2670D02*
X2685Y2670D01*
X3803Y2670D02*
X3882Y2670D01*
X4997Y2670D02*
X5051Y2670D01*
X6178Y2670D02*
X6234Y2670D01*
X276Y2669D02*
X328Y2669D01*
X1450Y2669D02*
X1511Y2669D01*
X2639Y2669D02*
X2688Y2669D01*
X3802Y2669D02*
X3884Y2669D01*
X4994Y2669D02*
X5053Y2669D01*
X6175Y2669D02*
X6237Y2669D01*
X274Y2668D02*
X330Y2668D01*
X1448Y2668D02*
X1513Y2668D01*
X2636Y2668D02*
X2691Y2668D01*
X3800Y2668D02*
X3886Y2668D01*
X4992Y2668D02*
X5056Y2668D01*
X6173Y2668D02*
X6239Y2668D01*
X271Y2667D02*
X333Y2667D01*
X1446Y2667D02*
X1515Y2667D01*
X2634Y2667D02*
X2694Y2667D01*
X3799Y2667D02*
X3887Y2667D01*
X4990Y2667D02*
X5058Y2667D01*
X6171Y2667D02*
X6241Y2667D01*
X269Y2666D02*
X335Y2666D01*
X1444Y2666D02*
X1517Y2666D01*
X2632Y2666D02*
X2696Y2666D01*
X3797Y2666D02*
X3889Y2666D01*
X4988Y2666D02*
X5060Y2666D01*
X6169Y2666D02*
X6243Y2666D01*
X267Y2665D02*
X337Y2665D01*
X1442Y2665D02*
X1519Y2665D01*
X2630Y2665D02*
X2698Y2665D01*
X3796Y2665D02*
X3890Y2665D01*
X4986Y2665D02*
X5061Y2665D01*
X6168Y2665D02*
X6244Y2665D01*
X265Y2664D02*
X339Y2664D01*
X1441Y2664D02*
X1521Y2664D01*
X2628Y2664D02*
X2700Y2664D01*
X3795Y2664D02*
X3891Y2664D01*
X4984Y2664D02*
X5063Y2664D01*
X6166Y2664D02*
X6246Y2664D01*
X263Y2663D02*
X341Y2663D01*
X1439Y2663D02*
X1522Y2663D01*
X2626Y2663D02*
X2702Y2663D01*
X3793Y2663D02*
X3893Y2663D01*
X4983Y2663D02*
X5065Y2663D01*
X6164Y2663D02*
X6248Y2663D01*
X262Y2662D02*
X342Y2662D01*
X1438Y2662D02*
X1524Y2662D01*
X2624Y2662D02*
X2703Y2662D01*
X3792Y2662D02*
X3894Y2662D01*
X4981Y2662D02*
X5066Y2662D01*
X6163Y2662D02*
X6249Y2662D01*
X260Y2661D02*
X344Y2661D01*
X1436Y2661D02*
X1525Y2661D01*
X2623Y2661D02*
X2705Y2661D01*
X3791Y2661D02*
X3895Y2661D01*
X4979Y2661D02*
X5068Y2661D01*
X6161Y2661D02*
X6251Y2661D01*
X259Y2660D02*
X345Y2660D01*
X1435Y2660D02*
X1527Y2660D01*
X2621Y2660D02*
X2707Y2660D01*
X3790Y2660D02*
X3896Y2660D01*
X4978Y2660D02*
X5069Y2660D01*
X6160Y2660D02*
X6252Y2660D01*
X257Y2659D02*
X347Y2659D01*
X1433Y2659D02*
X1528Y2659D01*
X2619Y2659D02*
X2708Y2659D01*
X3789Y2659D02*
X3897Y2659D01*
X4977Y2659D02*
X5070Y2659D01*
X6159Y2659D02*
X6253Y2659D01*
X256Y2658D02*
X348Y2658D01*
X1432Y2658D02*
X1529Y2658D01*
X2618Y2658D02*
X2709Y2658D01*
X3788Y2658D02*
X3898Y2658D01*
X4975Y2658D02*
X5072Y2658D01*
X6157Y2658D02*
X6255Y2658D01*
X255Y2657D02*
X350Y2657D01*
X1431Y2657D02*
X1531Y2657D01*
X2617Y2657D02*
X2711Y2657D01*
X3787Y2657D02*
X3899Y2657D01*
X4974Y2657D02*
X5073Y2657D01*
X6156Y2657D02*
X6256Y2657D01*
X253Y2656D02*
X351Y2656D01*
X1430Y2656D02*
X1532Y2656D01*
X2615Y2656D02*
X2712Y2656D01*
X3786Y2656D02*
X3900Y2656D01*
X4973Y2656D02*
X5074Y2656D01*
X6155Y2656D02*
X6257Y2656D01*
X252Y2655D02*
X352Y2655D01*
X1429Y2655D02*
X1533Y2655D01*
X2614Y2655D02*
X2713Y2655D01*
X3785Y2655D02*
X3901Y2655D01*
X4972Y2655D02*
X5075Y2655D01*
X6154Y2655D02*
X6258Y2655D01*
X251Y2654D02*
X353Y2654D01*
X1428Y2654D02*
X1534Y2654D01*
X2613Y2654D02*
X2715Y2654D01*
X3784Y2654D02*
X3902Y2654D01*
X4971Y2654D02*
X5076Y2654D01*
X6153Y2654D02*
X6259Y2654D01*
X250Y2653D02*
X354Y2653D01*
X1426Y2653D02*
X1535Y2653D01*
X2612Y2653D02*
X2716Y2653D01*
X3783Y2653D02*
X3903Y2653D01*
X4970Y2653D02*
X5078Y2653D01*
X6152Y2653D02*
X6260Y2653D01*
X249Y2652D02*
X355Y2652D01*
X1425Y2652D02*
X1536Y2652D01*
X2611Y2652D02*
X2717Y2652D01*
X3782Y2652D02*
X3903Y2652D01*
X4969Y2652D02*
X5079Y2652D01*
X6151Y2652D02*
X6261Y2652D01*
X248Y2651D02*
X357Y2651D01*
X1424Y2651D02*
X1537Y2651D01*
X2610Y2651D02*
X2718Y2651D01*
X3782Y2651D02*
X3904Y2651D01*
X4968Y2651D02*
X5080Y2651D01*
X6150Y2651D02*
X6262Y2651D01*
X247Y2650D02*
X358Y2650D01*
X1424Y2650D02*
X1538Y2650D01*
X2609Y2650D02*
X2719Y2650D01*
X3781Y2650D02*
X3905Y2650D01*
X4967Y2650D02*
X5080Y2650D01*
X6149Y2650D02*
X6263Y2650D01*
X246Y2649D02*
X358Y2649D01*
X1423Y2649D02*
X1539Y2649D01*
X2608Y2649D02*
X2720Y2649D01*
X3780Y2649D02*
X3906Y2649D01*
X4966Y2649D02*
X5081Y2649D01*
X6148Y2649D02*
X6264Y2649D01*
X245Y2648D02*
X359Y2648D01*
X1422Y2648D02*
X1540Y2648D01*
X2607Y2648D02*
X2721Y2648D01*
X3779Y2648D02*
X3906Y2648D01*
X4965Y2648D02*
X5082Y2648D01*
X6147Y2648D02*
X6265Y2648D01*
X244Y2647D02*
X360Y2647D01*
X1421Y2647D02*
X1541Y2647D01*
X2606Y2647D02*
X2722Y2647D01*
X3779Y2647D02*
X3907Y2647D01*
X4964Y2647D02*
X5083Y2647D01*
X6146Y2647D02*
X6266Y2647D01*
X243Y2646D02*
X361Y2646D01*
X1420Y2646D02*
X1541Y2646D01*
X2605Y2646D02*
X2723Y2646D01*
X3778Y2646D02*
X3908Y2646D01*
X4963Y2646D02*
X5084Y2646D01*
X6145Y2646D02*
X6267Y2646D01*
X242Y2645D02*
X362Y2645D01*
X1419Y2645D02*
X1542Y2645D01*
X2604Y2645D02*
X2724Y2645D01*
X3777Y2645D02*
X3908Y2645D01*
X4962Y2645D02*
X5085Y2645D01*
X6145Y2645D02*
X6267Y2645D01*
X241Y2644D02*
X363Y2644D01*
X1419Y2644D02*
X1543Y2644D01*
X2603Y2644D02*
X2724Y2644D01*
X3777Y2644D02*
X3909Y2644D01*
X4962Y2644D02*
X5085Y2644D01*
X6144Y2644D02*
X6268Y2644D01*
X241Y2643D02*
X364Y2643D01*
X1418Y2643D02*
X1544Y2643D01*
X2603Y2643D02*
X2725Y2643D01*
X3776Y2643D02*
X3910Y2643D01*
X4961Y2643D02*
X5086Y2643D01*
X6143Y2643D02*
X6269Y2643D01*
X240Y2642D02*
X364Y2642D01*
X1417Y2642D02*
X1544Y2642D01*
X2602Y2642D02*
X2726Y2642D01*
X3776Y2642D02*
X3910Y2642D01*
X4960Y2642D02*
X5087Y2642D01*
X6142Y2642D02*
X6270Y2642D01*
X239Y2641D02*
X365Y2641D01*
X1416Y2641D02*
X1545Y2641D01*
X2601Y2641D02*
X2727Y2641D01*
X3775Y2641D02*
X3911Y2641D01*
X4960Y2641D02*
X5088Y2641D01*
X6142Y2641D02*
X6270Y2641D01*
X238Y2640D02*
X366Y2640D01*
X1416Y2640D02*
X1546Y2640D01*
X2600Y2640D02*
X2727Y2640D01*
X3774Y2640D02*
X3911Y2640D01*
X4959Y2640D02*
X5088Y2640D01*
X6141Y2640D02*
X6271Y2640D01*
X238Y2639D02*
X366Y2639D01*
X1415Y2639D02*
X1546Y2639D01*
X2600Y2639D02*
X2728Y2639D01*
X3774Y2639D02*
X3912Y2639D01*
X4958Y2639D02*
X5089Y2639D01*
X6140Y2639D02*
X6272Y2639D01*
X237Y2638D02*
X367Y2638D01*
X1415Y2638D02*
X1547Y2638D01*
X2599Y2638D02*
X2729Y2638D01*
X3773Y2638D02*
X3912Y2638D01*
X4958Y2638D02*
X5090Y2638D01*
X6140Y2638D02*
X6272Y2638D01*
X236Y2637D02*
X368Y2637D01*
X1414Y2637D02*
X1548Y2637D01*
X2598Y2637D02*
X2729Y2637D01*
X3773Y2637D02*
X3913Y2637D01*
X4957Y2637D02*
X5090Y2637D01*
X6139Y2637D02*
X6273Y2637D01*
X236Y2636D02*
X368Y2636D01*
X1413Y2636D02*
X1548Y2636D01*
X2598Y2636D02*
X2730Y2636D01*
X3772Y2636D02*
X3913Y2636D01*
X4956Y2636D02*
X5091Y2636D01*
X6139Y2636D02*
X6273Y2636D01*
X235Y2635D02*
X369Y2635D01*
X1413Y2635D02*
X1549Y2635D01*
X2597Y2635D02*
X2731Y2635D01*
X3772Y2635D02*
X3914Y2635D01*
X4956Y2635D02*
X5091Y2635D01*
X6138Y2635D02*
X6274Y2635D01*
X235Y2634D02*
X370Y2634D01*
X1412Y2634D02*
X1549Y2634D01*
X2597Y2634D02*
X2731Y2634D01*
X3771Y2634D02*
X3914Y2634D01*
X4955Y2634D02*
X5092Y2634D01*
X6137Y2634D02*
X6275Y2634D01*
X234Y2633D02*
X370Y2633D01*
X1412Y2633D02*
X1550Y2633D01*
X2596Y2633D02*
X2732Y2633D01*
X3771Y2633D02*
X3915Y2633D01*
X4955Y2633D02*
X5093Y2633D01*
X6137Y2633D02*
X6275Y2633D01*
X233Y2632D02*
X371Y2632D01*
X1411Y2632D02*
X1550Y2632D01*
X2595Y2632D02*
X2732Y2632D01*
X3771Y2632D02*
X3915Y2632D01*
X4954Y2632D02*
X5093Y2632D01*
X6136Y2632D02*
X6276Y2632D01*
X233Y2631D02*
X371Y2631D01*
X1411Y2631D02*
X1551Y2631D01*
X2595Y2631D02*
X2733Y2631D01*
X3770Y2631D02*
X3915Y2631D01*
X4954Y2631D02*
X5094Y2631D01*
X6136Y2631D02*
X6276Y2631D01*
X232Y2630D02*
X372Y2630D01*
X1410Y2630D02*
X1551Y2630D01*
X2594Y2630D02*
X2733Y2630D01*
X3770Y2630D02*
X3916Y2630D01*
X4953Y2630D02*
X5094Y2630D01*
X6135Y2630D02*
X6277Y2630D01*
X232Y2629D02*
X372Y2629D01*
X1410Y2629D02*
X1552Y2629D01*
X2594Y2629D02*
X2734Y2629D01*
X3770Y2629D02*
X3916Y2629D01*
X4953Y2629D02*
X5094Y2629D01*
X6135Y2629D02*
X6277Y2629D01*
X231Y2628D02*
X373Y2628D01*
X1409Y2628D02*
X1552Y2628D01*
X2593Y2628D02*
X2734Y2628D01*
X3769Y2628D02*
X3917Y2628D01*
X4952Y2628D02*
X5095Y2628D01*
X6134Y2628D02*
X6278Y2628D01*
X231Y2627D02*
X373Y2627D01*
X1409Y2627D02*
X1553Y2627D01*
X2593Y2627D02*
X2735Y2627D01*
X3769Y2627D02*
X3917Y2627D01*
X4952Y2627D02*
X5095Y2627D01*
X6134Y2627D02*
X6278Y2627D01*
X230Y2626D02*
X374Y2626D01*
X1408Y2626D02*
X1553Y2626D01*
X2592Y2626D02*
X2735Y2626D01*
X3768Y2626D02*
X3917Y2626D01*
X4951Y2626D02*
X5096Y2626D01*
X6134Y2626D02*
X6278Y2626D01*
X230Y2625D02*
X374Y2625D01*
X1408Y2625D02*
X1553Y2625D01*
X2592Y2625D02*
X2736Y2625D01*
X3768Y2625D02*
X3918Y2625D01*
X4951Y2625D02*
X5096Y2625D01*
X6133Y2625D02*
X6279Y2625D01*
X230Y2624D02*
X374Y2624D01*
X1408Y2624D02*
X1554Y2624D01*
X2592Y2624D02*
X2736Y2624D01*
X3768Y2624D02*
X3918Y2624D01*
X4951Y2624D02*
X5097Y2624D01*
X6133Y2624D02*
X6279Y2624D01*
X229Y2623D02*
X375Y2623D01*
X1407Y2623D02*
X1554Y2623D01*
X2591Y2623D02*
X2736Y2623D01*
X3768Y2623D02*
X3918Y2623D01*
X4950Y2623D02*
X5097Y2623D01*
X6133Y2623D02*
X6279Y2623D01*
X229Y2622D02*
X375Y2622D01*
X1407Y2622D02*
X1555Y2622D01*
X2591Y2622D02*
X2737Y2622D01*
X3767Y2622D02*
X3918Y2622D01*
X4950Y2622D02*
X5097Y2622D01*
X6132Y2622D02*
X6280Y2622D01*
X229Y2621D02*
X376Y2621D01*
X1407Y2621D02*
X1555Y2621D01*
X2590Y2621D02*
X2737Y2621D01*
X3767Y2621D02*
X3919Y2621D01*
X4950Y2621D02*
X5098Y2621D01*
X6132Y2621D02*
X6280Y2621D01*
X228Y2620D02*
X376Y2620D01*
X1406Y2620D02*
X1555Y2620D01*
X2590Y2620D02*
X2738Y2620D01*
X3767Y2620D02*
X3919Y2620D01*
X4949Y2620D02*
X5098Y2620D01*
X6132Y2620D02*
X6280Y2620D01*
X228Y2619D02*
X376Y2619D01*
X1406Y2619D02*
X1555Y2619D01*
X2590Y2619D02*
X2738Y2619D01*
X3767Y2619D02*
X3919Y2619D01*
X4949Y2619D02*
X5098Y2619D01*
X6131Y2619D02*
X6281Y2619D01*
X228Y2618D02*
X377Y2618D01*
X1406Y2618D02*
X1556Y2618D01*
X2589Y2618D02*
X2738Y2618D01*
X3766Y2618D02*
X3919Y2618D01*
X4949Y2618D02*
X5098Y2618D01*
X6131Y2618D02*
X6281Y2618D01*
X227Y2617D02*
X377Y2617D01*
X1406Y2617D02*
X1556Y2617D01*
X2589Y2617D02*
X2738Y2617D01*
X3766Y2617D02*
X3919Y2617D01*
X4948Y2617D02*
X5099Y2617D01*
X6131Y2617D02*
X6281Y2617D01*
X227Y2616D02*
X377Y2616D01*
X1405Y2616D02*
X1556Y2616D01*
X2589Y2616D02*
X2739Y2616D01*
X3766Y2616D02*
X3920Y2616D01*
X4948Y2616D02*
X5099Y2616D01*
X6131Y2616D02*
X6281Y2616D01*
X227Y2615D02*
X377Y2615D01*
X1405Y2615D02*
X1557Y2615D01*
X2589Y2615D02*
X2739Y2615D01*
X3766Y2615D02*
X3920Y2615D01*
X4948Y2615D02*
X5099Y2615D01*
X6130Y2615D02*
X6282Y2615D01*
X227Y2614D02*
X378Y2614D01*
X1405Y2614D02*
X1557Y2614D01*
X2588Y2614D02*
X2739Y2614D01*
X3766Y2614D02*
X3920Y2614D01*
X4948Y2614D02*
X5099Y2614D01*
X6130Y2614D02*
X6282Y2614D01*
X226Y2613D02*
X378Y2613D01*
X1405Y2613D02*
X1557Y2613D01*
X2588Y2613D02*
X2739Y2613D01*
X3766Y2613D02*
X3920Y2613D01*
X4947Y2613D02*
X5100Y2613D01*
X6130Y2613D02*
X6282Y2613D01*
X226Y2612D02*
X378Y2612D01*
X1404Y2612D02*
X1557Y2612D01*
X2588Y2612D02*
X2740Y2612D01*
X3766Y2612D02*
X3920Y2612D01*
X4947Y2612D02*
X5100Y2612D01*
X6130Y2612D02*
X6282Y2612D01*
X226Y2611D02*
X378Y2611D01*
X1404Y2611D02*
X1557Y2611D01*
X2588Y2611D02*
X2740Y2611D01*
X3765Y2611D02*
X3920Y2611D01*
X4947Y2611D02*
X5100Y2611D01*
X6129Y2611D02*
X6283Y2611D01*
X226Y2610D02*
X378Y2610D01*
X1404Y2610D02*
X1558Y2610D01*
X2587Y2610D02*
X2740Y2610D01*
X3765Y2610D02*
X3920Y2610D01*
X4947Y2610D02*
X5100Y2610D01*
X6129Y2610D02*
X6283Y2610D01*
X225Y2609D02*
X379Y2609D01*
X1404Y2609D02*
X1558Y2609D01*
X2587Y2609D02*
X2740Y2609D01*
X3765Y2609D02*
X3921Y2609D01*
X4947Y2609D02*
X5100Y2609D01*
X6129Y2609D02*
X6283Y2609D01*
X225Y2608D02*
X379Y2608D01*
X1404Y2608D02*
X1558Y2608D01*
X2587Y2608D02*
X2741Y2608D01*
X3765Y2608D02*
X3921Y2608D01*
X4947Y2608D02*
X5101Y2608D01*
X6129Y2608D02*
X6283Y2608D01*
X225Y2607D02*
X379Y2607D01*
X1404Y2607D02*
X1558Y2607D01*
X2587Y2607D02*
X2741Y2607D01*
X3765Y2607D02*
X3921Y2607D01*
X4946Y2607D02*
X5101Y2607D01*
X6129Y2607D02*
X6283Y2607D01*
X225Y2606D02*
X379Y2606D01*
X1403Y2606D02*
X1558Y2606D01*
X2587Y2606D02*
X2741Y2606D01*
X3765Y2606D02*
X3921Y2606D01*
X4946Y2606D02*
X5101Y2606D01*
X6129Y2606D02*
X6283Y2606D01*
X225Y2605D02*
X379Y2605D01*
X1403Y2605D02*
X1558Y2605D01*
X2587Y2605D02*
X2741Y2605D01*
X3765Y2605D02*
X3921Y2605D01*
X4946Y2605D02*
X5101Y2605D01*
X6128Y2605D02*
X6284Y2605D01*
X225Y2604D02*
X379Y2604D01*
X1403Y2604D02*
X1558Y2604D01*
X2587Y2604D02*
X2741Y2604D01*
X3765Y2604D02*
X3921Y2604D01*
X4946Y2604D02*
X5101Y2604D01*
X6128Y2604D02*
X6284Y2604D01*
X225Y2603D02*
X380Y2603D01*
X1403Y2603D02*
X1558Y2603D01*
X2586Y2603D02*
X2741Y2603D01*
X3765Y2603D02*
X3921Y2603D01*
X4946Y2603D02*
X5101Y2603D01*
X6128Y2603D02*
X6284Y2603D01*
X224Y2602D02*
X380Y2602D01*
X1403Y2602D02*
X1559Y2602D01*
X2586Y2602D02*
X2741Y2602D01*
X3765Y2602D02*
X3921Y2602D01*
X4946Y2602D02*
X5101Y2602D01*
X6128Y2602D02*
X6284Y2602D01*
X224Y2601D02*
X380Y2601D01*
X1403Y2601D02*
X1559Y2601D01*
X2586Y2601D02*
X2742Y2601D01*
X3765Y2601D02*
X3921Y2601D01*
X4946Y2601D02*
X5101Y2601D01*
X6128Y2601D02*
X6284Y2601D01*
X224Y2600D02*
X380Y2600D01*
X1403Y2600D02*
X1559Y2600D01*
X2586Y2600D02*
X2742Y2600D01*
X3765Y2600D02*
X3921Y2600D01*
X4946Y2600D02*
X5101Y2600D01*
X6128Y2600D02*
X6284Y2600D01*
X224Y2599D02*
X380Y2599D01*
X1403Y2599D02*
X1559Y2599D01*
X2586Y2599D02*
X2742Y2599D01*
X3765Y2599D02*
X3921Y2599D01*
X4946Y2599D02*
X5102Y2599D01*
X6128Y2599D02*
X6284Y2599D01*
X224Y2598D02*
X380Y2598D01*
X1403Y2598D02*
X1559Y2598D01*
X2586Y2598D02*
X2742Y2598D01*
X3765Y2598D02*
X3921Y2598D01*
X4946Y2598D02*
X5102Y2598D01*
X6128Y2598D02*
X6284Y2598D01*
X224Y2597D02*
X380Y2597D01*
X1403Y2597D02*
X1559Y2597D01*
X2586Y2597D02*
X2742Y2597D01*
X3765Y2597D02*
X3921Y2597D01*
X4946Y2597D02*
X5102Y2597D01*
X6128Y2597D02*
X6284Y2597D01*
X224Y2596D02*
X380Y2596D01*
X1403Y2596D02*
X1559Y2596D01*
X2586Y2596D02*
X2742Y2596D01*
X3765Y2596D02*
X3921Y2596D01*
X4946Y2596D02*
X5102Y2596D01*
X6128Y2596D02*
X6284Y2596D01*
X224Y2595D02*
X380Y2595D01*
X1403Y2595D02*
X1559Y2595D01*
X2586Y2595D02*
X2742Y2595D01*
X3765Y2595D02*
X3920Y2595D01*
X4946Y2595D02*
X5102Y2595D01*
X6128Y2595D02*
X6284Y2595D01*
X224Y2594D02*
X380Y2594D01*
X1403Y2594D02*
X1559Y2594D01*
X2586Y2594D02*
X2742Y2594D01*
X3765Y2594D02*
X3920Y2594D01*
X4946Y2594D02*
X5101Y2594D01*
X6128Y2594D02*
X6284Y2594D01*
X224Y2593D02*
X380Y2593D01*
X1403Y2593D02*
X1559Y2593D01*
X2586Y2593D02*
X2742Y2593D01*
X3766Y2593D02*
X3920Y2593D01*
X4946Y2593D02*
X5101Y2593D01*
X6128Y2593D02*
X6284Y2593D01*
X224Y2592D02*
X380Y2592D01*
X1403Y2592D02*
X1559Y2592D01*
X2586Y2592D02*
X2742Y2592D01*
X3766Y2592D02*
X3920Y2592D01*
X4946Y2592D02*
X5101Y2592D01*
X6128Y2592D02*
X6284Y2592D01*
X224Y2591D02*
X380Y2591D01*
X1403Y2591D02*
X1558Y2591D01*
X2586Y2591D02*
X2742Y2591D01*
X3766Y2591D02*
X3920Y2591D01*
X4946Y2591D02*
X5101Y2591D01*
X6128Y2591D02*
X6284Y2591D01*
X224Y2590D02*
X380Y2590D01*
X1403Y2590D02*
X1558Y2590D01*
X2586Y2590D02*
X2742Y2590D01*
X3766Y2590D02*
X3920Y2590D01*
X4946Y2590D02*
X5101Y2590D01*
X6128Y2590D02*
X6284Y2590D01*
X224Y2589D02*
X380Y2589D01*
X1403Y2589D02*
X1558Y2589D01*
X2586Y2589D02*
X2742Y2589D01*
X3766Y2589D02*
X3920Y2589D01*
X4946Y2589D02*
X5101Y2589D01*
X6128Y2589D02*
X6284Y2589D01*
X224Y2588D02*
X380Y2588D01*
X1403Y2588D02*
X1558Y2588D01*
X2586Y2588D02*
X2741Y2588D01*
X3766Y2588D02*
X3919Y2588D01*
X4946Y2588D02*
X5101Y2588D01*
X6129Y2588D02*
X6283Y2588D01*
X225Y2587D02*
X380Y2587D01*
X1404Y2587D02*
X1558Y2587D01*
X2586Y2587D02*
X2741Y2587D01*
X3767Y2587D02*
X3919Y2587D01*
X4946Y2587D02*
X5101Y2587D01*
X6129Y2587D02*
X6283Y2587D01*
X225Y2586D02*
X379Y2586D01*
X1404Y2586D02*
X1558Y2586D01*
X2586Y2586D02*
X2741Y2586D01*
X3767Y2586D02*
X3919Y2586D01*
X4946Y2586D02*
X5101Y2586D01*
X6129Y2586D02*
X6283Y2586D01*
X225Y2585D02*
X379Y2585D01*
X1404Y2585D02*
X1558Y2585D01*
X2587Y2585D02*
X2741Y2585D01*
X3767Y2585D02*
X3919Y2585D01*
X4947Y2585D02*
X5101Y2585D01*
X6129Y2585D02*
X6283Y2585D01*
X225Y2584D02*
X379Y2584D01*
X1404Y2584D02*
X1558Y2584D01*
X2587Y2584D02*
X2741Y2584D01*
X3767Y2584D02*
X3918Y2584D01*
X4947Y2584D02*
X5100Y2584D01*
X6129Y2584D02*
X6283Y2584D01*
X225Y2583D02*
X379Y2583D01*
X1404Y2583D02*
X1557Y2583D01*
X2587Y2583D02*
X2741Y2583D01*
X3768Y2583D02*
X3918Y2583D01*
X4947Y2583D02*
X5100Y2583D01*
X6129Y2583D02*
X6283Y2583D01*
X225Y2582D02*
X379Y2582D01*
X1404Y2582D02*
X1557Y2582D01*
X2587Y2582D02*
X2741Y2582D01*
X3768Y2582D02*
X3918Y2582D01*
X4947Y2582D02*
X5100Y2582D01*
X6130Y2582D02*
X6282Y2582D01*
X225Y2581D02*
X379Y2581D01*
X1405Y2581D02*
X1557Y2581D01*
X2587Y2581D02*
X2740Y2581D01*
X3768Y2581D02*
X3918Y2581D01*
X4947Y2581D02*
X5100Y2581D01*
X6130Y2581D02*
X6282Y2581D01*
X226Y2580D02*
X378Y2580D01*
X1405Y2580D02*
X1557Y2580D01*
X2587Y2580D02*
X2740Y2580D01*
X3768Y2580D02*
X3917Y2580D01*
X4947Y2580D02*
X5100Y2580D01*
X6130Y2580D02*
X6282Y2580D01*
X226Y2579D02*
X378Y2579D01*
X1405Y2579D02*
X1557Y2579D01*
X2588Y2579D02*
X2740Y2579D01*
X3769Y2579D02*
X3917Y2579D01*
X4948Y2579D02*
X5099Y2579D01*
X6130Y2579D02*
X6282Y2579D01*
X226Y2578D02*
X378Y2578D01*
X1405Y2578D02*
X1556Y2578D01*
X2588Y2578D02*
X2740Y2578D01*
X3769Y2578D02*
X3917Y2578D01*
X4948Y2578D02*
X5099Y2578D01*
X6130Y2578D02*
X6282Y2578D01*
X226Y2577D02*
X378Y2577D01*
X1406Y2577D02*
X1556Y2577D01*
X2588Y2577D02*
X2740Y2577D01*
X3769Y2577D02*
X3916Y2577D01*
X4948Y2577D02*
X5099Y2577D01*
X6131Y2577D02*
X6281Y2577D01*
X227Y2576D02*
X378Y2576D01*
X1406Y2576D02*
X1556Y2576D01*
X2588Y2576D02*
X2739Y2576D01*
X3770Y2576D02*
X3916Y2576D01*
X4948Y2576D02*
X5099Y2576D01*
X6131Y2576D02*
X6281Y2576D01*
X227Y2575D02*
X377Y2575D01*
X1406Y2575D02*
X1556Y2575D01*
X2589Y2575D02*
X2739Y2575D01*
X3770Y2575D02*
X3916Y2575D01*
X4949Y2575D02*
X5098Y2575D01*
X6131Y2575D02*
X6281Y2575D01*
X227Y2574D02*
X377Y2574D01*
X1406Y2574D02*
X1555Y2574D01*
X2589Y2574D02*
X2739Y2574D01*
X3770Y2574D02*
X3915Y2574D01*
X4949Y2574D02*
X5098Y2574D01*
X6131Y2574D02*
X6281Y2574D01*
X227Y2573D02*
X377Y2573D01*
X1407Y2573D02*
X1555Y2573D01*
X2589Y2573D02*
X2739Y2573D01*
X3771Y2573D02*
X3915Y2573D01*
X4949Y2573D02*
X5098Y2573D01*
X6132Y2573D02*
X6280Y2573D01*
X228Y2572D02*
X377Y2572D01*
X1407Y2572D02*
X1555Y2572D01*
X2589Y2572D02*
X2738Y2572D01*
X3771Y2572D02*
X3915Y2572D01*
X4950Y2572D02*
X5098Y2572D01*
X6132Y2572D02*
X6280Y2572D01*
X228Y2571D02*
X376Y2571D01*
X1407Y2571D02*
X1554Y2571D01*
X2590Y2571D02*
X2738Y2571D01*
X3772Y2571D02*
X3914Y2571D01*
X4950Y2571D02*
X5097Y2571D01*
X6133Y2571D02*
X6279Y2571D01*
X228Y2570D02*
X376Y2570D01*
X1408Y2570D02*
X1554Y2570D01*
X2590Y2570D02*
X2738Y2570D01*
X3772Y2570D02*
X3914Y2570D01*
X4950Y2570D02*
X5097Y2570D01*
X6133Y2570D02*
X6279Y2570D01*
X229Y2569D02*
X375Y2569D01*
X1408Y2569D02*
X1554Y2569D01*
X2590Y2569D02*
X2737Y2569D01*
X3773Y2569D02*
X3913Y2569D01*
X4951Y2569D02*
X5096Y2569D01*
X6133Y2569D02*
X6279Y2569D01*
X229Y2568D02*
X375Y2568D01*
X1408Y2568D02*
X1553Y2568D01*
X2591Y2568D02*
X2737Y2568D01*
X3773Y2568D02*
X3913Y2568D01*
X4951Y2568D02*
X5096Y2568D01*
X6134Y2568D02*
X6278Y2568D01*
X229Y2567D02*
X375Y2567D01*
X1409Y2567D02*
X1553Y2567D01*
X2591Y2567D02*
X2737Y2567D01*
X3774Y2567D02*
X3912Y2567D01*
X4951Y2567D02*
X5096Y2567D01*
X6134Y2567D02*
X6278Y2567D01*
X230Y2566D02*
X374Y2566D01*
X1409Y2566D02*
X1552Y2566D01*
X2591Y2566D02*
X2736Y2566D01*
X3774Y2566D02*
X3912Y2566D01*
X4952Y2566D02*
X5095Y2566D01*
X6134Y2566D02*
X6278Y2566D01*
X230Y2565D02*
X374Y2565D01*
X1410Y2565D02*
X1552Y2565D01*
X2592Y2565D02*
X2736Y2565D01*
X3775Y2565D02*
X3911Y2565D01*
X4952Y2565D02*
X5095Y2565D01*
X6135Y2565D02*
X6277Y2565D01*
X230Y2564D02*
X374Y2564D01*
X1410Y2564D02*
X1551Y2564D01*
X2592Y2564D02*
X2736Y2564D01*
X3775Y2564D02*
X3911Y2564D01*
X4953Y2564D02*
X5094Y2564D01*
X6135Y2564D02*
X6277Y2564D01*
X231Y2563D02*
X373Y2563D01*
X1411Y2563D02*
X1551Y2563D01*
X2593Y2563D02*
X2735Y2563D01*
X3776Y2563D02*
X3910Y2563D01*
X4953Y2563D02*
X5094Y2563D01*
X6136Y2563D02*
X6276Y2563D01*
X231Y2562D02*
X373Y2562D01*
X1411Y2562D02*
X1550Y2562D01*
X2593Y2562D02*
X2735Y2562D01*
X3776Y2562D02*
X3909Y2562D01*
X4954Y2562D02*
X5093Y2562D01*
X6136Y2562D02*
X6276Y2562D01*
X232Y2561D02*
X372Y2561D01*
X1412Y2561D02*
X1550Y2561D01*
X2594Y2561D02*
X2734Y2561D01*
X3777Y2561D02*
X3909Y2561D01*
X4954Y2561D02*
X5093Y2561D01*
X6137Y2561D02*
X6275Y2561D01*
X232Y2560D02*
X372Y2560D01*
X1412Y2560D02*
X1549Y2560D01*
X2594Y2560D02*
X2734Y2560D01*
X3778Y2560D02*
X3908Y2560D01*
X4955Y2560D02*
X5092Y2560D01*
X6137Y2560D02*
X6275Y2560D01*
X233Y2559D02*
X371Y2559D01*
X1413Y2559D02*
X1549Y2559D01*
X2595Y2559D02*
X2733Y2559D01*
X3778Y2559D02*
X3907Y2559D01*
X4955Y2559D02*
X5092Y2559D01*
X6138Y2559D02*
X6274Y2559D01*
X233Y2558D02*
X371Y2558D01*
X1413Y2558D02*
X1548Y2558D01*
X2595Y2558D02*
X2733Y2558D01*
X3779Y2558D02*
X3907Y2558D01*
X4956Y2558D02*
X5091Y2558D01*
X6138Y2558D02*
X6274Y2558D01*
X234Y2557D02*
X370Y2557D01*
X1414Y2557D02*
X1548Y2557D01*
X2596Y2557D02*
X2732Y2557D01*
X3780Y2557D02*
X3906Y2557D01*
X4956Y2557D02*
X5091Y2557D01*
X6139Y2557D02*
X6273Y2557D01*
X235Y2556D02*
X370Y2556D01*
X1414Y2556D02*
X1547Y2556D01*
X2596Y2556D02*
X2731Y2556D01*
X3780Y2556D02*
X3905Y2556D01*
X4957Y2556D02*
X5090Y2556D01*
X6140Y2556D02*
X6272Y2556D01*
X235Y2555D02*
X369Y2555D01*
X1415Y2555D02*
X1546Y2555D01*
X2597Y2555D02*
X2731Y2555D01*
X3781Y2555D02*
X3905Y2555D01*
X4958Y2555D02*
X5089Y2555D01*
X6140Y2555D02*
X6272Y2555D01*
X236Y2554D02*
X368Y2554D01*
X1416Y2554D02*
X1546Y2554D01*
X2597Y2554D02*
X2730Y2554D01*
X3782Y2554D02*
X3904Y2554D01*
X4958Y2554D02*
X5089Y2554D01*
X6141Y2554D02*
X6271Y2554D01*
X236Y2553D02*
X368Y2553D01*
X1416Y2553D02*
X1545Y2553D01*
X2598Y2553D02*
X2730Y2553D01*
X3783Y2553D02*
X3903Y2553D01*
X4959Y2553D02*
X5088Y2553D01*
X6142Y2553D02*
X6270Y2553D01*
X237Y2552D02*
X367Y2552D01*
X1417Y2552D02*
X1544Y2552D01*
X2599Y2552D02*
X2729Y2552D01*
X3784Y2552D02*
X3902Y2552D01*
X4960Y2552D02*
X5088Y2552D01*
X6142Y2552D02*
X6270Y2552D01*
X238Y2551D02*
X366Y2551D01*
X1418Y2551D02*
X1544Y2551D01*
X2599Y2551D02*
X2728Y2551D01*
X3784Y2551D02*
X3901Y2551D01*
X4960Y2551D02*
X5087Y2551D01*
X6143Y2551D02*
X6269Y2551D01*
X238Y2550D02*
X366Y2550D01*
X1419Y2550D02*
X1543Y2550D01*
X2600Y2550D02*
X2728Y2550D01*
X3785Y2550D02*
X3900Y2550D01*
X4961Y2550D02*
X5086Y2550D01*
X6144Y2550D02*
X6268Y2550D01*
X239Y2549D02*
X365Y2549D01*
X1419Y2549D02*
X1542Y2549D01*
X2601Y2549D02*
X2727Y2549D01*
X3786Y2549D02*
X3900Y2549D01*
X4962Y2549D02*
X5085Y2549D01*
X6145Y2549D02*
X6267Y2549D01*
X240Y2548D02*
X364Y2548D01*
X1420Y2548D02*
X1542Y2548D01*
X2601Y2548D02*
X2726Y2548D01*
X3787Y2548D02*
X3899Y2548D01*
X4963Y2548D02*
X5085Y2548D01*
X6145Y2548D02*
X6267Y2548D01*
X241Y2547D02*
X363Y2547D01*
X1421Y2547D02*
X1541Y2547D01*
X2602Y2547D02*
X2725Y2547D01*
X3788Y2547D02*
X3898Y2547D01*
X4963Y2547D02*
X5084Y2547D01*
X6146Y2547D02*
X6266Y2547D01*
X241Y2546D02*
X363Y2546D01*
X1422Y2546D02*
X1540Y2546D01*
X2603Y2546D02*
X2725Y2546D01*
X3789Y2546D02*
X3897Y2546D01*
X4964Y2546D02*
X5083Y2546D01*
X6147Y2546D02*
X6265Y2546D01*
X242Y2545D02*
X362Y2545D01*
X1423Y2545D02*
X1539Y2545D01*
X2604Y2545D02*
X2724Y2545D01*
X3790Y2545D02*
X3895Y2545D01*
X4965Y2545D02*
X5082Y2545D01*
X6148Y2545D02*
X6264Y2545D01*
X243Y2544D02*
X361Y2544D01*
X1423Y2544D02*
X1538Y2544D01*
X2605Y2544D02*
X2723Y2544D01*
X3791Y2544D02*
X3894Y2544D01*
X4966Y2544D02*
X5081Y2544D01*
X6149Y2544D02*
X6263Y2544D01*
X244Y2543D02*
X360Y2543D01*
X1424Y2543D02*
X1537Y2543D01*
X2605Y2543D02*
X2722Y2543D01*
X3793Y2543D02*
X3893Y2543D01*
X4967Y2543D02*
X5080Y2543D01*
X6150Y2543D02*
X6262Y2543D01*
X245Y2542D02*
X359Y2542D01*
X1425Y2542D02*
X1536Y2542D01*
X2606Y2542D02*
X2721Y2542D01*
X3794Y2542D02*
X3892Y2542D01*
X4968Y2542D02*
X5079Y2542D01*
X6150Y2542D02*
X6262Y2542D01*
X246Y2541D02*
X358Y2541D01*
X1426Y2541D02*
X1535Y2541D01*
X2607Y2541D02*
X2720Y2541D01*
X3795Y2541D02*
X3891Y2541D01*
X4969Y2541D02*
X5078Y2541D01*
X6151Y2541D02*
X6261Y2541D01*
X247Y2540D02*
X357Y2540D01*
X1427Y2540D02*
X1534Y2540D01*
X2608Y2540D02*
X2720Y2540D01*
X3796Y2540D02*
X3889Y2540D01*
X4970Y2540D02*
X5077Y2540D01*
X6153Y2540D02*
X6259Y2540D01*
X248Y2539D02*
X356Y2539D01*
X1428Y2539D02*
X1533Y2539D01*
X2609Y2539D02*
X2719Y2539D01*
X3798Y2539D02*
X3888Y2539D01*
X4971Y2539D02*
X5076Y2539D01*
X6154Y2539D02*
X6258Y2539D01*
X249Y2538D02*
X355Y2538D01*
X1430Y2538D02*
X1532Y2538D01*
X2610Y2538D02*
X2717Y2538D01*
X3799Y2538D02*
X3887Y2538D01*
X4972Y2538D02*
X5075Y2538D01*
X6155Y2538D02*
X6257Y2538D01*
X250Y2537D02*
X354Y2537D01*
X1431Y2537D02*
X1531Y2537D01*
X2611Y2537D02*
X2716Y2537D01*
X3801Y2537D02*
X3885Y2537D01*
X4973Y2537D02*
X5074Y2537D01*
X6156Y2537D02*
X6256Y2537D01*
X251Y2536D02*
X353Y2536D01*
X1432Y2536D02*
X1530Y2536D01*
X2612Y2536D02*
X2715Y2536D01*
X3802Y2536D02*
X3883Y2536D01*
X4974Y2536D02*
X5073Y2536D01*
X6157Y2536D02*
X6255Y2536D01*
X252Y2535D02*
X352Y2535D01*
X1433Y2535D02*
X1528Y2535D01*
X2613Y2535D02*
X2714Y2535D01*
X3804Y2535D02*
X3882Y2535D01*
X4976Y2535D02*
X5072Y2535D01*
X6158Y2535D02*
X6254Y2535D01*
X253Y2534D02*
X351Y2534D01*
X1435Y2534D02*
X1527Y2534D01*
X2615Y2534D02*
X2713Y2534D01*
X3806Y2534D02*
X3880Y2534D01*
X4977Y2534D02*
X5070Y2534D01*
X6160Y2534D02*
X6252Y2534D01*
X255Y2533D02*
X349Y2533D01*
X1436Y2533D02*
X1526Y2533D01*
X2616Y2533D02*
X2712Y2533D01*
X3807Y2533D02*
X3878Y2533D01*
X4978Y2533D02*
X5069Y2533D01*
X6161Y2533D02*
X6251Y2533D01*
X256Y2532D02*
X348Y2532D01*
X1437Y2532D02*
X1524Y2532D01*
X2617Y2532D02*
X2710Y2532D01*
X3809Y2532D02*
X3876Y2532D01*
X4980Y2532D02*
X5068Y2532D01*
X6163Y2532D02*
X6249Y2532D01*
X257Y2531D02*
X347Y2531D01*
X1439Y2531D02*
X1523Y2531D01*
X2619Y2531D02*
X2709Y2531D01*
X3811Y2531D02*
X3874Y2531D01*
X4981Y2531D02*
X5066Y2531D01*
X6164Y2531D02*
X6248Y2531D01*
X259Y2530D02*
X345Y2530D01*
X1441Y2530D02*
X1521Y2530D01*
X2620Y2530D02*
X2708Y2530D01*
X3814Y2530D02*
X3872Y2530D01*
X4983Y2530D02*
X5064Y2530D01*
X6166Y2530D02*
X6246Y2530D01*
X260Y2529D02*
X344Y2529D01*
X1442Y2529D02*
X1519Y2529D01*
X2622Y2529D02*
X2706Y2529D01*
X3817Y2529D02*
X3869Y2529D01*
X4984Y2529D02*
X5063Y2529D01*
X6167Y2529D02*
X6245Y2529D01*
X262Y2528D02*
X342Y2528D01*
X1444Y2528D02*
X1518Y2528D01*
X2623Y2528D02*
X2704Y2528D01*
X3819Y2528D02*
X3866Y2528D01*
X4986Y2528D02*
X5061Y2528D01*
X6169Y2528D02*
X6243Y2528D01*
X264Y2527D02*
X340Y2527D01*
X1446Y2527D02*
X1516Y2527D01*
X2625Y2527D02*
X2703Y2527D01*
X3823Y2527D02*
X3863Y2527D01*
X4988Y2527D02*
X5059Y2527D01*
X6171Y2527D02*
X6241Y2527D01*
X265Y2526D02*
X339Y2526D01*
X1448Y2526D02*
X1514Y2526D01*
X2626Y2526D02*
X2701Y2526D01*
X3827Y2526D02*
X3859Y2526D01*
X4990Y2526D02*
X5057Y2526D01*
X6173Y2526D02*
X6239Y2526D01*
X267Y2525D02*
X337Y2525D01*
X1450Y2525D02*
X1512Y2525D01*
X2628Y2525D02*
X2699Y2525D01*
X3833Y2525D02*
X3853Y2525D01*
X4992Y2525D02*
X5055Y2525D01*
X6175Y2525D02*
X6237Y2525D01*
X269Y2524D02*
X335Y2524D01*
X1452Y2524D02*
X1509Y2524D01*
X2630Y2524D02*
X2697Y2524D01*
X4994Y2524D02*
X5053Y2524D01*
X6178Y2524D02*
X6234Y2524D01*
X271Y2523D02*
X333Y2523D01*
X1455Y2523D02*
X1506Y2523D01*
X2632Y2523D02*
X2695Y2523D01*
X4997Y2523D02*
X5050Y2523D01*
X6180Y2523D02*
X6232Y2523D01*
X274Y2522D02*
X330Y2522D01*
X1458Y2522D02*
X1504Y2522D01*
X2635Y2522D02*
X2693Y2522D01*
X5000Y2522D02*
X5047Y2522D01*
X6183Y2522D02*
X6229Y2522D01*
X277Y2521D02*
X327Y2521D01*
X1462Y2521D02*
X1500Y2521D01*
X2638Y2521D02*
X2690Y2521D01*
X5003Y2521D02*
X5044Y2521D01*
X6187Y2521D02*
X6225Y2521D01*
X280Y2520D02*
X324Y2520D01*
X1466Y2520D02*
X1495Y2520D01*
X2640Y2520D02*
X2687Y2520D01*
X5007Y2520D02*
X5040Y2520D01*
X6191Y2520D02*
X6221Y2520D01*
X284Y2519D02*
X320Y2519D01*
X1473Y2519D02*
X1489Y2519D01*
X2644Y2519D02*
X2684Y2519D01*
X5013Y2519D02*
X5034Y2519D01*
X6198Y2519D02*
X6214Y2519D01*
X288Y2518D02*
X316Y2518D01*
X2648Y2518D02*
X2680Y2518D01*
X295Y2517D02*
X309Y2517D01*
X2654Y2517D02*
X2673Y2517D01*
X3838Y2496D02*
X3848Y2496D01*
X3830Y2495D02*
X3856Y2495D01*
X3825Y2494D02*
X3860Y2494D01*
X3821Y2493D02*
X3864Y2493D01*
X3818Y2492D02*
X3868Y2492D01*
X3815Y2491D02*
X3870Y2491D01*
X1473Y2490D02*
X1489Y2490D01*
X3813Y2490D02*
X3873Y2490D01*
X5020Y2490D02*
X5028Y2490D01*
X6198Y2490D02*
X6214Y2490D01*
X1467Y2489D02*
X1495Y2489D01*
X3811Y2489D02*
X3875Y2489D01*
X5012Y2489D02*
X5036Y2489D01*
X6192Y2489D02*
X6220Y2489D01*
X293Y2488D02*
X311Y2488D01*
X1462Y2488D02*
X1499Y2488D01*
X2658Y2488D02*
X2669Y2488D01*
X3809Y2488D02*
X3877Y2488D01*
X5006Y2488D02*
X5041Y2488D01*
X6187Y2488D02*
X6225Y2488D01*
X287Y2487D02*
X317Y2487D01*
X1458Y2487D02*
X1503Y2487D01*
X2651Y2487D02*
X2677Y2487D01*
X3806Y2487D02*
X3879Y2487D01*
X5002Y2487D02*
X5045Y2487D01*
X6184Y2487D02*
X6228Y2487D01*
X283Y2486D02*
X321Y2486D01*
X1455Y2486D02*
X1506Y2486D01*
X2646Y2486D02*
X2681Y2486D01*
X3805Y2486D02*
X3881Y2486D01*
X4999Y2486D02*
X5048Y2486D01*
X6181Y2486D02*
X6231Y2486D01*
X279Y2485D02*
X325Y2485D01*
X1453Y2485D02*
X1509Y2485D01*
X2642Y2485D02*
X2685Y2485D01*
X3803Y2485D02*
X3883Y2485D01*
X4996Y2485D02*
X5051Y2485D01*
X6178Y2485D02*
X6234Y2485D01*
X276Y2484D02*
X328Y2484D01*
X1450Y2484D02*
X1512Y2484D01*
X2639Y2484D02*
X2689Y2484D01*
X3802Y2484D02*
X3884Y2484D01*
X4994Y2484D02*
X5054Y2484D01*
X6175Y2484D02*
X6237Y2484D01*
X274Y2483D02*
X331Y2483D01*
X1448Y2483D02*
X1514Y2483D01*
X2636Y2483D02*
X2691Y2483D01*
X3800Y2483D02*
X3886Y2483D01*
X4992Y2483D02*
X5056Y2483D01*
X6173Y2483D02*
X6239Y2483D01*
X271Y2482D02*
X333Y2482D01*
X1446Y2482D02*
X1516Y2482D01*
X2634Y2482D02*
X2694Y2482D01*
X3798Y2482D02*
X3887Y2482D01*
X4989Y2482D02*
X5058Y2482D01*
X6171Y2482D02*
X6241Y2482D01*
X269Y2481D02*
X335Y2481D01*
X1444Y2481D02*
X1518Y2481D01*
X2631Y2481D02*
X2696Y2481D01*
X3797Y2481D02*
X3889Y2481D01*
X4987Y2481D02*
X5060Y2481D01*
X6169Y2481D02*
X6243Y2481D01*
X267Y2480D02*
X337Y2480D01*
X1442Y2480D02*
X1519Y2480D01*
X2629Y2480D02*
X2698Y2480D01*
X3796Y2480D02*
X3890Y2480D01*
X4986Y2480D02*
X5061Y2480D01*
X6168Y2480D02*
X6244Y2480D01*
X265Y2479D02*
X339Y2479D01*
X1441Y2479D02*
X1521Y2479D01*
X2627Y2479D02*
X2700Y2479D01*
X3794Y2479D02*
X3891Y2479D01*
X4984Y2479D02*
X5063Y2479D01*
X6166Y2479D02*
X6246Y2479D01*
X263Y2478D02*
X341Y2478D01*
X1439Y2478D02*
X1523Y2478D01*
X2626Y2478D02*
X2702Y2478D01*
X3793Y2478D02*
X3893Y2478D01*
X4982Y2478D02*
X5065Y2478D01*
X6164Y2478D02*
X6248Y2478D01*
X262Y2477D02*
X342Y2477D01*
X1437Y2477D02*
X1524Y2477D01*
X2624Y2477D02*
X2704Y2477D01*
X3792Y2477D02*
X3894Y2477D01*
X4981Y2477D02*
X5066Y2477D01*
X6163Y2477D02*
X6249Y2477D01*
X260Y2476D02*
X344Y2476D01*
X1436Y2476D02*
X1525Y2476D01*
X2622Y2476D02*
X2705Y2476D01*
X3791Y2476D02*
X3895Y2476D01*
X4979Y2476D02*
X5068Y2476D01*
X6161Y2476D02*
X6251Y2476D01*
X259Y2475D02*
X346Y2475D01*
X1435Y2475D02*
X1527Y2475D01*
X2621Y2475D02*
X2707Y2475D01*
X3790Y2475D02*
X3896Y2475D01*
X4978Y2475D02*
X5069Y2475D01*
X6160Y2475D02*
X6252Y2475D01*
X257Y2474D02*
X347Y2474D01*
X1433Y2474D02*
X1528Y2474D01*
X2619Y2474D02*
X2708Y2474D01*
X3789Y2474D02*
X3897Y2474D01*
X4977Y2474D02*
X5071Y2474D01*
X6159Y2474D02*
X6253Y2474D01*
X256Y2473D02*
X348Y2473D01*
X1432Y2473D02*
X1530Y2473D01*
X2618Y2473D02*
X2710Y2473D01*
X3788Y2473D02*
X3898Y2473D01*
X4975Y2473D02*
X5072Y2473D01*
X6157Y2473D02*
X6255Y2473D01*
X254Y2472D02*
X350Y2472D01*
X1431Y2472D02*
X1531Y2472D01*
X2617Y2472D02*
X2711Y2472D01*
X3787Y2472D02*
X3899Y2472D01*
X4974Y2472D02*
X5073Y2472D01*
X6156Y2472D02*
X6256Y2472D01*
X253Y2471D02*
X351Y2471D01*
X1430Y2471D02*
X1532Y2471D01*
X2615Y2471D02*
X2712Y2471D01*
X3786Y2471D02*
X3900Y2471D01*
X4973Y2471D02*
X5074Y2471D01*
X6155Y2471D02*
X6257Y2471D01*
X252Y2470D02*
X352Y2470D01*
X1429Y2470D02*
X1533Y2470D01*
X2614Y2470D02*
X2714Y2470D01*
X3785Y2470D02*
X3901Y2470D01*
X4972Y2470D02*
X5075Y2470D01*
X6154Y2470D02*
X6258Y2470D01*
X251Y2469D02*
X353Y2469D01*
X1427Y2469D02*
X1534Y2469D01*
X2613Y2469D02*
X2715Y2469D01*
X3784Y2469D02*
X3902Y2469D01*
X4971Y2469D02*
X5077Y2469D01*
X6153Y2469D02*
X6259Y2469D01*
X250Y2468D02*
X354Y2468D01*
X1426Y2468D02*
X1535Y2468D01*
X2612Y2468D02*
X2716Y2468D01*
X3783Y2468D02*
X3903Y2468D01*
X4970Y2468D02*
X5078Y2468D01*
X6152Y2468D02*
X6260Y2468D01*
X249Y2467D02*
X356Y2467D01*
X1425Y2467D02*
X1536Y2467D01*
X2611Y2467D02*
X2717Y2467D01*
X3782Y2467D02*
X3903Y2467D01*
X4968Y2467D02*
X5079Y2467D01*
X6151Y2467D02*
X6261Y2467D01*
X247Y2466D02*
X357Y2466D01*
X1424Y2466D02*
X1537Y2466D01*
X2610Y2466D02*
X2718Y2466D01*
X3782Y2466D02*
X3904Y2466D01*
X4968Y2466D02*
X5080Y2466D01*
X6150Y2466D02*
X6262Y2466D01*
X246Y2465D02*
X358Y2465D01*
X1424Y2465D02*
X1538Y2465D01*
X2609Y2465D02*
X2719Y2465D01*
X3781Y2465D02*
X3905Y2465D01*
X4967Y2465D02*
X5081Y2465D01*
X6149Y2465D02*
X6263Y2465D01*
X246Y2464D02*
X359Y2464D01*
X1423Y2464D02*
X1539Y2464D01*
X2608Y2464D02*
X2720Y2464D01*
X3780Y2464D02*
X3906Y2464D01*
X4966Y2464D02*
X5081Y2464D01*
X6148Y2464D02*
X6264Y2464D01*
X245Y2463D02*
X359Y2463D01*
X1422Y2463D02*
X1540Y2463D01*
X2607Y2463D02*
X2721Y2463D01*
X3779Y2463D02*
X3906Y2463D01*
X4965Y2463D02*
X5082Y2463D01*
X6147Y2463D02*
X6265Y2463D01*
X244Y2462D02*
X360Y2462D01*
X1421Y2462D02*
X1541Y2462D01*
X2606Y2462D02*
X2722Y2462D01*
X3779Y2462D02*
X3907Y2462D01*
X4964Y2462D02*
X5083Y2462D01*
X6146Y2462D02*
X6266Y2462D01*
X243Y2461D02*
X361Y2461D01*
X1420Y2461D02*
X1541Y2461D01*
X2605Y2461D02*
X2723Y2461D01*
X3778Y2461D02*
X3908Y2461D01*
X4963Y2461D02*
X5084Y2461D01*
X6145Y2461D02*
X6267Y2461D01*
X242Y2460D02*
X362Y2460D01*
X1419Y2460D02*
X1542Y2460D01*
X2604Y2460D02*
X2724Y2460D01*
X3777Y2460D02*
X3908Y2460D01*
X4962Y2460D02*
X5085Y2460D01*
X6145Y2460D02*
X6267Y2460D01*
X241Y2459D02*
X363Y2459D01*
X1419Y2459D02*
X1543Y2459D01*
X2603Y2459D02*
X2724Y2459D01*
X3777Y2459D02*
X3909Y2459D01*
X4962Y2459D02*
X5086Y2459D01*
X6144Y2459D02*
X6268Y2459D01*
X241Y2458D02*
X364Y2458D01*
X1418Y2458D02*
X1544Y2458D01*
X2603Y2458D02*
X2725Y2458D01*
X3776Y2458D02*
X3910Y2458D01*
X4961Y2458D02*
X5086Y2458D01*
X6143Y2458D02*
X6269Y2458D01*
X240Y2457D02*
X364Y2457D01*
X1417Y2457D02*
X1544Y2457D01*
X2602Y2457D02*
X2726Y2457D01*
X3776Y2457D02*
X3910Y2457D01*
X4960Y2457D02*
X5087Y2457D01*
X6142Y2457D02*
X6270Y2457D01*
X239Y2456D02*
X365Y2456D01*
X1416Y2456D02*
X1545Y2456D01*
X2601Y2456D02*
X2727Y2456D01*
X3775Y2456D02*
X3911Y2456D01*
X4959Y2456D02*
X5088Y2456D01*
X6142Y2456D02*
X6270Y2456D01*
X238Y2455D02*
X366Y2455D01*
X1416Y2455D02*
X1546Y2455D01*
X2600Y2455D02*
X2727Y2455D01*
X3774Y2455D02*
X3911Y2455D01*
X4959Y2455D02*
X5088Y2455D01*
X6141Y2455D02*
X6271Y2455D01*
X238Y2454D02*
X367Y2454D01*
X1415Y2454D02*
X1546Y2454D01*
X2600Y2454D02*
X2728Y2454D01*
X3774Y2454D02*
X3912Y2454D01*
X4958Y2454D02*
X5089Y2454D01*
X6140Y2454D02*
X6272Y2454D01*
X237Y2453D02*
X367Y2453D01*
X1415Y2453D02*
X1547Y2453D01*
X2599Y2453D02*
X2729Y2453D01*
X3773Y2453D02*
X3912Y2453D01*
X4958Y2453D02*
X5090Y2453D01*
X6140Y2453D02*
X6272Y2453D01*
X236Y2452D02*
X368Y2452D01*
X1414Y2452D02*
X1548Y2452D01*
X2598Y2452D02*
X2729Y2452D01*
X3773Y2452D02*
X3913Y2452D01*
X4957Y2452D02*
X5090Y2452D01*
X6139Y2452D02*
X6273Y2452D01*
X236Y2451D02*
X368Y2451D01*
X1413Y2451D02*
X1548Y2451D01*
X2598Y2451D02*
X2730Y2451D01*
X3772Y2451D02*
X3913Y2451D01*
X4956Y2451D02*
X5091Y2451D01*
X6139Y2451D02*
X6273Y2451D01*
X235Y2450D02*
X369Y2450D01*
X1413Y2450D02*
X1549Y2450D01*
X2597Y2450D02*
X2731Y2450D01*
X3772Y2450D02*
X3914Y2450D01*
X4956Y2450D02*
X5091Y2450D01*
X6138Y2450D02*
X6274Y2450D01*
X235Y2449D02*
X370Y2449D01*
X1412Y2449D02*
X1549Y2449D01*
X2596Y2449D02*
X2731Y2449D01*
X3771Y2449D02*
X3914Y2449D01*
X4955Y2449D02*
X5092Y2449D01*
X6137Y2449D02*
X6275Y2449D01*
X234Y2448D02*
X370Y2448D01*
X1412Y2448D02*
X1550Y2448D01*
X2596Y2448D02*
X2732Y2448D01*
X3771Y2448D02*
X3915Y2448D01*
X4955Y2448D02*
X5093Y2448D01*
X6137Y2448D02*
X6275Y2448D01*
X233Y2447D02*
X371Y2447D01*
X1411Y2447D02*
X1550Y2447D01*
X2595Y2447D02*
X2732Y2447D01*
X3771Y2447D02*
X3915Y2447D01*
X4954Y2447D02*
X5093Y2447D01*
X6136Y2447D02*
X6276Y2447D01*
X233Y2446D02*
X371Y2446D01*
X1411Y2446D02*
X1551Y2446D01*
X2595Y2446D02*
X2733Y2446D01*
X3770Y2446D02*
X3916Y2446D01*
X4954Y2446D02*
X5094Y2446D01*
X6136Y2446D02*
X6276Y2446D01*
X232Y2445D02*
X372Y2445D01*
X1410Y2445D02*
X1551Y2445D01*
X2594Y2445D02*
X2733Y2445D01*
X3770Y2445D02*
X3916Y2445D01*
X4953Y2445D02*
X5094Y2445D01*
X6135Y2445D02*
X6277Y2445D01*
X232Y2444D02*
X372Y2444D01*
X1410Y2444D02*
X1552Y2444D01*
X2594Y2444D02*
X2734Y2444D01*
X3770Y2444D02*
X3916Y2444D01*
X4953Y2444D02*
X5095Y2444D01*
X6135Y2444D02*
X6277Y2444D01*
X231Y2443D02*
X373Y2443D01*
X1409Y2443D02*
X1552Y2443D01*
X2593Y2443D02*
X2734Y2443D01*
X3769Y2443D02*
X3917Y2443D01*
X4952Y2443D02*
X5095Y2443D01*
X6134Y2443D02*
X6278Y2443D01*
X231Y2442D02*
X373Y2442D01*
X1409Y2442D02*
X1553Y2442D01*
X2593Y2442D02*
X2735Y2442D01*
X3769Y2442D02*
X3917Y2442D01*
X4952Y2442D02*
X5095Y2442D01*
X6134Y2442D02*
X6278Y2442D01*
X230Y2441D02*
X374Y2441D01*
X1408Y2441D02*
X1553Y2441D01*
X2592Y2441D02*
X2735Y2441D01*
X3768Y2441D02*
X3917Y2441D01*
X4951Y2441D02*
X5096Y2441D01*
X6134Y2441D02*
X6278Y2441D01*
X230Y2440D02*
X374Y2440D01*
X1408Y2440D02*
X1554Y2440D01*
X2592Y2440D02*
X2736Y2440D01*
X3768Y2440D02*
X3918Y2440D01*
X4951Y2440D02*
X5096Y2440D01*
X6133Y2440D02*
X6279Y2440D01*
X230Y2439D02*
X374Y2439D01*
X1408Y2439D02*
X1554Y2439D01*
X2592Y2439D02*
X2736Y2439D01*
X3768Y2439D02*
X3918Y2439D01*
X4951Y2439D02*
X5097Y2439D01*
X6133Y2439D02*
X6279Y2439D01*
X229Y2438D02*
X375Y2438D01*
X1407Y2438D02*
X1554Y2438D01*
X2591Y2438D02*
X2736Y2438D01*
X3768Y2438D02*
X3918Y2438D01*
X4950Y2438D02*
X5097Y2438D01*
X6133Y2438D02*
X6279Y2438D01*
X229Y2437D02*
X375Y2437D01*
X1407Y2437D02*
X1555Y2437D01*
X2591Y2437D02*
X2737Y2437D01*
X3767Y2437D02*
X3918Y2437D01*
X4950Y2437D02*
X5097Y2437D01*
X6132Y2437D02*
X6280Y2437D01*
X229Y2436D02*
X376Y2436D01*
X1407Y2436D02*
X1555Y2436D01*
X2590Y2436D02*
X2737Y2436D01*
X3767Y2436D02*
X3919Y2436D01*
X4950Y2436D02*
X5098Y2436D01*
X6132Y2436D02*
X6280Y2436D01*
X228Y2435D02*
X376Y2435D01*
X1406Y2435D02*
X1555Y2435D01*
X2590Y2435D02*
X2738Y2435D01*
X3767Y2435D02*
X3919Y2435D01*
X4949Y2435D02*
X5098Y2435D01*
X6132Y2435D02*
X6280Y2435D01*
X228Y2434D02*
X376Y2434D01*
X1406Y2434D02*
X1556Y2434D01*
X2590Y2434D02*
X2738Y2434D01*
X3767Y2434D02*
X3919Y2434D01*
X4949Y2434D02*
X5098Y2434D01*
X6131Y2434D02*
X6281Y2434D01*
X228Y2433D02*
X377Y2433D01*
X1406Y2433D02*
X1556Y2433D01*
X2589Y2433D02*
X2738Y2433D01*
X3766Y2433D02*
X3919Y2433D01*
X4949Y2433D02*
X5098Y2433D01*
X6131Y2433D02*
X6281Y2433D01*
X227Y2432D02*
X377Y2432D01*
X1406Y2432D02*
X1556Y2432D01*
X2589Y2432D02*
X2738Y2432D01*
X3766Y2432D02*
X3919Y2432D01*
X4948Y2432D02*
X5099Y2432D01*
X6131Y2432D02*
X6281Y2432D01*
X227Y2431D02*
X377Y2431D01*
X1405Y2431D02*
X1556Y2431D01*
X2589Y2431D02*
X2739Y2431D01*
X3766Y2431D02*
X3920Y2431D01*
X4948Y2431D02*
X5099Y2431D01*
X6131Y2431D02*
X6281Y2431D01*
X227Y2430D02*
X377Y2430D01*
X1405Y2430D02*
X1557Y2430D01*
X2589Y2430D02*
X2739Y2430D01*
X3766Y2430D02*
X3920Y2430D01*
X4948Y2430D02*
X5099Y2430D01*
X6130Y2430D02*
X6282Y2430D01*
X227Y2429D02*
X378Y2429D01*
X1405Y2429D02*
X1557Y2429D01*
X2588Y2429D02*
X2739Y2429D01*
X3766Y2429D02*
X3920Y2429D01*
X4948Y2429D02*
X5099Y2429D01*
X6130Y2429D02*
X6282Y2429D01*
X226Y2428D02*
X378Y2428D01*
X1405Y2428D02*
X1557Y2428D01*
X2588Y2428D02*
X2740Y2428D01*
X3766Y2428D02*
X3920Y2428D01*
X4947Y2428D02*
X5100Y2428D01*
X6130Y2428D02*
X6282Y2428D01*
X226Y2427D02*
X378Y2427D01*
X1404Y2427D02*
X1557Y2427D01*
X2588Y2427D02*
X2740Y2427D01*
X3766Y2427D02*
X3920Y2427D01*
X4947Y2427D02*
X5100Y2427D01*
X6130Y2427D02*
X6282Y2427D01*
X226Y2426D02*
X378Y2426D01*
X1404Y2426D02*
X1557Y2426D01*
X2588Y2426D02*
X2740Y2426D01*
X3765Y2426D02*
X3920Y2426D01*
X4947Y2426D02*
X5100Y2426D01*
X6129Y2426D02*
X6283Y2426D01*
X226Y2425D02*
X379Y2425D01*
X1404Y2425D02*
X1558Y2425D01*
X2587Y2425D02*
X2740Y2425D01*
X3765Y2425D02*
X3920Y2425D01*
X4947Y2425D02*
X5100Y2425D01*
X6129Y2425D02*
X6283Y2425D01*
X225Y2424D02*
X379Y2424D01*
X1404Y2424D02*
X1558Y2424D01*
X2587Y2424D02*
X2740Y2424D01*
X3765Y2424D02*
X3921Y2424D01*
X4947Y2424D02*
X5100Y2424D01*
X6129Y2424D02*
X6283Y2424D01*
X225Y2423D02*
X379Y2423D01*
X1404Y2423D02*
X1558Y2423D01*
X2587Y2423D02*
X2741Y2423D01*
X3765Y2423D02*
X3921Y2423D01*
X4947Y2423D02*
X5101Y2423D01*
X6129Y2423D02*
X6283Y2423D01*
X225Y2422D02*
X379Y2422D01*
X1404Y2422D02*
X1558Y2422D01*
X2587Y2422D02*
X2741Y2422D01*
X3765Y2422D02*
X3921Y2422D01*
X4946Y2422D02*
X5101Y2422D01*
X6129Y2422D02*
X6283Y2422D01*
X225Y2421D02*
X379Y2421D01*
X1403Y2421D02*
X1558Y2421D01*
X2587Y2421D02*
X2741Y2421D01*
X3765Y2421D02*
X3921Y2421D01*
X4946Y2421D02*
X5101Y2421D01*
X6129Y2421D02*
X6283Y2421D01*
X225Y2420D02*
X379Y2420D01*
X1403Y2420D02*
X1558Y2420D01*
X2587Y2420D02*
X2741Y2420D01*
X3765Y2420D02*
X3921Y2420D01*
X4946Y2420D02*
X5101Y2420D01*
X6128Y2420D02*
X6284Y2420D01*
X225Y2419D02*
X379Y2419D01*
X1403Y2419D02*
X1558Y2419D01*
X2586Y2419D02*
X2741Y2419D01*
X3765Y2419D02*
X3921Y2419D01*
X4946Y2419D02*
X5101Y2419D01*
X6128Y2419D02*
X6284Y2419D01*
X225Y2418D02*
X380Y2418D01*
X1403Y2418D02*
X1558Y2418D01*
X2586Y2418D02*
X2741Y2418D01*
X3765Y2418D02*
X3921Y2418D01*
X4946Y2418D02*
X5101Y2418D01*
X6128Y2418D02*
X6284Y2418D01*
X224Y2417D02*
X380Y2417D01*
X1403Y2417D02*
X1559Y2417D01*
X2586Y2417D02*
X2741Y2417D01*
X3765Y2417D02*
X3921Y2417D01*
X4946Y2417D02*
X5101Y2417D01*
X6128Y2417D02*
X6284Y2417D01*
X224Y2416D02*
X380Y2416D01*
X1403Y2416D02*
X1559Y2416D01*
X2586Y2416D02*
X2742Y2416D01*
X3765Y2416D02*
X3921Y2416D01*
X4946Y2416D02*
X5101Y2416D01*
X6128Y2416D02*
X6284Y2416D01*
X224Y2415D02*
X380Y2415D01*
X1403Y2415D02*
X1559Y2415D01*
X2586Y2415D02*
X2742Y2415D01*
X3765Y2415D02*
X3921Y2415D01*
X4946Y2415D02*
X5101Y2415D01*
X6128Y2415D02*
X6284Y2415D01*
X224Y2414D02*
X380Y2414D01*
X1403Y2414D02*
X1559Y2414D01*
X2586Y2414D02*
X2742Y2414D01*
X3765Y2414D02*
X3921Y2414D01*
X4946Y2414D02*
X5102Y2414D01*
X6128Y2414D02*
X6284Y2414D01*
X224Y2413D02*
X380Y2413D01*
X1403Y2413D02*
X1559Y2413D01*
X2586Y2413D02*
X2742Y2413D01*
X3765Y2413D02*
X3921Y2413D01*
X4946Y2413D02*
X5102Y2413D01*
X6128Y2413D02*
X6284Y2413D01*
X224Y2412D02*
X380Y2412D01*
X1403Y2412D02*
X1559Y2412D01*
X2586Y2412D02*
X2742Y2412D01*
X3765Y2412D02*
X3921Y2412D01*
X4946Y2412D02*
X5102Y2412D01*
X6128Y2412D02*
X6284Y2412D01*
X224Y2411D02*
X380Y2411D01*
X1403Y2411D02*
X1559Y2411D01*
X2586Y2411D02*
X2742Y2411D01*
X3765Y2411D02*
X3921Y2411D01*
X4946Y2411D02*
X5102Y2411D01*
X6128Y2411D02*
X6284Y2411D01*
X224Y2410D02*
X380Y2410D01*
X1403Y2410D02*
X1559Y2410D01*
X2586Y2410D02*
X2742Y2410D01*
X3765Y2410D02*
X3920Y2410D01*
X4946Y2410D02*
X5102Y2410D01*
X6128Y2410D02*
X6284Y2410D01*
X224Y2409D02*
X380Y2409D01*
X1403Y2409D02*
X1559Y2409D01*
X2586Y2409D02*
X2742Y2409D01*
X3765Y2409D02*
X3920Y2409D01*
X4946Y2409D02*
X5101Y2409D01*
X6128Y2409D02*
X6284Y2409D01*
X224Y2408D02*
X380Y2408D01*
X1403Y2408D02*
X1559Y2408D01*
X2586Y2408D02*
X2742Y2408D01*
X3766Y2408D02*
X3920Y2408D01*
X4946Y2408D02*
X5101Y2408D01*
X6128Y2408D02*
X6284Y2408D01*
X224Y2407D02*
X380Y2407D01*
X1403Y2407D02*
X1559Y2407D01*
X2586Y2407D02*
X2742Y2407D01*
X3766Y2407D02*
X3920Y2407D01*
X4946Y2407D02*
X5101Y2407D01*
X6128Y2407D02*
X6284Y2407D01*
X224Y2406D02*
X380Y2406D01*
X1403Y2406D02*
X1558Y2406D01*
X2586Y2406D02*
X2742Y2406D01*
X3766Y2406D02*
X3920Y2406D01*
X4946Y2406D02*
X5101Y2406D01*
X6128Y2406D02*
X6284Y2406D01*
X224Y2405D02*
X380Y2405D01*
X1403Y2405D02*
X1558Y2405D01*
X2586Y2405D02*
X2742Y2405D01*
X3766Y2405D02*
X3920Y2405D01*
X4946Y2405D02*
X5101Y2405D01*
X6128Y2405D02*
X6284Y2405D01*
X224Y2404D02*
X380Y2404D01*
X1403Y2404D02*
X1558Y2404D01*
X2586Y2404D02*
X2742Y2404D01*
X3766Y2404D02*
X3919Y2404D01*
X4946Y2404D02*
X5101Y2404D01*
X6128Y2404D02*
X6284Y2404D01*
X224Y2403D02*
X380Y2403D01*
X1403Y2403D02*
X1558Y2403D01*
X2586Y2403D02*
X2741Y2403D01*
X3766Y2403D02*
X3919Y2403D01*
X4946Y2403D02*
X5101Y2403D01*
X6129Y2403D02*
X6283Y2403D01*
X225Y2402D02*
X380Y2402D01*
X1404Y2402D02*
X1558Y2402D01*
X2586Y2402D02*
X2741Y2402D01*
X3767Y2402D02*
X3919Y2402D01*
X4946Y2402D02*
X5101Y2402D01*
X6129Y2402D02*
X6283Y2402D01*
X225Y2401D02*
X379Y2401D01*
X1404Y2401D02*
X1558Y2401D01*
X2586Y2401D02*
X2741Y2401D01*
X3767Y2401D02*
X3919Y2401D01*
X4946Y2401D02*
X5101Y2401D01*
X6129Y2401D02*
X6283Y2401D01*
X225Y2400D02*
X379Y2400D01*
X1404Y2400D02*
X1558Y2400D01*
X2587Y2400D02*
X2741Y2400D01*
X3767Y2400D02*
X3919Y2400D01*
X4947Y2400D02*
X5101Y2400D01*
X6129Y2400D02*
X6283Y2400D01*
X225Y2399D02*
X379Y2399D01*
X1404Y2399D02*
X1558Y2399D01*
X2587Y2399D02*
X2741Y2399D01*
X3767Y2399D02*
X3918Y2399D01*
X4947Y2399D02*
X5100Y2399D01*
X6129Y2399D02*
X6283Y2399D01*
X225Y2398D02*
X379Y2398D01*
X1404Y2398D02*
X1557Y2398D01*
X2587Y2398D02*
X2741Y2398D01*
X3768Y2398D02*
X3918Y2398D01*
X4947Y2398D02*
X5100Y2398D01*
X6129Y2398D02*
X6283Y2398D01*
X225Y2397D02*
X379Y2397D01*
X1404Y2397D02*
X1557Y2397D01*
X2587Y2397D02*
X2741Y2397D01*
X3768Y2397D02*
X3918Y2397D01*
X4947Y2397D02*
X5100Y2397D01*
X6130Y2397D02*
X6282Y2397D01*
X225Y2396D02*
X379Y2396D01*
X1405Y2396D02*
X1557Y2396D01*
X2587Y2396D02*
X2740Y2396D01*
X3768Y2396D02*
X3918Y2396D01*
X4947Y2396D02*
X5100Y2396D01*
X6130Y2396D02*
X6282Y2396D01*
X226Y2395D02*
X378Y2395D01*
X1405Y2395D02*
X1557Y2395D01*
X2587Y2395D02*
X2740Y2395D01*
X3768Y2395D02*
X3917Y2395D01*
X4947Y2395D02*
X5100Y2395D01*
X6130Y2395D02*
X6282Y2395D01*
X226Y2394D02*
X378Y2394D01*
X1405Y2394D02*
X1557Y2394D01*
X2588Y2394D02*
X2740Y2394D01*
X3769Y2394D02*
X3917Y2394D01*
X4948Y2394D02*
X5099Y2394D01*
X6130Y2394D02*
X6282Y2394D01*
X226Y2393D02*
X378Y2393D01*
X1405Y2393D02*
X1556Y2393D01*
X2588Y2393D02*
X2740Y2393D01*
X3769Y2393D02*
X3917Y2393D01*
X4948Y2393D02*
X5099Y2393D01*
X6130Y2393D02*
X6281Y2393D01*
X226Y2392D02*
X378Y2392D01*
X1406Y2392D02*
X1556Y2392D01*
X2588Y2392D02*
X2740Y2392D01*
X3769Y2392D02*
X3916Y2392D01*
X4948Y2392D02*
X5099Y2392D01*
X6131Y2392D02*
X6281Y2392D01*
X227Y2391D02*
X378Y2391D01*
X1406Y2391D02*
X1556Y2391D01*
X2588Y2391D02*
X2739Y2391D01*
X3770Y2391D02*
X3916Y2391D01*
X4949Y2391D02*
X5099Y2391D01*
X6131Y2391D02*
X6281Y2391D01*
X227Y2390D02*
X377Y2390D01*
X1406Y2390D02*
X1556Y2390D01*
X2589Y2390D02*
X2739Y2390D01*
X3770Y2390D02*
X3916Y2390D01*
X4949Y2390D02*
X5098Y2390D01*
X6131Y2390D02*
X6281Y2390D01*
X227Y2389D02*
X377Y2389D01*
X1406Y2389D02*
X1555Y2389D01*
X2589Y2389D02*
X2739Y2389D01*
X3770Y2389D02*
X3915Y2389D01*
X4949Y2389D02*
X5098Y2389D01*
X6132Y2389D02*
X6280Y2389D01*
X227Y2388D02*
X377Y2388D01*
X1407Y2388D02*
X1555Y2388D01*
X2589Y2388D02*
X2739Y2388D01*
X3771Y2388D02*
X3915Y2388D01*
X4949Y2388D02*
X5098Y2388D01*
X6132Y2388D02*
X6280Y2388D01*
X228Y2387D02*
X377Y2387D01*
X1407Y2387D02*
X1555Y2387D01*
X2589Y2387D02*
X2738Y2387D01*
X3771Y2387D02*
X3915Y2387D01*
X4950Y2387D02*
X5098Y2387D01*
X6132Y2387D02*
X6280Y2387D01*
X228Y2386D02*
X376Y2386D01*
X1407Y2386D02*
X1554Y2386D01*
X2590Y2386D02*
X2738Y2386D01*
X3772Y2386D02*
X3914Y2386D01*
X4950Y2386D02*
X5097Y2386D01*
X6133Y2386D02*
X6279Y2386D01*
X228Y2385D02*
X376Y2385D01*
X1408Y2385D02*
X1554Y2385D01*
X2590Y2385D02*
X2738Y2385D01*
X3772Y2385D02*
X3914Y2385D01*
X4950Y2385D02*
X5097Y2385D01*
X6133Y2385D02*
X6279Y2385D01*
X229Y2384D02*
X375Y2384D01*
X1408Y2384D02*
X1554Y2384D01*
X2590Y2384D02*
X2737Y2384D01*
X3773Y2384D02*
X3913Y2384D01*
X4951Y2384D02*
X5096Y2384D01*
X6133Y2384D02*
X6279Y2384D01*
X229Y2383D02*
X375Y2383D01*
X1408Y2383D02*
X1553Y2383D01*
X2591Y2383D02*
X2737Y2383D01*
X3773Y2383D02*
X3913Y2383D01*
X4951Y2383D02*
X5096Y2383D01*
X6134Y2383D02*
X6278Y2383D01*
X229Y2382D02*
X375Y2382D01*
X1409Y2382D02*
X1553Y2382D01*
X2591Y2382D02*
X2737Y2382D01*
X3774Y2382D02*
X3912Y2382D01*
X4951Y2382D02*
X5096Y2382D01*
X6134Y2382D02*
X6278Y2382D01*
X230Y2381D02*
X374Y2381D01*
X1409Y2381D02*
X1552Y2381D01*
X2591Y2381D02*
X2736Y2381D01*
X3774Y2381D02*
X3912Y2381D01*
X4952Y2381D02*
X5095Y2381D01*
X6134Y2381D02*
X6278Y2381D01*
X230Y2380D02*
X374Y2380D01*
X1410Y2380D02*
X1552Y2380D01*
X2592Y2380D02*
X2736Y2380D01*
X3775Y2380D02*
X3911Y2380D01*
X4952Y2380D02*
X5095Y2380D01*
X6135Y2380D02*
X6277Y2380D01*
X231Y2379D02*
X374Y2379D01*
X1410Y2379D02*
X1551Y2379D01*
X2592Y2379D02*
X2736Y2379D01*
X3775Y2379D02*
X3911Y2379D01*
X4953Y2379D02*
X5094Y2379D01*
X6135Y2379D02*
X6277Y2379D01*
X231Y2378D02*
X373Y2378D01*
X1411Y2378D02*
X1551Y2378D01*
X2593Y2378D02*
X2735Y2378D01*
X3776Y2378D02*
X3910Y2378D01*
X4953Y2378D02*
X5094Y2378D01*
X6136Y2378D02*
X6276Y2378D01*
X231Y2377D02*
X373Y2377D01*
X1411Y2377D02*
X1550Y2377D01*
X2593Y2377D02*
X2735Y2377D01*
X3776Y2377D02*
X3909Y2377D01*
X4954Y2377D02*
X5093Y2377D01*
X6136Y2377D02*
X6276Y2377D01*
X232Y2376D02*
X372Y2376D01*
X1412Y2376D02*
X1550Y2376D01*
X2594Y2376D02*
X2734Y2376D01*
X3777Y2376D02*
X3909Y2376D01*
X4954Y2376D02*
X5093Y2376D01*
X6137Y2376D02*
X6275Y2376D01*
X232Y2375D02*
X372Y2375D01*
X1412Y2375D02*
X1549Y2375D01*
X2594Y2375D02*
X2734Y2375D01*
X3778Y2375D02*
X3908Y2375D01*
X4955Y2375D02*
X5092Y2375D01*
X6137Y2375D02*
X6275Y2375D01*
X233Y2374D02*
X371Y2374D01*
X1413Y2374D02*
X1549Y2374D01*
X2595Y2374D02*
X2733Y2374D01*
X3778Y2374D02*
X3907Y2374D01*
X4955Y2374D02*
X5092Y2374D01*
X6138Y2374D02*
X6274Y2374D01*
X233Y2373D02*
X371Y2373D01*
X1413Y2373D02*
X1548Y2373D01*
X2595Y2373D02*
X2733Y2373D01*
X3779Y2373D02*
X3907Y2373D01*
X4956Y2373D02*
X5091Y2373D01*
X6139Y2373D02*
X6273Y2373D01*
X234Y2372D02*
X370Y2372D01*
X1414Y2372D02*
X1548Y2372D01*
X2596Y2372D02*
X2732Y2372D01*
X3780Y2372D02*
X3906Y2372D01*
X4956Y2372D02*
X5091Y2372D01*
X6139Y2372D02*
X6273Y2372D01*
X235Y2371D02*
X369Y2371D01*
X1415Y2371D02*
X1547Y2371D01*
X2596Y2371D02*
X2731Y2371D01*
X3781Y2371D02*
X3905Y2371D01*
X4957Y2371D02*
X5090Y2371D01*
X6140Y2371D02*
X6272Y2371D01*
X235Y2370D02*
X369Y2370D01*
X1415Y2370D02*
X1546Y2370D01*
X2597Y2370D02*
X2731Y2370D01*
X3781Y2370D02*
X3904Y2370D01*
X4958Y2370D02*
X5089Y2370D01*
X6140Y2370D02*
X6272Y2370D01*
X236Y2369D02*
X368Y2369D01*
X1416Y2369D02*
X1546Y2369D01*
X2597Y2369D02*
X2730Y2369D01*
X3782Y2369D02*
X3904Y2369D01*
X4958Y2369D02*
X5089Y2369D01*
X6141Y2369D02*
X6271Y2369D01*
X236Y2368D02*
X368Y2368D01*
X1416Y2368D02*
X1545Y2368D01*
X2598Y2368D02*
X2730Y2368D01*
X3783Y2368D02*
X3903Y2368D01*
X4959Y2368D02*
X5088Y2368D01*
X6142Y2368D02*
X6270Y2368D01*
X237Y2367D02*
X367Y2367D01*
X1417Y2367D02*
X1544Y2367D01*
X2599Y2367D02*
X2729Y2367D01*
X3784Y2367D02*
X3902Y2367D01*
X4960Y2367D02*
X5088Y2367D01*
X6142Y2367D02*
X6270Y2367D01*
X238Y2366D02*
X366Y2366D01*
X1418Y2366D02*
X1544Y2366D01*
X2599Y2366D02*
X2728Y2366D01*
X3784Y2366D02*
X3901Y2366D01*
X4960Y2366D02*
X5087Y2366D01*
X6143Y2366D02*
X6269Y2366D01*
X238Y2365D02*
X366Y2365D01*
X1419Y2365D02*
X1543Y2365D01*
X2600Y2365D02*
X2728Y2365D01*
X3785Y2365D02*
X3900Y2365D01*
X4961Y2365D02*
X5086Y2365D01*
X6144Y2365D02*
X6268Y2365D01*
X239Y2364D02*
X365Y2364D01*
X1419Y2364D02*
X1542Y2364D01*
X2601Y2364D02*
X2727Y2364D01*
X3786Y2364D02*
X3899Y2364D01*
X4962Y2364D02*
X5085Y2364D01*
X6145Y2364D02*
X6267Y2364D01*
X240Y2363D02*
X364Y2363D01*
X1420Y2363D02*
X1541Y2363D01*
X2601Y2363D02*
X2726Y2363D01*
X3787Y2363D02*
X3899Y2363D01*
X4963Y2363D02*
X5085Y2363D01*
X6145Y2363D02*
X6267Y2363D01*
X241Y2362D02*
X363Y2362D01*
X1421Y2362D02*
X1541Y2362D01*
X2602Y2362D02*
X2725Y2362D01*
X3788Y2362D02*
X3898Y2362D01*
X4963Y2362D02*
X5084Y2362D01*
X6146Y2362D02*
X6266Y2362D01*
X241Y2361D02*
X363Y2361D01*
X1422Y2361D02*
X1540Y2361D01*
X2603Y2361D02*
X2725Y2361D01*
X3789Y2361D02*
X3897Y2361D01*
X4964Y2361D02*
X5083Y2361D01*
X6147Y2361D02*
X6265Y2361D01*
X242Y2360D02*
X362Y2360D01*
X1423Y2360D02*
X1539Y2360D01*
X2604Y2360D02*
X2724Y2360D01*
X3790Y2360D02*
X3895Y2360D01*
X4965Y2360D02*
X5082Y2360D01*
X6148Y2360D02*
X6264Y2360D01*
X243Y2359D02*
X361Y2359D01*
X1423Y2359D02*
X1538Y2359D01*
X2605Y2359D02*
X2723Y2359D01*
X3791Y2359D02*
X3894Y2359D01*
X4966Y2359D02*
X5081Y2359D01*
X6149Y2359D02*
X6263Y2359D01*
X244Y2358D02*
X360Y2358D01*
X1424Y2358D02*
X1537Y2358D01*
X2605Y2358D02*
X2722Y2358D01*
X3793Y2358D02*
X3893Y2358D01*
X4967Y2358D02*
X5080Y2358D01*
X6150Y2358D02*
X6262Y2358D01*
X245Y2357D02*
X359Y2357D01*
X1425Y2357D02*
X1536Y2357D01*
X2606Y2357D02*
X2721Y2357D01*
X3794Y2357D02*
X3892Y2357D01*
X4968Y2357D02*
X5079Y2357D01*
X6151Y2357D02*
X6261Y2357D01*
X246Y2356D02*
X358Y2356D01*
X1426Y2356D02*
X1535Y2356D01*
X2607Y2356D02*
X2720Y2356D01*
X3795Y2356D02*
X3891Y2356D01*
X4969Y2356D02*
X5078Y2356D01*
X6152Y2356D02*
X6260Y2356D01*
X247Y2355D02*
X357Y2355D01*
X1427Y2355D02*
X1534Y2355D01*
X2608Y2355D02*
X2720Y2355D01*
X3796Y2355D02*
X3889Y2355D01*
X4970Y2355D02*
X5077Y2355D01*
X6153Y2355D02*
X6259Y2355D01*
X248Y2354D02*
X356Y2354D01*
X1429Y2354D02*
X1533Y2354D01*
X2609Y2354D02*
X2719Y2354D01*
X3798Y2354D02*
X3888Y2354D01*
X4971Y2354D02*
X5076Y2354D01*
X6154Y2354D02*
X6258Y2354D01*
X249Y2353D02*
X355Y2353D01*
X1430Y2353D02*
X1532Y2353D01*
X2610Y2353D02*
X2717Y2353D01*
X3799Y2353D02*
X3887Y2353D01*
X4972Y2353D02*
X5075Y2353D01*
X6155Y2353D02*
X6257Y2353D01*
X250Y2352D02*
X354Y2352D01*
X1431Y2352D02*
X1531Y2352D01*
X2611Y2352D02*
X2716Y2352D01*
X3801Y2352D02*
X3885Y2352D01*
X4973Y2352D02*
X5074Y2352D01*
X6156Y2352D02*
X6256Y2352D01*
X251Y2351D02*
X353Y2351D01*
X1432Y2351D02*
X1530Y2351D01*
X2612Y2351D02*
X2715Y2351D01*
X3802Y2351D02*
X3883Y2351D01*
X4974Y2351D02*
X5073Y2351D01*
X6157Y2351D02*
X6255Y2351D01*
X252Y2350D02*
X352Y2350D01*
X1433Y2350D02*
X1528Y2350D01*
X2614Y2350D02*
X2714Y2350D01*
X3804Y2350D02*
X3882Y2350D01*
X4976Y2350D02*
X5071Y2350D01*
X6159Y2350D02*
X6253Y2350D01*
X253Y2349D02*
X351Y2349D01*
X1435Y2349D02*
X1527Y2349D01*
X2615Y2349D02*
X2713Y2349D01*
X3806Y2349D02*
X3880Y2349D01*
X4977Y2349D02*
X5070Y2349D01*
X6160Y2349D02*
X6252Y2349D01*
X255Y2348D02*
X349Y2348D01*
X1436Y2348D02*
X1526Y2348D01*
X2616Y2348D02*
X2712Y2348D01*
X3808Y2348D02*
X3878Y2348D01*
X4978Y2348D02*
X5069Y2348D01*
X6161Y2348D02*
X6251Y2348D01*
X256Y2347D02*
X348Y2347D01*
X1437Y2347D02*
X1524Y2347D01*
X2617Y2347D02*
X2710Y2347D01*
X3810Y2347D02*
X3876Y2347D01*
X4980Y2347D02*
X5067Y2347D01*
X6163Y2347D02*
X6249Y2347D01*
X257Y2346D02*
X347Y2346D01*
X1439Y2346D02*
X1523Y2346D01*
X2619Y2346D02*
X2709Y2346D01*
X3812Y2346D02*
X3874Y2346D01*
X4981Y2346D02*
X5066Y2346D01*
X6164Y2346D02*
X6248Y2346D01*
X259Y2345D02*
X345Y2345D01*
X1441Y2345D02*
X1521Y2345D01*
X2620Y2345D02*
X2707Y2345D01*
X3814Y2345D02*
X3872Y2345D01*
X4983Y2345D02*
X5064Y2345D01*
X6166Y2345D02*
X6246Y2345D01*
X260Y2344D02*
X344Y2344D01*
X1442Y2344D02*
X1519Y2344D01*
X2622Y2344D02*
X2706Y2344D01*
X3817Y2344D02*
X3869Y2344D01*
X4985Y2344D02*
X5063Y2344D01*
X6167Y2344D02*
X6245Y2344D01*
X262Y2343D02*
X342Y2343D01*
X1444Y2343D02*
X1518Y2343D01*
X2623Y2343D02*
X2704Y2343D01*
X3820Y2343D02*
X3866Y2343D01*
X4986Y2343D02*
X5061Y2343D01*
X6169Y2343D02*
X6243Y2343D01*
X264Y2342D02*
X340Y2342D01*
X1446Y2342D02*
X1516Y2342D01*
X2625Y2342D02*
X2703Y2342D01*
X3823Y2342D02*
X3862Y2342D01*
X4988Y2342D02*
X5059Y2342D01*
X6171Y2342D02*
X6241Y2342D01*
X265Y2341D02*
X339Y2341D01*
X1448Y2341D02*
X1514Y2341D01*
X2627Y2341D02*
X2701Y2341D01*
X3827Y2341D02*
X3858Y2341D01*
X4990Y2341D02*
X5057Y2341D01*
X6173Y2341D02*
X6239Y2341D01*
X267Y2340D02*
X337Y2340D01*
X1450Y2340D02*
X1512Y2340D01*
X2629Y2340D02*
X2699Y2340D01*
X3834Y2340D02*
X3852Y2340D01*
X4992Y2340D02*
X5055Y2340D01*
X6175Y2340D02*
X6237Y2340D01*
X270Y2339D02*
X335Y2339D01*
X1453Y2339D02*
X1509Y2339D01*
X2631Y2339D02*
X2697Y2339D01*
X4994Y2339D02*
X5053Y2339D01*
X6178Y2339D02*
X6234Y2339D01*
X272Y2338D02*
X333Y2338D01*
X1455Y2338D02*
X1506Y2338D01*
X2633Y2338D02*
X2695Y2338D01*
X4997Y2338D02*
X5050Y2338D01*
X6181Y2338D02*
X6231Y2338D01*
X274Y2337D02*
X330Y2337D01*
X1458Y2337D02*
X1503Y2337D01*
X2635Y2337D02*
X2693Y2337D01*
X5000Y2337D02*
X5047Y2337D01*
X6183Y2337D02*
X6229Y2337D01*
X277Y2336D02*
X327Y2336D01*
X1462Y2336D02*
X1499Y2336D01*
X2638Y2336D02*
X2690Y2336D01*
X5004Y2336D02*
X5044Y2336D01*
X6187Y2336D02*
X6225Y2336D01*
X280Y2335D02*
X324Y2335D01*
X1467Y2335D02*
X1495Y2335D01*
X2641Y2335D02*
X2687Y2335D01*
X5008Y2335D02*
X5040Y2335D01*
X6192Y2335D02*
X6220Y2335D01*
X284Y2334D02*
X320Y2334D01*
X1473Y2334D02*
X1489Y2334D01*
X2644Y2334D02*
X2683Y2334D01*
X5013Y2334D02*
X5034Y2334D01*
X6198Y2334D02*
X6214Y2334D01*
X289Y2333D02*
X315Y2333D01*
X2648Y2333D02*
X2679Y2333D01*
X295Y2332D02*
X309Y2332D01*
X2655Y2332D02*
X2673Y2332D01*
X3837Y2311D02*
X3849Y2311D01*
X3830Y2310D02*
X3856Y2310D01*
X3825Y2309D02*
X3861Y2309D01*
X3821Y2308D02*
X3865Y2308D01*
X3818Y2307D02*
X3868Y2307D01*
X3815Y2306D02*
X3871Y2306D01*
X1473Y2305D02*
X1489Y2305D01*
X3813Y2305D02*
X3873Y2305D01*
X5019Y2305D02*
X5028Y2305D01*
X6198Y2305D02*
X6214Y2305D01*
X1466Y2304D02*
X1495Y2304D01*
X3810Y2304D02*
X3875Y2304D01*
X5011Y2304D02*
X5036Y2304D01*
X6192Y2304D02*
X6220Y2304D01*
X293Y2303D02*
X311Y2303D01*
X1462Y2303D02*
X1499Y2303D01*
X2658Y2303D02*
X2670Y2303D01*
X3808Y2303D02*
X3877Y2303D01*
X5006Y2303D02*
X5041Y2303D01*
X6187Y2303D02*
X6225Y2303D01*
X287Y2302D02*
X317Y2302D01*
X1458Y2302D02*
X1503Y2302D01*
X2651Y2302D02*
X2677Y2302D01*
X3806Y2302D02*
X3879Y2302D01*
X5002Y2302D02*
X5045Y2302D01*
X6183Y2302D02*
X6229Y2302D01*
X283Y2301D02*
X321Y2301D01*
X1455Y2301D02*
X1506Y2301D01*
X2646Y2301D02*
X2682Y2301D01*
X3805Y2301D02*
X3881Y2301D01*
X4999Y2301D02*
X5048Y2301D01*
X6180Y2301D02*
X6232Y2301D01*
X279Y2300D02*
X325Y2300D01*
X1452Y2300D02*
X1509Y2300D01*
X2642Y2300D02*
X2686Y2300D01*
X3803Y2300D02*
X3883Y2300D01*
X4996Y2300D02*
X5051Y2300D01*
X6178Y2300D02*
X6234Y2300D01*
X276Y2299D02*
X328Y2299D01*
X1450Y2299D02*
X1512Y2299D01*
X2639Y2299D02*
X2689Y2299D01*
X3801Y2299D02*
X3884Y2299D01*
X4993Y2299D02*
X5054Y2299D01*
X6175Y2299D02*
X6237Y2299D01*
X273Y2298D02*
X331Y2298D01*
X1448Y2298D02*
X1514Y2298D01*
X2636Y2298D02*
X2692Y2298D01*
X3800Y2298D02*
X3886Y2298D01*
X4991Y2298D02*
X5056Y2298D01*
X6173Y2298D02*
X6239Y2298D01*
X271Y2297D02*
X333Y2297D01*
X1446Y2297D02*
X1516Y2297D01*
X2633Y2297D02*
X2694Y2297D01*
X3798Y2297D02*
X3887Y2297D01*
X4989Y2297D02*
X5058Y2297D01*
X6171Y2297D02*
X6241Y2297D01*
X269Y2296D02*
X335Y2296D01*
X1444Y2296D02*
X1518Y2296D01*
X2631Y2296D02*
X2696Y2296D01*
X3797Y2296D02*
X3889Y2296D01*
X4987Y2296D02*
X5060Y2296D01*
X6169Y2296D02*
X6243Y2296D01*
X267Y2295D02*
X337Y2295D01*
X1442Y2295D02*
X1519Y2295D01*
X2629Y2295D02*
X2698Y2295D01*
X3796Y2295D02*
X3890Y2295D01*
X4986Y2295D02*
X5062Y2295D01*
X6167Y2295D02*
X6245Y2295D01*
X265Y2294D02*
X339Y2294D01*
X1441Y2294D02*
X1521Y2294D01*
X2627Y2294D02*
X2700Y2294D01*
X3794Y2294D02*
X3891Y2294D01*
X4984Y2294D02*
X5063Y2294D01*
X6166Y2294D02*
X6246Y2294D01*
X263Y2293D02*
X341Y2293D01*
X1439Y2293D02*
X1523Y2293D01*
X2626Y2293D02*
X2702Y2293D01*
X3793Y2293D02*
X3893Y2293D01*
X4982Y2293D02*
X5065Y2293D01*
X6164Y2293D02*
X6248Y2293D01*
X262Y2292D02*
X342Y2292D01*
X1437Y2292D02*
X1524Y2292D01*
X2624Y2292D02*
X2704Y2292D01*
X3792Y2292D02*
X3894Y2292D01*
X4981Y2292D02*
X5066Y2292D01*
X6163Y2292D02*
X6249Y2292D01*
X260Y2291D02*
X344Y2291D01*
X1436Y2291D02*
X1526Y2291D01*
X2622Y2291D02*
X2705Y2291D01*
X3791Y2291D02*
X3895Y2291D01*
X4979Y2291D02*
X5068Y2291D01*
X6161Y2291D02*
X6251Y2291D01*
X258Y2290D02*
X346Y2290D01*
X1435Y2290D02*
X1527Y2290D01*
X2621Y2290D02*
X2707Y2290D01*
X3790Y2290D02*
X3896Y2290D01*
X4978Y2290D02*
X5069Y2290D01*
X6160Y2290D02*
X6252Y2290D01*
X257Y2289D02*
X347Y2289D01*
X1433Y2289D02*
X1528Y2289D01*
X2619Y2289D02*
X2708Y2289D01*
X3789Y2289D02*
X3897Y2289D01*
X4977Y2289D02*
X5071Y2289D01*
X6159Y2289D02*
X6253Y2289D01*
X256Y2288D02*
X348Y2288D01*
X1432Y2288D02*
X1530Y2288D01*
X2618Y2288D02*
X2710Y2288D01*
X3788Y2288D02*
X3898Y2288D01*
X4975Y2288D02*
X5072Y2288D01*
X6157Y2288D02*
X6255Y2288D01*
X254Y2287D02*
X350Y2287D01*
X1431Y2287D02*
X1531Y2287D01*
X2617Y2287D02*
X2711Y2287D01*
X3787Y2287D02*
X3899Y2287D01*
X4974Y2287D02*
X5073Y2287D01*
X6156Y2287D02*
X6256Y2287D01*
X253Y2286D02*
X351Y2286D01*
X1430Y2286D02*
X1532Y2286D01*
X2615Y2286D02*
X2712Y2286D01*
X3786Y2286D02*
X3900Y2286D01*
X4973Y2286D02*
X5074Y2286D01*
X6155Y2286D02*
X6257Y2286D01*
X252Y2285D02*
X352Y2285D01*
X1428Y2285D02*
X1533Y2285D01*
X2614Y2285D02*
X2714Y2285D01*
X3785Y2285D02*
X3901Y2285D01*
X4972Y2285D02*
X5075Y2285D01*
X6154Y2285D02*
X6258Y2285D01*
X251Y2284D02*
X353Y2284D01*
X1427Y2284D02*
X1534Y2284D01*
X2613Y2284D02*
X2715Y2284D01*
X3784Y2284D02*
X3902Y2284D01*
X4971Y2284D02*
X5077Y2284D01*
X6153Y2284D02*
X6259Y2284D01*
X250Y2283D02*
X354Y2283D01*
X1426Y2283D02*
X1535Y2283D01*
X2612Y2283D02*
X2716Y2283D01*
X3783Y2283D02*
X3903Y2283D01*
X4969Y2283D02*
X5078Y2283D01*
X6151Y2283D02*
X6261Y2283D01*
X249Y2282D02*
X356Y2282D01*
X1425Y2282D02*
X1536Y2282D01*
X2611Y2282D02*
X2717Y2282D01*
X3782Y2282D02*
X3903Y2282D01*
X4968Y2282D02*
X5079Y2282D01*
X6150Y2282D02*
X6262Y2282D01*
X247Y2281D02*
X357Y2281D01*
X1424Y2281D02*
X1537Y2281D01*
X2610Y2281D02*
X2718Y2281D01*
X3782Y2281D02*
X3904Y2281D01*
X4967Y2281D02*
X5080Y2281D01*
X6150Y2281D02*
X6262Y2281D01*
X246Y2280D02*
X358Y2280D01*
X1423Y2280D02*
X1538Y2280D01*
X2609Y2280D02*
X2719Y2280D01*
X3781Y2280D02*
X3905Y2280D01*
X4967Y2280D02*
X5081Y2280D01*
X6149Y2280D02*
X6263Y2280D01*
X246Y2279D02*
X359Y2279D01*
X1423Y2279D02*
X1539Y2279D01*
X2608Y2279D02*
X2720Y2279D01*
X3780Y2279D02*
X3906Y2279D01*
X4966Y2279D02*
X5081Y2279D01*
X6148Y2279D02*
X6264Y2279D01*
X245Y2278D02*
X359Y2278D01*
X1422Y2278D02*
X1540Y2278D01*
X2607Y2278D02*
X2721Y2278D01*
X3779Y2278D02*
X3906Y2278D01*
X4965Y2278D02*
X5082Y2278D01*
X6147Y2278D02*
X6265Y2278D01*
X244Y2277D02*
X360Y2277D01*
X1421Y2277D02*
X1541Y2277D01*
X2606Y2277D02*
X2722Y2277D01*
X3779Y2277D02*
X3907Y2277D01*
X4964Y2277D02*
X5083Y2277D01*
X6146Y2277D02*
X6266Y2277D01*
X243Y2276D02*
X361Y2276D01*
X1420Y2276D02*
X1541Y2276D01*
X2605Y2276D02*
X2723Y2276D01*
X3778Y2276D02*
X3908Y2276D01*
X4963Y2276D02*
X5084Y2276D01*
X6145Y2276D02*
X6267Y2276D01*
X242Y2275D02*
X362Y2275D01*
X1419Y2275D02*
X1542Y2275D01*
X2604Y2275D02*
X2724Y2275D01*
X3777Y2275D02*
X3908Y2275D01*
X4962Y2275D02*
X5085Y2275D01*
X6145Y2275D02*
X6267Y2275D01*
X241Y2274D02*
X363Y2274D01*
X1419Y2274D02*
X1543Y2274D01*
X2603Y2274D02*
X2724Y2274D01*
X3777Y2274D02*
X3909Y2274D01*
X4962Y2274D02*
X5086Y2274D01*
X6144Y2274D02*
X6268Y2274D01*
X240Y2273D02*
X364Y2273D01*
X1418Y2273D02*
X1544Y2273D01*
X2603Y2273D02*
X2725Y2273D01*
X3776Y2273D02*
X3910Y2273D01*
X4961Y2273D02*
X5086Y2273D01*
X6143Y2273D02*
X6269Y2273D01*
X240Y2272D02*
X364Y2272D01*
X1417Y2272D02*
X1544Y2272D01*
X2602Y2272D02*
X2726Y2272D01*
X3776Y2272D02*
X3910Y2272D01*
X4960Y2272D02*
X5087Y2272D01*
X6142Y2272D02*
X6270Y2272D01*
X239Y2271D02*
X365Y2271D01*
X1416Y2271D02*
X1545Y2271D01*
X2601Y2271D02*
X2727Y2271D01*
X3775Y2271D02*
X3911Y2271D01*
X4959Y2271D02*
X5088Y2271D01*
X6142Y2271D02*
X6270Y2271D01*
X238Y2270D02*
X366Y2270D01*
X1416Y2270D02*
X1546Y2270D01*
X2600Y2270D02*
X2727Y2270D01*
X3774Y2270D02*
X3911Y2270D01*
X4959Y2270D02*
X5088Y2270D01*
X6141Y2270D02*
X6271Y2270D01*
X238Y2269D02*
X367Y2269D01*
X1415Y2269D02*
X1546Y2269D01*
X2600Y2269D02*
X2728Y2269D01*
X3774Y2269D02*
X3912Y2269D01*
X4958Y2269D02*
X5089Y2269D01*
X6140Y2269D02*
X6272Y2269D01*
X237Y2268D02*
X367Y2268D01*
X1414Y2268D02*
X1547Y2268D01*
X2599Y2268D02*
X2729Y2268D01*
X3773Y2268D02*
X3912Y2268D01*
X4958Y2268D02*
X5090Y2268D01*
X6140Y2268D02*
X6272Y2268D01*
X236Y2267D02*
X368Y2267D01*
X1414Y2267D02*
X1548Y2267D01*
X2598Y2267D02*
X2729Y2267D01*
X3773Y2267D02*
X3913Y2267D01*
X4957Y2267D02*
X5090Y2267D01*
X6139Y2267D02*
X6273Y2267D01*
X236Y2266D02*
X368Y2266D01*
X1413Y2266D02*
X1548Y2266D01*
X2598Y2266D02*
X2730Y2266D01*
X3772Y2266D02*
X3913Y2266D01*
X4956Y2266D02*
X5091Y2266D01*
X6138Y2266D02*
X6274Y2266D01*
X235Y2265D02*
X369Y2265D01*
X1413Y2265D02*
X1549Y2265D01*
X2597Y2265D02*
X2731Y2265D01*
X3772Y2265D02*
X3914Y2265D01*
X4956Y2265D02*
X5091Y2265D01*
X6138Y2265D02*
X6274Y2265D01*
X234Y2264D02*
X370Y2264D01*
X1412Y2264D02*
X1549Y2264D01*
X2596Y2264D02*
X2731Y2264D01*
X3771Y2264D02*
X3914Y2264D01*
X4955Y2264D02*
X5092Y2264D01*
X6137Y2264D02*
X6275Y2264D01*
X234Y2263D02*
X370Y2263D01*
X1412Y2263D02*
X1550Y2263D01*
X2596Y2263D02*
X2732Y2263D01*
X3771Y2263D02*
X3915Y2263D01*
X4955Y2263D02*
X5093Y2263D01*
X6137Y2263D02*
X6275Y2263D01*
X233Y2262D02*
X371Y2262D01*
X1411Y2262D02*
X1550Y2262D01*
X2595Y2262D02*
X2732Y2262D01*
X3771Y2262D02*
X3915Y2262D01*
X4954Y2262D02*
X5093Y2262D01*
X6136Y2262D02*
X6276Y2262D01*
X233Y2261D02*
X371Y2261D01*
X1411Y2261D02*
X1551Y2261D01*
X2595Y2261D02*
X2733Y2261D01*
X3770Y2261D02*
X3916Y2261D01*
X4954Y2261D02*
X5094Y2261D01*
X6136Y2261D02*
X6276Y2261D01*
X232Y2260D02*
X372Y2260D01*
X1410Y2260D02*
X1551Y2260D01*
X2594Y2260D02*
X2733Y2260D01*
X3770Y2260D02*
X3916Y2260D01*
X4953Y2260D02*
X5094Y2260D01*
X6135Y2260D02*
X6277Y2260D01*
X232Y2259D02*
X372Y2259D01*
X1410Y2259D02*
X1552Y2259D01*
X2594Y2259D02*
X2734Y2259D01*
X3769Y2259D02*
X3916Y2259D01*
X4953Y2259D02*
X5095Y2259D01*
X6135Y2259D02*
X6277Y2259D01*
X231Y2258D02*
X373Y2258D01*
X1409Y2258D02*
X1552Y2258D01*
X2593Y2258D02*
X2734Y2258D01*
X3769Y2258D02*
X3917Y2258D01*
X4952Y2258D02*
X5095Y2258D01*
X6134Y2258D02*
X6278Y2258D01*
X231Y2257D02*
X373Y2257D01*
X1409Y2257D02*
X1553Y2257D01*
X2593Y2257D02*
X2735Y2257D01*
X3769Y2257D02*
X3917Y2257D01*
X4952Y2257D02*
X5096Y2257D01*
X6134Y2257D02*
X6278Y2257D01*
X230Y2256D02*
X374Y2256D01*
X1408Y2256D02*
X1553Y2256D01*
X2592Y2256D02*
X2735Y2256D01*
X3768Y2256D02*
X3917Y2256D01*
X4951Y2256D02*
X5096Y2256D01*
X6134Y2256D02*
X6278Y2256D01*
X230Y2255D02*
X374Y2255D01*
X1408Y2255D02*
X1554Y2255D01*
X2592Y2255D02*
X2736Y2255D01*
X3768Y2255D02*
X3918Y2255D01*
X4951Y2255D02*
X5096Y2255D01*
X6133Y2255D02*
X6279Y2255D01*
X230Y2254D02*
X374Y2254D01*
X1408Y2254D02*
X1554Y2254D01*
X2592Y2254D02*
X2736Y2254D01*
X3768Y2254D02*
X3918Y2254D01*
X4951Y2254D02*
X5097Y2254D01*
X6133Y2254D02*
X6279Y2254D01*
X229Y2253D02*
X375Y2253D01*
X1407Y2253D02*
X1554Y2253D01*
X2591Y2253D02*
X2736Y2253D01*
X3768Y2253D02*
X3918Y2253D01*
X4950Y2253D02*
X5097Y2253D01*
X6133Y2253D02*
X6279Y2253D01*
X229Y2252D02*
X375Y2252D01*
X1407Y2252D02*
X1555Y2252D01*
X2591Y2252D02*
X2737Y2252D01*
X3767Y2252D02*
X3918Y2252D01*
X4950Y2252D02*
X5097Y2252D01*
X6132Y2252D02*
X6280Y2252D01*
X229Y2251D02*
X376Y2251D01*
X1407Y2251D02*
X1555Y2251D01*
X2590Y2251D02*
X2737Y2251D01*
X3767Y2251D02*
X3919Y2251D01*
X4950Y2251D02*
X5098Y2251D01*
X6132Y2251D02*
X6280Y2251D01*
X228Y2250D02*
X376Y2250D01*
X1406Y2250D02*
X1555Y2250D01*
X2590Y2250D02*
X2738Y2250D01*
X3767Y2250D02*
X3919Y2250D01*
X4949Y2250D02*
X5098Y2250D01*
X6132Y2250D02*
X6280Y2250D01*
X228Y2249D02*
X376Y2249D01*
X1406Y2249D02*
X1556Y2249D01*
X2590Y2249D02*
X2738Y2249D01*
X3767Y2249D02*
X3919Y2249D01*
X4949Y2249D02*
X5098Y2249D01*
X6131Y2249D02*
X6281Y2249D01*
X228Y2248D02*
X377Y2248D01*
X1406Y2248D02*
X1556Y2248D01*
X2589Y2248D02*
X2738Y2248D01*
X3766Y2248D02*
X3919Y2248D01*
X4949Y2248D02*
X5098Y2248D01*
X6131Y2248D02*
X6281Y2248D01*
X227Y2247D02*
X377Y2247D01*
X1406Y2247D02*
X1556Y2247D01*
X2589Y2247D02*
X2739Y2247D01*
X3766Y2247D02*
X3919Y2247D01*
X4948Y2247D02*
X5099Y2247D01*
X6131Y2247D02*
X6281Y2247D01*
X227Y2246D02*
X377Y2246D01*
X1405Y2246D02*
X1556Y2246D01*
X2589Y2246D02*
X2739Y2246D01*
X3766Y2246D02*
X3920Y2246D01*
X4948Y2246D02*
X5099Y2246D01*
X6130Y2246D02*
X6282Y2246D01*
X227Y2245D02*
X377Y2245D01*
X1405Y2245D02*
X1557Y2245D01*
X2589Y2245D02*
X2739Y2245D01*
X3766Y2245D02*
X3920Y2245D01*
X4948Y2245D02*
X5099Y2245D01*
X6130Y2245D02*
X6282Y2245D01*
X227Y2244D02*
X378Y2244D01*
X1405Y2244D02*
X1557Y2244D01*
X2588Y2244D02*
X2739Y2244D01*
X3766Y2244D02*
X3920Y2244D01*
X4948Y2244D02*
X5099Y2244D01*
X6130Y2244D02*
X6282Y2244D01*
X226Y2243D02*
X378Y2243D01*
X1405Y2243D02*
X1557Y2243D01*
X2588Y2243D02*
X2740Y2243D01*
X3766Y2243D02*
X3920Y2243D01*
X4947Y2243D02*
X5100Y2243D01*
X6130Y2243D02*
X6282Y2243D01*
X226Y2242D02*
X378Y2242D01*
X1404Y2242D02*
X1557Y2242D01*
X2588Y2242D02*
X2740Y2242D01*
X3766Y2242D02*
X3920Y2242D01*
X4947Y2242D02*
X5100Y2242D01*
X6130Y2242D02*
X6282Y2242D01*
X226Y2241D02*
X378Y2241D01*
X1404Y2241D02*
X1557Y2241D01*
X2588Y2241D02*
X2740Y2241D01*
X3765Y2241D02*
X3920Y2241D01*
X4947Y2241D02*
X5100Y2241D01*
X6129Y2241D02*
X6283Y2241D01*
X226Y2240D02*
X379Y2240D01*
X1404Y2240D02*
X1558Y2240D01*
X2587Y2240D02*
X2740Y2240D01*
X3765Y2240D02*
X3920Y2240D01*
X4947Y2240D02*
X5100Y2240D01*
X6129Y2240D02*
X6283Y2240D01*
X225Y2239D02*
X379Y2239D01*
X1404Y2239D02*
X1558Y2239D01*
X2587Y2239D02*
X2740Y2239D01*
X3765Y2239D02*
X3921Y2239D01*
X4947Y2239D02*
X5100Y2239D01*
X6129Y2239D02*
X6283Y2239D01*
X225Y2238D02*
X379Y2238D01*
X1404Y2238D02*
X1558Y2238D01*
X2587Y2238D02*
X2741Y2238D01*
X3765Y2238D02*
X3921Y2238D01*
X4947Y2238D02*
X5101Y2238D01*
X6129Y2238D02*
X6283Y2238D01*
X225Y2237D02*
X379Y2237D01*
X1404Y2237D02*
X1558Y2237D01*
X2587Y2237D02*
X2741Y2237D01*
X3765Y2237D02*
X3921Y2237D01*
X4946Y2237D02*
X5101Y2237D01*
X6129Y2237D02*
X6283Y2237D01*
X225Y2236D02*
X379Y2236D01*
X1403Y2236D02*
X1558Y2236D01*
X2587Y2236D02*
X2741Y2236D01*
X3765Y2236D02*
X3921Y2236D01*
X4946Y2236D02*
X5101Y2236D01*
X6129Y2236D02*
X6283Y2236D01*
X225Y2235D02*
X379Y2235D01*
X1403Y2235D02*
X1558Y2235D01*
X2587Y2235D02*
X2741Y2235D01*
X3765Y2235D02*
X3921Y2235D01*
X4946Y2235D02*
X5101Y2235D01*
X6128Y2235D02*
X6284Y2235D01*
X225Y2234D02*
X379Y2234D01*
X1403Y2234D02*
X1558Y2234D01*
X2586Y2234D02*
X2741Y2234D01*
X3765Y2234D02*
X3921Y2234D01*
X4946Y2234D02*
X5101Y2234D01*
X6128Y2234D02*
X6284Y2234D01*
X225Y2233D02*
X380Y2233D01*
X1403Y2233D02*
X1558Y2233D01*
X2586Y2233D02*
X2741Y2233D01*
X3765Y2233D02*
X3921Y2233D01*
X4946Y2233D02*
X5101Y2233D01*
X6128Y2233D02*
X6284Y2233D01*
X224Y2232D02*
X380Y2232D01*
X1403Y2232D02*
X1559Y2232D01*
X2586Y2232D02*
X2741Y2232D01*
X3765Y2232D02*
X3921Y2232D01*
X4946Y2232D02*
X5101Y2232D01*
X6128Y2232D02*
X6284Y2232D01*
X224Y2231D02*
X380Y2231D01*
X1403Y2231D02*
X1559Y2231D01*
X2586Y2231D02*
X2742Y2231D01*
X3765Y2231D02*
X3921Y2231D01*
X4946Y2231D02*
X5101Y2231D01*
X6128Y2231D02*
X6284Y2231D01*
X224Y2230D02*
X380Y2230D01*
X1403Y2230D02*
X1559Y2230D01*
X2586Y2230D02*
X2742Y2230D01*
X3765Y2230D02*
X3921Y2230D01*
X4946Y2230D02*
X5101Y2230D01*
X6128Y2230D02*
X6284Y2230D01*
X224Y2229D02*
X380Y2229D01*
X1403Y2229D02*
X1559Y2229D01*
X2586Y2229D02*
X2742Y2229D01*
X3765Y2229D02*
X3921Y2229D01*
X4946Y2229D02*
X5102Y2229D01*
X6128Y2229D02*
X6284Y2229D01*
X224Y2228D02*
X380Y2228D01*
X1403Y2228D02*
X1559Y2228D01*
X2586Y2228D02*
X2742Y2228D01*
X3765Y2228D02*
X3921Y2228D01*
X4946Y2228D02*
X5102Y2228D01*
X6128Y2228D02*
X6284Y2228D01*
X224Y2227D02*
X380Y2227D01*
X1403Y2227D02*
X1559Y2227D01*
X2586Y2227D02*
X2742Y2227D01*
X3765Y2227D02*
X3921Y2227D01*
X4946Y2227D02*
X5102Y2227D01*
X6128Y2227D02*
X6284Y2227D01*
X224Y2226D02*
X380Y2226D01*
X1403Y2226D02*
X1559Y2226D01*
X2586Y2226D02*
X2742Y2226D01*
X3765Y2226D02*
X3921Y2226D01*
X4946Y2226D02*
X5102Y2226D01*
X6128Y2226D02*
X6284Y2226D01*
X224Y2225D02*
X380Y2225D01*
X1403Y2225D02*
X1559Y2225D01*
X2586Y2225D02*
X2742Y2225D01*
X3765Y2225D02*
X3920Y2225D01*
X4946Y2225D02*
X5102Y2225D01*
X6128Y2225D02*
X6284Y2225D01*
X224Y2224D02*
X380Y2224D01*
X1403Y2224D02*
X1559Y2224D01*
X2586Y2224D02*
X2742Y2224D01*
X3765Y2224D02*
X3920Y2224D01*
X4946Y2224D02*
X5101Y2224D01*
X6128Y2224D02*
X6284Y2224D01*
X224Y2223D02*
X380Y2223D01*
X1403Y2223D02*
X1559Y2223D01*
X2586Y2223D02*
X2742Y2223D01*
X3766Y2223D02*
X3920Y2223D01*
X4946Y2223D02*
X5101Y2223D01*
X6128Y2223D02*
X6284Y2223D01*
X224Y2222D02*
X380Y2222D01*
X1403Y2222D02*
X1559Y2222D01*
X2586Y2222D02*
X2742Y2222D01*
X3766Y2222D02*
X3920Y2222D01*
X4946Y2222D02*
X5101Y2222D01*
X6128Y2222D02*
X6284Y2222D01*
X224Y2221D02*
X380Y2221D01*
X1403Y2221D02*
X1558Y2221D01*
X2586Y2221D02*
X2742Y2221D01*
X3766Y2221D02*
X3920Y2221D01*
X4946Y2221D02*
X5101Y2221D01*
X6128Y2221D02*
X6284Y2221D01*
X224Y2220D02*
X380Y2220D01*
X1403Y2220D02*
X1558Y2220D01*
X2586Y2220D02*
X2742Y2220D01*
X3766Y2220D02*
X3920Y2220D01*
X4946Y2220D02*
X5101Y2220D01*
X6128Y2220D02*
X6284Y2220D01*
X224Y2219D02*
X380Y2219D01*
X1403Y2219D02*
X1558Y2219D01*
X2586Y2219D02*
X2742Y2219D01*
X3766Y2219D02*
X3919Y2219D01*
X4946Y2219D02*
X5101Y2219D01*
X6128Y2219D02*
X6284Y2219D01*
X224Y2218D02*
X380Y2218D01*
X1403Y2218D02*
X1558Y2218D01*
X2586Y2218D02*
X2741Y2218D01*
X3766Y2218D02*
X3919Y2218D01*
X4946Y2218D02*
X5101Y2218D01*
X6129Y2218D02*
X6283Y2218D01*
X225Y2217D02*
X380Y2217D01*
X1404Y2217D02*
X1558Y2217D01*
X2586Y2217D02*
X2741Y2217D01*
X3767Y2217D02*
X3919Y2217D01*
X4946Y2217D02*
X5101Y2217D01*
X6129Y2217D02*
X6283Y2217D01*
X225Y2216D02*
X379Y2216D01*
X1404Y2216D02*
X1558Y2216D01*
X2586Y2216D02*
X2741Y2216D01*
X3767Y2216D02*
X3919Y2216D01*
X4946Y2216D02*
X5101Y2216D01*
X6129Y2216D02*
X6283Y2216D01*
X225Y2215D02*
X379Y2215D01*
X1404Y2215D02*
X1558Y2215D01*
X2587Y2215D02*
X2741Y2215D01*
X3767Y2215D02*
X3919Y2215D01*
X4947Y2215D02*
X5101Y2215D01*
X6129Y2215D02*
X6283Y2215D01*
X225Y2214D02*
X379Y2214D01*
X1404Y2214D02*
X1558Y2214D01*
X2587Y2214D02*
X2741Y2214D01*
X3767Y2214D02*
X3918Y2214D01*
X4947Y2214D02*
X5100Y2214D01*
X6129Y2214D02*
X6283Y2214D01*
X225Y2213D02*
X379Y2213D01*
X1404Y2213D02*
X1557Y2213D01*
X2587Y2213D02*
X2741Y2213D01*
X3768Y2213D02*
X3918Y2213D01*
X4947Y2213D02*
X5100Y2213D01*
X6129Y2213D02*
X6283Y2213D01*
X225Y2212D02*
X379Y2212D01*
X1404Y2212D02*
X1557Y2212D01*
X2587Y2212D02*
X2741Y2212D01*
X3768Y2212D02*
X3918Y2212D01*
X4947Y2212D02*
X5100Y2212D01*
X6130Y2212D02*
X6282Y2212D01*
X226Y2211D02*
X379Y2211D01*
X1405Y2211D02*
X1557Y2211D01*
X2587Y2211D02*
X2740Y2211D01*
X3768Y2211D02*
X3918Y2211D01*
X4947Y2211D02*
X5100Y2211D01*
X6130Y2211D02*
X6282Y2211D01*
X226Y2210D02*
X378Y2210D01*
X1405Y2210D02*
X1557Y2210D01*
X2587Y2210D02*
X2740Y2210D01*
X3768Y2210D02*
X3917Y2210D01*
X4948Y2210D02*
X5100Y2210D01*
X6130Y2210D02*
X6282Y2210D01*
X226Y2209D02*
X378Y2209D01*
X1405Y2209D02*
X1557Y2209D01*
X2588Y2209D02*
X2740Y2209D01*
X3769Y2209D02*
X3917Y2209D01*
X4948Y2209D02*
X5099Y2209D01*
X6130Y2209D02*
X6282Y2209D01*
X226Y2208D02*
X378Y2208D01*
X1405Y2208D02*
X1556Y2208D01*
X2588Y2208D02*
X2740Y2208D01*
X3769Y2208D02*
X3917Y2208D01*
X4948Y2208D02*
X5099Y2208D01*
X6131Y2208D02*
X6281Y2208D01*
X226Y2207D02*
X378Y2207D01*
X1406Y2207D02*
X1556Y2207D01*
X2588Y2207D02*
X2740Y2207D01*
X3769Y2207D02*
X3916Y2207D01*
X4948Y2207D02*
X5099Y2207D01*
X6131Y2207D02*
X6281Y2207D01*
X227Y2206D02*
X378Y2206D01*
X1406Y2206D02*
X1556Y2206D01*
X2588Y2206D02*
X2739Y2206D01*
X3770Y2206D02*
X3916Y2206D01*
X4949Y2206D02*
X5099Y2206D01*
X6131Y2206D02*
X6281Y2206D01*
X227Y2205D02*
X377Y2205D01*
X1406Y2205D02*
X1556Y2205D01*
X2589Y2205D02*
X2739Y2205D01*
X3770Y2205D02*
X3916Y2205D01*
X4949Y2205D02*
X5098Y2205D01*
X6131Y2205D02*
X6281Y2205D01*
X227Y2204D02*
X377Y2204D01*
X1406Y2204D02*
X1555Y2204D01*
X2589Y2204D02*
X2739Y2204D01*
X3770Y2204D02*
X3915Y2204D01*
X4949Y2204D02*
X5098Y2204D01*
X6132Y2204D02*
X6280Y2204D01*
X227Y2203D02*
X377Y2203D01*
X1407Y2203D02*
X1555Y2203D01*
X2589Y2203D02*
X2739Y2203D01*
X3771Y2203D02*
X3915Y2203D01*
X4949Y2203D02*
X5098Y2203D01*
X6132Y2203D02*
X6280Y2203D01*
X228Y2202D02*
X376Y2202D01*
X1407Y2202D02*
X1555Y2202D01*
X2589Y2202D02*
X2738Y2202D01*
X3771Y2202D02*
X3915Y2202D01*
X4950Y2202D02*
X5098Y2202D01*
X6132Y2202D02*
X6280Y2202D01*
X228Y2201D02*
X376Y2201D01*
X1407Y2201D02*
X1554Y2201D01*
X2590Y2201D02*
X2738Y2201D01*
X3772Y2201D02*
X3914Y2201D01*
X4950Y2201D02*
X5097Y2201D01*
X6133Y2201D02*
X6279Y2201D01*
X228Y2200D02*
X376Y2200D01*
X1408Y2200D02*
X1554Y2200D01*
X2590Y2200D02*
X2738Y2200D01*
X3772Y2200D02*
X3914Y2200D01*
X4950Y2200D02*
X5097Y2200D01*
X6133Y2200D02*
X6279Y2200D01*
X229Y2199D02*
X375Y2199D01*
X1408Y2199D02*
X1554Y2199D01*
X2590Y2199D02*
X2737Y2199D01*
X3773Y2199D02*
X3913Y2199D01*
X4951Y2199D02*
X5096Y2199D01*
X6133Y2199D02*
X6279Y2199D01*
X229Y2198D02*
X375Y2198D01*
X1408Y2198D02*
X1553Y2198D01*
X2591Y2198D02*
X2737Y2198D01*
X3773Y2198D02*
X3913Y2198D01*
X4951Y2198D02*
X5096Y2198D01*
X6134Y2198D02*
X6278Y2198D01*
X229Y2197D02*
X375Y2197D01*
X1409Y2197D02*
X1553Y2197D01*
X2591Y2197D02*
X2737Y2197D01*
X3774Y2197D02*
X3912Y2197D01*
X4951Y2197D02*
X5096Y2197D01*
X6134Y2197D02*
X6278Y2197D01*
X230Y2196D02*
X374Y2196D01*
X1409Y2196D02*
X1552Y2196D01*
X2591Y2196D02*
X2736Y2196D01*
X3774Y2196D02*
X3912Y2196D01*
X4952Y2196D02*
X5095Y2196D01*
X6134Y2196D02*
X6278Y2196D01*
X230Y2195D02*
X374Y2195D01*
X1410Y2195D02*
X1552Y2195D01*
X2592Y2195D02*
X2736Y2195D01*
X3775Y2195D02*
X3911Y2195D01*
X4952Y2195D02*
X5095Y2195D01*
X6135Y2195D02*
X6277Y2195D01*
X231Y2194D02*
X374Y2194D01*
X1410Y2194D02*
X1551Y2194D01*
X2592Y2194D02*
X2736Y2194D01*
X3775Y2194D02*
X3910Y2194D01*
X4953Y2194D02*
X5094Y2194D01*
X6135Y2194D02*
X6277Y2194D01*
X231Y2193D02*
X373Y2193D01*
X1411Y2193D02*
X1551Y2193D01*
X2593Y2193D02*
X2735Y2193D01*
X3776Y2193D02*
X3910Y2193D01*
X4953Y2193D02*
X5094Y2193D01*
X6136Y2193D02*
X6276Y2193D01*
X232Y2192D02*
X373Y2192D01*
X1411Y2192D02*
X1550Y2192D01*
X2593Y2192D02*
X2735Y2192D01*
X3776Y2192D02*
X3909Y2192D01*
X4954Y2192D02*
X5093Y2192D01*
X6136Y2192D02*
X6276Y2192D01*
X232Y2191D02*
X372Y2191D01*
X1412Y2191D02*
X1550Y2191D01*
X2594Y2191D02*
X2734Y2191D01*
X3777Y2191D02*
X3909Y2191D01*
X4954Y2191D02*
X5093Y2191D01*
X6137Y2191D02*
X6275Y2191D01*
X232Y2190D02*
X372Y2190D01*
X1412Y2190D02*
X1549Y2190D01*
X2594Y2190D02*
X2734Y2190D01*
X3778Y2190D02*
X3908Y2190D01*
X4955Y2190D02*
X5092Y2190D01*
X6137Y2190D02*
X6275Y2190D01*
X233Y2189D02*
X371Y2189D01*
X1413Y2189D02*
X1549Y2189D01*
X2595Y2189D02*
X2733Y2189D01*
X3778Y2189D02*
X3907Y2189D01*
X4955Y2189D02*
X5092Y2189D01*
X6138Y2189D02*
X6274Y2189D01*
X233Y2188D02*
X371Y2188D01*
X1413Y2188D02*
X1548Y2188D01*
X2595Y2188D02*
X2733Y2188D01*
X3779Y2188D02*
X3907Y2188D01*
X4956Y2188D02*
X5091Y2188D01*
X6139Y2188D02*
X6273Y2188D01*
X234Y2187D02*
X370Y2187D01*
X1414Y2187D02*
X1548Y2187D01*
X2596Y2187D02*
X2732Y2187D01*
X3780Y2187D02*
X3906Y2187D01*
X4957Y2187D02*
X5091Y2187D01*
X6139Y2187D02*
X6273Y2187D01*
X235Y2186D02*
X369Y2186D01*
X1415Y2186D02*
X1547Y2186D01*
X2596Y2186D02*
X2731Y2186D01*
X3781Y2186D02*
X3905Y2186D01*
X4957Y2186D02*
X5090Y2186D01*
X6140Y2186D02*
X6272Y2186D01*
X235Y2185D02*
X369Y2185D01*
X1415Y2185D02*
X1546Y2185D01*
X2597Y2185D02*
X2731Y2185D01*
X3781Y2185D02*
X3904Y2185D01*
X4958Y2185D02*
X5089Y2185D01*
X6140Y2185D02*
X6272Y2185D01*
X236Y2184D02*
X368Y2184D01*
X1416Y2184D02*
X1546Y2184D01*
X2597Y2184D02*
X2730Y2184D01*
X3782Y2184D02*
X3904Y2184D01*
X4958Y2184D02*
X5089Y2184D01*
X6141Y2184D02*
X6271Y2184D01*
X237Y2183D02*
X368Y2183D01*
X1416Y2183D02*
X1545Y2183D01*
X2598Y2183D02*
X2730Y2183D01*
X3783Y2183D02*
X3903Y2183D01*
X4959Y2183D02*
X5088Y2183D01*
X6142Y2183D02*
X6270Y2183D01*
X237Y2182D02*
X367Y2182D01*
X1417Y2182D02*
X1544Y2182D01*
X2599Y2182D02*
X2729Y2182D01*
X3784Y2182D02*
X3902Y2182D01*
X4960Y2182D02*
X5087Y2182D01*
X6142Y2182D02*
X6270Y2182D01*
X238Y2181D02*
X366Y2181D01*
X1418Y2181D02*
X1544Y2181D01*
X2599Y2181D02*
X2728Y2181D01*
X3785Y2181D02*
X3901Y2181D01*
X4960Y2181D02*
X5087Y2181D01*
X6143Y2181D02*
X6269Y2181D01*
X239Y2180D02*
X366Y2180D01*
X1419Y2180D02*
X1543Y2180D01*
X2600Y2180D02*
X2728Y2180D01*
X3785Y2180D02*
X3900Y2180D01*
X4961Y2180D02*
X5086Y2180D01*
X6144Y2180D02*
X6268Y2180D01*
X239Y2179D02*
X365Y2179D01*
X1419Y2179D02*
X1542Y2179D01*
X2601Y2179D02*
X2727Y2179D01*
X3786Y2179D02*
X3899Y2179D01*
X4962Y2179D02*
X5085Y2179D01*
X6145Y2179D02*
X6267Y2179D01*
X240Y2178D02*
X364Y2178D01*
X1420Y2178D02*
X1541Y2178D01*
X2602Y2178D02*
X2726Y2178D01*
X3787Y2178D02*
X3899Y2178D01*
X4963Y2178D02*
X5084Y2178D01*
X6145Y2178D02*
X6267Y2178D01*
X241Y2177D02*
X363Y2177D01*
X1421Y2177D02*
X1541Y2177D01*
X2602Y2177D02*
X2725Y2177D01*
X3788Y2177D02*
X3898Y2177D01*
X4963Y2177D02*
X5084Y2177D01*
X6146Y2177D02*
X6266Y2177D01*
X241Y2176D02*
X363Y2176D01*
X1422Y2176D02*
X1540Y2176D01*
X2603Y2176D02*
X2725Y2176D01*
X3789Y2176D02*
X3896Y2176D01*
X4964Y2176D02*
X5083Y2176D01*
X6147Y2176D02*
X6265Y2176D01*
X242Y2175D02*
X362Y2175D01*
X1423Y2175D02*
X1539Y2175D01*
X2604Y2175D02*
X2724Y2175D01*
X3790Y2175D02*
X3895Y2175D01*
X4965Y2175D02*
X5082Y2175D01*
X6148Y2175D02*
X6264Y2175D01*
X243Y2174D02*
X361Y2174D01*
X1424Y2174D02*
X1538Y2174D01*
X2605Y2174D02*
X2723Y2174D01*
X3792Y2174D02*
X3894Y2174D01*
X4966Y2174D02*
X5081Y2174D01*
X6149Y2174D02*
X6263Y2174D01*
X244Y2173D02*
X360Y2173D01*
X1424Y2173D02*
X1537Y2173D01*
X2606Y2173D02*
X2722Y2173D01*
X3793Y2173D02*
X3893Y2173D01*
X4967Y2173D02*
X5080Y2173D01*
X6150Y2173D02*
X6262Y2173D01*
X245Y2172D02*
X359Y2172D01*
X1425Y2172D02*
X1536Y2172D01*
X2606Y2172D02*
X2721Y2172D01*
X3794Y2172D02*
X3892Y2172D01*
X4968Y2172D02*
X5079Y2172D01*
X6151Y2172D02*
X6261Y2172D01*
X246Y2171D02*
X358Y2171D01*
X1426Y2171D02*
X1535Y2171D01*
X2607Y2171D02*
X2720Y2171D01*
X3795Y2171D02*
X3891Y2171D01*
X4969Y2171D02*
X5078Y2171D01*
X6152Y2171D02*
X6260Y2171D01*
X247Y2170D02*
X357Y2170D01*
X1427Y2170D02*
X1534Y2170D01*
X2608Y2170D02*
X2719Y2170D01*
X3797Y2170D02*
X3889Y2170D01*
X4970Y2170D02*
X5077Y2170D01*
X6153Y2170D02*
X6259Y2170D01*
X248Y2169D02*
X356Y2169D01*
X1429Y2169D02*
X1533Y2169D01*
X2609Y2169D02*
X2718Y2169D01*
X3798Y2169D02*
X3888Y2169D01*
X4971Y2169D02*
X5076Y2169D01*
X6154Y2169D02*
X6258Y2169D01*
X249Y2168D02*
X355Y2168D01*
X1430Y2168D02*
X1532Y2168D01*
X2610Y2168D02*
X2717Y2168D01*
X3799Y2168D02*
X3886Y2168D01*
X4972Y2168D02*
X5075Y2168D01*
X6155Y2168D02*
X6257Y2168D01*
X250Y2167D02*
X354Y2167D01*
X1431Y2167D02*
X1531Y2167D01*
X2611Y2167D02*
X2716Y2167D01*
X3801Y2167D02*
X3885Y2167D01*
X4973Y2167D02*
X5074Y2167D01*
X6156Y2167D02*
X6256Y2167D01*
X251Y2166D02*
X353Y2166D01*
X1432Y2166D02*
X1529Y2166D01*
X2613Y2166D02*
X2715Y2166D01*
X3802Y2166D02*
X3883Y2166D01*
X4974Y2166D02*
X5073Y2166D01*
X6157Y2166D02*
X6255Y2166D01*
X252Y2165D02*
X352Y2165D01*
X1433Y2165D02*
X1528Y2165D01*
X2614Y2165D02*
X2714Y2165D01*
X3804Y2165D02*
X3882Y2165D01*
X4976Y2165D02*
X5071Y2165D01*
X6159Y2165D02*
X6253Y2165D01*
X254Y2164D02*
X351Y2164D01*
X1435Y2164D02*
X1527Y2164D01*
X2615Y2164D02*
X2713Y2164D01*
X3806Y2164D02*
X3880Y2164D01*
X4977Y2164D02*
X5070Y2164D01*
X6160Y2164D02*
X6252Y2164D01*
X255Y2163D02*
X349Y2163D01*
X1436Y2163D02*
X1525Y2163D01*
X2616Y2163D02*
X2711Y2163D01*
X3808Y2163D02*
X3878Y2163D01*
X4978Y2163D02*
X5069Y2163D01*
X6161Y2163D02*
X6251Y2163D01*
X256Y2162D02*
X348Y2162D01*
X1438Y2162D02*
X1524Y2162D01*
X2618Y2162D02*
X2710Y2162D01*
X3810Y2162D02*
X3876Y2162D01*
X4980Y2162D02*
X5067Y2162D01*
X6163Y2162D02*
X6249Y2162D01*
X258Y2161D02*
X347Y2161D01*
X1439Y2161D02*
X1522Y2161D01*
X2619Y2161D02*
X2709Y2161D01*
X3812Y2161D02*
X3874Y2161D01*
X4981Y2161D02*
X5066Y2161D01*
X6164Y2161D02*
X6248Y2161D01*
X259Y2160D02*
X345Y2160D01*
X1441Y2160D02*
X1521Y2160D01*
X2620Y2160D02*
X2707Y2160D01*
X3814Y2160D02*
X3872Y2160D01*
X4983Y2160D02*
X5064Y2160D01*
X6166Y2160D02*
X6246Y2160D01*
X261Y2159D02*
X344Y2159D01*
X1442Y2159D02*
X1519Y2159D01*
X2622Y2159D02*
X2706Y2159D01*
X3817Y2159D02*
X3869Y2159D01*
X4985Y2159D02*
X5063Y2159D01*
X6168Y2159D02*
X6244Y2159D01*
X262Y2158D02*
X342Y2158D01*
X1444Y2158D02*
X1518Y2158D01*
X2623Y2158D02*
X2704Y2158D01*
X3820Y2158D02*
X3866Y2158D01*
X4986Y2158D02*
X5061Y2158D01*
X6169Y2158D02*
X6243Y2158D01*
X264Y2157D02*
X340Y2157D01*
X1446Y2157D02*
X1516Y2157D01*
X2625Y2157D02*
X2703Y2157D01*
X3824Y2157D02*
X3862Y2157D01*
X4988Y2157D02*
X5059Y2157D01*
X6171Y2157D02*
X6241Y2157D01*
X266Y2156D02*
X339Y2156D01*
X1448Y2156D02*
X1513Y2156D01*
X2627Y2156D02*
X2701Y2156D01*
X3828Y2156D02*
X3858Y2156D01*
X4990Y2156D02*
X5057Y2156D01*
X6173Y2156D02*
X6239Y2156D01*
X268Y2155D02*
X337Y2155D01*
X1450Y2155D02*
X1511Y2155D01*
X2629Y2155D02*
X2699Y2155D01*
X3834Y2155D02*
X3852Y2155D01*
X4992Y2155D02*
X5055Y2155D01*
X6175Y2155D02*
X6237Y2155D01*
X270Y2154D02*
X334Y2154D01*
X1453Y2154D02*
X1509Y2154D01*
X2631Y2154D02*
X2697Y2154D01*
X4995Y2154D02*
X5053Y2154D01*
X6178Y2154D02*
X6234Y2154D01*
X272Y2153D02*
X332Y2153D01*
X1456Y2153D02*
X1506Y2153D01*
X2633Y2153D02*
X2695Y2153D01*
X4997Y2153D02*
X5050Y2153D01*
X6181Y2153D02*
X6231Y2153D01*
X274Y2152D02*
X330Y2152D01*
X1458Y2152D02*
X1503Y2152D01*
X2635Y2152D02*
X2692Y2152D01*
X5000Y2152D02*
X5047Y2152D01*
X6184Y2152D02*
X6228Y2152D01*
X277Y2151D02*
X327Y2151D01*
X1462Y2151D02*
X1499Y2151D01*
X2638Y2151D02*
X2690Y2151D01*
X5004Y2151D02*
X5043Y2151D01*
X6188Y2151D02*
X6224Y2151D01*
X280Y2150D02*
X324Y2150D01*
X1467Y2150D02*
X1495Y2150D01*
X2641Y2150D02*
X2687Y2150D01*
X5008Y2150D02*
X5039Y2150D01*
X6192Y2150D02*
X6220Y2150D01*
X284Y2149D02*
X320Y2149D01*
X1473Y2149D02*
X1488Y2149D01*
X2645Y2149D02*
X2683Y2149D01*
X5014Y2149D02*
X5033Y2149D01*
X6199Y2149D02*
X6213Y2149D01*
X289Y2148D02*
X315Y2148D01*
X2649Y2148D02*
X2679Y2148D01*
X296Y2147D02*
X308Y2147D01*
X2655Y2147D02*
X2673Y2147D01*
D02*
G04 End of Mask0*
M02*