; NON-PLATED HOLES START AT T1
; THROUGH (PLATED) HOLES START AT T100
M48
INCH
T1C0.084000
T2C0.044000
T100C0.088356
T101C0.035000
T102C0.041333
T103C0.031497
T104C0.091430
T105C0.090551
T106C0.137795
T107C0.041361
T108C0.038000
%
T1
X007060Y031288
X062757Y031307
X066104Y031307
X030679Y031285
X027333Y031285
X003714Y031288
X039124Y031337
X050932Y031303
X018848Y031307
X054278Y031303
X042471Y031337
X015502Y031307
T2
X006479Y026648
X006479Y019648
X018267Y026667
X021267Y026667
X018267Y019667
X041889Y022696
X009479Y024648
X065522Y026667
X021267Y019667
X033098Y022700
X056697Y026663
X065522Y019667
X056697Y019663
X068522Y024667
X030098Y022700
X044889Y024696
X053697Y026663
X053697Y019663
X041889Y024696
X009479Y026648
X033098Y024700
X009479Y019648
X006479Y022648
X068522Y026667
X018267Y022667
X068522Y019667
X021267Y022667
X030098Y024700
X044889Y026696
X065522Y022667
X056697Y022663
X044889Y019697
X041889Y026696
X033098Y026700
X053697Y022663
X041889Y019697
X033098Y019700
X006479Y024648
X018267Y024667
X021267Y024667
X030098Y026700
X009479Y022648
X065522Y024667
X030098Y019700
X056697Y024663
X068522Y022667
X044889Y022696
X053697Y024663
T100
X019120Y004289
X066416Y004232
X062533Y004232
X030904Y004269
X038832Y004232
X042715Y004232
X054526Y004232
X015237Y004289
X050643Y004232
X007334Y004241
X003451Y004241
X027021Y004269
T101
X006726Y014864
X006726Y011864
X017713Y002313
X048194Y019352
X018627Y014830
X057851Y021307
X041270Y003956
X005661Y002335
X018627Y011830
X029459Y004104
X005717Y004079
X053081Y003961
X010689Y021246
X017078Y021364
X030350Y014830
X065765Y014857
X059972Y019186
X030350Y011830
X065765Y011857
X028862Y020579
X028862Y018808
X034189Y018419
X067189Y017191
X070189Y017191
X022308Y019854
X029459Y002304
X046073Y021474
X017713Y004113
X022308Y016854
X026303Y020579
X026303Y018808
X041270Y002156
X042349Y014857
X054071Y014857
X010689Y018246
X053081Y002161
X017078Y018364
X034189Y021419
X042349Y011857
X054071Y011857
T102
X004393Y001289
X028963Y001316
X027963Y001316
X017179Y001336
X016179Y001336
X064475Y001279
X063475Y001279
X040774Y001279
X039774Y001279
X052585Y001279
X051585Y001279
X005393Y001289
T103
X040071Y016614
X034183Y022697
X035168Y022697
X051682Y015630
X004782Y015691
X023668Y022641
X070501Y022580
X028183Y015602
X028183Y016586
X057906Y022691
X023342Y015678
X022683Y022641
X040071Y015630
X022357Y015678
X011557Y022635
X063487Y016614
X046017Y022746
X069517Y022580
X016461Y015602
X016461Y016586
X047001Y022746
X010572Y022635
X051682Y016614
X058890Y022691
X004782Y016675
X063487Y015630
T104
X026645Y022243
X003025Y022246
X062069Y022265
X026645Y025942
X038436Y024172
X050244Y022262
X062069Y024115
X003025Y025945
X062069Y025964
X014813Y022265
X050244Y024111
X038436Y026022
X026645Y024092
X050244Y025960
X014813Y024115
X003025Y024096
X014813Y025964
X038436Y022323
T105
X030503Y028477
X018672Y028499
X003880Y028481
X062924Y028499
X064430Y030006
X005387Y029987
X006883Y028481
X065927Y028499
X052605Y030003
X027499Y028477
X039291Y028529
X042294Y028529
X054102Y028496
X029006Y029984
X040797Y030036
X015668Y028499
X017175Y030006
X051099Y028496
T106
X023350Y024706
X001577Y030420
X047398Y010769
X001560Y001610
X047398Y024706
X023350Y010769
X069608Y030531
X069634Y001615
T107
X018179Y001336
X065475Y001279
X041774Y001279
X053585Y001279
X006393Y001289
X029963Y001316
T108
X052855Y011891
X064605Y012891
X027022Y011864
X044238Y008879
X038910Y013891
X062271Y013891
X023396Y019375
X038238Y008879
X041244Y013891
X041238Y008879
X037238Y008879
X015245Y011864
X050521Y013891
X040238Y008879
X005615Y011864
X017578Y011864
X023396Y020375
X029356Y012864
X034238Y008879
X052855Y013891
X027022Y013864
X003282Y012864
X028238Y008879
X064605Y011891
X038910Y012891
X031238Y008879
X062271Y012891
X030238Y008879
X046238Y008879
X015245Y013864
X023396Y018375
X045238Y008879
X041244Y012891
X005615Y013864
X017578Y013864
X050521Y012891
X043238Y008879
X039238Y008879
X042238Y008879
X029356Y011864
X052855Y012891
X064605Y013891
X027022Y012864
X003282Y011864
X036238Y008879
X035238Y008879
X038910Y011891
X062271Y011891
X015245Y012864
X033238Y008879
X023396Y017375
X029238Y008879
X041244Y011891
X032238Y008879
X005615Y012864
X017578Y012864
X050521Y011891
X047238Y008879
X029356Y013864
X003282Y013864
T00
M30
